<?xml version="1.0" encoding="utf-8" standalone="no"?>
<!DOCTYPE svg PUBLIC "-//W3C//DTD SVG 1.1//EN"
  "http://www.w3.org/Graphics/SVG/1.1/DTD/svg11.dtd">
<svg height="288pt" version="1.1" viewBox="0 0 432 288" width="432pt" xmlns="http://www.w3.org/2000/svg" xmlns:xlink="http://www.w3.org/1999/xlink">
 <metadata>
  <rdf:RDF xmlns:cc="http://creativecommons.org/ns#" xmlns:dc="http://purl.org/dc/elements/1.1/" xmlns:rdf="http://www.w3.org/1999/02/22-rdf-syntax-ns#">
   <cc:Work>
    <dc:type rdf:resource="http://purl.org/dc/dcmitype/StillImage"/>
    <dc:date>2022-03-07T23:19:29.464358</dc:date>
    <dc:format>image/svg+xml</dc:format>
    <dc:creator>
     <cc:Agent>
      <dc:title>Matplotlib v3.4.3, https://matplotlib.org/</dc:title>
     </cc:Agent>
    </dc:creator>
   </cc:Work>
  </rdf:RDF>
 </metadata>
 <defs>
  <style type="text/css">*{stroke-linecap:butt;stroke-linejoin:round;}</style>
 </defs>
 <g id="figure_1">
  <g id="patch_1">
   <path d="M 0 288 
L 432 288 
L 432 0 
L 0 0 
z
" style="fill:#ffffff;"/>
  </g>
  <g id="axes_1">
   <g id="patch_2">
    <path d="M 54 252 
L 388.8 252 
L 388.8 34.56 
L 54 34.56 
z
" style="fill:#ffffff;"/>
   </g>
   <g id="matplotlib.axis_1">
    <g id="xtick_1">
     <g id="line2d_1">
      <path clip-path="url(#p5cb06ee87e)" d="M 69.218182 252 
L 69.218182 34.56 
" style="fill:none;stroke:#cccccc;stroke-linecap:round;stroke-width:0.8;"/>
     </g>
     <g id="text_1">
      <!-- 0 -->
      <g style="fill:#262626;" transform="translate(65.325526 269.020938)scale(0.14 -0.14)">
       <defs>
        <path d="M 266 2259 
Q 266 3072 433 3567 
Q 600 4063 929 4331 
Q 1259 4600 1759 4600 
Q 2128 4600 2406 4451 
Q 2684 4303 2865 4023 
Q 3047 3744 3150 3342 
Q 3253 2941 3253 2259 
Q 3253 1453 3087 958 
Q 2922 463 2592 192 
Q 2263 -78 1759 -78 
Q 1097 -78 719 397 
Q 266 969 266 2259 
z
M 844 2259 
Q 844 1131 1108 757 
Q 1372 384 1759 384 
Q 2147 384 2411 759 
Q 2675 1134 2675 2259 
Q 2675 3391 2411 3762 
Q 2147 4134 1753 4134 
Q 1366 4134 1134 3806 
Q 844 3388 844 2259 
z
" id="ArialMT-30" transform="scale(0.015625)"/>
       </defs>
       <use xlink:href="#ArialMT-30"/>
      </g>
     </g>
    </g>
    <g id="xtick_2">
     <g id="line2d_2">
      <path clip-path="url(#p5cb06ee87e)" d="M 130.103086 252 
L 130.103086 34.56 
" style="fill:none;stroke:#cccccc;stroke-linecap:round;stroke-width:0.8;"/>
     </g>
     <g id="text_2">
      <!-- 1000 -->
      <g style="fill:#262626;" transform="translate(114.532461 269.020938)scale(0.14 -0.14)">
       <defs>
        <path d="M 2384 0 
L 1822 0 
L 1822 3584 
Q 1619 3391 1289 3197 
Q 959 3003 697 2906 
L 697 3450 
Q 1169 3672 1522 3987 
Q 1875 4303 2022 4600 
L 2384 4600 
L 2384 0 
z
" id="ArialMT-31" transform="scale(0.015625)"/>
       </defs>
       <use xlink:href="#ArialMT-31"/>
       <use x="55.615234" xlink:href="#ArialMT-30"/>
       <use x="111.230469" xlink:href="#ArialMT-30"/>
       <use x="166.845703" xlink:href="#ArialMT-30"/>
      </g>
     </g>
    </g>
    <g id="xtick_3">
     <g id="line2d_3">
      <path clip-path="url(#p5cb06ee87e)" d="M 190.98799 252 
L 190.98799 34.56 
" style="fill:none;stroke:#cccccc;stroke-linecap:round;stroke-width:0.8;"/>
     </g>
     <g id="text_3">
      <!-- 2000 -->
      <g style="fill:#262626;" transform="translate(175.417365 269.020938)scale(0.14 -0.14)">
       <defs>
        <path d="M 3222 541 
L 3222 0 
L 194 0 
Q 188 203 259 391 
Q 375 700 629 1000 
Q 884 1300 1366 1694 
Q 2113 2306 2375 2664 
Q 2638 3022 2638 3341 
Q 2638 3675 2398 3904 
Q 2159 4134 1775 4134 
Q 1369 4134 1125 3890 
Q 881 3647 878 3216 
L 300 3275 
Q 359 3922 746 4261 
Q 1134 4600 1788 4600 
Q 2447 4600 2831 4234 
Q 3216 3869 3216 3328 
Q 3216 3053 3103 2787 
Q 2991 2522 2730 2228 
Q 2469 1934 1863 1422 
Q 1356 997 1212 845 
Q 1069 694 975 541 
L 3222 541 
z
" id="ArialMT-32" transform="scale(0.015625)"/>
       </defs>
       <use xlink:href="#ArialMT-32"/>
       <use x="55.615234" xlink:href="#ArialMT-30"/>
       <use x="111.230469" xlink:href="#ArialMT-30"/>
       <use x="166.845703" xlink:href="#ArialMT-30"/>
      </g>
     </g>
    </g>
    <g id="xtick_4">
     <g id="line2d_4">
      <path clip-path="url(#p5cb06ee87e)" d="M 251.872895 252 
L 251.872895 34.56 
" style="fill:none;stroke:#cccccc;stroke-linecap:round;stroke-width:0.8;"/>
     </g>
     <g id="text_4">
      <!-- 3000 -->
      <g style="fill:#262626;" transform="translate(236.30227 269.020938)scale(0.14 -0.14)">
       <defs>
        <path d="M 269 1209 
L 831 1284 
Q 928 806 1161 595 
Q 1394 384 1728 384 
Q 2125 384 2398 659 
Q 2672 934 2672 1341 
Q 2672 1728 2419 1979 
Q 2166 2231 1775 2231 
Q 1616 2231 1378 2169 
L 1441 2663 
Q 1497 2656 1531 2656 
Q 1891 2656 2178 2843 
Q 2466 3031 2466 3422 
Q 2466 3731 2256 3934 
Q 2047 4138 1716 4138 
Q 1388 4138 1169 3931 
Q 950 3725 888 3313 
L 325 3413 
Q 428 3978 793 4289 
Q 1159 4600 1703 4600 
Q 2078 4600 2393 4439 
Q 2709 4278 2876 4000 
Q 3044 3722 3044 3409 
Q 3044 3113 2884 2869 
Q 2725 2625 2413 2481 
Q 2819 2388 3044 2092 
Q 3269 1797 3269 1353 
Q 3269 753 2831 336 
Q 2394 -81 1725 -81 
Q 1122 -81 723 278 
Q 325 638 269 1209 
z
" id="ArialMT-33" transform="scale(0.015625)"/>
       </defs>
       <use xlink:href="#ArialMT-33"/>
       <use x="55.615234" xlink:href="#ArialMT-30"/>
       <use x="111.230469" xlink:href="#ArialMT-30"/>
       <use x="166.845703" xlink:href="#ArialMT-30"/>
      </g>
     </g>
    </g>
    <g id="xtick_5">
     <g id="line2d_5">
      <path clip-path="url(#p5cb06ee87e)" d="M 312.757799 252 
L 312.757799 34.56 
" style="fill:none;stroke:#cccccc;stroke-linecap:round;stroke-width:0.8;"/>
     </g>
     <g id="text_5">
      <!-- 4000 -->
      <g style="fill:#262626;" transform="translate(297.187174 269.020938)scale(0.14 -0.14)">
       <defs>
        <path d="M 2069 0 
L 2069 1097 
L 81 1097 
L 81 1613 
L 2172 4581 
L 2631 4581 
L 2631 1613 
L 3250 1613 
L 3250 1097 
L 2631 1097 
L 2631 0 
L 2069 0 
z
M 2069 1613 
L 2069 3678 
L 634 1613 
L 2069 1613 
z
" id="ArialMT-34" transform="scale(0.015625)"/>
       </defs>
       <use xlink:href="#ArialMT-34"/>
       <use x="55.615234" xlink:href="#ArialMT-30"/>
       <use x="111.230469" xlink:href="#ArialMT-30"/>
       <use x="166.845703" xlink:href="#ArialMT-30"/>
      </g>
     </g>
    </g>
    <g id="xtick_6">
     <g id="line2d_6">
      <path clip-path="url(#p5cb06ee87e)" d="M 373.642703 252 
L 373.642703 34.56 
" style="fill:none;stroke:#cccccc;stroke-linecap:round;stroke-width:0.8;"/>
     </g>
     <g id="text_6">
      <!-- 5000 -->
      <g style="fill:#262626;" transform="translate(358.072078 269.020938)scale(0.14 -0.14)">
       <defs>
        <path d="M 266 1200 
L 856 1250 
Q 922 819 1161 601 
Q 1400 384 1738 384 
Q 2144 384 2425 690 
Q 2706 997 2706 1503 
Q 2706 1984 2436 2262 
Q 2166 2541 1728 2541 
Q 1456 2541 1237 2417 
Q 1019 2294 894 2097 
L 366 2166 
L 809 4519 
L 3088 4519 
L 3088 3981 
L 1259 3981 
L 1013 2750 
Q 1425 3038 1878 3038 
Q 2478 3038 2890 2622 
Q 3303 2206 3303 1553 
Q 3303 931 2941 478 
Q 2500 -78 1738 -78 
Q 1113 -78 717 272 
Q 322 622 266 1200 
z
" id="ArialMT-35" transform="scale(0.015625)"/>
       </defs>
       <use xlink:href="#ArialMT-35"/>
       <use x="55.615234" xlink:href="#ArialMT-30"/>
       <use x="111.230469" xlink:href="#ArialMT-30"/>
       <use x="166.845703" xlink:href="#ArialMT-30"/>
      </g>
     </g>
    </g>
    <g id="text_7">
     <!-- Time -->
     <g style="fill:#262626;" transform="translate(203.92375 287.255938)scale(0.16 -0.16)">
      <defs>
       <path d="M 1659 0 
L 1659 4041 
L 150 4041 
L 150 4581 
L 3781 4581 
L 3781 4041 
L 2266 4041 
L 2266 0 
L 1659 0 
z
" id="ArialMT-54" transform="scale(0.015625)"/>
       <path d="M 425 3934 
L 425 4581 
L 988 4581 
L 988 3934 
L 425 3934 
z
M 425 0 
L 425 3319 
L 988 3319 
L 988 0 
L 425 0 
z
" id="ArialMT-69" transform="scale(0.015625)"/>
       <path d="M 422 0 
L 422 3319 
L 925 3319 
L 925 2853 
Q 1081 3097 1340 3245 
Q 1600 3394 1931 3394 
Q 2300 3394 2536 3241 
Q 2772 3088 2869 2813 
Q 3263 3394 3894 3394 
Q 4388 3394 4653 3120 
Q 4919 2847 4919 2278 
L 4919 0 
L 4359 0 
L 4359 2091 
Q 4359 2428 4304 2576 
Q 4250 2725 4106 2815 
Q 3963 2906 3769 2906 
Q 3419 2906 3187 2673 
Q 2956 2441 2956 1928 
L 2956 0 
L 2394 0 
L 2394 2156 
Q 2394 2531 2256 2718 
Q 2119 2906 1806 2906 
Q 1569 2906 1367 2781 
Q 1166 2656 1075 2415 
Q 984 2175 984 1722 
L 984 0 
L 422 0 
z
" id="ArialMT-6d" transform="scale(0.015625)"/>
       <path d="M 2694 1069 
L 3275 997 
Q 3138 488 2766 206 
Q 2394 -75 1816 -75 
Q 1088 -75 661 373 
Q 234 822 234 1631 
Q 234 2469 665 2931 
Q 1097 3394 1784 3394 
Q 2450 3394 2872 2941 
Q 3294 2488 3294 1666 
Q 3294 1616 3291 1516 
L 816 1516 
Q 847 969 1125 678 
Q 1403 388 1819 388 
Q 2128 388 2347 550 
Q 2566 713 2694 1069 
z
M 847 1978 
L 2700 1978 
Q 2663 2397 2488 2606 
Q 2219 2931 1791 2931 
Q 1403 2931 1139 2672 
Q 875 2413 847 1978 
z
" id="ArialMT-65" transform="scale(0.015625)"/>
      </defs>
      <use xlink:href="#ArialMT-54"/>
      <use x="57.333984" xlink:href="#ArialMT-69"/>
      <use x="79.550781" xlink:href="#ArialMT-6d"/>
      <use x="162.851562" xlink:href="#ArialMT-65"/>
     </g>
    </g>
   </g>
   <g id="matplotlib.axis_2">
    <g id="ytick_1">
     <g id="line2d_7">
      <path clip-path="url(#p5cb06ee87e)" d="M 54 228.113644 
L 388.8 228.113644 
" style="fill:none;stroke:#cccccc;stroke-linecap:round;stroke-width:0.8;"/>
     </g>
     <g id="text_8">
      <!-- −0.3 -->
      <g style="fill:#262626;" transform="translate(19.363125 233.124113)scale(0.14 -0.14)">
       <defs>
        <path d="M 3381 1997 
L 356 1997 
L 356 2522 
L 3381 2522 
L 3381 1997 
z
" id="ArialMT-2212" transform="scale(0.015625)"/>
        <path d="M 581 0 
L 581 641 
L 1222 641 
L 1222 0 
L 581 0 
z
" id="ArialMT-2e" transform="scale(0.015625)"/>
       </defs>
       <use xlink:href="#ArialMT-2212"/>
       <use x="58.398438" xlink:href="#ArialMT-30"/>
       <use x="114.013672" xlink:href="#ArialMT-2e"/>
       <use x="141.796875" xlink:href="#ArialMT-33"/>
      </g>
     </g>
    </g>
    <g id="ytick_2">
     <g id="line2d_8">
      <path clip-path="url(#p5cb06ee87e)" d="M 54 194.750318 
L 388.8 194.750318 
" style="fill:none;stroke:#cccccc;stroke-linecap:round;stroke-width:0.8;"/>
     </g>
     <g id="text_9">
      <!-- −0.2 -->
      <g style="fill:#262626;" transform="translate(19.363125 199.760787)scale(0.14 -0.14)">
       <use xlink:href="#ArialMT-2212"/>
       <use x="58.398438" xlink:href="#ArialMT-30"/>
       <use x="114.013672" xlink:href="#ArialMT-2e"/>
       <use x="141.796875" xlink:href="#ArialMT-32"/>
      </g>
     </g>
    </g>
    <g id="ytick_3">
     <g id="line2d_9">
      <path clip-path="url(#p5cb06ee87e)" d="M 54 161.386993 
L 388.8 161.386993 
" style="fill:none;stroke:#cccccc;stroke-linecap:round;stroke-width:0.8;"/>
     </g>
     <g id="text_10">
      <!-- −0.1 -->
      <g style="fill:#262626;" transform="translate(19.363125 166.397461)scale(0.14 -0.14)">
       <use xlink:href="#ArialMT-2212"/>
       <use x="58.398438" xlink:href="#ArialMT-30"/>
       <use x="114.013672" xlink:href="#ArialMT-2e"/>
       <use x="141.796875" xlink:href="#ArialMT-31"/>
      </g>
     </g>
    </g>
    <g id="ytick_4">
     <g id="line2d_10">
      <path clip-path="url(#p5cb06ee87e)" d="M 54 128.023667 
L 388.8 128.023667 
" style="fill:none;stroke:#cccccc;stroke-linecap:round;stroke-width:0.8;"/>
     </g>
     <g id="text_11">
      <!-- 0.0 -->
      <g style="fill:#262626;" transform="translate(27.54 133.034136)scale(0.14 -0.14)">
       <use xlink:href="#ArialMT-30"/>
       <use x="55.615234" xlink:href="#ArialMT-2e"/>
       <use x="83.398438" xlink:href="#ArialMT-30"/>
      </g>
     </g>
    </g>
    <g id="ytick_5">
     <g id="line2d_11">
      <path clip-path="url(#p5cb06ee87e)" d="M 54 94.660341 
L 388.8 94.660341 
" style="fill:none;stroke:#cccccc;stroke-linecap:round;stroke-width:0.8;"/>
     </g>
     <g id="text_12">
      <!-- 0.1 -->
      <g style="fill:#262626;" transform="translate(27.54 99.67081)scale(0.14 -0.14)">
       <use xlink:href="#ArialMT-30"/>
       <use x="55.615234" xlink:href="#ArialMT-2e"/>
       <use x="83.398438" xlink:href="#ArialMT-31"/>
      </g>
     </g>
    </g>
    <g id="ytick_6">
     <g id="line2d_12">
      <path clip-path="url(#p5cb06ee87e)" d="M 54 61.297016 
L 388.8 61.297016 
" style="fill:none;stroke:#cccccc;stroke-linecap:round;stroke-width:0.8;"/>
     </g>
     <g id="text_13">
      <!-- 0.2 -->
      <g style="fill:#262626;" transform="translate(27.54 66.307484)scale(0.14 -0.14)">
       <use xlink:href="#ArialMT-30"/>
       <use x="55.615234" xlink:href="#ArialMT-2e"/>
       <use x="83.398438" xlink:href="#ArialMT-32"/>
      </g>
     </g>
    </g>
    <g id="text_14">
     <!-- Noise -->
     <g style="fill:#262626;" transform="translate(12.183125 163.7325)rotate(-90)scale(0.16 -0.16)">
      <defs>
       <path d="M 488 0 
L 488 4581 
L 1109 4581 
L 3516 984 
L 3516 4581 
L 4097 4581 
L 4097 0 
L 3475 0 
L 1069 3600 
L 1069 0 
L 488 0 
z
" id="ArialMT-4e" transform="scale(0.015625)"/>
       <path d="M 213 1659 
Q 213 2581 725 3025 
Q 1153 3394 1769 3394 
Q 2453 3394 2887 2945 
Q 3322 2497 3322 1706 
Q 3322 1066 3130 698 
Q 2938 331 2570 128 
Q 2203 -75 1769 -75 
Q 1072 -75 642 372 
Q 213 819 213 1659 
z
M 791 1659 
Q 791 1022 1069 705 
Q 1347 388 1769 388 
Q 2188 388 2466 706 
Q 2744 1025 2744 1678 
Q 2744 2294 2464 2611 
Q 2184 2928 1769 2928 
Q 1347 2928 1069 2612 
Q 791 2297 791 1659 
z
" id="ArialMT-6f" transform="scale(0.015625)"/>
       <path d="M 197 991 
L 753 1078 
Q 800 744 1014 566 
Q 1228 388 1613 388 
Q 2000 388 2187 545 
Q 2375 703 2375 916 
Q 2375 1106 2209 1216 
Q 2094 1291 1634 1406 
Q 1016 1563 777 1677 
Q 538 1791 414 1992 
Q 291 2194 291 2438 
Q 291 2659 392 2848 
Q 494 3038 669 3163 
Q 800 3259 1026 3326 
Q 1253 3394 1513 3394 
Q 1903 3394 2198 3281 
Q 2494 3169 2634 2976 
Q 2775 2784 2828 2463 
L 2278 2388 
Q 2241 2644 2061 2787 
Q 1881 2931 1553 2931 
Q 1166 2931 1000 2803 
Q 834 2675 834 2503 
Q 834 2394 903 2306 
Q 972 2216 1119 2156 
Q 1203 2125 1616 2013 
Q 2213 1853 2448 1751 
Q 2684 1650 2818 1456 
Q 2953 1263 2953 975 
Q 2953 694 2789 445 
Q 2625 197 2315 61 
Q 2006 -75 1616 -75 
Q 969 -75 630 194 
Q 291 463 197 991 
z
" id="ArialMT-73" transform="scale(0.015625)"/>
      </defs>
      <use xlink:href="#ArialMT-4e"/>
      <use x="72.216797" xlink:href="#ArialMT-6f"/>
      <use x="127.832031" xlink:href="#ArialMT-69"/>
      <use x="150.048828" xlink:href="#ArialMT-73"/>
      <use x="200.048828" xlink:href="#ArialMT-65"/>
     </g>
    </g>
   </g>
   <g id="line2d_13">
    <path clip-path="url(#p5cb06ee87e)" d="M 69.218182 133.84499 
L 69.279067 132.582737 
L 69.339952 126.851685 
L 69.400837 128.613681 
L 69.461721 132.551456 
L 69.522606 129.942422 
L 69.583491 131.216447 
L 69.644376 135.673413 
L 69.705261 135.097361 
L 69.766146 134.049946 
L 69.827031 131.023519 
L 69.887916 132.275661 
L 69.948801 133.877734 
L 70.07057 122.36296 
L 70.131455 122.659224 
L 70.19234 122.230554 
L 70.253225 119.537387 
L 70.31411 121.123342 
L 70.496765 127.024691 
L 70.67942 118.224531 
L 70.740304 120.506703 
L 70.801189 121.875619 
L 70.922959 128.199075 
L 71.044729 124.195937 
L 71.105614 128.413641 
L 71.227384 122.271693 
L 71.288269 122.027284 
L 71.349153 121.163422 
L 71.410038 121.31726 
L 71.531808 123.302106 
L 71.714463 127.447678 
L 71.775348 126.219387 
L 71.897118 123.932068 
L 72.079772 129.852627 
L 72.140657 129.611141 
L 72.201542 125.69762 
L 72.262427 127.803647 
L 72.323312 126.667607 
L 72.505967 136.700911 
L 72.566852 136.922567 
L 72.627736 138.739099 
L 72.688621 138.053658 
L 72.749506 135.132094 
L 72.810391 137.208174 
L 73.175701 162.743944 
L 73.358355 157.116087 
L 73.601895 172.060133 
L 73.66278 171.427441 
L 73.845435 177.269826 
L 74.271629 166.21975 
L 74.332514 166.526552 
L 74.636938 155.351424 
L 74.819593 146.942439 
L 74.880478 146.453339 
L 74.941363 144.701657 
L 75.002248 145.994191 
L 75.063133 147.058065 
L 75.184902 141.96835 
L 75.306672 145.250375 
L 75.489327 136.192647 
L 75.550212 133.78736 
L 75.793751 116.679514 
L 75.854636 115.998713 
L 76.037291 102.504323 
L 76.219946 107.090389 
L 76.280831 106.236042 
L 76.341716 102.96121 
L 76.402601 106.773124 
L 76.463485 105.577782 
L 76.52437 106.749031 
L 76.585255 110.178134 
L 76.64614 109.122216 
L 76.707025 108.034701 
L 76.76791 103.601957 
L 76.828795 106.46564 
L 77.01145 122.469016 
L 77.072334 122.010755 
L 77.133219 123.122465 
L 77.315874 111.454 
L 77.437644 114.201414 
L 77.802953 126.486557 
L 77.863838 127.612383 
L 77.924723 126.505653 
L 78.046493 132.759024 
L 78.107378 131.644258 
L 78.168263 132.039855 
L 78.350917 128.205791 
L 78.411802 129.896845 
L 78.594457 123.027953 
L 78.655342 123.189281 
L 78.716227 124.40884 
L 79.081536 99.888755 
L 79.142421 103.129277 
L 79.203306 99.526619 
L 79.264191 100.836061 
L 79.325076 109.459049 
L 79.385961 107.47175 
L 79.446846 107.238181 
L 79.507731 104.842074 
L 79.75127 116.241403 
L 79.812155 114.818742 
L 79.87304 112.958097 
L 79.933925 114.241563 
L 79.99481 118.073928 
L 80.238349 103.174627 
L 80.299234 104.837118 
L 80.481889 97.991423 
L 80.542774 100.2733 
L 80.603659 106.219692 
L 80.664544 105.52475 
L 80.725429 105.7068 
L 80.908083 110.655295 
L 80.968968 109.608446 
L 81.151623 115.083469 
L 81.334278 111.050899 
L 81.456048 114.814927 
L 81.516932 110.486103 
L 81.577817 115.377877 
L 81.638702 114.992633 
L 81.699587 111.97322 
L 81.760472 114.851546 
L 81.943127 98.991165 
L 82.064897 101.10302 
L 82.186666 98.536244 
L 82.430206 105.869009 
L 82.491091 102.822087 
L 82.612861 109.830662 
L 82.673746 109.145147 
L 82.734631 109.558634 
L 82.795515 110.461253 
L 82.97817 99.992034 
L 83.039055 101.487812 
L 83.09994 109.483478 
L 83.160825 106.197789 
L 83.404365 89.246546 
L 83.465249 91.332545 
L 83.526134 91.27432 
L 83.647904 89.944657 
L 83.830559 99.985372 
L 84.074098 84.569801 
L 84.195868 90.339915 
L 84.378523 78.051722 
L 84.439408 80.619151 
L 84.622063 74.020883 
L 84.865602 84.730188 
L 84.926487 83.771098 
L 84.987372 88.390498 
L 85.048257 87.526606 
L 85.413566 72.753657 
L 85.474451 72.765345 
L 85.535336 77.704106 
L 85.596221 74.601572 
L 85.657106 74.663841 
L 85.717991 72.218755 
L 86.022415 86.823043 
L 86.0833 86.615741 
L 86.144185 82.795818 
L 86.20507 84.987556 
L 86.387725 77.111668 
L 86.44861 79.131261 
L 86.509495 79.81772 
L 86.813919 95.551257 
L 86.874804 95.072976 
L 87.057459 87.410436 
L 87.179229 76.942229 
L 87.240113 78.875339 
L 87.300998 76.387628 
L 87.422768 89.18112 
L 87.483653 86.524189 
L 87.544538 82.438692 
L 87.605423 84.681878 
L 87.666308 86.977163 
L 87.727193 85.530044 
L 87.848963 79.173666 
L 88.153387 85.483267 
L 88.336042 78.41247 
L 88.396927 80.961613 
L 88.518696 77.55936 
L 88.640466 87.205224 
L 88.701351 85.271459 
L 88.823121 88.272719 
L 88.944891 83.094103 
L 89.005776 82.957012 
L 89.066661 83.437151 
L 89.127546 82.863553 
L 89.3102 76.176597 
L 89.43197 80.54939 
L 89.492855 78.752647 
L 89.55374 85.107175 
L 89.614625 81.126428 
L 89.736395 76.621957 
L 89.797279 77.600701 
L 89.919049 85.445035 
L 89.979934 81.728173 
L 90.162589 89.932585 
L 90.223474 91.350426 
L 90.406128 88.471922 
L 90.467013 89.747831 
L 90.527898 93.416371 
L 90.588783 90.972445 
L 90.954093 105.693686 
L 91.014978 104.82127 
L 91.136747 101.722815 
L 91.502057 111.339723 
L 91.562942 108.714533 
L 91.928251 122.879657 
L 91.989136 123.038732 
L 92.050021 121.587374 
L 92.232676 127.766182 
L 92.293561 127.439586 
L 92.354445 125.459275 
L 92.5371 132.613652 
L 92.719755 141.775699 
L 92.90241 129.065039 
L 92.963294 130.762424 
L 93.024179 130.894521 
L 93.085064 129.944307 
L 93.145949 125.853541 
L 93.328604 133.986945 
L 93.389489 136.079888 
L 93.693913 120.093569 
L 93.754798 121.581523 
L 93.815683 120.914805 
L 93.937453 119.066409 
L 93.998338 115.563001 
L 94.059223 118.438429 
L 94.120108 126.593907 
L 94.180993 119.852238 
L 94.241877 121.169195 
L 94.546302 133.408838 
L 94.607187 132.645824 
L 94.850727 122.520829 
L 94.911611 123.939781 
L 94.972496 128.091928 
L 95.033381 127.630484 
L 95.094266 122.376593 
L 95.155151 127.726944 
L 95.216036 124.26682 
L 95.337806 117.01894 
L 95.52046 121.769371 
L 95.703115 116.052321 
L 95.764 114.578103 
L 95.946655 118.042082 
L 96.00754 115.185222 
L 96.311964 127.955733 
L 96.372849 126.599626 
L 96.433734 121.037362 
L 96.677274 132.637449 
L 96.738159 131.129419 
L 96.920813 125.710806 
L 97.042583 123.559935 
L 97.103468 119.185719 
L 97.286123 123.839414 
L 97.529662 102.369292 
L 97.773202 116.685116 
L 97.955857 112.216888 
L 98.016742 111.641465 
L 98.138511 113.127411 
L 98.260281 105.266067 
L 98.321166 108.424992 
L 98.442936 116.295653 
L 98.625591 110.266781 
L 98.686475 111.553209 
L 98.74736 109.473322 
L 98.808245 112.489509 
L 98.930015 104.044333 
L 98.9909 105.412564 
L 99.051785 107.744584 
L 99.11267 106.825879 
L 99.23444 103.826554 
L 99.356209 106.602199 
L 99.538864 114.354801 
L 99.599749 115.330695 
L 99.721519 112.621655 
L 99.904174 126.547751 
L 100.330368 102.244393 
L 100.391253 105.924878 
L 100.452138 104.073533 
L 100.634792 106.159211 
L 100.695677 105.264562 
L 100.817447 98.474465 
L 100.878332 100.475903 
L 100.939217 100.048237 
L 101.060987 114.676629 
L 101.121872 110.886512 
L 101.182757 112.064451 
L 101.243641 108.861229 
L 101.304526 108.942455 
L 101.365411 109.75368 
L 101.426296 105.909269 
L 101.548066 112.627566 
L 101.608951 112.481699 
L 101.669836 114.14216 
L 101.85249 130.154712 
L 102.156915 116.687992 
L 102.33957 125.990829 
L 102.46134 124.761594 
L 102.583109 118.14551 
L 102.643994 118.565406 
L 102.765764 120.953429 
L 102.887534 106.108105 
L 102.948419 107.472478 
L 103.009304 108.743975 
L 103.070189 102.476846 
L 103.131073 105.398085 
L 103.252843 104.354128 
L 103.435498 113.908466 
L 103.496383 111.199561 
L 103.557268 112.492078 
L 103.618153 114.146206 
L 103.679038 113.440766 
L 103.861692 102.942717 
L 103.922577 103.128346 
L 104.348772 117.844375 
L 104.531426 113.734079 
L 104.714081 118.630342 
L 104.774966 117.02928 
L 104.835851 117.748021 
L 104.957621 119.087613 
L 105.018506 115.079726 
L 105.07939 117.656281 
L 105.20116 121.63756 
L 105.262045 117.30551 
L 105.32293 119.576549 
L 105.505585 128.293352 
L 105.931779 117.375759 
L 105.992664 118.582156 
L 106.236204 135.695932 
L 106.297089 133.040314 
L 106.479743 139.189915 
L 106.601513 136.342562 
L 106.662398 138.393498 
L 106.784168 132.596666 
L 106.966822 140.753319 
L 107.027707 140.316386 
L 107.088592 140.414924 
L 107.210362 139.08772 
L 107.271247 139.677579 
L 107.332132 137.200279 
L 107.393017 142.990141 
L 107.453902 139.465018 
L 107.575671 132.611759 
L 107.636556 135.283694 
L 107.697441 133.501774 
L 108.184521 109.375706 
L 108.245405 109.913915 
L 108.30629 109.759751 
L 108.367175 116.440583 
L 108.42806 114.459069 
L 108.488945 114.308827 
L 108.54983 112.493916 
L 108.610715 112.748584 
L 108.6716 112.368834 
L 109.036909 128.047738 
L 109.158679 118.708258 
L 109.219564 119.134642 
L 109.341334 125.860479 
L 109.402219 125.2903 
L 109.463104 122.668678 
L 109.523988 123.057098 
L 109.645758 129.308649 
L 109.706643 126.918004 
L 109.767528 124.672697 
L 109.889298 133.011092 
L 109.950183 132.432705 
L 110.011068 131.498679 
L 110.254607 122.179446 
L 110.437262 125.91136 
L 110.498147 122.319107 
L 110.559032 122.93778 
L 110.619917 124.776409 
L 110.802571 112.819014 
L 110.863456 112.163125 
L 111.046111 121.603518 
L 111.106996 117.831496 
L 111.167881 119.312465 
L 111.228766 117.797429 
L 111.472305 131.641731 
L 111.65496 124.234314 
L 111.715845 127.697404 
L 111.8985 115.968573 
L 111.959385 116.645696 
L 112.142039 104.703958 
L 112.629119 122.28144 
L 112.994428 102.612007 
L 113.177083 100.105955 
L 113.359737 105.420141 
L 113.420622 106.053943 
L 113.481507 104.785044 
L 113.603277 96.921457 
L 113.664162 99.519205 
L 113.725047 94.884309 
L 113.785932 96.810671 
L 113.968586 108.609344 
L 114.151241 101.635253 
L 114.212126 107.255352 
L 114.273011 101.712742 
L 114.333896 105.136516 
L 114.394781 111.203363 
L 114.455666 107.038355 
L 114.577435 110.281308 
L 114.63832 117.142143 
L 114.699205 116.742143 
L 114.88186 113.560606 
L 115.064515 119.326502 
L 115.1254 118.45839 
L 115.186285 114.645227 
L 115.247169 119.340079 
L 115.429824 111.988653 
L 115.551594 115.737054 
L 115.612479 111.001343 
L 115.673364 113.079612 
L 115.734249 113.916924 
L 115.795134 113.283022 
L 115.856018 110.292955 
L 115.916903 112.875151 
L 115.977788 112.77113 
L 116.038673 111.701114 
L 116.221328 118.598728 
L 116.403983 108.798747 
L 116.525752 110.325128 
L 116.891062 124.235464 
L 117.073717 127.630396 
L 117.195486 123.409268 
L 117.378141 134.756639 
L 117.439026 133.548395 
L 117.621681 131.937563 
L 117.682566 132.848407 
L 117.926105 124.369399 
L 117.98699 125.969593 
L 118.047875 121.465019 
L 118.10876 123.40888 
L 118.169645 123.914323 
L 118.23053 118.086482 
L 118.291415 118.365145 
L 118.3523 122.866118 
L 118.413184 122.12922 
L 118.717609 115.041525 
L 118.839379 119.355929 
L 119.387343 96.277801 
L 119.509113 96.340987 
L 119.569998 97.11782 
L 119.752652 90.373574 
L 119.935307 103.646099 
L 120.057077 92.166198 
L 120.239732 97.538829 
L 120.361501 103.052399 
L 120.422386 100.457774 
L 120.483271 97.826873 
L 120.544156 99.686074 
L 120.605041 98.165778 
L 120.726811 103.46518 
L 120.909466 93.540347 
L 120.97035 95.732981 
L 121.031235 92.870038 
L 121.153005 97.746795 
L 121.21389 96.501495 
L 121.274775 96.85747 
L 121.33566 96.803675 
L 121.579199 88.298594 
L 121.640084 89.755647 
L 121.700969 83.601057 
L 121.761854 86.754487 
L 121.822739 85.284191 
L 122.005394 76.426341 
L 122.066279 77.36057 
L 122.248933 87.692709 
L 122.492473 83.579784 
L 122.675128 73.95813 
L 122.918667 86.401788 
L 122.979552 85.57485 
L 123.040437 87.274231 
L 123.101322 86.977864 
L 123.283977 82.414501 
L 123.405747 83.202719 
L 123.466632 77.468158 
L 123.527516 79.855929 
L 123.588401 77.73898 
L 123.649286 78.744228 
L 123.771056 80.857463 
L 123.953711 89.547458 
L 124.014596 88.871713 
L 124.075481 87.701058 
L 124.379905 95.475165 
L 124.44079 95.423962 
L 124.501675 92.05034 
L 124.56256 98.100533 
L 124.623445 95.679819 
L 124.68433 94.376919 
L 124.745214 95.522423 
L 124.806099 104.951859 
L 124.866984 100.849178 
L 125.049639 104.056866 
L 125.110524 106.321599 
L 125.171409 98.773161 
L 125.232294 101.866706 
L 125.293179 101.578491 
L 125.354064 97.986945 
L 125.414948 102.688561 
L 125.475833 100.290155 
L 125.658488 96.540344 
L 125.780258 104.812646 
L 125.841143 100.368377 
L 125.902028 103.950214 
L 126.084682 99.000901 
L 126.389107 107.823843 
L 126.449992 107.579065 
L 126.510877 103.291484 
L 126.571762 104.081578 
L 126.632647 103.842217 
L 126.693531 104.549309 
L 126.754416 99.264427 
L 126.815301 101.460751 
L 126.937071 102.567986 
L 127.058841 89.409197 
L 127.119726 90.121067 
L 127.180611 90.599392 
L 127.241496 88.71474 
L 127.363265 92.862778 
L 127.42415 90.369115 
L 127.485035 91.631319 
L 127.606805 93.363247 
L 127.850345 82.577495 
L 127.91123 86.205512 
L 128.093884 74.564027 
L 128.154769 78.648495 
L 128.276539 69.315699 
L 128.337424 73.744882 
L 128.398309 72.043825 
L 128.459194 68.162944 
L 128.520079 73.14812 
L 128.824503 55.769103 
L 128.885388 58.718267 
L 129.007158 49.955719 
L 129.068043 51.828186 
L 129.250697 57.871012 
L 129.555122 44.443636 
L 129.737777 54.010701 
L 129.798662 54.25169 
L 129.981316 65.137751 
L 130.103086 59.422428 
L 130.163971 60.120711 
L 130.224856 62.712182 
L 130.285741 62.214063 
L 130.468395 57.968575 
L 130.52928 55.373278 
L 130.65105 60.728438 
L 130.711935 59.485424 
L 130.89459 65.922368 
L 130.955475 65.201786 
L 131.138129 75.772603 
L 131.199014 73.209622 
L 131.381669 80.81693 
L 131.564324 85.251981 
L 131.686094 75.617491 
L 131.868748 80.642658 
L 131.929633 77.758691 
L 132.051403 82.795075 
L 132.112288 82.642213 
L 132.294943 89.402069 
L 132.355828 84.661681 
L 132.416712 87.399355 
L 133.086446 106.705247 
L 133.147331 104.678305 
L 133.208216 112.636256 
L 133.269101 107.561663 
L 133.329986 111.881882 
L 133.451756 104.314947 
L 133.512641 105.470059 
L 133.573526 100.764374 
L 133.695295 105.501107 
L 133.75618 105.278114 
L 133.817065 113.175103 
L 133.87795 111.711831 
L 133.938835 112.141486 
L 134.12149 116.949999 
L 134.182375 116.162609 
L 134.24326 117.200831 
L 134.304144 110.040841 
L 134.365029 110.070018 
L 134.425914 109.922097 
L 134.486799 112.679487 
L 134.547684 104.894122 
L 134.608569 107.368261 
L 134.730339 102.043983 
L 134.791224 102.152666 
L 134.852109 101.710765 
L 135.217418 118.499297 
L 135.278303 115.762293 
L 135.339188 118.094813 
L 135.460958 114.230266 
L 135.582727 128.512448 
L 135.643612 123.95417 
L 135.704497 127.379101 
L 136.008922 111.454656 
L 136.069807 112.711534 
L 136.252461 122.982317 
L 136.374231 125.655752 
L 136.435116 124.378898 
L 136.496001 126.345457 
L 136.556886 125.146086 
L 136.617771 125.143327 
L 136.678656 123.971771 
L 136.739541 129.921582 
L 136.800426 128.699016 
L 136.922195 131.506027 
L 136.98308 130.954584 
L 137.22662 137.000112 
L 137.287505 137.765744 
L 137.34839 142.751943 
L 137.409275 138.771963 
L 137.531044 142.209704 
L 137.652814 137.974793 
L 137.713699 139.242684 
L 137.835469 141.552316 
L 138.018124 137.178375 
L 138.079009 136.783121 
L 138.261663 125.787679 
L 138.383433 132.099405 
L 138.566088 128.387881 
L 138.748742 134.57823 
L 138.809627 131.627762 
L 138.870512 132.492547 
L 138.992282 130.847541 
L 139.053167 132.2767 
L 139.235822 144.077447 
L 139.296707 142.178401 
L 139.479361 153.089707 
L 139.722901 140.603387 
L 139.844671 154.547575 
L 139.905556 149.943618 
L 140.08821 161.365745 
L 140.149095 159.229318 
L 140.20998 160.463746 
L 140.270865 160.921895 
L 140.57529 174.286535 
L 140.636175 172.61004 
L 140.818829 156.019963 
L 140.879714 159.385526 
L 141.001484 152.140964 
L 141.062369 157.021898 
L 141.123254 151.401892 
L 141.245024 160.17893 
L 141.305908 154.63044 
L 141.366793 155.687865 
L 141.549448 162.442977 
L 141.610333 160.388868 
L 141.671218 162.080288 
L 141.732103 166.970649 
L 141.792988 164.220024 
L 141.975642 169.357715 
L 142.280067 157.714251 
L 142.340952 156.529016 
L 142.401837 158.065463 
L 142.462722 157.3411 
L 142.706261 143.351906 
L 142.767146 148.566287 
L 142.888916 139.430899 
L 142.949801 140.325509 
L 143.010686 140.709737 
L 143.071571 140.255994 
L 143.19334 141.778008 
L 143.31511 137.019446 
L 143.375995 137.097125 
L 143.43688 140.637223 
L 143.497765 137.872944 
L 143.55865 137.522951 
L 143.619535 140.346424 
L 143.68042 138.695078 
L 143.80219 142.509122 
L 143.863074 141.908881 
L 144.228384 123.711288 
L 144.289269 125.521485 
L 144.350154 131.082011 
L 144.411039 130.018632 
L 144.471923 131.061621 
L 144.532808 130.961274 
L 144.593693 129.749544 
L 144.654578 131.692623 
L 144.715463 139.343915 
L 144.776348 137.289986 
L 144.837233 132.517692 
L 144.898118 138.926022 
L 144.959003 135.355866 
L 145.019888 136.005918 
L 145.080773 138.868549 
L 145.263427 129.319538 
L 145.324312 130.047024 
L 145.385197 130.010461 
L 145.567852 135.115348 
L 145.750506 129.136611 
L 145.811391 129.178755 
L 145.872276 127.426677 
L 145.933161 130.800964 
L 146.115816 119.402315 
L 146.237586 119.595715 
L 146.298471 120.689094 
L 146.481125 111.953207 
L 146.54201 112.524655 
L 146.968205 135.045974 
L 147.089974 133.968965 
L 147.150859 130.901138 
L 147.211744 131.460549 
L 147.333514 139.082844 
L 147.455284 131.798627 
L 147.577054 139.318229 
L 147.637938 138.486243 
L 147.820593 130.849068 
L 147.881478 130.988997 
L 147.942363 133.890016 
L 148.003248 131.105496 
L 148.064133 132.518251 
L 148.246788 132.699621 
L 148.307672 134.251311 
L 148.368557 133.864164 
L 148.429442 133.907084 
L 148.612097 142.671812 
L 148.672982 140.549436 
L 148.733867 142.955209 
L 148.916521 137.025805 
L 149.038291 139.280854 
L 149.281831 129.036037 
L 149.342716 129.468217 
L 149.525371 133.728224 
L 149.64714 119.177791 
L 149.708025 119.49123 
L 149.76891 122.959286 
L 149.829795 115.291185 
L 149.89068 115.708548 
L 150.01245 118.833226 
L 150.073335 118.37371 
L 150.255989 129.531031 
L 150.438644 141.948157 
L 150.560414 136.316116 
L 150.682184 148.30879 
L 150.743069 145.170897 
L 150.803954 146.168949 
L 150.925723 143.108686 
L 150.986608 143.019518 
L 151.047493 141.088764 
L 151.351918 150.406857 
L 151.412803 150.60758 
L 151.473687 154.630925 
L 151.534572 150.474036 
L 151.595457 152.810294 
L 151.778112 159.907218 
L 151.838997 160.180169 
L 152.021652 148.619922 
L 152.082537 151.3708 
L 152.386961 139.316188 
L 152.447846 143.917048 
L 152.508731 140.738849 
L 152.630501 137.735216 
L 152.691386 138.907552 
L 152.75227 139.364406 
L 153.056695 150.328868 
L 153.11758 158.512423 
L 153.178465 155.544633 
L 153.300235 163.19386 
L 153.361119 159.002922 
L 153.422004 154.55845 
L 153.482889 155.989271 
L 153.543774 154.631804 
L 153.604659 155.109596 
L 153.726429 156.413899 
L 153.909084 146.479473 
L 153.969969 146.843025 
L 154.152623 156.376771 
L 154.213508 154.176765 
L 154.396163 167.119376 
L 154.578818 150.131477 
L 154.822357 163.555391 
L 154.883242 158.391064 
L 154.944127 159.73031 
L 155.005012 159.748378 
L 155.187667 145.785779 
L 155.370321 156.021574 
L 155.492091 159.427115 
L 155.552976 156.283337 
L 155.613861 157.026512 
L 155.674746 159.958828 
L 155.857401 153.059002 
L 155.918285 153.400464 
L 156.10094 157.627915 
L 156.161825 159.977873 
L 156.283595 155.970615 
L 156.527135 168.862858 
L 156.709789 162.627186 
L 156.770674 165.371963 
L 156.831559 160.196858 
L 156.892444 161.317042 
L 157.014214 169.456208 
L 157.075099 166.759219 
L 157.257753 172.00239 
L 157.440408 168.778814 
L 157.562178 176.766601 
L 157.623063 172.086926 
L 157.866602 184.150908 
L 157.927487 184.52869 
L 157.988372 190.451544 
L 158.049257 189.915067 
L 158.110142 188.123114 
L 158.171027 194.80559 
L 158.231912 193.049977 
L 158.292797 194.497324 
L 158.353682 198.902124 
L 158.475451 193.27839 
L 158.597221 199.974164 
L 158.658106 199.5036 
L 158.718991 201.10763 
L 158.962531 211.705871 
L 159.0843 213.269859 
L 159.145185 215.685996 
L 159.32784 206.061582 
L 159.388725 205.350532 
L 159.510495 207.403599 
L 159.57138 204.81421 
L 159.754034 214.941171 
L 159.875804 214.806835 
L 160.058459 204.665286 
L 160.119344 206.226735 
L 160.241114 212.124832 
L 160.301999 210.647445 
L 160.484653 201.548329 
L 160.545538 201.911244 
L 160.606423 201.311584 
L 160.789078 206.77456 
L 160.971733 189.649873 
L 161.154387 197.097564 
L 161.337042 189.258121 
L 161.397927 191.147928 
L 161.458812 186.846041 
L 161.580582 191.259435 
L 161.824121 181.058196 
L 162.189431 194.571526 
L 162.67651 169.954937 
L 162.737395 172.289024 
L 162.859165 167.880458 
L 162.920049 169.044598 
L 162.980934 170.25743 
L 163.041819 168.182109 
L 163.285359 178.903527 
L 163.346244 170.898877 
L 163.407129 170.989447 
L 163.468014 171.44124 
L 163.528899 176.106405 
L 163.589783 175.605011 
L 163.650668 176.040101 
L 163.833323 170.883332 
L 163.955093 171.895696 
L 164.076863 176.692238 
L 164.137748 176.203979 
L 164.198632 175.271399 
L 164.381287 179.92517 
L 164.442172 176.218232 
L 164.563942 181.629617 
L 164.624827 178.675528 
L 164.685712 181.002934 
L 164.868366 189.188825 
L 165.051021 196.099264 
L 165.233676 206.490006 
L 165.294561 206.335184 
L 165.355446 201.958839 
L 165.416331 204.594915 
L 165.477215 209.003418 
L 165.5381 206.825744 
L 165.598985 202.842045 
L 165.65987 205.059071 
L 165.720755 203.231754 
L 165.78164 204.651407 
L 166.02518 209.90363 
L 166.086064 215.765559 
L 166.207834 206.95657 
L 166.451374 219.27441 
L 166.573144 210.598254 
L 166.634029 210.84951 
L 166.816683 213.585858 
L 166.938453 209.055762 
L 167.121108 215.53722 
L 167.303763 212.604672 
L 167.364647 213.601849 
L 167.425532 212.406455 
L 167.608187 223.232438 
L 167.669072 227.635139 
L 167.790842 216.67949 
L 168.034381 226.218171 
L 168.095266 222.86631 
L 168.156151 225.535839 
L 168.277921 226.692274 
L 168.338806 229.059147 
L 168.399691 224.620395 
L 168.460576 225.909178 
L 168.521461 228.029025 
L 168.582346 223.842752 
L 168.64323 225.941132 
L 168.704115 228.538563 
L 169.00854 214.849347 
L 169.191195 217.521257 
L 169.312964 209.713222 
L 169.495619 218.481632 
L 169.556504 219.265379 
L 169.982698 205.695209 
L 170.043583 208.883459 
L 170.104468 208.28278 
L 170.165353 208.31317 
L 170.226238 207.297854 
L 170.530662 220.215661 
L 170.591547 218.371976 
L 170.713317 216.262216 
L 170.774202 217.358271 
L 171.017742 211.674071 
L 171.078627 214.142693 
L 171.565706 191.30878 
L 171.626591 192.206025 
L 171.809245 197.712228 
L 171.87013 201.292411 
L 171.931015 199.326417 
L 172.052785 192.952625 
L 172.11367 194.689185 
L 172.174555 196.623661 
L 172.23544 193.414478 
L 172.296325 194.908106 
L 172.35721 195.04737 
L 172.418095 194.632803 
L 172.539864 189.652484 
L 172.600749 199.075241 
L 172.661634 198.824801 
L 172.722519 198.737755 
L 172.844289 200.365933 
L 172.905174 198.01057 
L 172.966059 198.633045 
L 173.026944 198.630262 
L 173.209598 189.555819 
L 173.270483 184.669369 
L 173.331368 185.162418 
L 173.392253 186.52284 
L 173.514023 179.412842 
L 173.635793 190.192627 
L 173.696678 189.440374 
L 173.879332 184.409939 
L 173.940217 184.633921 
L 174.001102 185.156177 
L 174.061987 179.993522 
L 174.122872 183.615899 
L 174.183757 180.730217 
L 174.244642 183.533548 
L 174.366411 177.637235 
L 174.427296 178.136795 
L 174.549066 172.604101 
L 174.609951 173.912985 
L 174.731721 179.852712 
L 174.792606 175.484408 
L 174.853491 175.804503 
L 174.914376 175.818681 
L 174.975261 183.089306 
L 175.036145 181.097785 
L 175.157915 178.066121 
L 175.2188 178.856048 
L 175.279685 178.678381 
L 175.401455 166.545114 
L 175.523225 175.238796 
L 175.58411 182.751704 
L 175.644994 181.265451 
L 175.705879 180.030172 
L 175.827649 186.457992 
L 175.888534 184.536818 
L 176.010304 195.234642 
L 176.071189 194.316524 
L 176.132074 200.675046 
L 176.192959 197.061191 
L 176.253843 187.995206 
L 176.314728 190.101138 
L 176.497383 184.719004 
L 176.558268 187.164366 
L 176.619153 185.471234 
L 176.740923 188.518753 
L 176.801808 181.817688 
L 176.862693 186.670616 
L 176.923577 188.613791 
L 176.984462 196.054761 
L 177.045347 194.201515 
L 177.167117 185.744925 
L 177.228002 177.617291 
L 177.288887 179.057907 
L 177.349772 176.679731 
L 177.410657 169.514616 
L 177.471542 170.848223 
L 177.532426 174.038868 
L 177.715081 169.447563 
L 177.775966 169.821601 
L 177.836851 173.326576 
L 178.019506 185.696262 
L 178.080391 180.987479 
L 178.141276 183.393989 
L 178.20216 182.615925 
L 178.263045 188.16737 
L 178.32393 187.768449 
L 178.384815 180.520236 
L 178.4457 182.118153 
L 178.56747 187.428834 
L 178.628355 186.466062 
L 178.68924 186.625828 
L 178.750125 189.824643 
L 178.811009 187.750418 
L 179.054549 176.543429 
L 179.115434 175.153968 
L 179.419859 188.146391 
L 179.480743 190.377296 
L 179.724283 174.660178 
L 179.785168 174.772488 
L 179.846053 175.870776 
L 179.906938 174.874187 
L 179.967823 175.833614 
L 180.028708 172.945981 
L 180.211362 191.359752 
L 180.272247 190.272814 
L 180.394017 188.823113 
L 180.454902 198.95046 
L 180.515787 197.432998 
L 180.637557 199.995025 
L 180.759326 198.368092 
L 180.881096 192.883086 
L 180.941981 196.51335 
L 181.002866 193.729162 
L 181.063751 195.116533 
L 181.124636 192.389656 
L 181.185521 201.127726 
L 181.246406 197.111658 
L 181.368175 195.344208 
L 181.55083 183.595124 
L 181.6726 190.087645 
L 181.855255 186.786606 
L 181.91614 190.920719 
L 181.977024 188.794406 
L 182.037909 188.2256 
L 182.220564 193.797811 
L 182.281449 189.066157 
L 182.342334 190.047769 
L 182.464104 184.310611 
L 182.524989 188.509695 
L 182.768528 176.75909 
L 182.829413 176.917061 
L 182.890298 177.83274 
L 183.012068 186.786616 
L 183.072953 182.49129 
L 183.133838 182.514739 
L 183.194723 182.236749 
L 183.377377 168.735541 
L 183.438262 170.71696 
L 183.499147 169.54768 
L 183.560032 161.639775 
L 183.620917 162.66665 
L 183.742687 164.534435 
L 183.925341 166.806495 
L 184.168881 157.164639 
L 184.229766 159.615403 
L 184.351536 161.497574 
L 184.53419 152.459373 
L 184.595075 155.810682 
L 184.77773 144.843852 
L 184.8995 152.962825 
L 184.960385 151.20993 
L 185.02127 144.303464 
L 185.082155 146.482886 
L 185.14304 146.251349 
L 185.264809 141.938071 
L 185.325694 143.818544 
L 185.386579 142.485178 
L 185.569234 138.007513 
L 185.751889 146.266833 
L 185.812773 148.381216 
L 185.873658 144.100207 
L 185.934543 145.292583 
L 186.117198 148.899996 
L 186.178083 144.645773 
L 186.360738 151.043296 
L 186.421623 152.213682 
L 186.482507 148.872012 
L 186.726047 157.254252 
L 186.969587 142.808683 
L 187.030472 144.761012 
L 187.091356 145.734571 
L 187.152241 148.649719 
L 187.334896 137.014805 
L 187.395781 139.130277 
L 187.578436 145.220263 
L 187.639321 145.029829 
L 187.821975 135.609887 
L 187.88286 139.006098 
L 188.00463 145.667813 
L 188.1264 144.476869 
L 188.24817 151.17855 
L 188.309055 150.619353 
L 188.491709 143.587718 
L 188.552594 145.170931 
L 188.613479 138.766879 
L 188.674364 140.871374 
L 188.735249 142.05175 
L 188.796134 146.087953 
L 188.917904 163.19777 
L 188.978788 162.505676 
L 189.161443 160.397097 
L 189.222328 160.157493 
L 189.283213 158.270798 
L 189.465868 165.207942 
L 189.648522 156.910599 
L 189.709407 157.914978 
L 189.770292 163.409347 
L 189.831177 161.318002 
L 189.952947 153.921156 
L 190.135602 161.58716 
L 190.196487 155.536183 
L 190.257371 158.340055 
L 190.318256 158.194738 
L 190.379141 158.598157 
L 190.440026 155.148566 
L 190.561796 159.386698 
L 190.683566 157.092642 
L 190.98799 135.277874 
L 191.048875 136.709607 
L 191.657724 110.675406 
L 191.718609 103.181462 
L 191.779494 106.347116 
L 191.840379 104.301659 
L 192.023034 110.190582 
L 192.510113 128.752775 
L 192.692768 138.893276 
L 192.875422 135.753362 
L 192.936307 135.58181 
L 193.058077 136.275334 
L 193.362502 133.746411 
L 193.666926 149.834228 
L 193.849581 154.38865 
L 193.971351 144.046248 
L 194.09312 146.030906 
L 194.154005 145.468508 
L 194.21489 145.553423 
L 194.275775 146.961705 
L 194.397545 154.144596 
L 194.519315 149.881572 
L 194.5802 153.917591 
L 194.641085 152.44717 
L 194.701969 152.858608 
L 194.823739 160.733357 
L 194.884624 157.347816 
L 194.945509 155.620978 
L 195.006394 156.112703 
L 195.128164 156.035785 
L 195.310819 152.452908 
L 195.493473 144.504246 
L 195.554358 146.908848 
L 195.615243 143.833335 
L 195.797898 149.869087 
L 196.041437 154.085369 
L 196.102322 153.651738 
L 196.224092 148.141782 
L 196.345862 149.408471 
L 196.528517 139.050427 
L 196.650286 139.528904 
L 196.832941 152.187125 
L 196.893826 145.965903 
L 197.015596 150.384029 
L 197.259135 140.292468 
L 197.32002 141.018491 
L 197.44179 150.390766 
L 197.502675 147.588287 
L 197.624445 157.912036 
L 197.68533 157.774028 
L 197.8071 153.356975 
L 197.867985 156.104949 
L 197.989754 149.829035 
L 198.111524 150.79356 
L 198.172409 158.133436 
L 198.233294 155.616143 
L 198.294179 156.509309 
L 198.415949 153.38734 
L 198.537718 158.266637 
L 198.842143 145.798761 
L 199.024798 153.09187 
L 199.268337 142.643214 
L 199.329222 145.455569 
L 199.390107 141.174878 
L 199.450992 150.495549 
L 199.511877 146.712017 
L 199.877186 131.405188 
L 199.998956 122.545233 
L 200.059841 129.160597 
L 200.120726 128.018982 
L 200.181611 127.691647 
L 200.303381 119.484331 
L 200.364266 121.463806 
L 200.42515 127.3762 
L 200.486035 124.041118 
L 200.607805 116.825742 
L 200.66869 117.785604 
L 200.729575 120.886921 
L 200.79046 115.807543 
L 200.851345 116.238955 
L 200.91223 115.467044 
L 200.973115 116.137811 
L 201.034 115.795732 
L 201.094884 119.687854 
L 201.277539 108.788811 
L 201.460194 119.139289 
L 201.521079 115.909734 
L 201.581964 119.683065 
L 201.642849 117.679437 
L 201.947273 129.48311 
L 202.129928 135.762976 
L 202.190813 136.012669 
L 202.312583 143.631888 
L 202.373467 140.404068 
L 202.434352 138.451996 
L 202.495237 140.29032 
L 202.556122 137.901062 
L 202.617007 140.476647 
L 202.677892 148.14632 
L 202.738777 145.102309 
L 202.799662 145.646412 
L 202.860547 149.819407 
L 202.982316 145.493375 
L 203.043201 146.112105 
L 203.104086 148.526849 
L 203.164971 143.102382 
L 203.225856 144.90753 
L 203.591166 150.127929 
L 203.712935 142.471429 
L 203.89559 154.57206 
L 203.956475 147.961215 
L 204.01736 150.395437 
L 204.443554 136.698068 
L 204.504439 138.288124 
L 204.565324 141.110826 
L 204.626209 138.349657 
L 204.687094 140.570431 
L 204.808864 154.627775 
L 204.869748 154.413861 
L 205.052403 160.792959 
L 205.235058 153.711102 
L 205.295943 157.469377 
L 205.356828 154.615812 
L 205.539482 150.572404 
L 205.600367 151.379639 
L 205.661252 146.886943 
L 205.843907 159.73368 
L 205.904792 158.608089 
L 205.965677 156.612138 
L 206.026562 158.275101 
L 206.087447 158.003517 
L 206.209216 152.592595 
L 206.391871 142.676125 
L 206.757181 156.554927 
L 206.818065 155.214592 
L 206.87895 161.712748 
L 206.939835 159.082727 
L 207.00072 160.924537 
L 207.12249 153.639483 
L 207.183375 153.653536 
L 207.24426 157.735438 
L 207.305145 156.658652 
L 207.36603 155.251227 
L 207.487799 159.635295 
L 207.548684 165.597459 
L 207.609569 156.968721 
L 207.670454 158.412547 
L 207.731339 158.067627 
L 207.792224 159.629733 
L 208.035764 172.257679 
L 208.218418 175.401972 
L 208.279303 172.92179 
L 208.340188 173.89927 
L 208.461958 170.951296 
L 208.644613 180.032861 
L 208.705497 176.656221 
L 208.888152 189.179567 
L 208.949037 188.638763 
L 209.009922 188.084153 
L 209.192577 181.857549 
L 209.497001 187.4806 
L 209.862311 174.600522 
L 209.923196 175.09005 
L 209.98408 165.207506 
L 210.044965 166.161202 
L 210.22762 159.088101 
L 210.288505 154.210326 
L 210.34939 157.072848 
L 210.532045 151.426721 
L 210.592929 153.224606 
L 210.714699 151.807848 
L 210.897354 159.185826 
L 211.019124 154.925427 
L 211.262663 166.186998 
L 211.384433 162.812657 
L 211.506203 168.215616 
L 211.932397 153.050985 
L 212.115052 162.327066 
L 212.236822 160.463284 
L 212.480362 155.065051 
L 212.541246 155.884602 
L 212.602131 157.079693 
L 212.663016 149.171305 
L 212.723901 149.329279 
L 212.784786 157.339782 
L 212.845671 156.315023 
L 212.906556 150.094062 
L 212.967441 150.839918 
L 213.028326 149.69748 
L 213.089211 160.068081 
L 213.150095 159.931875 
L 213.33275 155.176112 
L 213.393635 157.217841 
L 213.45452 156.771401 
L 213.758945 140.815792 
L 213.819829 141.094836 
L 213.880714 140.344087 
L 214.246024 158.057046 
L 214.428678 144.590959 
L 214.489563 144.697734 
L 214.733103 158.84735 
L 214.793988 160.437238 
L 214.915758 152.849318 
L 215.037528 153.7826 
L 215.098412 158.31413 
L 215.159297 157.491612 
L 215.281067 161.041693 
L 215.341952 158.476053 
L 215.524607 168.15589 
L 215.585492 160.53803 
L 215.646377 162.778921 
L 215.889916 153.614037 
L 215.950801 155.283007 
L 216.072571 152.176553 
L 216.133456 152.549792 
L 216.194341 152.221889 
L 216.376995 145.574716 
L 216.43788 151.173597 
L 216.498765 148.146529 
L 216.55965 147.235581 
L 216.742305 138.592404 
L 216.80319 139.609974 
L 216.864075 145.077671 
L 216.92496 140.050577 
L 216.985844 142.814283 
L 217.046729 143.25338 
L 217.107614 138.466861 
L 217.168499 139.606385 
L 217.351154 144.112909 
L 217.594693 135.200276 
L 217.716463 138.734279 
L 217.838233 126.326368 
L 217.899118 126.771703 
L 218.020888 129.871164 
L 218.203543 121.082805 
L 218.264427 120.901892 
L 218.386197 122.037756 
L 218.447082 120.171013 
L 218.629737 109.303829 
L 218.690622 106.772819 
L 218.873276 114.287151 
L 218.934161 113.446195 
L 218.995046 112.841187 
L 219.177701 108.749302 
L 219.238586 114.413772 
L 219.299471 110.008231 
L 219.360356 109.755566 
L 219.421241 108.622718 
L 219.482126 113.093568 
L 219.54301 110.796971 
L 219.603895 108.564126 
L 219.66478 114.795716 
L 219.725665 110.923937 
L 219.78655 103.817086 
L 219.847435 104.275749 
L 219.90832 102.932021 
L 220.090975 114.159757 
L 220.273629 107.121945 
L 220.334514 106.942879 
L 220.395399 108.073246 
L 220.578054 97.774327 
L 220.638939 99.815929 
L 220.760709 102.230347 
L 220.821593 108.933534 
L 220.882478 107.68566 
L 220.943363 108.177635 
L 221.004248 111.836898 
L 221.065133 107.712755 
L 221.186903 111.415955 
L 221.247788 111.943341 
L 221.369558 110.391655 
L 221.430442 112.552785 
L 221.552212 106.397229 
L 221.613097 102.762753 
L 221.856637 112.157364 
L 221.917522 109.453954 
L 221.978407 113.03644 
L 222.100176 102.103911 
L 222.161061 104.414742 
L 222.221946 105.456759 
L 222.282831 101.779806 
L 222.343716 104.334917 
L 222.404601 103.9545 
L 222.526371 109.521782 
L 222.587256 109.09095 
L 222.648141 109.58549 
L 222.709025 106.055698 
L 222.76991 107.05767 
L 222.830795 106.18027 
L 222.89168 106.821453 
L 223.13522 117.546533 
L 223.196105 119.943442 
L 223.25699 119.697202 
L 223.317874 111.374571 
L 223.378759 112.950258 
L 223.561414 109.840909 
L 223.622299 114.253159 
L 223.744069 106.939782 
L 223.804954 107.218395 
L 223.865839 103.693444 
L 223.926724 104.394661 
L 223.987608 106.101231 
L 224.048493 104.120551 
L 224.109378 106.098077 
L 224.170263 104.325472 
L 224.292033 109.474942 
L 224.413803 107.172698 
L 224.474688 102.657691 
L 224.535573 104.50881 
L 224.596457 104.671888 
L 224.900882 114.021314 
L 224.961767 113.727244 
L 225.022652 117.406394 
L 225.083537 116.384386 
L 225.144422 117.651621 
L 225.205307 117.274408 
L 225.266191 115.91569 
L 225.327076 119.944532 
L 225.448846 113.774598 
L 225.509731 114.28039 
L 225.570616 113.720868 
L 225.753271 105.771221 
L 225.935925 113.816799 
L 225.99681 106.341201 
L 226.057695 110.005752 
L 226.179465 116.602047 
L 226.301235 111.279983 
L 226.36212 112.614759 
L 226.423005 107.786857 
L 226.48389 110.576999 
L 226.605659 111.768622 
L 226.849199 94.041371 
L 226.910084 94.438557 
L 227.092739 99.815984 
L 227.153623 98.628463 
L 227.214508 94.406201 
L 227.275393 99.073039 
L 227.336278 95.379475 
L 227.397163 95.627592 
L 227.458048 86.940539 
L 227.518933 91.548518 
L 227.579818 90.493615 
L 227.640703 91.757832 
L 227.762472 88.702727 
L 227.884242 96.573293 
L 228.066897 105.859816 
L 228.188667 103.01887 
L 228.249552 104.606547 
L 228.432206 97.796364 
L 228.493091 98.493176 
L 228.614861 90.082358 
L 228.675746 90.420273 
L 228.736631 89.763159 
L 228.797516 95.371075 
L 228.858401 95.000679 
L 228.980171 93.315838 
L 229.10194 96.904907 
L 229.162825 96.681947 
L 229.34548 80.984884 
L 229.406365 81.462627 
L 229.528135 89.373529 
L 229.58902 88.219844 
L 229.771674 92.573199 
L 229.832559 90.501385 
L 229.893444 92.745165 
L 230.015214 83.319454 
L 230.076099 79.270906 
L 230.136984 83.363201 
L 230.197869 79.484979 
L 230.258754 79.797022 
L 230.319638 81.747385 
L 230.380523 79.42447 
L 230.441408 79.890888 
L 230.563178 82.163894 
L 230.867603 65.649286 
L 230.989372 66.93854 
L 231.050257 71.432134 
L 231.111142 69.694544 
L 231.415567 77.208447 
L 231.476452 76.121659 
L 231.659106 83.557399 
L 231.719991 84.70984 
L 231.780876 88.750296 
L 231.841761 88.310042 
L 231.902646 88.549191 
L 232.085301 75.956483 
L 232.146186 76.510805 
L 232.207071 73.531187 
L 232.267955 78.555955 
L 232.32884 77.678516 
L 232.45061 75.956625 
L 232.633265 66.639474 
L 232.69415 66.280724 
L 232.876804 68.660842 
L 233.059459 74.334705 
L 233.120344 73.845383 
L 233.424769 59.734717 
L 233.607423 47.030741 
L 233.668308 44.879665 
L 233.850963 51.612445 
L 234.033618 48.979324 
L 234.398927 58.594825 
L 234.459812 59.226641 
L 234.520697 57.417664 
L 234.703352 69.041514 
L 234.886006 64.153284 
L 234.946891 64.909583 
L 235.007776 62.172484 
L 235.068661 63.041235 
L 235.129546 63.879462 
L 235.190431 60.024735 
L 235.251316 60.615722 
L 235.312201 60.922039 
L 235.373086 58.972145 
L 235.43397 60.1804 
L 235.494855 60.645194 
L 235.55574 64.586145 
L 235.616625 61.991668 
L 235.738395 56.609125 
L 235.79928 57.18829 
L 235.860165 56.986601 
L 235.981935 49.72377 
L 236.042819 52.592792 
L 236.103704 54.012068 
L 236.164589 51.882238 
L 236.225474 53.315864 
L 236.286359 54.56682 
L 236.408129 67.068232 
L 236.469014 63.698043 
L 236.529899 65.500769 
L 236.590784 65.359687 
L 236.651669 65.636726 
L 236.712553 68.927994 
L 236.773438 68.841177 
L 236.834323 64.453499 
L 236.895208 67.035388 
L 237.016978 69.843038 
L 237.077863 68.034646 
L 237.260518 55.955799 
L 237.321402 58.304384 
L 237.382287 55.481947 
L 237.564942 62.932995 
L 237.625827 63.453181 
L 237.686712 62.45486 
L 237.991136 75.611039 
L 238.052021 72.859321 
L 238.112906 74.980804 
L 238.356446 67.000197 
L 238.539101 82.440155 
L 238.66087 85.505645 
L 238.78264 75.015286 
L 238.965295 83.030077 
L 239.02618 82.913503 
L 239.513259 105.625687 
L 239.574144 101.768118 
L 239.695914 107.817137 
L 239.878568 98.394838 
L 240.061223 103.9579 
L 240.243878 91.27822 
L 240.304763 96.460489 
L 240.365648 92.243895 
L 240.730957 112.715909 
L 240.791842 110.37921 
L 240.913612 112.922559 
L 240.974497 113.9199 
L 241.096267 123.177994 
L 241.157151 118.069175 
L 241.218036 119.459529 
L 241.278921 117.7082 
L 241.461576 123.525325 
L 241.522461 121.13916 
L 241.583346 122.755464 
L 241.644231 121.964051 
L 241.766 113.703348 
L 241.826885 114.735075 
L 241.88777 115.574808 
L 241.948655 115.196084 
L 242.00954 111.867488 
L 242.070425 112.703792 
L 242.496619 120.802165 
L 242.557504 124.665166 
L 242.679274 118.696271 
L 243.044583 126.023916 
L 243.105468 122.720703 
L 243.166353 122.977516 
L 243.288123 127.538779 
L 243.349008 126.69072 
L 243.592548 112.739179 
L 243.653433 114.30283 
L 243.836087 113.172093 
L 243.957857 119.164288 
L 244.018742 116.533101 
L 244.079627 118.212648 
L 244.140512 122.094955 
L 244.201397 115.318293 
L 244.262282 119.049082 
L 244.505821 110.523016 
L 244.566706 110.370683 
L 244.627591 112.337545 
L 244.688476 110.817418 
L 244.749361 110.202787 
L 244.932015 118.3084 
L 244.9929 119.411616 
L 245.11467 124.975366 
L 245.175555 117.17487 
L 245.23644 119.771808 
L 245.35821 122.497163 
L 245.662634 106.259739 
L 245.967059 123.066183 
L 246.027944 122.405542 
L 246.088829 128.695931 
L 246.149714 125.903537 
L 246.210598 126.174182 
L 246.454138 152.0123 
L 246.575908 154.791994 
L 246.697678 144.780485 
L 246.758563 145.549295 
L 246.819448 147.330891 
L 247.002102 143.533889 
L 247.306527 154.779188 
L 247.428297 152.120841 
L 247.489181 149.700545 
L 247.550066 150.383633 
L 247.610951 150.954693 
L 247.732721 143.731206 
L 247.793606 145.014257 
L 247.854491 147.623804 
L 247.915376 146.153615 
L 248.158915 129.782222 
L 248.524225 155.060426 
L 248.828649 141.332094 
L 249.011304 155.280933 
L 249.133074 154.046286 
L 249.315729 155.084194 
L 249.376614 155.589959 
L 249.498383 149.199986 
L 249.559268 150.640358 
L 249.681038 154.284345 
L 249.863693 143.027831 
L 250.168117 163.139832 
L 250.350772 155.278841 
L 250.411657 164.731138 
L 250.594312 152.818547 
L 250.716081 147.766207 
L 250.776966 147.969807 
L 250.837851 148.293655 
L 251.081391 161.463715 
L 251.264046 154.280035 
L 251.32493 154.331163 
L 251.385815 159.950973 
L 251.4467 150.858373 
L 251.507585 152.881254 
L 251.69024 156.918666 
L 251.751125 155.408731 
L 251.933779 167.007363 
L 252.055549 170.10975 
L 252.238204 161.563922 
L 252.420859 166.38166 
L 252.481744 164.637703 
L 252.542629 167.935739 
L 252.603513 165.780289 
L 252.664398 167.803336 
L 252.725283 163.195486 
L 252.786168 163.531337 
L 252.847053 163.953684 
L 252.907938 171.009182 
L 252.968823 167.50775 
L 253.395017 158.764735 
L 253.638557 176.954451 
L 253.699442 177.536219 
L 253.760327 177.225945 
L 253.821212 184.892324 
L 253.882096 184.805439 
L 253.942981 181.482157 
L 254.064751 188.215146 
L 254.308291 179.155436 
L 254.369176 178.421121 
L 254.490945 174.222102 
L 254.612715 177.903036 
L 254.6736 184.065419 
L 254.734485 182.597503 
L 254.856255 180.446045 
L 254.978025 184.300163 
L 255.03891 183.109501 
L 255.221564 180.044477 
L 255.343334 171.379092 
L 255.952183 202.794401 
L 256.013068 197.228305 
L 256.073953 193.34633 
L 256.134838 193.354288 
L 256.195723 195.549357 
L 256.256608 205.690967 
L 256.317493 200.363888 
L 256.378377 201.431784 
L 256.561032 212.490239 
L 256.682802 219.4638 
L 256.865457 213.2991 
L 256.987227 208.101103 
L 257.352536 224.201149 
L 257.413421 223.939503 
L 257.474306 226.842284 
L 257.77873 209.671682 
L 257.839615 210.252688 
L 257.9005 209.615294 
L 257.961385 211.862483 
L 258.02227 209.604282 
L 258.204925 199.45895 
L 258.26581 194.902728 
L 258.326694 195.259169 
L 258.448464 194.273292 
L 258.509349 193.174474 
L 258.570234 193.945529 
L 258.692004 195.214657 
L 258.752889 194.521396 
L 258.935543 186.292447 
L 259.239968 195.884086 
L 259.300853 197.047079 
L 259.361738 196.437399 
L 259.483508 190.803551 
L 259.605277 197.620684 
L 259.666162 197.366049 
L 259.727047 195.619938 
L 259.909702 202.255047 
L 260.275011 190.351672 
L 260.335896 190.484219 
L 260.579436 170.989332 
L 260.88386 191.469315 
L 260.944745 191.191048 
L 261.00563 193.705659 
L 261.066515 192.422298 
L 261.1274 182.868167 
L 261.188285 184.25656 
L 261.24917 185.669235 
L 261.431825 183.270386 
L 261.492709 183.137186 
L 261.553594 184.615571 
L 261.675364 193.711611 
L 262.040674 166.490463 
L 262.101558 162.784081 
L 262.162443 167.568269 
L 262.223328 163.626723 
L 262.466868 160.760475 
L 262.527753 158.206603 
L 262.771292 166.984737 
L 262.832177 167.127329 
L 262.893062 170.581237 
L 262.953947 168.777565 
L 263.014832 168.304754 
L 263.136602 172.785149 
L 263.197487 171.912619 
L 263.319257 163.354119 
L 263.380141 167.948351 
L 263.441026 164.53537 
L 263.623681 160.820944 
L 263.684566 159.386346 
L 263.745451 160.388893 
L 263.806336 161.986932 
L 263.988991 158.467119 
L 264.11076 162.38551 
L 264.171645 161.133707 
L 264.47607 168.527197 
L 264.536955 173.895811 
L 264.658724 167.376906 
L 264.719609 167.635159 
L 264.780494 168.742714 
L 264.963149 161.481516 
L 265.084919 156.602741 
L 265.267574 158.542974 
L 265.693768 147.926608 
L 265.754653 149.965847 
L 265.815538 148.473829 
L 265.876423 149.930688 
L 265.998192 144.72319 
L 266.119962 147.071791 
L 266.180847 145.896394 
L 266.363502 160.023019 
L 266.485272 157.466819 
L 266.546157 154.553696 
L 266.607041 156.92348 
L 266.667926 156.849959 
L 266.728811 156.513736 
L 266.789696 155.153285 
L 266.911466 163.026746 
L 266.972351 160.643381 
L 267.033236 160.445034 
L 267.33766 145.785426 
L 267.398545 146.729132 
L 267.45943 146.001452 
L 267.5812 142.84482 
L 268.007394 158.673293 
L 268.068279 154.694703 
L 268.129164 155.534493 
L 268.250934 157.577707 
L 268.433589 163.699033 
L 268.616243 172.133172 
L 268.738013 175.667941 
L 268.798898 174.242936 
L 268.981553 162.101156 
L 269.042438 163.681744 
L 269.103322 162.072694 
L 269.225092 150.821765 
L 269.285977 151.066406 
L 269.346862 159.212138 
L 269.407747 155.295413 
L 269.773056 141.863413 
L 270.016596 146.413735 
L 270.260136 128.62952 
L 270.321021 131.479846 
L 270.44279 126.622799 
L 270.625445 119.221333 
L 270.68633 122.819824 
L 270.8081 117.179018 
L 270.92987 127.255781 
L 271.051639 120.124243 
L 271.112524 123.965388 
L 271.173409 127.362867 
L 271.234294 126.72147 
L 271.356064 117.609795 
L 271.599604 127.860011 
L 271.660488 127.269509 
L 272.086683 136.112595 
L 272.208453 142.27705 
L 272.269338 141.88909 
L 272.330222 141.553663 
L 272.391107 142.65124 
L 272.451992 141.519883 
L 272.512877 142.151439 
L 272.573762 142.46391 
L 272.634647 143.963974 
L 272.695532 149.90967 
L 272.756417 149.86089 
L 272.817302 147.503875 
L 272.878187 149.231393 
L 273.121726 143.576635 
L 273.182611 145.095204 
L 273.426151 137.169278 
L 273.54792 140.681143 
L 273.79146 129.802602 
L 273.852345 135.040899 
L 273.91323 131.062416 
L 274.095885 121.117791 
L 274.15677 121.743156 
L 274.217654 117.429629 
L 274.278539 117.874867 
L 274.400309 127.140512 
L 274.461194 122.753266 
L 274.643849 128.41448 
L 274.704734 127.430112 
L 274.826503 133.328213 
L 274.887388 138.406763 
L 275.070043 131.210612 
L 275.130928 130.855327 
L 275.191813 132.169413 
L 275.374468 116.132131 
L 275.496237 116.641878 
L 275.557122 123.611713 
L 275.618007 123.254994 
L 275.678892 120.605273 
L 275.739777 122.091104 
L 275.800662 128.853651 
L 275.861547 125.600597 
L 275.922432 124.499183 
L 275.983317 124.985015 
L 276.044202 125.97165 
L 276.165971 119.26627 
L 276.226856 125.049299 
L 276.287741 119.904275 
L 276.470396 130.021232 
L 276.592166 133.391296 
L 276.653051 128.03861 
L 276.713936 128.55968 
L 276.77482 128.958959 
L 276.835705 136.249605 
L 276.89659 131.068233 
L 276.957475 131.602858 
L 277.079245 139.515098 
L 277.2619 130.693417 
L 277.322785 127.034154 
L 277.383669 132.213534 
L 277.505439 122.840456 
L 277.748979 127.685286 
L 277.809864 124.808078 
L 277.870749 127.273897 
L 277.931634 121.953773 
L 277.992519 122.343056 
L 278.053403 125.134317 
L 278.236058 119.401161 
L 278.296943 119.544927 
L 278.357828 124.819274 
L 278.601368 112.844162 
L 278.662252 113.672728 
L 278.905792 121.81464 
L 279.027562 116.767728 
L 279.392871 99.171962 
L 279.453756 95.430562 
L 279.514641 97.710125 
L 279.697296 105.23186 
L 279.758181 105.794486 
L 280.00172 97.61667 
L 280.062605 100.584084 
L 280.12349 98.412737 
L 280.306145 94.083634 
L 280.427915 98.508557 
L 280.4888 97.497603 
L 280.549684 102.121909 
L 280.610569 96.52724 
L 280.854109 113.696142 
L 280.914994 110.250137 
L 281.036764 124.019758 
L 281.097649 121.673595 
L 281.158534 114.189479 
L 281.219418 117.059046 
L 281.280303 114.283021 
L 281.341188 117.529026 
L 281.402073 115.197392 
L 281.462958 115.196226 
L 281.523843 108.408874 
L 281.584728 110.980455 
L 281.706498 109.197037 
L 281.828267 120.296195 
L 281.889152 115.526153 
L 281.950037 115.270411 
L 282.193577 126.548616 
L 282.254462 125.243747 
L 282.437117 116.100735 
L 282.498001 116.62436 
L 282.558886 115.496977 
L 282.619771 117.77415 
L 282.680656 116.134083 
L 282.802426 111.180576 
L 282.863311 110.867445 
L 282.985081 117.318985 
L 283.045966 115.080581 
L 283.167735 121.477973 
L 283.22862 117.710971 
L 283.289505 119.276766 
L 283.411275 127.022066 
L 283.59393 117.249853 
L 283.654815 117.217711 
L 283.898354 113.324678 
L 283.959239 114.142515 
L 284.081009 119.842784 
L 284.141894 115.488408 
L 284.324549 121.133228 
L 284.385433 120.973144 
L 284.568088 123.686787 
L 284.750743 129.436979 
L 284.872513 136.853435 
L 284.994282 131.594066 
L 285.055167 136.390055 
L 285.116052 134.839136 
L 285.237822 135.061003 
L 285.481362 123.063077 
L 285.542247 122.612263 
L 285.603132 122.97474 
L 285.785786 128.077645 
L 285.846671 126.618939 
L 285.907556 126.853401 
L 285.968441 126.73592 
L 286.029326 127.422133 
L 286.090211 130.704376 
L 286.272865 120.456092 
L 286.33375 122.56044 
L 286.638175 101.9469 
L 286.82083 111.887924 
L 287.064369 99.055799 
L 287.186139 106.643695 
L 287.247024 103.092488 
L 287.307909 105.843452 
L 287.429679 106.898649 
L 287.551448 109.830731 
L 287.612333 115.755509 
L 287.673218 110.977143 
L 287.855873 119.209056 
L 287.977643 112.754477 
L 288.099413 117.775924 
L 288.160298 115.11355 
L 288.342952 129.307988 
L 288.403837 127.433903 
L 288.464722 123.857405 
L 288.525607 125.632392 
L 288.586492 127.631112 
L 288.647377 126.893251 
L 288.769147 122.963634 
L 288.830031 128.283301 
L 288.890916 127.424745 
L 288.951801 127.50345 
L 289.073571 134.190102 
L 289.134456 130.564898 
L 289.195341 133.54922 
L 289.56065 143.867853 
L 290.04773 121.616077 
L 290.108614 120.404833 
L 290.169499 121.408889 
L 290.230384 124.758385 
L 290.413039 116.28965 
L 290.473924 118.448581 
L 290.534809 117.480712 
L 290.595694 113.633402 
L 290.717463 119.113818 
L 290.778348 116.698966 
L 291.021888 124.964386 
L 291.082773 122.704834 
L 291.143658 124.267842 
L 291.204543 124.366476 
L 291.387197 118.871102 
L 291.448082 121.33152 
L 291.630737 111.49084 
L 291.691622 106.370302 
L 291.935162 120.690857 
L 292.056931 116.336959 
L 292.117816 118.983679 
L 292.239586 108.536535 
L 292.361356 116.484556 
L 292.483126 112.100418 
L 292.544011 117.265069 
L 292.604896 117.249727 
L 292.726665 116.737271 
L 292.78755 116.029462 
L 292.848435 120.389429 
L 292.90932 120.380533 
L 292.970205 120.442519 
L 293.091975 124.247697 
L 293.274629 119.74865 
L 293.396399 123.999967 
L 293.457284 121.469066 
L 293.518169 121.960121 
L 293.579054 128.640631 
L 293.639939 125.44085 
L 293.700824 125.371149 
L 293.761709 124.936017 
L 293.883479 118.536771 
L 293.944363 119.254403 
L 294.005248 125.080886 
L 294.066133 124.863069 
L 294.127018 124.648412 
L 294.248788 130.930656 
L 294.614097 115.420973 
L 294.674982 117.530274 
L 294.735867 116.833306 
L 294.796752 117.336832 
L 294.979407 123.42254 
L 295.162062 119.316773 
L 295.283831 122.947961 
L 295.344716 121.187228 
L 295.405601 114.96422 
L 295.466486 118.118681 
L 295.527371 120.799156 
L 295.588256 118.029817 
L 295.710026 121.686159 
L 295.770911 119.797326 
L 295.831795 124.442955 
L 295.89268 117.174597 
L 295.953565 121.705298 
L 296.13622 131.012585 
L 296.25799 136.728834 
L 296.318875 137.048592 
L 296.562414 144.987387 
L 296.623299 141.814927 
L 296.805954 138.307049 
L 296.866839 136.89408 
L 297.110378 143.370291 
L 297.353918 158.236017 
L 297.475688 158.395739 
L 297.536573 152.538839 
L 297.597458 153.409602 
L 297.658343 154.983501 
L 297.719227 152.832668 
L 297.780112 146.595555 
L 297.840997 147.550205 
L 298.023652 155.064612 
L 298.206307 149.19288 
L 298.267192 153.215126 
L 298.328077 147.787537 
L 298.388961 149.601047 
L 298.632501 161.981403 
L 298.693386 161.847929 
L 298.815156 153.667009 
L 298.876041 154.534383 
L 298.936926 157.179772 
L 299.11958 144.873743 
L 299.424005 159.083367 
L 299.48489 158.778634 
L 299.545775 158.995828 
L 299.728429 146.848419 
L 299.850199 154.656906 
L 300.032854 145.123039 
L 300.093739 147.752666 
L 300.215509 141.981205 
L 300.276393 142.100975 
L 300.398163 147.294915 
L 300.459048 141.40616 
L 300.519933 143.855575 
L 300.580818 146.263541 
L 300.702588 142.32411 
L 300.763473 145.618381 
L 300.824358 144.863014 
L 300.885243 140.489979 
L 300.946127 140.905642 
L 301.007012 143.471487 
L 301.067897 141.877401 
L 301.128782 143.025751 
L 301.250552 138.032484 
L 301.311437 138.118247 
L 301.433207 140.50236 
L 301.494092 139.615776 
L 301.676746 132.709623 
L 301.737631 137.72166 
L 301.798516 137.01305 
L 301.920286 130.707547 
L 301.981171 131.262434 
L 302.22471 122.310486 
L 302.285595 121.492599 
L 302.46825 111.131516 
L 302.529135 113.971319 
L 302.59002 116.326546 
L 302.650905 112.757622 
L 302.71179 115.50681 
L 302.772675 120.470178 
L 302.833559 119.02709 
L 302.894444 113.094033 
L 303.077099 124.473289 
L 303.137984 122.114967 
L 303.198869 122.82133 
L 303.320639 124.15826 
L 303.381524 118.893286 
L 303.442408 119.02277 
L 303.625063 128.795234 
L 303.807718 122.759892 
L 303.868603 125.216814 
L 303.929488 124.093087 
L 303.990373 122.0675 
L 304.112142 112.641716 
L 304.173027 117.979385 
L 304.233912 114.470415 
L 304.294797 114.751414 
L 304.355682 115.590426 
L 304.538337 108.994025 
L 304.599222 109.171134 
L 304.660107 107.7756 
L 304.903646 95.651706 
L 304.964531 95.800683 
L 305.025416 95.450669 
L 305.086301 96.470629 
L 305.147186 96.271423 
L 305.208071 95.881147 
L 305.69515 79.818302 
L 305.756035 79.981703 
L 305.93869 83.676405 
L 306.182229 67.70178 
L 306.243114 70.817025 
L 306.425769 81.109598 
L 306.486654 82.143477 
L 306.669308 90.253366 
L 306.791078 82.221104 
L 306.851963 82.213735 
L 306.912848 87.414815 
L 307.034618 76.894229 
L 307.095503 77.644988 
L 307.217273 72.276015 
L 307.521697 87.893111 
L 307.582582 83.436992 
L 307.704352 91.322365 
L 307.765237 91.086932 
L 307.887006 87.693311 
L 308.069661 93.082897 
L 308.374086 85.178389 
L 308.55674 92.992111 
L 308.92205 69.630208 
L 308.982935 70.419025 
L 309.104705 58.095378 
L 309.165589 59.089064 
L 309.287359 54.290713 
L 309.470014 60.215696 
L 309.530899 59.149386 
L 309.713554 68.405261 
L 309.835323 62.230842 
L 309.896208 62.833669 
L 309.957093 63.984168 
L 310.078863 60.176429 
L 310.139748 61.159224 
L 310.261518 67.053662 
L 310.322403 67.037555 
L 310.505057 62.415776 
L 310.748597 49.700696 
L 310.870367 57.409608 
L 311.053022 49.301373 
L 311.113906 55.654555 
L 311.174791 52.225155 
L 311.235676 53.996243 
L 311.296561 53.230878 
L 311.357446 53.638759 
L 311.600986 67.454485 
L 311.661871 66.380198 
L 311.722755 66.669706 
L 311.78364 70.057098 
L 311.844525 65.567687 
L 311.90541 68.882877 
L 311.966295 68.696023 
L 312.02718 73.878939 
L 312.088065 72.423603 
L 312.14895 73.65907 
L 312.331605 67.220342 
L 312.392489 74.075555 
L 312.453374 72.016311 
L 312.514259 68.936869 
L 312.636029 74.328414 
L 312.696914 71.965217 
L 312.757799 76.842558 
L 312.818684 76.670873 
L 313.001338 72.370625 
L 313.062223 75.071957 
L 313.183993 72.042247 
L 313.305763 79.048207 
L 313.366648 77.317319 
L 313.671072 91.46028 
L 313.853727 86.333798 
L 313.914612 87.323303 
L 314.036382 91.785583 
L 314.097267 91.686224 
L 314.158152 93.826811 
L 314.219037 90.246724 
L 314.279921 91.554343 
L 314.401691 92.70917 
L 314.462576 91.750148 
L 314.523461 92.001344 
L 314.584346 92.782459 
L 314.645231 91.033016 
L 314.706116 80.57196 
L 314.767001 85.234503 
L 314.88877 89.639137 
L 314.949655 86.232876 
L 315.193195 103.876178 
L 315.436735 89.410995 
L 315.49762 90.283827 
L 315.741159 100.713914 
L 315.862929 96.770283 
L 315.984699 101.504992 
L 316.106469 96.292779 
L 316.289123 102.364209 
L 316.471778 96.28129 
L 316.715318 102.917135 
L 316.958857 88.709421 
L 317.019742 94.80351 
L 317.080627 90.760838 
L 317.141512 89.214887 
L 317.263282 78.609349 
L 317.324167 79.10612 
L 317.506821 87.332843 
L 317.567706 80.91094 
L 317.628591 86.043942 
L 317.811246 90.178903 
L 317.933016 80.866892 
L 317.993901 82.971132 
L 318.11567 73.905601 
L 318.176555 74.814843 
L 318.23744 74.889642 
L 318.420095 67.241334 
L 318.48098 68.187314 
L 318.541865 65.066758 
L 318.60275 66.012431 
L 318.907174 87.39334 
L 319.028944 83.297895 
L 319.089829 84.467255 
L 319.150714 83.639012 
L 319.516023 100.829079 
L 319.576908 95.734591 
L 319.637793 97.097902 
L 319.881333 111.132507 
L 319.942218 108.88229 
L 320.063987 115.662224 
L 320.246642 121.410511 
L 320.368412 121.172122 
L 320.429297 119.014378 
L 320.551067 127.454752 
L 320.611951 123.954689 
L 320.855491 116.536365 
L 320.977261 119.643704 
L 321.099031 108.347308 
L 321.159916 111.525348 
L 321.281685 115.526856 
L 321.46434 110.876206 
L 321.525225 110.859408 
L 321.70788 113.423658 
L 321.768765 105.658796 
L 321.82965 111.577022 
L 321.890534 112.482255 
L 322.134074 126.604042 
L 322.194959 123.623721 
L 322.255844 127.145919 
L 322.316729 124.842615 
L 322.438499 127.245959 
L 322.499384 134.124806 
L 322.560268 129.16071 
L 322.682038 125.15454 
L 322.803808 132.988235 
L 322.925578 124.015717 
L 322.986463 123.943801 
L 323.047348 120.977739 
L 323.108233 123.006626 
L 323.169117 130.880554 
L 323.230002 127.996905 
L 323.290887 123.907504 
L 323.656197 144.439158 
L 323.717082 144.524205 
L 323.777967 141.877082 
L 323.838851 143.160914 
L 323.899736 144.62298 
L 323.960621 150.081229 
L 324.021506 147.7868 
L 324.204161 156.182216 
L 324.325931 166.647433 
L 324.386816 165.422453 
L 324.4477 170.162226 
L 324.508585 169.65229 
L 324.56947 170.047903 
L 324.630355 167.941456 
L 324.69124 170.314712 
L 325.117434 154.626026 
L 325.239204 157.521488 
L 325.300089 153.31869 
L 325.360974 154.374001 
L 325.482744 163.735587 
L 325.543629 160.738019 
L 325.604514 160.844377 
L 325.787168 167.143431 
L 325.848053 166.095594 
L 325.969823 170.641424 
L 326.030708 165.739959 
L 326.152478 171.68953 
L 326.213363 169.800531 
L 326.335132 178.50189 
L 326.396017 175.860159 
L 326.456902 177.755266 
L 326.517787 178.348521 
L 326.578672 173.01446 
L 326.639557 176.969595 
L 326.761327 180.579325 
L 326.822212 178.423213 
L 326.883097 179.21089 
L 326.943982 182.162378 
L 327.004866 180.32352 
L 327.065751 178.671603 
L 327.491946 198.673062 
L 327.6746 196.537345 
L 327.857255 192.000983 
L 328.100795 202.475092 
L 328.16168 200.176856 
L 328.222565 198.626878 
L 328.405219 189.323957 
L 328.466104 187.361768 
L 328.526989 191.787148 
L 328.587874 185.007775 
L 328.648759 186.714173 
L 328.709644 185.979291 
L 328.770529 191.151146 
L 328.831414 189.319123 
L 328.892298 185.178699 
L 329.074953 194.400866 
L 329.196723 200.275507 
L 329.257608 198.849529 
L 329.318493 201.673272 
L 329.379378 197.189529 
L 329.440263 198.810739 
L 329.501148 201.593924 
L 329.562032 201.197313 
L 329.683802 197.440525 
L 329.744687 205.455533 
L 329.805572 202.051065 
L 329.866457 199.917341 
L 329.927342 200.831627 
L 329.988227 200.509099 
L 330.049112 199.366026 
L 330.109997 199.405031 
L 330.231766 201.818887 
L 330.414421 195.094414 
L 330.536191 201.531255 
L 330.597076 197.533379 
L 330.657961 200.056545 
L 330.840615 209.713299 
L 330.9015 208.625629 
L 331.02327 202.234891 
L 331.205925 211.12452 
L 331.327695 206.810792 
L 331.38858 208.624021 
L 331.449464 206.06177 
L 331.510349 207.316065 
L 331.571234 208.082622 
L 331.753889 203.580008 
L 331.814774 201.19245 
L 331.997429 207.238235 
L 332.240968 213.494715 
L 332.423623 227.082641 
L 332.484508 233.042239 
L 332.545393 232.127553 
L 332.667163 226.023267 
L 332.728047 227.588787 
L 332.910702 221.7381 
L 333.032472 225.354858 
L 333.276012 217.18831 
L 333.336896 218.848027 
L 333.458666 216.476698 
L 333.580436 229.340989 
L 333.641321 226.308063 
L 333.945746 241.73006 
L 334.00663 241.126781 
L 334.067515 242.116364 
L 334.189285 238.873774 
L 334.37194 226.21189 
L 334.554595 238.274085 
L 334.615479 235.672113 
L 334.798134 240.411496 
L 334.980789 232.689313 
L 335.041674 233.473481 
L 335.285213 214.845904 
L 335.346098 215.937343 
L 335.406983 215.962912 
L 335.467868 210.493137 
L 335.528753 213.612332 
L 335.589638 213.772314 
L 335.772293 220.756801 
L 335.833178 219.956115 
L 335.894062 221.597155 
L 336.015832 218.213507 
L 336.076717 219.510279 
L 336.137602 224.787926 
L 336.198487 223.639408 
L 336.259372 223.714046 
L 336.502911 218.310306 
L 336.563796 218.921999 
L 336.624681 219.019132 
L 336.685566 217.661523 
L 336.746451 221.134909 
L 336.807336 220.896825 
L 336.868221 221.007317 
L 336.929106 221.561468 
L 337.050876 223.509387 
L 337.23353 214.961953 
L 337.294415 219.647468 
L 337.3553 218.558079 
L 337.47707 216.822542 
L 337.537955 217.533695 
L 337.659725 222.524593 
L 337.964149 207.962056 
L 338.025034 209.00189 
L 338.268574 225.734718 
L 338.694768 210.281192 
L 338.755653 212.404231 
L 338.816538 206.647347 
L 338.877423 206.886488 
L 338.938308 215.890354 
L 338.999193 215.316811 
L 339.181847 209.315447 
L 339.242732 217.416047 
L 339.303617 214.289408 
L 339.486272 222.879141 
L 339.547157 221.499528 
L 339.608042 215.39705 
L 339.668927 219.846142 
L 339.729811 219.644634 
L 339.790696 218.490171 
L 339.851581 212.901739 
L 339.912466 219.39713 
L 339.973351 219.164663 
L 340.399545 200.760859 
L 340.643085 211.843887 
L 340.70397 211.364533 
L 340.764855 209.433451 
L 340.82574 217.95552 
L 340.886625 216.691758 
L 340.94751 215.194587 
L 341.008394 206.030939 
L 341.069279 210.744137 
L 341.130164 209.151759 
L 341.251934 200.877401 
L 341.312819 202.101456 
L 341.617243 214.18824 
L 341.678128 211.315421 
L 341.799898 210.158584 
L 341.860783 213.839828 
L 342.104323 195.160911 
L 342.347862 201.105431 
L 342.408747 199.65104 
L 342.469632 203.479226 
L 342.530517 201.273701 
L 342.591402 198.858132 
L 342.652287 199.177596 
L 342.713172 202.040598 
L 342.774057 201.830773 
L 342.834942 201.171799 
L 343.017596 210.813333 
L 343.078481 211.118644 
L 343.139366 212.700066 
L 343.261136 217.305367 
L 343.504675 207.133737 
L 343.56556 207.371583 
L 343.626445 210.753411 
L 343.8091 200.848019 
L 343.869985 199.329734 
L 343.93087 200.368284 
L 343.991755 202.330436 
L 344.05264 200.952602 
L 344.113525 200.6119 
L 344.174409 194.504603 
L 344.235294 195.530077 
L 344.417949 201.992499 
L 344.478834 200.840697 
L 344.539719 195.973856 
L 344.661489 204.392118 
L 344.722374 200.639161 
L 344.783258 203.612885 
L 344.844143 208.495111 
L 344.905028 205.43099 
L 345.087683 199.903317 
L 345.148568 197.810876 
L 345.209453 198.605045 
L 345.392108 203.804471 
L 345.513877 197.208323 
L 345.574762 200.400708 
L 345.635647 198.650231 
L 345.696532 199.224821 
L 345.879187 207.445642 
L 346.244496 179.420938 
L 346.305381 179.908098 
L 346.366266 179.714019 
L 346.548921 172.773257 
L 346.609806 174.092374 
L 346.731575 179.157419 
L 347.036 159.241961 
L 347.096885 160.059398 
L 347.401309 174.183355 
L 347.583964 180.02427 
L 347.766619 193.828826 
L 347.888389 190.459042 
L 347.949273 191.598014 
L 348.010158 186.554524 
L 348.131928 194.407349 
L 348.192813 191.278517 
L 348.314583 196.232284 
L 348.375468 195.179045 
L 348.436353 195.131848 
L 348.497238 191.208353 
L 348.740777 209.569926 
L 348.801662 207.57343 
L 348.862547 211.096693 
L 349.227856 186.614901 
L 349.349626 182.861026 
L 349.471396 189.986447 
L 349.775821 200.586283 
L 350.080245 189.026037 
L 350.14113 191.366629 
L 350.202015 190.920092 
L 350.2629 188.360302 
L 350.567324 202.110615 
L 350.628209 199.684865 
L 350.871749 190.743268 
L 351.115289 210.558214 
L 351.176173 209.627863 
L 351.358828 222.268608 
L 351.480598 225.111763 
L 351.602368 232.13743 
L 352.150332 209.745836 
L 352.211217 210.72275 
L 352.332987 221.230011 
L 352.393872 220.517255 
L 352.454756 218.149238 
L 352.515641 222.022372 
L 352.576526 219.692253 
L 352.637411 216.770275 
L 352.698296 225.104728 
L 352.759181 220.72065 
L 352.941836 228.580752 
L 353.002721 228.309497 
L 353.185375 223.909986 
L 353.24626 225.031604 
L 353.307145 224.46506 
L 353.36803 227.297471 
L 353.733339 212.618514 
L 353.794224 213.237068 
L 353.915994 217.289675 
L 353.976879 216.024611 
L 354.037764 215.45931 
L 354.524843 191.829365 
L 354.585728 191.242086 
L 354.646613 191.265637 
L 354.768383 196.325807 
L 354.829268 196.180993 
L 354.890153 198.732626 
L 355.011922 187.332163 
L 355.072807 187.660267 
L 355.133692 191.925351 
L 355.194577 189.395878 
L 355.438117 182.129617 
L 355.499002 189.398129 
L 355.559887 188.816783 
L 355.620771 186.922012 
L 355.742541 191.33777 
L 355.803426 190.767038 
L 355.986081 182.42914 
L 356.046966 182.722684 
L 356.107851 181.429336 
L 356.22962 189.087103 
L 356.35139 187.785216 
L 356.534045 191.35717 
L 356.59493 197.738478 
L 356.7167 190.049218 
L 356.777585 192.28741 
L 356.83847 189.578716 
L 356.899354 192.156618 
L 357.021124 185.675158 
L 357.082009 186.337258 
L 357.142894 186.87096 
L 357.386434 181.867745 
L 357.447319 183.543148 
L 357.508203 181.982345 
L 357.690858 188.561418 
L 357.751743 190.19295 
L 357.812628 186.240161 
L 357.873513 188.756138 
L 357.934398 188.903292 
L 357.995283 185.426913 
L 358.056168 188.868581 
L 358.117053 187.472136 
L 358.177937 187.345872 
L 358.238822 183.334692 
L 358.299707 184.248993 
L 358.482362 187.387494 
L 358.543247 187.721907 
L 358.604132 191.031593 
L 358.725902 207.447939 
L 358.786786 202.68559 
L 358.847671 195.73151 
L 358.908556 196.147921 
L 359.030326 209.232405 
L 359.091211 205.879404 
L 359.152096 205.89592 
L 359.212981 207.600149 
L 359.273866 213.319968 
L 359.334751 212.080218 
L 359.45652 215.118425 
L 359.57829 209.042451 
L 359.70006 214.286635 
L 359.760945 213.802014 
L 359.82183 211.768175 
L 359.882715 214.364671 
L 360.004485 207.760595 
L 360.065369 208.988015 
L 360.187139 202.821906 
L 360.491564 223.11532 
L 360.613334 225.736477 
L 360.735103 217.550901 
L 360.795988 217.583279 
L 360.917758 214.299073 
L 360.978643 216.55203 
L 361.039528 215.968279 
L 361.222183 201.210884 
L 361.283068 201.490714 
L 361.343952 201.782387 
L 361.465722 209.577103 
L 361.526607 205.802458 
L 361.587492 210.593105 
L 361.770147 202.752258 
L 361.831032 210.379083 
L 361.891917 209.084815 
L 361.952801 206.617717 
L 362.074571 193.461754 
L 362.135456 194.869024 
L 362.257226 191.041258 
L 362.378996 195.492702 
L 362.439881 194.295192 
L 362.500766 192.346333 
L 362.561651 193.420546 
L 362.622535 196.458605 
L 362.68342 191.576908 
L 362.744305 194.003508 
L 363.04873 178.321887 
L 363.109615 179.257098 
L 363.231384 186.846588 
L 363.292269 185.90838 
L 363.596694 167.314292 
L 363.657579 168.313426 
L 363.718464 172.031651 
L 363.779349 170.899639 
L 363.962003 158.55028 
L 364.022888 162.729606 
L 364.083773 162.155578 
L 364.144658 163.989072 
L 364.266428 159.694249 
L 364.327313 160.497326 
L 364.449083 171.300718 
L 364.509967 168.724387 
L 364.570852 169.001432 
L 364.753507 175.359211 
L 364.875277 170.385805 
L 364.936162 173.944429 
L 364.997047 166.712152 
L 365.057932 167.118226 
L 365.118816 168.232835 
L 365.545011 152.654782 
L 365.605896 152.828743 
L 365.78855 148.394461 
L 365.971205 155.115246 
L 366.03209 153.980874 
L 366.27563 168.378232 
L 366.336515 164.774247 
L 366.397399 163.710717 
L 366.458284 159.770224 
L 366.519169 162.04638 
L 366.580054 163.053224 
L 366.640939 160.675538 
L 366.701824 166.795088 
L 366.762709 166.607597 
L 366.884479 168.104489 
L 366.945364 166.684243 
L 367.188903 151.534656 
L 367.310673 156.554402 
L 367.493328 150.77674 
L 367.675982 154.730339 
L 367.919522 146.901774 
L 367.980407 149.356233 
L 368.102177 143.154447 
L 368.771911 171.481284 
L 368.832796 169.90888 
L 368.893681 173.384394 
L 369.076335 156.739766 
L 369.13722 158.444267 
L 369.319875 149.006308 
L 369.38076 150.337898 
L 369.441645 150.560218 
L 369.563415 156.478238 
L 369.624299 155.304165 
L 369.685184 155.577482 
L 369.806954 154.843594 
L 369.928724 158.571314 
L 369.989609 157.385437 
L 370.111379 163.445543 
L 370.172264 158.393261 
L 370.233148 159.099625 
L 370.354918 164.584962 
L 370.476688 163.54418 
L 370.537573 161.343158 
L 370.598458 162.412235 
L 370.659343 167.142231 
L 370.720228 164.343797 
L 370.781113 166.051638 
L 370.963767 160.812041 
L 371.085537 166.075995 
L 371.268192 159.027054 
L 371.389962 162.809136 
L 371.511731 159.146126 
L 371.572616 161.017642 
L 371.694386 155.126601 
L 371.755271 157.542703 
L 371.937926 146.85278 
L 372.12058 155.684226 
L 372.303235 151.867446 
L 372.36412 153.015369 
L 372.48589 143.253259 
L 372.60766 145.689264 
L 372.668545 145.344357 
L 372.851199 149.032432 
L 372.972969 143.165958 
L 373.033854 146.964241 
L 373.094739 145.948945 
L 373.155624 134.154318 
L 373.216509 135.585606 
L 373.277394 133.513473 
L 373.338279 134.058865 
L 373.399163 135.915908 
L 373.520933 129.628937 
L 373.581818 129.916376 
" style="fill:none;stroke:#1f77b4;stroke-linecap:round;stroke-width:1.5;"/>
   </g>
   <g id="patch_3">
    <path d="M 54 252 
L 54 34.56 
" style="fill:none;stroke:#cccccc;stroke-linecap:square;stroke-linejoin:miter;stroke-width:0.8;"/>
   </g>
   <g id="patch_4">
    <path d="M 388.8 252 
L 388.8 34.56 
" style="fill:none;stroke:#cccccc;stroke-linecap:square;stroke-linejoin:miter;stroke-width:0.8;"/>
   </g>
   <g id="patch_5">
    <path d="M 54 252 
L 388.8 252 
" style="fill:none;stroke:#cccccc;stroke-linecap:square;stroke-linejoin:miter;stroke-width:0.8;"/>
   </g>
   <g id="patch_6">
    <path d="M 54 34.56 
L 388.8 34.56 
" style="fill:none;stroke:#cccccc;stroke-linecap:square;stroke-linejoin:miter;stroke-width:0.8;"/>
   </g>
  </g>
 </g>
 <defs>
  <clipPath id="p5cb06ee87e">
   <rect height="217.44" width="334.8" x="54" y="34.56"/>
  </clipPath>
 </defs>
</svg>
