<?xml version="1.0" encoding="utf-8" standalone="no"?>
<!DOCTYPE svg PUBLIC "-//W3C//DTD SVG 1.1//EN"
  "http://www.w3.org/Graphics/SVG/1.1/DTD/svg11.dtd">
<svg height="288pt" version="1.1" viewBox="0 0 432 288" width="432pt" xmlns="http://www.w3.org/2000/svg" xmlns:xlink="http://www.w3.org/1999/xlink">
 <metadata>
  <rdf:RDF xmlns:cc="http://creativecommons.org/ns#" xmlns:dc="http://purl.org/dc/elements/1.1/" xmlns:rdf="http://www.w3.org/1999/02/22-rdf-syntax-ns#">
   <cc:Work>
    <dc:type rdf:resource="http://purl.org/dc/dcmitype/StillImage"/>
    <dc:date>2022-03-07T23:26:34.480933</dc:date>
    <dc:format>image/svg+xml</dc:format>
    <dc:creator>
     <cc:Agent>
      <dc:title>Matplotlib v3.4.3, https://matplotlib.org/</dc:title>
     </cc:Agent>
    </dc:creator>
   </cc:Work>
  </rdf:RDF>
 </metadata>
 <defs>
  <style type="text/css">*{stroke-linecap:butt;stroke-linejoin:round;}</style>
 </defs>
 <g id="figure_1">
  <g id="patch_1">
   <path d="M 0 288 
L 432 288 
L 432 0 
L 0 0 
z
" style="fill:#ffffff;"/>
  </g>
  <g id="axes_1">
   <g id="patch_2">
    <path d="M 54 252 
L 388.8 252 
L 388.8 34.56 
L 54 34.56 
z
" style="fill:#ffffff;"/>
   </g>
   <g id="matplotlib.axis_1">
    <g id="xtick_1">
     <g id="line2d_1">
      <path clip-path="url(#p2f25b089fb)" d="M 69.218182 252 
L 69.218182 34.56 
" style="fill:none;stroke:#cccccc;stroke-linecap:round;stroke-width:0.8;"/>
     </g>
     <g id="text_1">
      <!-- 0 -->
      <g style="fill:#262626;" transform="translate(65.325526 269.020938)scale(0.14 -0.14)">
       <defs>
        <path d="M 266 2259 
Q 266 3072 433 3567 
Q 600 4063 929 4331 
Q 1259 4600 1759 4600 
Q 2128 4600 2406 4451 
Q 2684 4303 2865 4023 
Q 3047 3744 3150 3342 
Q 3253 2941 3253 2259 
Q 3253 1453 3087 958 
Q 2922 463 2592 192 
Q 2263 -78 1759 -78 
Q 1097 -78 719 397 
Q 266 969 266 2259 
z
M 844 2259 
Q 844 1131 1108 757 
Q 1372 384 1759 384 
Q 2147 384 2411 759 
Q 2675 1134 2675 2259 
Q 2675 3391 2411 3762 
Q 2147 4134 1753 4134 
Q 1366 4134 1134 3806 
Q 844 3388 844 2259 
z
" id="ArialMT-30" transform="scale(0.015625)"/>
       </defs>
       <use xlink:href="#ArialMT-30"/>
      </g>
     </g>
    </g>
    <g id="xtick_2">
     <g id="line2d_2">
      <path clip-path="url(#p2f25b089fb)" d="M 130.103086 252 
L 130.103086 34.56 
" style="fill:none;stroke:#cccccc;stroke-linecap:round;stroke-width:0.8;"/>
     </g>
     <g id="text_2">
      <!-- 1000 -->
      <g style="fill:#262626;" transform="translate(114.532461 269.020938)scale(0.14 -0.14)">
       <defs>
        <path d="M 2384 0 
L 1822 0 
L 1822 3584 
Q 1619 3391 1289 3197 
Q 959 3003 697 2906 
L 697 3450 
Q 1169 3672 1522 3987 
Q 1875 4303 2022 4600 
L 2384 4600 
L 2384 0 
z
" id="ArialMT-31" transform="scale(0.015625)"/>
       </defs>
       <use xlink:href="#ArialMT-31"/>
       <use x="55.615234" xlink:href="#ArialMT-30"/>
       <use x="111.230469" xlink:href="#ArialMT-30"/>
       <use x="166.845703" xlink:href="#ArialMT-30"/>
      </g>
     </g>
    </g>
    <g id="xtick_3">
     <g id="line2d_3">
      <path clip-path="url(#p2f25b089fb)" d="M 190.98799 252 
L 190.98799 34.56 
" style="fill:none;stroke:#cccccc;stroke-linecap:round;stroke-width:0.8;"/>
     </g>
     <g id="text_3">
      <!-- 2000 -->
      <g style="fill:#262626;" transform="translate(175.417365 269.020938)scale(0.14 -0.14)">
       <defs>
        <path d="M 3222 541 
L 3222 0 
L 194 0 
Q 188 203 259 391 
Q 375 700 629 1000 
Q 884 1300 1366 1694 
Q 2113 2306 2375 2664 
Q 2638 3022 2638 3341 
Q 2638 3675 2398 3904 
Q 2159 4134 1775 4134 
Q 1369 4134 1125 3890 
Q 881 3647 878 3216 
L 300 3275 
Q 359 3922 746 4261 
Q 1134 4600 1788 4600 
Q 2447 4600 2831 4234 
Q 3216 3869 3216 3328 
Q 3216 3053 3103 2787 
Q 2991 2522 2730 2228 
Q 2469 1934 1863 1422 
Q 1356 997 1212 845 
Q 1069 694 975 541 
L 3222 541 
z
" id="ArialMT-32" transform="scale(0.015625)"/>
       </defs>
       <use xlink:href="#ArialMT-32"/>
       <use x="55.615234" xlink:href="#ArialMT-30"/>
       <use x="111.230469" xlink:href="#ArialMT-30"/>
       <use x="166.845703" xlink:href="#ArialMT-30"/>
      </g>
     </g>
    </g>
    <g id="xtick_4">
     <g id="line2d_4">
      <path clip-path="url(#p2f25b089fb)" d="M 251.872895 252 
L 251.872895 34.56 
" style="fill:none;stroke:#cccccc;stroke-linecap:round;stroke-width:0.8;"/>
     </g>
     <g id="text_4">
      <!-- 3000 -->
      <g style="fill:#262626;" transform="translate(236.30227 269.020938)scale(0.14 -0.14)">
       <defs>
        <path d="M 269 1209 
L 831 1284 
Q 928 806 1161 595 
Q 1394 384 1728 384 
Q 2125 384 2398 659 
Q 2672 934 2672 1341 
Q 2672 1728 2419 1979 
Q 2166 2231 1775 2231 
Q 1616 2231 1378 2169 
L 1441 2663 
Q 1497 2656 1531 2656 
Q 1891 2656 2178 2843 
Q 2466 3031 2466 3422 
Q 2466 3731 2256 3934 
Q 2047 4138 1716 4138 
Q 1388 4138 1169 3931 
Q 950 3725 888 3313 
L 325 3413 
Q 428 3978 793 4289 
Q 1159 4600 1703 4600 
Q 2078 4600 2393 4439 
Q 2709 4278 2876 4000 
Q 3044 3722 3044 3409 
Q 3044 3113 2884 2869 
Q 2725 2625 2413 2481 
Q 2819 2388 3044 2092 
Q 3269 1797 3269 1353 
Q 3269 753 2831 336 
Q 2394 -81 1725 -81 
Q 1122 -81 723 278 
Q 325 638 269 1209 
z
" id="ArialMT-33" transform="scale(0.015625)"/>
       </defs>
       <use xlink:href="#ArialMT-33"/>
       <use x="55.615234" xlink:href="#ArialMT-30"/>
       <use x="111.230469" xlink:href="#ArialMT-30"/>
       <use x="166.845703" xlink:href="#ArialMT-30"/>
      </g>
     </g>
    </g>
    <g id="xtick_5">
     <g id="line2d_5">
      <path clip-path="url(#p2f25b089fb)" d="M 312.757799 252 
L 312.757799 34.56 
" style="fill:none;stroke:#cccccc;stroke-linecap:round;stroke-width:0.8;"/>
     </g>
     <g id="text_5">
      <!-- 4000 -->
      <g style="fill:#262626;" transform="translate(297.187174 269.020938)scale(0.14 -0.14)">
       <defs>
        <path d="M 2069 0 
L 2069 1097 
L 81 1097 
L 81 1613 
L 2172 4581 
L 2631 4581 
L 2631 1613 
L 3250 1613 
L 3250 1097 
L 2631 1097 
L 2631 0 
L 2069 0 
z
M 2069 1613 
L 2069 3678 
L 634 1613 
L 2069 1613 
z
" id="ArialMT-34" transform="scale(0.015625)"/>
       </defs>
       <use xlink:href="#ArialMT-34"/>
       <use x="55.615234" xlink:href="#ArialMT-30"/>
       <use x="111.230469" xlink:href="#ArialMT-30"/>
       <use x="166.845703" xlink:href="#ArialMT-30"/>
      </g>
     </g>
    </g>
    <g id="xtick_6">
     <g id="line2d_6">
      <path clip-path="url(#p2f25b089fb)" d="M 373.642703 252 
L 373.642703 34.56 
" style="fill:none;stroke:#cccccc;stroke-linecap:round;stroke-width:0.8;"/>
     </g>
     <g id="text_6">
      <!-- 5000 -->
      <g style="fill:#262626;" transform="translate(358.072078 269.020938)scale(0.14 -0.14)">
       <defs>
        <path d="M 266 1200 
L 856 1250 
Q 922 819 1161 601 
Q 1400 384 1738 384 
Q 2144 384 2425 690 
Q 2706 997 2706 1503 
Q 2706 1984 2436 2262 
Q 2166 2541 1728 2541 
Q 1456 2541 1237 2417 
Q 1019 2294 894 2097 
L 366 2166 
L 809 4519 
L 3088 4519 
L 3088 3981 
L 1259 3981 
L 1013 2750 
Q 1425 3038 1878 3038 
Q 2478 3038 2890 2622 
Q 3303 2206 3303 1553 
Q 3303 931 2941 478 
Q 2500 -78 1738 -78 
Q 1113 -78 717 272 
Q 322 622 266 1200 
z
" id="ArialMT-35" transform="scale(0.015625)"/>
       </defs>
       <use xlink:href="#ArialMT-35"/>
       <use x="55.615234" xlink:href="#ArialMT-30"/>
       <use x="111.230469" xlink:href="#ArialMT-30"/>
       <use x="166.845703" xlink:href="#ArialMT-30"/>
      </g>
     </g>
    </g>
    <g id="text_7">
     <!-- Time -->
     <g style="fill:#262626;" transform="translate(203.92375 287.255938)scale(0.16 -0.16)">
      <defs>
       <path d="M 1659 0 
L 1659 4041 
L 150 4041 
L 150 4581 
L 3781 4581 
L 3781 4041 
L 2266 4041 
L 2266 0 
L 1659 0 
z
" id="ArialMT-54" transform="scale(0.015625)"/>
       <path d="M 425 3934 
L 425 4581 
L 988 4581 
L 988 3934 
L 425 3934 
z
M 425 0 
L 425 3319 
L 988 3319 
L 988 0 
L 425 0 
z
" id="ArialMT-69" transform="scale(0.015625)"/>
       <path d="M 422 0 
L 422 3319 
L 925 3319 
L 925 2853 
Q 1081 3097 1340 3245 
Q 1600 3394 1931 3394 
Q 2300 3394 2536 3241 
Q 2772 3088 2869 2813 
Q 3263 3394 3894 3394 
Q 4388 3394 4653 3120 
Q 4919 2847 4919 2278 
L 4919 0 
L 4359 0 
L 4359 2091 
Q 4359 2428 4304 2576 
Q 4250 2725 4106 2815 
Q 3963 2906 3769 2906 
Q 3419 2906 3187 2673 
Q 2956 2441 2956 1928 
L 2956 0 
L 2394 0 
L 2394 2156 
Q 2394 2531 2256 2718 
Q 2119 2906 1806 2906 
Q 1569 2906 1367 2781 
Q 1166 2656 1075 2415 
Q 984 2175 984 1722 
L 984 0 
L 422 0 
z
" id="ArialMT-6d" transform="scale(0.015625)"/>
       <path d="M 2694 1069 
L 3275 997 
Q 3138 488 2766 206 
Q 2394 -75 1816 -75 
Q 1088 -75 661 373 
Q 234 822 234 1631 
Q 234 2469 665 2931 
Q 1097 3394 1784 3394 
Q 2450 3394 2872 2941 
Q 3294 2488 3294 1666 
Q 3294 1616 3291 1516 
L 816 1516 
Q 847 969 1125 678 
Q 1403 388 1819 388 
Q 2128 388 2347 550 
Q 2566 713 2694 1069 
z
M 847 1978 
L 2700 1978 
Q 2663 2397 2488 2606 
Q 2219 2931 1791 2931 
Q 1403 2931 1139 2672 
Q 875 2413 847 1978 
z
" id="ArialMT-65" transform="scale(0.015625)"/>
      </defs>
      <use xlink:href="#ArialMT-54"/>
      <use x="57.333984" xlink:href="#ArialMT-69"/>
      <use x="79.550781" xlink:href="#ArialMT-6d"/>
      <use x="162.851562" xlink:href="#ArialMT-65"/>
     </g>
    </g>
   </g>
   <g id="matplotlib.axis_2">
    <g id="ytick_1">
     <g id="line2d_7">
      <path clip-path="url(#p2f25b089fb)" d="M 54 252 
L 388.8 252 
" style="fill:none;stroke:#cccccc;stroke-linecap:round;stroke-width:0.8;"/>
     </g>
     <g id="text_8">
      <!-- −1.5 -->
      <g style="fill:#262626;" transform="translate(19.363125 257.010469)scale(0.14 -0.14)">
       <defs>
        <path d="M 3381 1997 
L 356 1997 
L 356 2522 
L 3381 2522 
L 3381 1997 
z
" id="ArialMT-2212" transform="scale(0.015625)"/>
        <path d="M 581 0 
L 581 641 
L 1222 641 
L 1222 0 
L 581 0 
z
" id="ArialMT-2e" transform="scale(0.015625)"/>
       </defs>
       <use xlink:href="#ArialMT-2212"/>
       <use x="58.398438" xlink:href="#ArialMT-31"/>
       <use x="114.013672" xlink:href="#ArialMT-2e"/>
       <use x="141.796875" xlink:href="#ArialMT-35"/>
      </g>
     </g>
    </g>
    <g id="ytick_2">
     <g id="line2d_8">
      <path clip-path="url(#p2f25b089fb)" d="M 54 215.76 
L 388.8 215.76 
" style="fill:none;stroke:#cccccc;stroke-linecap:round;stroke-width:0.8;"/>
     </g>
     <g id="text_9">
      <!-- −1.0 -->
      <g style="fill:#262626;" transform="translate(19.363125 220.770469)scale(0.14 -0.14)">
       <use xlink:href="#ArialMT-2212"/>
       <use x="58.398438" xlink:href="#ArialMT-31"/>
       <use x="114.013672" xlink:href="#ArialMT-2e"/>
       <use x="141.796875" xlink:href="#ArialMT-30"/>
      </g>
     </g>
    </g>
    <g id="ytick_3">
     <g id="line2d_9">
      <path clip-path="url(#p2f25b089fb)" d="M 54 179.52 
L 388.8 179.52 
" style="fill:none;stroke:#cccccc;stroke-linecap:round;stroke-width:0.8;"/>
     </g>
     <g id="text_10">
      <!-- −0.5 -->
      <g style="fill:#262626;" transform="translate(19.363125 184.530469)scale(0.14 -0.14)">
       <use xlink:href="#ArialMT-2212"/>
       <use x="58.398438" xlink:href="#ArialMT-30"/>
       <use x="114.013672" xlink:href="#ArialMT-2e"/>
       <use x="141.796875" xlink:href="#ArialMT-35"/>
      </g>
     </g>
    </g>
    <g id="ytick_4">
     <g id="line2d_10">
      <path clip-path="url(#p2f25b089fb)" d="M 54 143.28 
L 388.8 143.28 
" style="fill:none;stroke:#cccccc;stroke-linecap:round;stroke-width:0.8;"/>
     </g>
     <g id="text_11">
      <!-- 0.0 -->
      <g style="fill:#262626;" transform="translate(27.54 148.290469)scale(0.14 -0.14)">
       <use xlink:href="#ArialMT-30"/>
       <use x="55.615234" xlink:href="#ArialMT-2e"/>
       <use x="83.398438" xlink:href="#ArialMT-30"/>
      </g>
     </g>
    </g>
    <g id="ytick_5">
     <g id="line2d_11">
      <path clip-path="url(#p2f25b089fb)" d="M 54 107.04 
L 388.8 107.04 
" style="fill:none;stroke:#cccccc;stroke-linecap:round;stroke-width:0.8;"/>
     </g>
     <g id="text_12">
      <!-- 0.5 -->
      <g style="fill:#262626;" transform="translate(27.54 112.050469)scale(0.14 -0.14)">
       <use xlink:href="#ArialMT-30"/>
       <use x="55.615234" xlink:href="#ArialMT-2e"/>
       <use x="83.398438" xlink:href="#ArialMT-35"/>
      </g>
     </g>
    </g>
    <g id="ytick_6">
     <g id="line2d_12">
      <path clip-path="url(#p2f25b089fb)" d="M 54 70.8 
L 388.8 70.8 
" style="fill:none;stroke:#cccccc;stroke-linecap:round;stroke-width:0.8;"/>
     </g>
     <g id="text_13">
      <!-- 1.0 -->
      <g style="fill:#262626;" transform="translate(27.54 75.810469)scale(0.14 -0.14)">
       <use xlink:href="#ArialMT-31"/>
       <use x="55.615234" xlink:href="#ArialMT-2e"/>
       <use x="83.398438" xlink:href="#ArialMT-30"/>
      </g>
     </g>
    </g>
    <g id="ytick_7">
     <g id="line2d_13">
      <path clip-path="url(#p2f25b089fb)" d="M 54 34.56 
L 388.8 34.56 
" style="fill:none;stroke:#cccccc;stroke-linecap:round;stroke-width:0.8;"/>
     </g>
     <g id="text_14">
      <!-- 1.5 -->
      <g style="fill:#262626;" transform="translate(27.54 39.570469)scale(0.14 -0.14)">
       <use xlink:href="#ArialMT-31"/>
       <use x="55.615234" xlink:href="#ArialMT-2e"/>
       <use x="83.398438" xlink:href="#ArialMT-35"/>
      </g>
     </g>
    </g>
    <g id="text_15">
     <!-- Noise -->
     <g style="fill:#262626;" transform="translate(12.183125 163.7325)rotate(-90)scale(0.16 -0.16)">
      <defs>
       <path d="M 488 0 
L 488 4581 
L 1109 4581 
L 3516 984 
L 3516 4581 
L 4097 4581 
L 4097 0 
L 3475 0 
L 1069 3600 
L 1069 0 
L 488 0 
z
" id="ArialMT-4e" transform="scale(0.015625)"/>
       <path d="M 213 1659 
Q 213 2581 725 3025 
Q 1153 3394 1769 3394 
Q 2453 3394 2887 2945 
Q 3322 2497 3322 1706 
Q 3322 1066 3130 698 
Q 2938 331 2570 128 
Q 2203 -75 1769 -75 
Q 1072 -75 642 372 
Q 213 819 213 1659 
z
M 791 1659 
Q 791 1022 1069 705 
Q 1347 388 1769 388 
Q 2188 388 2466 706 
Q 2744 1025 2744 1678 
Q 2744 2294 2464 2611 
Q 2184 2928 1769 2928 
Q 1347 2928 1069 2612 
Q 791 2297 791 1659 
z
" id="ArialMT-6f" transform="scale(0.015625)"/>
       <path d="M 197 991 
L 753 1078 
Q 800 744 1014 566 
Q 1228 388 1613 388 
Q 2000 388 2187 545 
Q 2375 703 2375 916 
Q 2375 1106 2209 1216 
Q 2094 1291 1634 1406 
Q 1016 1563 777 1677 
Q 538 1791 414 1992 
Q 291 2194 291 2438 
Q 291 2659 392 2848 
Q 494 3038 669 3163 
Q 800 3259 1026 3326 
Q 1253 3394 1513 3394 
Q 1903 3394 2198 3281 
Q 2494 3169 2634 2976 
Q 2775 2784 2828 2463 
L 2278 2388 
Q 2241 2644 2061 2787 
Q 1881 2931 1553 2931 
Q 1166 2931 1000 2803 
Q 834 2675 834 2503 
Q 834 2394 903 2306 
Q 972 2216 1119 2156 
Q 1203 2125 1616 2013 
Q 2213 1853 2448 1751 
Q 2684 1650 2818 1456 
Q 2953 1263 2953 975 
Q 2953 694 2789 445 
Q 2625 197 2315 61 
Q 2006 -75 1616 -75 
Q 969 -75 630 194 
Q 291 463 197 991 
z
" id="ArialMT-73" transform="scale(0.015625)"/>
      </defs>
      <use xlink:href="#ArialMT-4e"/>
      <use x="72.216797" xlink:href="#ArialMT-6f"/>
      <use x="127.832031" xlink:href="#ArialMT-69"/>
      <use x="150.048828" xlink:href="#ArialMT-73"/>
      <use x="200.048828" xlink:href="#ArialMT-65"/>
     </g>
    </g>
   </g>
   <g id="line2d_14">
    <path clip-path="url(#p2f25b089fb)" d="M 69.218182 143.383945 
L 69.400837 144.229581 
L 69.461721 143.251625 
L 69.522606 144.139037 
L 69.644376 141.877155 
L 70.07057 144.454614 
L 70.253225 145.049678 
L 70.374995 142.935244 
L 70.43588 143.056089 
L 70.496765 143.30947 
L 70.55765 143.092782 
L 70.618535 142.425968 
L 70.801189 144.201766 
L 71.105614 140.531174 
L 71.166499 141.174406 
L 71.227384 141.021475 
L 71.349153 140.340666 
L 71.410038 141.607089 
L 71.470923 140.857173 
L 71.592693 140.192341 
L 71.714463 140.902911 
L 71.897118 137.653199 
L 71.958003 138.543115 
L 72.079772 137.623833 
L 72.140657 137.874184 
L 72.201542 136.22489 
L 72.262427 136.526807 
L 72.384197 137.422355 
L 72.445082 136.445068 
L 72.505967 136.57919 
L 72.688621 137.686453 
L 72.810391 136.97498 
L 72.871276 136.254659 
L 72.993046 137.728235 
L 73.053931 137.200018 
L 73.114816 138.045319 
L 73.29747 136.744229 
L 73.41924 136.773948 
L 73.480125 137.084392 
L 73.66278 135.664679 
L 73.723665 135.750447 
L 73.78455 136.872234 
L 73.845435 136.24001 
L 73.967204 136.604148 
L 74.088974 138.607336 
L 74.271629 136.517037 
L 74.332514 136.792893 
L 74.515168 137.675107 
L 74.636938 135.936613 
L 74.697823 136.376057 
L 74.758708 136.135092 
L 74.819593 136.368768 
L 74.880478 135.858843 
L 75.002248 137.949968 
L 75.063133 137.221152 
L 75.124018 137.313262 
L 75.306672 135.3931 
L 75.367557 135.965644 
L 75.428442 134.356294 
L 75.489327 134.469356 
L 75.550212 135.119289 
L 75.671982 133.869286 
L 75.732867 134.045797 
L 75.793751 135.274878 
L 75.854636 134.417597 
L 76.098176 131.35835 
L 76.159061 132.198243 
L 76.219946 131.753939 
L 76.280831 131.085559 
L 76.341716 131.306089 
L 76.402601 131.863775 
L 76.463485 131.485231 
L 76.52437 131.950498 
L 76.585255 131.073683 
L 76.64614 131.717363 
L 76.707025 131.714444 
L 77.194104 129.229745 
L 77.498529 132.129678 
L 77.681184 130.769407 
L 77.742068 130.908807 
L 78.168263 134.212238 
L 78.350917 131.873077 
L 78.533572 132.469974 
L 78.594457 131.902978 
L 78.655342 132.335529 
L 78.716227 132.349163 
L 78.837997 131.77283 
L 78.898882 131.893314 
L 79.081536 129.879235 
L 79.142421 129.995615 
L 79.203306 130.088165 
L 79.264191 129.950915 
L 79.446846 132.140984 
L 79.507731 131.749081 
L 79.6295 130.863474 
L 79.690385 131.627521 
L 79.933925 129.245814 
L 79.99481 128.979182 
L 80.055695 129.18035 
L 80.177465 129.894284 
L 80.238349 131.437872 
L 80.299234 130.358927 
L 80.360119 129.342699 
L 80.421004 129.767439 
L 80.481889 129.801092 
L 80.664544 131.432771 
L 80.847199 128.957325 
L 80.908083 128.755901 
L 80.968968 129.075905 
L 81.029853 127.981581 
L 81.090738 128.071238 
L 81.151623 128.543614 
L 81.212508 130.190255 
L 81.273393 129.654671 
L 81.334278 129.65735 
L 81.456048 130.089261 
L 81.516932 129.531165 
L 81.699587 131.342454 
L 81.821357 129.042068 
L 81.943127 129.667424 
L 82.064897 130.444396 
L 82.125782 130.244779 
L 82.247551 131.612844 
L 82.308436 132.547772 
L 82.369321 131.069816 
L 82.430206 131.52172 
L 82.551976 132.369887 
L 82.734631 131.333267 
L 82.917285 132.068626 
L 82.97817 131.803261 
L 83.09994 134.009723 
L 83.160825 133.347977 
L 83.22171 133.69455 
L 83.34348 135.763846 
L 83.404365 134.886817 
L 83.587019 138.038114 
L 83.647904 137.145267 
L 83.769674 136.202234 
L 83.952329 137.75191 
L 84.500293 133.050252 
L 84.682947 135.735391 
L 84.743832 135.451362 
L 84.865602 135.654462 
L 84.926487 135.599664 
L 84.987372 136.51512 
L 85.048257 135.182688 
L 85.109142 136.196614 
L 85.291797 136.931295 
L 85.535336 140.506118 
L 85.657106 140.339511 
L 85.778876 140.601147 
L 85.839761 140.321218 
L 85.96153 140.720414 
L 86.022415 140.613423 
L 86.0833 141.224005 
L 86.144185 140.906824 
L 86.265955 141.114005 
L 86.32684 141.993611 
L 86.387725 141.493774 
L 86.44861 141.145239 
L 86.509495 142.044948 
L 86.57038 141.517371 
L 86.874804 143.654039 
L 86.935689 143.396333 
L 87.118344 140.996994 
L 87.605423 144.914161 
L 87.788078 142.548177 
L 87.970732 139.701402 
L 88.153387 141.804073 
L 88.214272 141.559466 
L 88.336042 140.577251 
L 88.579581 142.516104 
L 88.640466 142.114945 
L 88.823121 139.865411 
L 88.884006 140.459828 
L 89.005776 141.292448 
L 89.249315 139.00136 
L 89.614625 142.07823 
L 89.67551 142.005643 
L 89.858164 140.570305 
L 89.919049 140.838121 
L 90.101704 139.219451 
L 90.223474 139.335709 
L 90.284359 139.840545 
L 90.345244 139.472397 
L 90.406128 138.61636 
L 90.771438 141.763012 
L 90.832323 142.038613 
L 91.014978 141.413315 
L 91.197632 143.158319 
L 91.319402 141.684932 
L 91.502057 143.444346 
L 91.806481 141.166563 
L 91.867366 141.442742 
L 92.050021 144.30105 
L 92.110906 144.266058 
L 92.171791 143.067293 
L 92.232676 143.359864 
L 92.354445 141.807198 
L 92.476215 140.343499 
L 92.597985 140.97216 
L 92.78064 143.397203 
L 92.841525 144.249876 
L 92.963294 142.115807 
L 93.024179 142.123811 
L 93.085064 142.320993 
L 93.267719 141.049656 
L 93.328604 141.599886 
L 93.389489 140.268157 
L 93.450374 140.604547 
L 93.633028 139.077599 
L 93.693913 138.329084 
L 93.754798 138.728925 
L 93.815683 138.304394 
L 93.937453 139.19313 
L 93.998338 138.697809 
L 94.180993 140.078228 
L 94.241877 140.006668 
L 94.302762 141.047979 
L 94.363647 140.627576 
L 94.546302 138.431743 
L 94.728957 139.456728 
L 94.850727 139.269053 
L 94.911611 140.755235 
L 94.972496 139.906213 
L 95.033381 140.417546 
L 95.276921 138.658432 
L 95.398691 140.563579 
L 95.459576 140.508639 
L 95.52046 141.533426 
L 95.581345 141.234538 
L 96.00754 138.397385 
L 96.068425 138.458668 
L 96.129309 139.191449 
L 96.190194 139.139535 
L 96.372849 138.558735 
L 96.433734 139.216249 
L 96.494619 138.08662 
L 96.555504 138.787665 
L 96.799043 142.399372 
L 97.103468 141.189865 
L 97.225238 142.42641 
L 97.286123 141.650542 
L 97.347008 142.370354 
L 97.529662 141.340278 
L 97.590547 142.79341 
L 97.651432 141.990085 
L 97.712317 141.20126 
L 97.773202 141.432907 
L 97.834087 141.584403 
L 97.894972 141.365983 
L 98.077626 142.782493 
L 98.321166 139.93071 
L 98.382051 140.940798 
L 98.442936 140.728748 
L 98.686475 137.955057 
L 98.74736 138.940084 
L 98.808245 138.472835 
L 98.86913 138.492523 
L 98.930015 138.32026 
L 99.051785 139.453879 
L 99.295325 141.180125 
L 99.538864 139.589137 
L 99.599749 140.110594 
L 99.660634 140.14669 
L 99.721519 139.985238 
L 99.782404 140.925838 
L 99.843289 139.39506 
L 99.904174 139.803137 
L 99.965058 139.411349 
L 100.025943 139.48489 
L 100.208598 141.580628 
L 100.269483 141.159652 
L 100.634792 145.244442 
L 100.695677 145.070421 
L 100.756562 144.186013 
L 100.817447 144.345621 
L 101.060987 147.817996 
L 101.182757 148.10993 
L 101.243641 148.032109 
L 101.365411 149.180618 
L 101.548066 148.536537 
L 101.669836 149.020998 
L 101.85249 147.597622 
L 101.97426 147.994617 
L 102.035145 148.000522 
L 102.156915 147.051671 
L 102.33957 145.655296 
L 102.46134 146.783285 
L 102.522224 146.416776 
L 102.583109 147.140737 
L 102.765764 144.455138 
L 102.887534 146.325682 
L 102.948419 145.101221 
L 103.009304 145.892852 
L 103.131073 145.216152 
L 103.191958 144.740723 
L 103.313728 145.382076 
L 103.496383 145.202835 
L 103.557268 145.102828 
L 103.679038 145.570438 
L 103.739923 145.461029 
L 104.044347 145.931946 
L 104.105232 144.425357 
L 104.166117 144.491559 
L 104.470541 147.164251 
L 104.531426 146.895053 
L 104.592311 147.274003 
L 104.653196 146.88193 
L 104.714081 146.993855 
L 104.835851 147.742029 
L 104.957621 146.865663 
L 105.018506 148.347623 
L 105.07939 147.878966 
L 105.140275 147.815052 
L 105.4447 146.468488 
L 105.627355 147.586937 
L 105.688239 147.794331 
L 105.749124 147.480288 
L 105.931779 148.777344 
L 106.175319 149.99654 
L 106.236204 152.020347 
L 106.297089 151.533865 
L 106.357973 152.180731 
L 106.418858 151.742586 
L 106.479743 151.594552 
L 106.540628 151.776618 
L 106.723283 150.598492 
L 106.784168 151.469944 
L 106.845053 151.188924 
L 106.905938 151.600792 
L 106.966822 151.565114 
L 107.027707 153.296416 
L 107.088592 152.304312 
L 107.149477 151.320008 
L 107.210362 151.334 
L 107.271247 152.206431 
L 107.332132 151.629184 
L 107.393017 151.82192 
L 107.514787 151.337393 
L 107.575671 150.313556 
L 107.636556 150.796269 
L 108.001866 154.0836 
L 108.062751 152.959834 
L 108.367175 156.859463 
L 108.54983 155.273263 
L 108.610715 154.690583 
L 108.6716 156.492153 
L 108.732485 155.435859 
L 108.79337 155.80262 
L 108.854254 155.291843 
L 108.915139 155.722828 
L 108.976024 154.292897 
L 109.036909 155.223011 
L 109.219564 153.234874 
L 109.341334 153.272005 
L 109.463104 154.975099 
L 109.645758 157.81569 
L 109.767528 156.975905 
L 109.828413 157.405023 
L 109.889298 156.839699 
L 109.950183 156.892998 
L 110.011068 157.881475 
L 110.132837 155.870117 
L 110.254607 157.994703 
L 110.315492 157.269487 
L 110.376377 157.380338 
L 110.437262 158.494639 
L 110.619917 157.123567 
L 110.680802 156.369152 
L 111.106996 161.61904 
L 111.167881 161.779322 
L 111.350536 162.894998 
L 111.594075 160.381818 
L 111.77673 161.304778 
L 111.8985 159.964755 
L 112.02027 162.417654 
L 112.081154 161.331838 
L 112.142039 162.433523 
L 112.202924 161.97857 
L 112.446464 163.22846 
L 112.568234 161.522105 
L 112.629119 161.990076 
L 112.690003 162.15311 
L 112.811773 163.949243 
L 112.872658 163.714089 
L 112.933543 163.316269 
L 112.994428 163.840303 
L 113.055313 163.551102 
L 113.116198 163.672383 
L 113.298852 164.799266 
L 113.420622 163.787207 
L 113.481507 163.831289 
L 113.542392 163.678382 
L 113.725047 161.16397 
L 113.785932 161.58307 
L 113.968586 160.959649 
L 114.151241 163.060088 
L 114.212126 162.86121 
L 114.273011 162.212757 
L 114.333896 162.784703 
L 114.394781 162.463199 
L 114.63832 161.152902 
L 114.820975 161.933566 
L 114.88186 162.211098 
L 115.1254 158.615732 
L 115.186285 158.964566 
L 115.429824 155.871631 
L 115.551594 156.116491 
L 115.612479 155.696134 
L 115.673364 156.274689 
L 115.734249 155.752831 
L 115.795134 156.039593 
L 115.856018 156.560731 
L 116.160443 153.473093 
L 116.403983 154.720604 
L 116.464868 154.423381 
L 116.525752 154.697969 
L 116.647522 153.482413 
L 116.708407 153.78864 
L 116.769292 153.785151 
L 116.951947 152.668476 
L 117.012832 152.570369 
L 117.195486 153.50273 
L 117.256371 152.339111 
L 117.317256 152.449542 
L 117.560796 153.055076 
L 117.621681 151.223877 
L 117.682566 151.630031 
L 118.047875 153.077779 
L 118.169645 152.495271 
L 118.291415 152.762904 
L 118.413184 151.174657 
L 118.534954 151.762207 
L 118.595839 151.044904 
L 118.656724 151.55392 
L 118.778494 150.782526 
L 119.022033 152.995463 
L 119.082918 152.97738 
L 119.143803 153.360812 
L 119.204688 153.293699 
L 119.265573 152.792583 
L 119.387343 154.978732 
L 119.509113 153.850845 
L 119.691767 155.342243 
L 119.813537 154.607714 
L 119.935307 156.065176 
L 119.996192 155.627205 
L 120.057077 155.781166 
L 120.117962 155.85295 
L 120.239732 154.829539 
L 120.300616 155.242317 
L 120.422386 154.498989 
L 120.483271 154.942941 
L 120.605041 153.578421 
L 120.665926 153.590432 
L 120.848581 154.697608 
L 121.031235 152.158497 
L 121.09212 151.730475 
L 121.153005 152.018697 
L 121.21389 151.89677 
L 121.274775 152.005206 
L 121.45743 150.759223 
L 121.518315 150.809041 
L 121.700969 149.541754 
L 121.761854 149.496749 
L 121.822739 148.345172 
L 121.883624 149.448478 
L 121.944509 148.838276 
L 122.066279 148.39628 
L 122.127164 148.709815 
L 122.188049 147.894493 
L 122.309818 149.238771 
L 122.370703 149.218843 
L 122.431588 148.281825 
L 122.492473 148.821975 
L 122.553358 148.670766 
L 122.796898 147.043328 
L 122.979552 148.951606 
L 123.101322 148.818309 
L 123.223092 147.989615 
L 123.405747 149.726813 
L 123.466632 148.899497 
L 123.527516 149.241395 
L 123.588401 149.758246 
L 123.649286 149.467431 
L 123.710171 149.617247 
L 123.892826 150.750162 
L 124.258135 146.672119 
L 124.379905 146.686274 
L 124.44079 146.565415 
L 124.501675 145.953575 
L 124.56256 147.317023 
L 124.623445 146.973183 
L 124.68433 147.070543 
L 125.049639 144.496765 
L 125.110524 144.451209 
L 125.232294 145.972229 
L 125.293179 145.263882 
L 125.354064 145.169037 
L 125.536718 143.470067 
L 125.780258 141.626169 
L 126.084682 145.057101 
L 126.145567 144.935937 
L 126.449992 142.988536 
L 126.815301 148.059404 
L 126.876186 147.055668 
L 126.937071 146.637016 
L 127.119726 148.547675 
L 127.241496 147.22087 
L 127.42415 148.616398 
L 127.606805 147.040112 
L 127.728575 146.114672 
L 127.78946 146.2169 
L 127.850345 146.644471 
L 127.91123 146.364704 
L 128.276539 148.661335 
L 128.337424 148.489485 
L 128.580963 152.162369 
L 128.763618 150.828222 
L 128.885388 150.317179 
L 129.128928 151.88661 
L 129.250697 149.567452 
L 129.311582 150.021101 
L 129.494237 151.25176 
L 129.616007 149.303273 
L 129.676892 150.174147 
L 129.737777 149.934516 
L 130.103086 156.484023 
L 130.407511 152.997564 
L 130.590165 154.924129 
L 130.77282 153.932216 
L 130.89459 152.705719 
L 131.077245 155.476672 
L 131.199014 155.852284 
L 131.259899 155.485283 
L 131.320784 154.262254 
L 131.381669 155.262343 
L 131.503439 156.226655 
L 131.564324 156.126726 
L 131.686094 155.286701 
L 131.807863 155.927375 
L 131.929633 153.806422 
L 131.990518 154.351748 
L 132.051403 154.778674 
L 132.112288 154.612934 
L 132.173173 154.421985 
L 132.234058 155.103656 
L 132.294943 154.265278 
L 132.477597 155.626045 
L 132.721137 153.77423 
L 132.782022 153.674843 
L 132.842907 155.031639 
L 132.903792 154.692125 
L 133.086446 151.035624 
L 133.208216 152.592892 
L 133.269101 151.754611 
L 133.329986 151.781242 
L 133.512641 152.723543 
L 133.573526 151.921938 
L 133.634411 152.804163 
L 133.695295 151.848418 
L 133.75618 151.985467 
L 133.817065 151.742617 
L 133.87795 151.039298 
L 133.99972 152.681835 
L 134.060605 152.005719 
L 134.12149 152.194403 
L 134.304144 153.479514 
L 134.365029 153.536182 
L 134.425914 153.26198 
L 134.486799 152.311021 
L 134.547684 153.39049 
L 134.608569 153.176267 
L 134.669454 151.608581 
L 134.730339 152.024432 
L 134.791224 151.991002 
L 134.973878 149.160262 
L 135.095648 148.28385 
L 135.156533 147.505792 
L 135.217418 147.830452 
L 135.339188 147.491873 
L 135.400073 146.363437 
L 135.460958 146.676818 
L 135.582727 145.815118 
L 135.643612 144.678897 
L 135.704497 144.967517 
L 135.826267 144.522487 
L 135.887152 144.780515 
L 135.948037 144.619405 
L 136.008922 144.787596 
L 136.069807 144.029336 
L 136.130692 144.635581 
L 136.191576 144.595853 
L 136.252461 145.162755 
L 136.313346 144.849519 
L 136.374231 143.663218 
L 136.435116 144.161229 
L 136.556886 145.451827 
L 136.617771 144.328631 
L 136.86131 146.921896 
L 136.922195 146.029546 
L 136.98308 146.058872 
L 137.165735 146.26054 
L 137.22662 146.18441 
L 137.470159 149.192994 
L 137.531044 148.36029 
L 137.591929 149.363334 
L 137.652814 149.191356 
L 137.713699 148.323797 
L 137.896354 151.987253 
L 137.957239 151.234924 
L 138.018124 152.911487 
L 138.079009 152.048254 
L 138.139893 152.478865 
L 138.200778 151.866909 
L 138.322548 153.025456 
L 138.505203 150.48031 
L 138.566088 150.505054 
L 138.748742 151.681562 
L 138.809627 150.684483 
L 138.870512 151.635539 
L 139.053167 149.593443 
L 139.114052 148.770184 
L 139.174937 149.046026 
L 139.296707 149.689534 
L 139.357592 148.324985 
L 139.418476 149.059537 
L 139.479361 149.605916 
L 139.662016 147.340607 
L 139.722901 148.075393 
L 139.783786 147.038894 
L 139.966441 148.461956 
L 140.027325 148.860199 
L 140.08821 148.493342 
L 140.149095 149.091362 
L 140.20998 148.064236 
L 140.270865 148.535207 
L 140.33175 148.779373 
L 140.392635 148.65558 
L 140.45352 148.480332 
L 140.514405 147.714769 
L 140.636175 150.419801 
L 140.818829 149.062265 
L 141.001484 150.499521 
L 141.062369 149.750876 
L 141.245024 152.035744 
L 141.305908 152.142509 
L 141.366793 151.590607 
L 141.427678 151.701134 
L 141.610333 153.380944 
L 141.671218 152.375318 
L 141.732103 152.860393 
L 141.792988 153.145703 
L 141.914757 151.800921 
L 141.975642 153.045163 
L 142.036527 152.173464 
L 142.097412 152.857962 
L 142.158297 152.278093 
L 142.219182 152.881864 
L 142.280067 151.763288 
L 142.462722 153.206164 
L 142.706261 150.87291 
L 142.828031 149.797949 
L 142.888916 150.666279 
L 142.949801 149.577197 
L 143.010686 149.830435 
L 143.071571 149.892559 
L 143.254225 147.989854 
L 143.375995 149.446573 
L 143.43688 149.408064 
L 143.497765 149.080614 
L 143.55865 149.193993 
L 143.741305 146.133394 
L 143.863074 147.704619 
L 143.923959 146.791964 
L 143.984844 147.558143 
L 144.045729 147.22777 
L 144.106614 147.110734 
L 144.228384 147.84661 
L 144.289269 147.320029 
L 144.350154 149.025289 
L 144.411039 148.729746 
L 144.471923 148.927574 
L 144.654578 150.047323 
L 144.715463 149.681981 
L 144.776348 150.053548 
L 144.837233 149.752857 
L 145.019888 151.147993 
L 145.324312 147.072442 
L 145.446082 147.934878 
L 145.567852 147.403125 
L 145.933161 143.863467 
L 146.298471 141.415905 
L 146.42024 139.905647 
L 146.54201 141.281575 
L 146.602895 141.102717 
L 146.66378 141.415294 
L 146.724665 142.638082 
L 146.78555 142.235177 
L 146.90732 143.143825 
L 147.089974 142.120803 
L 147.272629 143.041026 
L 147.333514 142.946997 
L 147.394399 142.278252 
L 147.455284 143.129836 
L 147.516169 142.945025 
L 147.637938 142.184726 
L 147.759708 140.604009 
L 147.881478 142.245751 
L 147.942363 141.96981 
L 148.003248 141.39026 
L 148.368557 146.596181 
L 148.429442 146.252645 
L 148.551212 147.961296 
L 148.612097 147.226595 
L 148.794752 146.081148 
L 148.977406 146.620003 
L 149.038291 145.996293 
L 149.099176 146.289328 
L 149.220946 148.388245 
L 149.281831 146.881582 
L 149.342716 147.168781 
L 149.403601 147.201151 
L 149.525371 145.715006 
L 149.64714 146.274204 
L 149.829795 148.612456 
L 149.89068 148.389266 
L 150.195104 144.121982 
L 150.255989 143.029594 
L 150.316874 143.544249 
L 150.438644 145.219254 
L 150.682184 139.390775 
L 150.864838 137.54451 
L 150.925723 138.152712 
L 150.986608 138.044608 
L 151.169263 136.266157 
L 151.230148 136.672675 
L 151.291033 136.240434 
L 151.412803 137.176208 
L 151.595457 136.053734 
L 151.656342 136.286703 
L 151.838997 135.680208 
L 152.021652 138.108805 
L 152.143421 137.809643 
L 152.265191 136.772083 
L 152.386961 135.056336 
L 152.508731 137.024511 
L 152.569616 136.563059 
L 152.630501 136.147789 
L 152.691386 136.716048 
L 152.75227 136.387573 
L 152.99581 137.42577 
L 153.056695 137.354241 
L 153.11758 137.004769 
L 153.178465 137.308708 
L 153.23935 136.960677 
L 153.361119 138.316995 
L 153.422004 137.805271 
L 153.482889 137.429148 
L 153.543774 137.444327 
L 153.604659 137.912923 
L 153.665544 137.555311 
L 154.213508 131.758857 
L 154.335278 131.703861 
L 154.396163 131.828012 
L 154.517933 130.738783 
L 154.578818 132.017066 
L 154.639702 131.152745 
L 154.761472 132.104007 
L 154.822357 131.114843 
L 154.883242 131.180337 
L 154.944127 131.415854 
L 155.005012 130.101332 
L 155.065897 131.179788 
L 155.187667 130.368544 
L 155.248552 131.759298 
L 155.309436 131.132074 
L 155.431206 130.022947 
L 155.674746 131.877754 
L 156.040055 128.489454 
L 156.22271 130.693525 
L 156.283595 130.432655 
L 156.405365 128.990069 
L 156.46625 130.085905 
L 156.588019 126.958932 
L 156.648904 127.356736 
L 156.831559 128.281476 
L 157.075099 126.101365 
L 157.135984 126.251908 
L 157.257753 126.371119 
L 157.379523 125.622121 
L 157.440408 124.971431 
L 157.501293 125.176569 
L 157.683948 128.173796 
L 157.744833 126.996055 
L 157.805718 128.129178 
L 157.866602 127.575005 
L 157.927487 127.825744 
L 157.988372 128.992404 
L 158.049257 128.252585 
L 158.231912 126.073775 
L 158.292797 125.794588 
L 158.353682 126.600328 
L 158.414567 126.070214 
L 158.536336 125.226205 
L 158.718991 126.310322 
L 158.779876 127.395202 
L 158.901646 125.808406 
L 158.962531 125.903934 
L 159.145185 127.640386 
L 159.20607 127.439605 
L 159.266955 126.522609 
L 159.32784 127.707476 
L 159.388725 127.692465 
L 159.57138 125.168611 
L 159.632265 125.642482 
L 159.69315 125.457463 
L 159.814919 124.342539 
L 159.997574 126.343012 
L 160.058459 126.529858 
L 160.119344 126.278064 
L 160.241114 127.493714 
L 160.301999 127.386988 
L 160.362883 127.341765 
L 160.484653 125.521041 
L 160.606423 127.565143 
L 160.667308 126.944859 
L 161.154387 132.743697 
L 161.215272 131.959146 
L 161.276157 132.051452 
L 161.337042 131.441583 
L 161.397927 131.81891 
L 161.763236 129.0177 
L 161.824121 129.266973 
L 161.945891 129.547604 
L 162.006776 128.969027 
L 162.067661 130.195793 
L 162.128546 129.377595 
L 162.3112 125.736747 
L 162.372085 125.962835 
L 162.43297 126.009701 
L 162.615625 128.583633 
L 162.737395 125.805083 
L 163.041819 129.102477 
L 163.163589 127.858665 
L 163.285359 128.79688 
L 163.468014 128.034009 
L 163.528899 128.437192 
L 163.589783 127.765737 
L 163.772438 130.423004 
L 163.833323 130.26065 
L 163.894208 128.994681 
L 163.955093 129.708128 
L 164.015978 128.937871 
L 164.076863 129.558466 
L 164.198632 131.17374 
L 164.259517 130.93791 
L 164.320402 129.769227 
L 164.381287 131.714475 
L 164.442172 131.654627 
L 164.563942 131.758073 
L 164.624827 132.717878 
L 164.685712 132.054343 
L 164.868366 133.4181 
L 164.929251 132.944091 
L 164.990136 132.956467 
L 165.051021 134.5355 
L 165.111906 134.214316 
L 165.294561 133.301829 
L 165.355446 134.713937 
L 165.416331 134.417227 
L 165.477215 134.238258 
L 165.598985 135.626134 
L 165.65987 134.811466 
L 165.842525 136.495847 
L 165.964295 135.334068 
L 166.02518 136.339337 
L 166.086064 135.137391 
L 166.146949 135.313729 
L 166.207834 135.561953 
L 166.390489 133.904494 
L 166.451374 134.307096 
L 166.512259 135.124248 
L 166.573144 135.117311 
L 166.694914 134.294783 
L 166.877568 136.286498 
L 166.938453 136.830179 
L 166.999338 136.048395 
L 167.060223 136.584422 
L 167.181993 138.137401 
L 167.242878 137.627729 
L 167.364647 137.58065 
L 167.425532 137.946472 
L 167.486417 137.078335 
L 167.547302 137.265825 
L 167.608187 137.325315 
L 167.729957 138.078247 
L 167.790842 137.386713 
L 167.851727 137.42993 
L 168.034381 138.582909 
L 168.156151 140.600287 
L 168.277921 139.437938 
L 168.399691 141.614851 
L 168.460576 141.396946 
L 168.521461 141.404636 
L 168.765 142.679016 
L 168.825885 142.666227 
L 168.947655 141.475012 
L 169.00854 142.089588 
L 169.069425 142.058884 
L 169.191195 142.924087 
L 169.25208 142.688304 
L 169.373849 142.012073 
L 169.434734 142.211621 
L 169.617389 140.774879 
L 169.678274 142.500406 
L 169.739159 141.468224 
L 169.800044 141.816538 
L 169.860929 141.572185 
L 169.921813 141.809589 
L 169.982698 141.514317 
L 170.043583 140.327589 
L 170.104468 141.084559 
L 170.165353 141.690455 
L 170.226238 140.446899 
L 170.287123 140.692995 
L 170.348008 140.824202 
L 170.408893 141.815632 
L 170.469778 141.364562 
L 170.652432 139.478164 
L 170.774202 141.057392 
L 171.078627 136.108803 
L 171.322166 136.959385 
L 171.383051 136.783212 
L 171.443936 136.113183 
L 171.504821 136.666222 
L 171.748361 140.726023 
L 171.9919 142.674595 
L 172.11367 141.104943 
L 172.296325 142.407682 
L 172.418095 142.683712 
L 172.478979 142.643104 
L 172.722519 144.087973 
L 172.783404 144.014801 
L 172.844289 143.380932 
L 173.026944 146.810747 
L 173.270483 145.477228 
L 173.331368 145.591947 
L 173.514023 145.992528 
L 173.574908 148.522378 
L 173.635793 146.966773 
L 173.940217 148.734051 
L 174.001102 150.108028 
L 174.061987 149.825734 
L 174.244642 148.925743 
L 174.305527 149.125738 
L 174.366411 149.500814 
L 174.549066 147.447247 
L 174.853491 148.801102 
L 174.975261 147.508426 
L 175.036145 148.153819 
L 175.34057 145.895238 
L 175.401455 145.836762 
L 175.46234 145.536404 
L 175.523225 144.16364 
L 175.58411 145.030503 
L 175.644994 145.514692 
L 175.705879 145.348073 
L 175.827649 143.765478 
L 175.949419 141.143984 
L 176.010304 142.665586 
L 176.071189 142.140603 
L 176.132074 142.093495 
L 176.253843 143.595092 
L 176.314728 143.332954 
L 176.436498 142.273319 
L 176.497383 142.381366 
L 176.619153 141.751684 
L 176.680038 141.171221 
L 176.984462 145.273685 
L 177.045347 145.092425 
L 177.106232 145.271729 
L 177.167117 144.454394 
L 177.228002 144.780587 
L 177.288887 144.870829 
L 177.471542 146.491388 
L 177.775966 148.515205 
L 177.958621 151.175641 
L 178.4457 145.433167 
L 178.68924 147.988109 
L 178.750125 148.672889 
L 178.811009 147.737975 
L 179.054549 150.123626 
L 179.176319 150.682062 
L 179.237204 151.213758 
L 179.298089 150.942841 
L 179.480743 150.096018 
L 179.541628 150.961995 
L 179.602513 149.535259 
L 179.663398 149.811962 
L 179.785168 149.387849 
L 179.906938 151.147501 
L 180.089592 149.431959 
L 180.333132 147.952688 
L 180.394017 149.349079 
L 180.454902 148.766374 
L 180.637557 146.3496 
L 180.820211 148.351214 
L 181.002866 147.321033 
L 181.063751 147.480866 
L 181.124636 147.374742 
L 181.42906 145.439017 
L 181.489945 145.78185 
L 181.55083 145.651456 
L 181.611715 145.339421 
L 181.91614 147.661651 
L 182.037909 145.912676 
L 182.220564 148.190158 
L 182.281449 148.275731 
L 182.342334 148.591493 
L 182.403219 148.233128 
L 182.524989 146.567175 
L 182.829413 149.620937 
L 182.890298 149.36061 
L 182.951183 149.984905 
L 183.438262 144.997293 
L 183.499147 145.608406 
L 183.620917 144.374655 
L 183.681802 144.539204 
L 183.742687 144.121085 
L 183.803572 144.41711 
L 183.925341 144.916657 
L 184.047111 142.941771 
L 184.107996 143.037059 
L 184.290651 143.686037 
L 184.412421 143.245757 
L 184.53419 144.138724 
L 184.595075 144.546873 
L 184.65596 144.348533 
L 184.716845 144.046748 
L 184.8995 144.864906 
L 185.02127 144.702559 
L 185.082155 145.091869 
L 185.14304 144.848011 
L 185.325694 143.506098 
L 185.386579 143.892383 
L 185.508349 142.85175 
L 185.569234 143.200166 
L 185.751889 145.055419 
L 185.873658 143.9023 
L 185.995428 144.401682 
L 186.238968 141.698629 
L 186.299853 142.081017 
L 186.360738 141.859912 
L 186.482507 140.461899 
L 186.543392 140.681088 
L 186.604277 139.369263 
L 186.665162 139.607481 
L 186.726047 139.79712 
L 186.847817 141.318612 
L 187.091356 138.063404 
L 187.213126 139.325364 
L 187.274011 138.846892 
L 187.334896 137.488637 
L 187.395781 138.032541 
L 187.517551 137.096197 
L 187.578436 137.108236 
L 187.639321 137.570303 
L 187.76109 137.031594 
L 187.821975 137.075063 
L 188.187285 138.901094 
L 188.309055 138.406181 
L 188.613479 141.562409 
L 188.674364 140.986088 
L 188.735249 141.010395 
L 188.796134 140.311561 
L 188.978788 142.338997 
L 189.039673 141.751611 
L 189.100558 143.019877 
L 189.161443 142.852353 
L 189.283213 143.068689 
L 189.344098 142.889712 
L 189.587638 145.928364 
L 189.648522 146.080617 
L 189.709407 145.245804 
L 189.770292 145.605518 
L 189.831177 145.412319 
L 190.196487 141.16911 
L 190.318256 140.362503 
L 190.500911 143.068265 
L 190.622681 144.748391 
L 190.683566 144.31746 
L 190.927105 146.011188 
L 191.170645 142.911664 
L 191.23153 142.678632 
L 191.414185 140.351737 
L 191.47507 140.451228 
L 191.657724 139.152931 
L 191.779494 140.71258 
L 191.840379 140.633437 
L 191.901264 139.721846 
L 191.962149 140.430735 
L 192.023034 140.002848 
L 192.388343 144.017231 
L 192.449228 142.64395 
L 192.510113 143.427418 
L 192.570998 143.271582 
L 192.631883 143.8716 
L 193.301617 138.062199 
L 193.423386 139.262392 
L 193.545156 139.193616 
L 193.606041 138.906743 
L 193.666926 139.265592 
L 193.727811 138.686313 
L 193.849581 140.301034 
L 193.910466 140.070147 
L 193.971351 140.34727 
L 194.032236 140.186292 
L 194.397545 137.57443 
L 194.762854 142.255786 
L 194.884624 139.799996 
L 194.945509 139.825936 
L 195.189049 138.930864 
L 195.310819 140.884549 
L 195.371703 140.641963 
L 195.493473 141.274528 
L 195.615243 140.240884 
L 195.737013 141.025513 
L 195.858783 140.218001 
L 195.919668 141.197167 
L 195.980552 140.460906 
L 196.102322 139.737254 
L 196.224092 140.983533 
L 196.284977 140.573825 
L 196.345862 140.981547 
L 196.406747 140.773103 
L 196.467632 140.707849 
L 196.528517 140.990728 
L 196.589402 140.681313 
L 196.650286 141.973698 
L 196.832941 138.573465 
L 196.893826 139.641039 
L 196.954711 139.356619 
L 197.015596 138.88122 
L 197.32002 133.933733 
L 197.380905 134.172546 
L 197.44179 134.123036 
L 197.56356 133.051519 
L 197.624445 133.815013 
L 197.746215 132.541621 
L 197.867985 133.324609 
L 197.928869 132.458331 
L 197.989754 132.572431 
L 198.050639 132.616476 
L 198.111524 132.4345 
L 198.172409 132.677764 
L 198.294179 131.633501 
L 198.355064 133.561849 
L 198.415949 133.259293 
L 198.476834 133.219255 
L 198.537718 132.63812 
L 198.598603 133.705242 
L 198.659488 132.846318 
L 198.720373 133.495491 
L 198.781258 133.121652 
L 198.903028 133.49222 
L 198.963913 135.267915 
L 199.024798 133.868221 
L 199.390107 130.956332 
L 199.572762 128.333106 
L 199.633647 128.997171 
L 199.694532 128.667635 
L 199.755417 129.062379 
L 199.816301 128.719528 
L 199.877186 129.874617 
L 199.938071 129.251189 
L 200.120726 127.007094 
L 200.181611 127.366633 
L 200.242496 127.756244 
L 200.303381 127.613557 
L 200.42515 127.538557 
L 200.54692 130.322812 
L 200.607805 128.829747 
L 200.66869 129.266704 
L 200.729575 130.56522 
L 200.79046 130.070027 
L 200.91223 128.764578 
L 201.034 130.104962 
L 201.094884 129.986977 
L 201.155769 130.045131 
L 201.216654 130.022981 
L 201.399309 130.905258 
L 201.460194 131.879105 
L 201.521079 131.280506 
L 201.581964 131.414514 
L 201.642849 131.246234 
L 201.886388 132.345491 
L 201.947273 131.80831 
L 202.190813 133.964478 
L 202.251698 134.212384 
L 202.434352 133.013241 
L 202.617007 134.085596 
L 202.677892 134.250532 
L 202.738777 133.188303 
L 202.799662 133.259328 
L 202.982316 135.426587 
L 203.043201 135.483472 
L 203.164971 132.968717 
L 203.286741 133.363271 
L 203.347626 133.616987 
L 203.469396 132.793496 
L 203.530281 133.357182 
L 203.591166 133.618241 
L 203.89559 131.617345 
L 204.078245 132.762697 
L 204.200015 132.139114 
L 204.260899 132.706345 
L 204.443554 130.861819 
L 204.565324 129.956612 
L 204.626209 130.263897 
L 204.808864 131.951652 
L 204.991518 130.089961 
L 205.295943 133.397252 
L 205.356828 131.931482 
L 205.417713 131.997224 
L 205.600367 131.659225 
L 205.661252 130.974134 
L 205.722137 131.488167 
L 205.783022 131.996363 
L 205.843907 131.900856 
L 206.026562 131.124649 
L 206.087447 131.504206 
L 206.391871 129.54295 
L 206.574526 132.0508 
L 206.757181 128.692319 
L 206.818065 128.887511 
L 207.00072 130.730977 
L 207.061605 130.892703 
L 207.12249 130.750621 
L 207.24426 130.174019 
L 207.305145 131.02659 
L 207.426914 129.666972 
L 207.609569 131.254391 
L 207.670454 131.05679 
L 207.792224 129.5457 
L 207.974879 132.554572 
L 208.461958 129.307275 
L 208.827267 132.142508 
L 208.888152 132.336589 
L 208.949037 133.352319 
L 209.009922 132.50271 
L 209.070807 132.950219 
L 209.131692 133.142793 
L 209.253462 135.875019 
L 209.375231 135.245803 
L 209.497001 134.03349 
L 209.557886 134.054627 
L 209.618771 135.599165 
L 209.679656 135.204381 
L 209.740541 134.565289 
L 209.801426 134.6583 
L 209.862311 134.533929 
L 210.532045 128.98342 
L 210.653814 129.622232 
L 210.836469 128.598403 
L 210.897354 128.5864 
L 211.323548 123.925498 
L 211.567088 125.030217 
L 211.688858 123.741473 
L 211.871512 125.350431 
L 211.993282 125.05183 
L 212.175937 127.033427 
L 212.236822 127.39394 
L 212.358592 126.076403 
L 212.541246 127.707222 
L 212.602131 127.767104 
L 212.906556 125.418962 
L 212.967441 126.103203 
L 213.028326 125.435807 
L 213.089211 125.692669 
L 213.21098 126.489659 
L 213.271865 126.100074 
L 213.33275 126.538282 
L 213.393635 126.495393 
L 213.515405 126.163086 
L 213.57629 126.408028 
L 213.819829 125.491223 
L 213.880714 125.675928 
L 214.063369 124.147993 
L 214.124254 124.465108 
L 214.185139 126.073075 
L 214.246024 125.508882 
L 214.306909 125.836543 
L 214.489563 124.844431 
L 214.550448 124.522171 
L 214.733103 126.410138 
L 214.793988 126.65522 
L 214.915758 125.367562 
L 214.976643 125.725156 
L 215.159297 129.913948 
L 215.220182 129.52818 
L 215.281067 130.1839 
L 215.341952 129.646376 
L 215.463722 131.673089 
L 215.524607 132.666912 
L 215.585492 132.43134 
L 215.646377 132.303731 
L 216.011686 135.526046 
L 216.133456 134.239885 
L 216.255226 134.998298 
L 216.376995 135.830223 
L 216.43788 135.790686 
L 216.498765 135.965758 
L 216.742305 139.41034 
L 216.80319 139.125159 
L 216.864075 139.255919 
L 216.92496 140.87032 
L 216.985844 140.596983 
L 217.229384 142.511608 
L 217.290269 141.773755 
L 217.351154 142.244545 
L 217.533809 144.609973 
L 217.594693 143.436962 
L 217.655578 143.581649 
L 217.716463 143.466456 
L 217.838233 142.875248 
L 217.899118 143.169167 
L 218.081773 141.911706 
L 218.507967 144.595229 
L 218.568852 144.053141 
L 218.690622 144.898275 
L 218.751507 144.861036 
L 218.873276 144.085522 
L 218.934161 143.623318 
L 219.177701 146.625349 
L 219.238586 146.462391 
L 219.421241 145.81656 
L 219.482126 145.254889 
L 219.54301 145.849556 
L 219.66478 144.265646 
L 219.725665 146.028495 
L 219.78655 145.336404 
L 219.847435 145.438443 
L 219.969205 143.19497 
L 220.03009 143.402389 
L 220.090975 143.263693 
L 220.334514 145.799852 
L 220.395399 145.040187 
L 220.517169 146.688786 
L 220.578054 146.457306 
L 220.760709 147.084721 
L 220.943363 149.833348 
L 221.004248 148.684431 
L 221.065133 149.034669 
L 221.126018 149.296898 
L 221.369558 152.454664 
L 221.430442 152.237459 
L 221.552212 153.120675 
L 221.734867 151.043615 
L 221.795752 151.390061 
L 221.856637 152.329923 
L 221.917522 151.68272 
L 221.978407 152.366648 
L 222.039291 152.19062 
L 222.343716 151.138733 
L 222.465486 154.158609 
L 222.526371 153.809674 
L 222.648141 152.253529 
L 222.89168 154.911403 
L 223.13522 152.317844 
L 223.196105 152.613345 
L 223.317874 151.747993 
L 223.500529 153.157174 
L 223.561414 152.931062 
L 223.622299 152.165195 
L 223.683184 153.150706 
L 223.744069 152.36933 
L 223.804954 152.307419 
L 223.926724 154.869956 
L 224.170263 151.515541 
L 224.231148 151.653852 
L 224.413803 149.771079 
L 224.474688 149.652795 
L 224.535573 150.110674 
L 224.718227 149.195071 
L 224.839997 149.848899 
L 224.900882 148.405889 
L 224.961767 148.576398 
L 225.022652 149.284289 
L 225.083537 149.235075 
L 225.144422 149.042189 
L 225.266191 148.251246 
L 225.448846 149.252098 
L 225.509731 149.192148 
L 225.631501 149.768603 
L 225.753271 151.397237 
L 225.935925 148.602753 
L 226.11858 150.28174 
L 226.24035 151.337381 
L 226.36212 149.48875 
L 226.423005 150.621712 
L 226.48389 150.565864 
L 226.544774 150.43014 
L 226.666544 151.105766 
L 226.727429 150.915 
L 226.849199 149.409315 
L 226.910084 149.801072 
L 227.031854 150.526088 
L 227.092739 151.549969 
L 227.153623 150.820412 
L 227.214508 150.18718 
L 227.275393 150.491633 
L 227.397163 150.609354 
L 227.458048 150.266386 
L 227.579818 147.954524 
L 227.640703 148.618115 
L 227.701588 148.392627 
L 227.762472 148.641395 
L 227.884242 149.840795 
L 227.945127 148.984172 
L 228.006012 149.365923 
L 228.066897 151.088215 
L 228.127782 150.406087 
L 228.310437 152.552835 
L 228.371322 151.987552 
L 228.493091 153.351078 
L 228.614861 153.019049 
L 228.797516 151.76625 
L 228.858401 152.066466 
L 228.919286 151.670889 
L 228.980171 150.073878 
L 229.041055 150.374249 
L 229.10194 150.094466 
L 229.162825 151.098932 
L 229.22371 150.370974 
L 229.284595 150.425842 
L 229.46725 149.256533 
L 229.528135 149.327834 
L 229.710789 147.758956 
L 229.771674 147.85571 
L 229.893444 149.534609 
L 229.954329 148.794442 
L 230.015214 148.611646 
L 230.136984 148.844052 
L 230.197869 148.720647 
L 230.319638 149.917824 
L 230.502293 149.117673 
L 230.563178 149.865109 
L 230.806718 146.778678 
L 230.928488 145.465981 
L 230.989372 145.785634 
L 231.050257 145.658768 
L 231.111142 145.825489 
L 231.172027 144.785421 
L 231.232912 145.784185 
L 231.293797 145.483558 
L 231.537337 143.807942 
L 231.659106 144.357922 
L 231.719991 144.012516 
L 231.841761 139.672903 
L 231.902646 139.682377 
L 232.024416 140.639303 
L 232.146186 140.282956 
L 232.267955 138.868707 
L 232.389725 138.944611 
L 232.45061 138.697759 
L 232.511495 139.811675 
L 232.57238 138.978071 
L 232.876804 136.822405 
L 232.937689 137.181929 
L 232.998574 136.571615 
L 233.059459 136.98947 
L 233.242114 138.055915 
L 233.302999 137.801543 
L 233.607423 134.444502 
L 233.668308 134.792943 
L 233.850963 137.457653 
L 233.911848 137.56316 
L 234.155387 141.654589 
L 234.338042 142.702759 
L 234.398927 141.333735 
L 234.459812 141.756539 
L 234.581582 142.565815 
L 234.764236 140.177499 
L 234.886006 139.404389 
L 234.946891 140.178104 
L 235.129546 137.744717 
L 235.190431 138.296512 
L 235.616625 142.068213 
L 235.67751 141.593671 
L 235.738395 142.650025 
L 235.79928 142.210465 
L 235.92105 143.296444 
L 236.103704 145.000561 
L 236.164589 145.019586 
L 236.286359 143.729006 
L 236.469014 147.253123 
L 236.651669 145.362411 
L 236.834323 143.549225 
L 236.956093 142.801295 
L 237.016978 143.13915 
L 237.199633 145.005979 
L 237.260518 145.809288 
L 237.321402 145.271179 
L 237.443172 145.888969 
L 237.504057 145.870757 
L 238.052021 141.593313 
L 238.173791 143.357159 
L 238.356446 141.748646 
L 238.66087 139.113607 
L 238.965295 140.687766 
L 239.087065 140.504866 
L 239.208834 138.858362 
L 239.269719 140.095623 
L 239.330604 139.634449 
L 239.391489 139.560307 
L 239.635029 136.397125 
L 239.817684 137.513108 
L 239.878568 137.602952 
L 240.061223 139.569551 
L 240.122108 139.785293 
L 240.243878 138.134476 
L 240.426533 140.450451 
L 240.548302 138.169338 
L 240.609187 139.371007 
L 240.913612 136.053005 
L 241.278921 138.823649 
L 241.339806 138.138901 
L 241.400691 138.53669 
L 241.522461 138.773934 
L 241.826885 136.778309 
L 241.88777 137.293368 
L 241.948655 137.043419 
L 242.192195 134.448213 
L 242.313965 134.523463 
L 242.435734 134.826518 
L 242.557504 134.667149 
L 242.740159 132.632094 
L 242.801044 132.837465 
L 242.861929 132.790183 
L 242.922814 131.34358 
L 242.983699 132.312132 
L 243.105468 130.84905 
L 243.166353 131.481015 
L 243.227238 131.872487 
L 243.288123 130.39798 
L 243.349008 131.184022 
L 243.409893 132.104435 
L 243.470778 131.901246 
L 243.531663 131.552 
L 243.592548 132.02468 
L 243.957857 129.199551 
L 244.018742 129.578378 
L 244.079627 130.857661 
L 244.140512 130.313501 
L 244.262282 130.037938 
L 244.323166 131.175315 
L 244.384051 130.881939 
L 244.566706 132.330738 
L 244.749361 133.136554 
L 244.810246 132.878013 
L 244.871131 133.234359 
L 244.9929 132.155389 
L 245.053785 132.738312 
L 245.175555 130.253713 
L 245.23644 130.656498 
L 245.297325 131.327202 
L 245.419095 129.154619 
L 245.47998 129.369175 
L 245.540865 129.474524 
L 245.662634 129.972999 
L 245.906174 127.784136 
L 245.967059 128.211761 
L 246.088829 126.856443 
L 246.210598 127.216726 
L 246.393253 126.477246 
L 246.454138 126.533844 
L 246.515023 126.805405 
L 246.636793 125.571615 
L 246.697678 126.056492 
L 246.880332 123.42558 
L 247.062987 124.79328 
L 247.184757 124.117835 
L 247.428297 127.269517 
L 247.489181 127.002396 
L 247.550066 126.745745 
L 247.610951 125.639165 
L 247.671836 126.418205 
L 247.732721 125.491997 
L 247.793606 125.803873 
L 247.854491 125.627371 
L 248.2198 130.994463 
L 248.280685 129.783312 
L 248.34157 130.159463 
L 248.402455 130.315374 
L 248.767764 132.526122 
L 248.828649 131.94976 
L 249.011304 134.878705 
L 249.072189 134.83521 
L 249.254844 133.079855 
L 249.315729 133.618537 
L 249.376614 133.020929 
L 249.498383 135.874586 
L 249.620153 135.024048 
L 249.985463 136.085427 
L 250.107232 135.170377 
L 250.168117 135.319978 
L 250.411657 137.604476 
L 250.472542 137.500829 
L 250.533427 137.147676 
L 250.837851 140.631141 
L 251.020506 137.528591 
L 251.081391 137.418013 
L 251.385815 139.219243 
L 251.4467 138.624541 
L 251.69024 140.864021 
L 251.751125 140.315186 
L 251.81201 140.63995 
L 251.933779 142.8005 
L 251.994664 142.646297 
L 252.055549 143.186017 
L 252.116434 142.746547 
L 252.177319 141.989031 
L 252.238204 142.606738 
L 252.420859 141.059243 
L 252.725283 143.525613 
L 252.847053 143.549728 
L 252.907938 143.276018 
L 252.968823 143.489597 
L 253.090593 145.017596 
L 253.151478 144.437483 
L 253.334132 145.553546 
L 253.395017 145.464021 
L 253.577672 144.496972 
L 253.699442 145.209577 
L 253.760327 145.187943 
L 253.821212 144.907156 
L 253.882096 145.43951 
L 253.942981 144.64515 
L 254.125636 146.694937 
L 254.186521 144.95523 
L 254.247406 146.171434 
L 254.308291 146.927089 
L 254.369176 146.075311 
L 254.430061 146.286627 
L 254.490945 146.47412 
L 254.612715 143.777069 
L 254.6736 144.449244 
L 254.79537 143.226702 
L 254.856255 143.785426 
L 254.978025 145.084118 
L 255.03891 144.421889 
L 255.099795 144.475672 
L 255.160679 145.140135 
L 255.282449 143.992138 
L 255.404219 145.532253 
L 255.465104 145.195615 
L 255.586874 144.410224 
L 255.708644 145.460177 
L 255.769528 145.417256 
L 256.013068 143.981861 
L 256.195723 146.082613 
L 256.256608 145.150337 
L 256.317493 146.205588 
L 256.378377 144.775468 
L 256.439262 145.345952 
L 256.621917 143.595226 
L 256.682802 143.748737 
L 256.865457 144.961932 
L 256.987227 145.290172 
L 257.048111 144.648766 
L 257.108996 145.036729 
L 257.291651 147.02808 
L 257.352536 145.329156 
L 257.413421 146.452713 
L 257.474306 147.909812 
L 257.535191 147.437559 
L 257.65696 145.401177 
L 257.717845 145.688687 
L 257.961385 144.058523 
L 258.14404 145.292401 
L 258.326694 143.269399 
L 258.570234 145.108254 
L 258.631119 144.154 
L 258.692004 144.614755 
L 258.752889 144.54985 
L 258.996428 147.064756 
L 259.118198 144.92387 
L 259.300853 147.201729 
L 259.422623 147.309693 
L 259.666162 149.642917 
L 259.787932 148.135583 
L 260.031472 151.287191 
L 260.275011 152.983158 
L 260.335896 151.931512 
L 260.396781 151.968385 
L 260.701206 156.32721 
L 260.762091 156.042318 
L 261.066515 152.751974 
L 261.1274 152.588425 
L 261.310055 154.86365 
L 261.37094 154.547066 
L 261.492709 156.080852 
L 261.614479 152.942245 
L 261.675364 152.981512 
L 261.736249 153.468343 
L 261.797134 153.158568 
L 261.918904 153.915941 
L 262.040674 151.7554 
L 262.162443 151.897136 
L 262.223328 152.808795 
L 262.284213 152.376028 
L 262.345098 151.852307 
L 262.405983 152.190244 
L 262.466868 152.480594 
L 262.527753 153.426742 
L 262.588638 152.816321 
L 262.649523 152.871855 
L 262.710408 152.323744 
L 262.771292 153.02769 
L 262.832177 152.78305 
L 263.014832 150.098333 
L 263.075717 150.718543 
L 263.136602 151.038738 
L 263.258372 149.510281 
L 263.319257 149.854358 
L 263.441026 151.368188 
L 263.562796 151.081273 
L 263.623681 151.558941 
L 263.684566 151.190152 
L 263.806336 149.766449 
L 263.867221 150.131742 
L 263.928106 151.358168 
L 263.988991 150.772783 
L 264.11076 149.205006 
L 264.171645 149.255966 
L 264.415185 150.811009 
L 264.47607 150.632963 
L 264.536955 150.79045 
L 264.719609 150.741417 
L 264.963149 148.641939 
L 265.024034 149.050459 
L 265.145804 150.605077 
L 265.389343 147.974398 
L 265.450228 148.629145 
L 265.511113 150.783157 
L 265.571998 149.931064 
L 265.876423 146.86945 
L 265.937307 146.91353 
L 265.998192 147.594259 
L 266.059077 147.28009 
L 266.241732 145.916209 
L 266.546157 148.060347 
L 266.607041 147.632863 
L 266.911466 152.05308 
L 266.972351 151.992232 
L 267.155006 150.154729 
L 267.21589 150.53287 
L 267.33766 151.032839 
L 267.520315 153.872995 
L 267.70297 151.704199 
L 267.763855 151.721564 
L 268.068279 155.41066 
L 268.129164 155.984012 
L 268.190049 155.455672 
L 268.372704 157.28914 
L 268.433589 156.959625 
L 268.555358 155.416018 
L 268.616243 155.463642 
L 268.677128 155.33706 
L 269.042438 151.418985 
L 269.225092 153.813471 
L 269.285977 154.967066 
L 269.346862 154.943408 
L 269.407747 154.986199 
L 269.529517 154.130766 
L 269.590402 154.993355 
L 269.651287 154.222714 
L 269.712172 154.252141 
L 269.894826 155.300391 
L 270.016596 155.011743 
L 270.138366 154.830353 
L 270.260136 155.339801 
L 270.321021 155.353643 
L 270.381905 155.063312 
L 270.56456 156.177305 
L 270.8081 161.200592 
L 270.868985 160.67603 
L 271.112524 158.240199 
L 271.173409 158.553168 
L 271.234294 157.442684 
L 271.295179 157.45826 
L 271.538719 158.772043 
L 271.599604 158.554556 
L 271.721373 156.838894 
L 271.843143 158.575366 
L 271.904028 157.447031 
L 271.964913 157.888915 
L 272.025798 158.088743 
L 272.147568 157.092626 
L 272.208453 157.548798 
L 272.330222 158.326666 
L 272.451992 155.913383 
L 272.573762 158.108331 
L 272.634647 158.044466 
L 272.695532 158.281246 
L 272.756417 159.995379 
L 272.817302 159.318125 
L 272.939071 158.875687 
L 272.999956 157.972158 
L 273.121726 160.05155 
L 273.182611 159.102514 
L 273.243496 159.319584 
L 273.365266 160.35927 
L 273.54792 158.046613 
L 273.66969 158.721347 
L 273.79146 158.062011 
L 273.852345 158.246213 
L 273.974115 157.352126 
L 274.095885 159.272246 
L 274.15677 159.183432 
L 274.278539 157.969751 
L 274.400309 159.494435 
L 274.461194 159.446145 
L 274.522079 158.735928 
L 274.582964 158.821422 
L 274.887388 160.665833 
L 274.948273 160.051117 
L 275.009158 160.068766 
L 275.191813 160.779214 
L 275.313583 162.03903 
L 275.374468 160.833789 
L 275.496237 163.185279 
L 275.557122 162.752354 
L 275.618007 162.863774 
L 275.678892 163.843139 
L 275.861547 162.654001 
L 275.922432 163.339688 
L 275.983317 162.89057 
L 276.165971 161.056678 
L 276.226856 161.30848 
L 276.409511 162.597668 
L 276.592166 161.177201 
L 276.653051 161.256169 
L 276.713936 160.382204 
L 276.77482 160.965961 
L 276.957475 161.484517 
L 277.201015 165.503826 
L 277.383669 167.04971 
L 277.444554 166.994768 
L 277.566324 166.485698 
L 277.688094 168.911829 
L 277.870749 166.998963 
L 277.931634 167.016709 
L 277.992519 166.892112 
L 278.053403 165.974339 
L 278.114288 166.372927 
L 278.175173 166.650719 
L 278.236058 166.598396 
L 278.296943 165.078789 
L 278.357828 165.901218 
L 278.479598 164.615509 
L 278.601368 166.392963 
L 278.662252 165.746003 
L 278.723137 165.027854 
L 278.784022 165.122496 
L 278.844907 165.109436 
L 278.905792 164.246549 
L 278.966677 165.128024 
L 279.027562 164.508385 
L 279.149332 165.129423 
L 279.210217 164.697396 
L 279.697296 167.60437 
L 279.819066 166.707426 
L 279.879951 167.076248 
L 280.062605 164.906489 
L 280.12349 165.075199 
L 280.914994 172.907933 
L 281.280303 168.010193 
L 281.341188 168.168657 
L 281.645613 165.339393 
L 281.828267 168.48933 
L 281.889152 167.128509 
L 281.950037 167.138237 
L 282.010922 167.400863 
L 282.132692 166.5199 
L 282.193577 166.926215 
L 282.254462 165.847878 
L 282.315347 166.503095 
L 282.437117 164.759468 
L 282.498001 165.47753 
L 282.680656 168.591204 
L 282.741541 168.264931 
L 282.802426 168.627966 
L 282.985081 171.042507 
L 283.10685 169.903853 
L 283.289505 171.341582 
L 283.35039 171.323565 
L 283.47216 170.019688 
L 283.654815 171.544114 
L 283.7157 171.488384 
L 283.959239 168.581644 
L 284.020124 169.530453 
L 284.568088 163.159079 
L 284.933398 161.171475 
L 284.994282 161.44982 
L 285.055167 161.409311 
L 285.116052 160.951678 
L 285.176937 161.279615 
L 285.298707 160.347991 
L 285.359592 159.542238 
L 285.420477 159.595455 
L 285.481362 159.92075 
L 285.603132 161.924614 
L 285.846671 160.895021 
L 285.907556 162.123967 
L 285.968441 161.489608 
L 286.090211 160.168357 
L 286.211981 160.328745 
L 286.272865 160.398506 
L 286.33375 159.871739 
L 286.394635 160.391722 
L 286.45552 159.783463 
L 286.57729 160.926937 
L 286.638175 160.28869 
L 286.82083 161.521643 
L 286.942599 159.859088 
L 287.186139 163.108224 
L 287.368794 162.02633 
L 287.490564 163.304509 
L 287.551448 163.176042 
L 287.612333 163.300276 
L 287.855873 160.801795 
L 287.977643 159.885869 
L 288.099413 161.507662 
L 288.160298 160.482527 
L 288.525607 162.40979 
L 288.586492 161.496017 
L 288.708262 163.231483 
L 288.769147 162.99767 
L 288.830031 162.992046 
L 289.012686 165.695479 
L 289.195341 165.643861 
L 289.377996 164.626296 
L 289.499765 163.897529 
L 289.56065 163.991488 
L 289.621535 164.383646 
L 289.68242 163.675752 
L 289.743305 163.924204 
L 289.80419 164.122893 
L 289.92596 163.184403 
L 290.108614 164.456939 
L 290.291269 162.426756 
L 290.352154 162.685759 
L 290.473924 163.583139 
L 290.534809 162.243634 
L 290.595694 162.956003 
L 290.656579 162.115503 
L 290.961003 166.519969 
L 291.204543 163.07845 
L 291.265428 163.255015 
L 291.326313 163.11296 
L 291.813392 159.385408 
L 291.874277 159.505837 
L 291.996046 159.90051 
L 292.117816 159.463914 
L 292.483126 162.735952 
L 292.604896 161.54804 
L 292.66578 162.368909 
L 292.726665 162.291565 
L 292.78755 161.7903 
L 292.90932 159.742989 
L 292.970205 160.4023 
L 293.03109 160.313819 
L 293.274629 157.878913 
L 293.335514 157.697396 
L 293.396399 158.746608 
L 293.579054 157.536907 
L 293.639939 157.30871 
L 293.761709 157.758709 
L 293.822594 157.08348 
L 293.944363 157.880312 
L 294.005248 156.838139 
L 294.127018 158.714773 
L 294.187903 158.469549 
L 294.248788 157.269159 
L 294.309673 157.963601 
L 294.370558 157.321904 
L 294.431443 157.569135 
L 294.492328 157.495522 
L 294.553212 157.960053 
L 294.796752 154.764488 
L 294.857637 154.88726 
L 295.222946 157.449819 
L 295.283831 156.456375 
L 295.344716 157.20055 
L 295.405601 156.857239 
L 295.466486 157.299827 
L 295.588256 155.730139 
L 295.649141 157.136271 
L 295.710026 156.133139 
L 295.89268 159.322976 
L 296.01445 158.395561 
L 296.075335 158.184246 
L 296.13622 159.339973 
L 296.197105 158.914146 
L 296.25799 158.881925 
L 296.440644 157.649135 
L 296.501529 157.965337 
L 296.623299 160.842213 
L 296.684184 160.642156 
L 296.805954 160.40008 
L 296.927724 158.97969 
L 297.110378 161.168618 
L 297.232148 160.48238 
L 297.353918 162.847772 
L 297.414803 162.115395 
L 297.475688 161.059484 
L 297.536573 161.362753 
L 297.597458 162.82327 
L 297.658343 162.236843 
L 297.780112 163.615745 
L 297.840997 163.208134 
L 297.901882 162.841876 
L 298.084537 165.369307 
L 298.267192 163.765448 
L 298.449846 164.888936 
L 298.571616 163.49787 
L 298.632501 163.559049 
L 298.693386 163.712462 
L 298.754271 164.171188 
L 298.815156 163.492582 
L 298.876041 163.997559 
L 299.058695 165.400902 
L 299.36312 160.532202 
L 299.545775 161.456649 
L 299.667544 159.997648 
L 299.728429 160.507296 
L 299.789314 160.21938 
L 299.850199 159.554261 
L 299.911084 159.77869 
L 299.971969 160.414923 
L 300.032854 159.861485 
L 300.093739 159.886461 
L 300.154624 160.838743 
L 300.215509 160.718863 
L 300.276393 160.302126 
L 300.337278 160.51585 
L 300.398163 160.511694 
L 300.580818 163.379985 
L 300.641703 163.757281 
L 300.702588 163.488488 
L 300.824358 161.287996 
L 300.885243 161.948139 
L 300.946127 162.194263 
L 301.128782 161.637693 
L 301.250552 163.066453 
L 301.311437 162.84896 
L 301.554976 166.124929 
L 301.615861 165.677202 
L 301.859401 168.407035 
L 301.920286 168.113645 
L 301.981171 167.907286 
L 302.042056 168.3323 
L 302.102941 168.19454 
L 302.163825 168.019744 
L 302.22471 168.057742 
L 302.285595 168.968849 
L 302.34648 168.951101 
L 302.407365 168.909504 
L 302.46825 169.882051 
L 302.529135 168.782024 
L 302.59002 169.527401 
L 302.650905 169.916213 
L 302.894444 165.716799 
L 302.955329 165.75238 
L 303.016214 165.978172 
L 303.137984 164.061525 
L 303.259754 165.880521 
L 303.320639 165.808313 
L 303.381524 165.776715 
L 303.442408 165.514907 
L 303.625063 166.938015 
L 303.807718 166.033115 
L 303.868603 165.845913 
L 303.929488 164.583685 
L 303.990373 164.633091 
L 304.173027 166.140426 
L 304.355682 163.795699 
L 304.416567 163.862629 
L 304.660107 163.045182 
L 304.842761 161.39112 
L 304.903646 162.10842 
L 305.025416 160.183833 
L 305.147186 161.912378 
L 305.208071 161.661472 
L 305.512495 163.86124 
L 305.57338 163.76116 
L 305.756035 162.554859 
L 305.81692 162.649452 
L 306.121344 160.912117 
L 306.182229 160.904511 
L 306.243114 161.050029 
L 306.364884 162.184906 
L 306.425769 161.4766 
L 306.486654 161.708655 
L 306.547539 161.525803 
L 306.669308 160.882766 
L 306.730193 161.009842 
L 306.851963 161.812733 
L 306.973733 161.317559 
L 307.217273 165.052835 
L 307.339042 164.022582 
L 307.399927 164.042401 
L 307.460812 165.19834 
L 307.521697 164.930113 
L 307.582582 164.750936 
L 307.643467 164.870832 
L 307.704352 164.82487 
L 307.826122 163.832609 
L 307.887006 165.066116 
L 307.947891 164.658001 
L 308.069661 164.977891 
L 308.252316 163.642074 
L 308.55674 167.353099 
L 308.617625 167.097993 
L 308.67851 166.768648 
L 308.739395 167.247984 
L 308.80028 166.840056 
L 308.982935 167.717352 
L 309.104705 167.10942 
L 309.165589 167.306156 
L 309.226474 168.805673 
L 309.287359 167.526772 
L 309.348244 168.308138 
L 309.409129 168.308723 
L 309.530899 167.170091 
L 309.652669 169.134085 
L 309.713554 168.229307 
L 309.774439 168.046589 
L 309.835323 167.083258 
L 310.017978 168.512505 
L 310.139748 167.123455 
L 310.261518 169.374616 
L 310.322403 169.168194 
L 310.444172 168.672753 
L 310.505057 169.939234 
L 310.565942 168.930187 
L 310.748597 167.182415 
L 310.870367 167.095172 
L 310.931252 167.75014 
L 310.992137 167.487251 
L 311.053022 166.519355 
L 311.113906 166.634765 
L 311.235676 167.592156 
L 311.540101 164.974257 
L 311.600986 164.981717 
L 311.661871 166.213636 
L 311.722755 166.162761 
L 311.78364 165.527312 
L 311.844525 167.246229 
L 311.966295 164.059222 
L 312.02718 165.560471 
L 312.088065 164.890298 
L 312.14895 164.817514 
L 312.331605 163.626606 
L 312.392489 164.383347 
L 312.453374 164.030738 
L 312.514259 163.04984 
L 312.575144 163.32153 
L 312.757799 164.267526 
L 312.940454 162.719097 
L 313.183993 166.416107 
L 313.853727 171.957094 
L 313.914612 171.766208 
L 313.975497 171.958733 
L 314.036382 171.800235 
L 314.097267 171.828915 
L 314.158152 172.317303 
L 314.340806 171.059512 
L 314.401691 171.054097 
L 314.706116 168.763232 
L 314.767001 168.946773 
L 315.193195 172.095227 
L 315.37585 171.097579 
L 315.436735 171.013373 
L 315.49762 170.588718 
L 315.558504 170.98835 
L 315.862929 169.284047 
L 315.923814 169.359025 
L 315.984699 169.262894 
L 316.167353 171.801349 
L 316.289123 172.158091 
L 316.350008 173.455567 
L 316.532663 170.954402 
L 316.593548 170.148592 
L 316.654433 170.982351 
L 316.715318 169.702417 
L 316.776203 170.306172 
L 316.837087 170.10686 
L 316.897972 170.722578 
L 317.080627 167.25174 
L 317.202397 167.682863 
L 317.385052 165.639721 
L 317.445936 166.53734 
L 317.628591 164.730652 
L 317.750361 162.557538 
L 317.811246 160.764024 
L 317.872131 161.858983 
L 317.993901 162.107382 
L 318.176555 159.14594 
L 318.23744 160.493741 
L 318.298325 160.11006 
L 318.48098 158.898001 
L 318.724519 161.591185 
L 318.907174 159.355724 
L 318.968059 159.652688 
L 319.028944 160.210781 
L 319.089829 159.663513 
L 319.150714 159.893843 
L 319.211599 160.17222 
L 319.333368 159.542118 
L 319.394253 159.812712 
L 319.455138 159.892913 
L 319.637793 163.220223 
L 319.698678 162.661539 
L 319.881333 163.76613 
L 319.942218 163.722064 
L 320.003102 164.117157 
L 320.063987 163.244916 
L 320.124872 163.27745 
L 320.307527 165.354261 
L 320.490182 167.150778 
L 320.551067 166.176853 
L 320.672836 168.325454 
L 320.733721 168.091245 
L 320.794606 168.040964 
L 320.855491 168.402565 
L 320.977261 167.454165 
L 321.220801 171.392854 
L 321.34257 171.128872 
L 321.403455 170.583546 
L 321.46434 170.712367 
L 321.525225 172.16297 
L 321.58611 171.787523 
L 321.646995 172.242192 
L 321.890534 170.352066 
L 322.194959 168.166913 
L 322.438499 171.437274 
L 323.047348 168.311469 
L 323.108233 168.044706 
L 323.169117 168.243499 
L 323.351772 169.455107 
L 323.412657 169.332535 
L 323.717082 165.448564 
L 323.899736 168.184727 
L 324.143276 169.373682 
L 324.204161 168.903892 
L 324.386816 166.890064 
L 324.630355 165.413075 
L 324.69124 166.301238 
L 324.752125 165.77635 
L 324.873895 165.245072 
L 325.056549 166.825481 
L 325.117434 166.250836 
L 325.178319 166.632959 
L 325.239204 166.512392 
L 325.360974 165.360088 
L 325.482744 162.568383 
L 325.543629 162.879653 
L 325.604514 163.09636 
L 325.726283 161.316637 
L 325.848053 161.495748 
L 326.030708 162.847351 
L 326.091593 162.98146 
L 326.152478 163.876381 
L 326.396017 161.210671 
L 326.456902 160.930325 
L 326.517787 161.038145 
L 326.578672 161.425498 
L 326.639557 162.590024 
L 326.700442 161.876815 
L 326.761327 161.721029 
L 326.822212 160.642261 
L 326.883097 161.274091 
L 326.943982 162.364057 
L 327.004866 162.096003 
L 327.187521 160.536442 
L 327.309291 160.94621 
L 327.370176 161.110745 
L 327.552831 165.134372 
L 327.735485 162.790185 
L 327.857255 162.850707 
L 327.979025 161.71149 
L 328.100795 162.32764 
L 328.344334 159.818832 
L 328.405219 159.71084 
L 328.466104 159.924983 
L 328.587874 160.881257 
L 328.709644 159.398142 
L 328.770529 159.68459 
L 328.831414 159.503112 
L 329.014068 156.864996 
L 329.074953 157.072924 
L 329.135838 157.697009 
L 329.196723 156.862153 
L 329.257608 157.228576 
L 329.318493 159.286453 
L 329.379378 158.533362 
L 329.562032 157.135688 
L 329.683802 155.069387 
L 329.805572 155.377305 
L 329.866457 155.466262 
L 329.988227 154.877777 
L 330.109997 153.561548 
L 330.170881 153.647327 
L 330.414421 155.811663 
L 330.475306 155.543981 
L 330.536191 155.458025 
L 330.597076 156.135706 
L 330.718846 154.876072 
L 330.9015 156.126778 
L 331.084155 155.411359 
L 331.205925 156.12067 
L 331.38858 158.100856 
L 331.449464 158.638504 
L 331.510349 157.249793 
L 331.571234 157.922032 
L 331.632119 158.946455 
L 331.693004 158.488968 
L 331.875659 156.076991 
L 332.058313 159.212202 
L 332.180083 158.377159 
L 332.240968 158.810951 
L 332.484508 156.674043 
L 332.606278 153.536864 
L 332.667163 153.756606 
L 332.849817 154.041576 
L 332.971587 152.294697 
L 333.093357 154.718476 
L 333.154242 154.083496 
L 333.215127 154.544824 
L 333.276012 154.138212 
L 333.336896 154.361353 
L 333.458666 154.784207 
L 333.519551 154.475141 
L 333.580436 155.366224 
L 333.641321 154.957131 
L 333.702206 154.865409 
L 333.763091 155.078452 
L 333.884861 153.893649 
L 334.067515 155.278933 
L 334.1284 155.053971 
L 334.189285 154.336055 
L 334.25017 154.710564 
L 334.37194 155.807456 
L 334.49371 154.471209 
L 334.737249 155.673719 
L 335.102559 152.352578 
L 335.163444 153.104442 
L 335.285213 151.665012 
L 335.467868 152.80674 
L 335.650523 151.052351 
L 335.711408 151.364609 
L 335.772293 150.355946 
L 335.833178 151.186164 
L 335.894062 151.400773 
L 336.137602 148.376631 
L 336.198487 148.039486 
L 336.259372 148.189325 
L 336.320257 148.228418 
L 336.442027 149.682251 
L 336.502911 148.072002 
L 336.563796 148.253129 
L 336.685566 148.677978 
L 336.807336 147.842115 
L 336.868221 148.30344 
L 336.929106 150.335449 
L 336.989991 149.887208 
L 337.050876 149.947719 
L 337.111761 149.424467 
L 337.172645 149.639119 
L 337.23353 149.655146 
L 337.294415 150.324465 
L 337.3553 150.016472 
L 337.416185 149.844611 
L 337.47707 150.283129 
L 337.781494 146.562661 
L 337.842379 146.821685 
L 337.903264 148.491517 
L 337.964149 147.845207 
L 338.146804 146.221619 
L 338.207689 146.302677 
L 338.329459 147.477231 
L 338.451228 146.167184 
L 338.512113 146.150464 
L 338.572998 146.864124 
L 338.694768 145.810968 
L 338.877423 147.416617 
L 338.938308 146.647178 
L 338.999193 147.25469 
L 339.120962 147.439564 
L 339.181847 148.047894 
L 339.242732 147.585464 
L 339.303617 147.97071 
L 339.425387 146.793639 
L 339.486272 147.182359 
L 339.729811 145.293828 
L 339.851581 146.477216 
L 339.973351 147.636707 
L 340.034236 146.768507 
L 340.095121 148.083018 
L 340.156006 147.906458 
L 340.216891 147.796479 
L 340.399545 146.387451 
L 340.46043 146.153013 
L 340.643085 148.219216 
L 340.764855 150.027385 
L 340.82574 149.924484 
L 340.886625 149.654195 
L 341.008394 151.407838 
L 341.069279 149.672927 
L 341.130164 150.006814 
L 341.251934 151.473643 
L 341.312819 149.940401 
L 341.373704 149.982812 
L 341.434589 149.982054 
L 341.495474 149.08305 
L 341.556359 149.255374 
L 341.739013 149.893125 
L 341.860783 151.709209 
L 341.921668 151.528621 
L 342.104323 150.627108 
L 342.165208 150.466811 
L 342.226092 149.893635 
L 342.408747 151.667653 
L 342.530517 152.524863 
L 342.652287 149.144773 
L 342.713172 149.552045 
L 342.956711 151.529476 
L 343.017596 151.316068 
L 343.078481 151.075241 
L 343.139366 151.26358 
L 343.200251 151.984456 
L 343.443791 149.974992 
L 343.504675 150.856397 
L 343.68733 149.598418 
L 343.869985 148.64357 
L 343.93087 149.338331 
L 343.991755 148.910227 
L 344.174409 148.517425 
L 344.296179 149.301546 
L 344.417949 147.804625 
L 344.478834 149.113067 
L 344.539719 148.773433 
L 344.722374 150.157141 
L 344.783258 150.081828 
L 344.905028 149.139902 
L 345.026798 146.716151 
L 345.087683 147.417689 
L 345.148568 147.441479 
L 345.635647 151.787973 
L 345.757417 150.222291 
L 345.818302 148.854225 
L 346.000957 151.010524 
L 346.122726 150.629681 
L 346.305381 155.279365 
L 346.427151 155.865088 
L 346.488036 155.613753 
L 346.609806 154.533464 
L 346.670691 155.409381 
L 346.731575 155.362832 
L 346.79246 155.222038 
L 346.91423 155.939122 
L 346.975115 156.963263 
L 347.036 156.046476 
L 347.096885 156.704209 
L 347.15777 157.067691 
L 347.27954 156.049037 
L 347.340424 157.53344 
L 347.401309 157.089665 
L 347.644849 154.848888 
L 347.705734 153.5217 
L 347.888389 155.662616 
L 347.949273 155.212572 
L 348.071043 157.806351 
L 348.192813 156.083175 
L 348.436353 158.096761 
L 348.497238 157.833245 
L 348.740777 160.667635 
L 348.801662 160.812437 
L 348.862547 160.748757 
L 348.923432 160.751641 
L 348.984317 160.187626 
L 349.045202 160.330818 
L 349.227856 160.660292 
L 349.288741 160.758422 
L 349.349626 160.000947 
L 349.410511 160.144463 
L 349.471396 160.209339 
L 349.654051 157.396236 
L 349.714936 158.591591 
L 349.775821 158.247011 
L 349.836706 158.016415 
L 350.01936 160.445982 
L 350.2629 157.812379 
L 350.445555 154.95661 
L 350.506439 155.980046 
L 350.689094 154.055962 
L 350.749979 154.157393 
L 350.871749 155.504475 
L 351.054404 152.841433 
L 351.115289 153.363421 
L 351.176173 153.290385 
L 351.419713 151.199951 
L 351.541483 150.228371 
L 351.602368 151.240863 
L 351.663253 151.183757 
L 351.906792 148.760959 
L 352.089447 149.094027 
L 352.150332 148.942961 
L 352.272102 146.662202 
L 352.332987 146.917574 
L 352.393872 147.483232 
L 352.454756 147.129649 
L 352.576526 146.259999 
L 352.637411 146.511964 
L 352.698296 146.393548 
L 352.759181 146.570509 
L 352.880951 145.403351 
L 352.941836 146.246914 
L 353.002721 146.216188 
L 353.063605 145.647476 
L 353.24626 147.70795 
L 353.307145 147.337584 
L 353.36803 147.196928 
L 353.672454 144.134831 
L 353.915994 143.238213 
L 353.976879 143.306386 
L 354.098649 144.709795 
L 354.220419 146.54683 
L 354.463958 143.863763 
L 354.524843 143.806051 
L 354.707498 142.594518 
L 354.768383 142.626346 
L 354.890153 141.728516 
L 354.951037 143.25145 
L 355.011922 143.023331 
L 355.255462 139.705235 
L 355.377232 141.378454 
L 355.499002 139.736439 
L 355.559887 139.792748 
L 355.620771 139.823627 
L 355.681656 140.102276 
L 355.742541 139.490609 
L 355.803426 139.510091 
L 355.864311 139.518735 
L 356.107851 137.996739 
L 356.168736 138.11401 
L 356.35139 136.172114 
L 356.412275 135.382746 
L 356.47316 135.688943 
L 356.59493 136.37921 
L 356.960239 133.075714 
L 357.082009 133.797186 
L 357.142894 133.358629 
L 357.203779 134.070373 
L 357.325549 133.341895 
L 357.386434 133.342737 
L 357.447319 133.198024 
L 357.508203 133.998471 
L 357.569088 133.510688 
L 357.629973 133.431036 
L 357.690858 133.729757 
L 357.812628 133.139689 
L 357.873513 133.657746 
L 357.934398 133.387569 
L 358.117053 132.241646 
L 358.482362 134.220431 
L 358.604132 136.258657 
L 358.665017 134.840881 
L 358.725902 135.720631 
L 358.847671 136.928116 
L 358.969441 134.66433 
L 359.030326 135.58199 
L 359.091211 135.692899 
L 359.212981 136.86919 
L 359.273866 136.588562 
L 359.395635 137.57265 
L 359.517405 135.720721 
L 359.57829 136.394672 
L 359.760945 137.863656 
L 359.82183 137.273241 
L 359.882715 137.3473 
L 360.065369 137.290932 
L 360.248024 139.657732 
L 360.308909 138.221234 
L 360.369794 139.04326 
L 360.430679 138.461559 
L 360.674218 140.911922 
L 360.735103 142.975487 
L 360.795988 142.140683 
L 360.856873 142.09881 
L 360.917758 141.050585 
L 360.978643 141.755733 
L 361.283068 138.737446 
L 361.343952 138.897883 
L 361.526607 141.363391 
L 361.587492 140.823782 
L 361.648377 139.464295 
L 361.709262 139.515454 
L 362.013686 141.685977 
L 362.074571 140.841778 
L 362.135456 141.161818 
L 362.196341 142.666502 
L 362.257226 141.801947 
L 362.500766 139.838037 
L 362.561651 139.987478 
L 362.744305 141.730382 
L 362.987845 139.154735 
L 363.1705 137.210825 
L 363.231384 137.833281 
L 363.292269 137.824472 
L 363.353154 136.070017 
L 363.414039 136.462446 
L 363.596694 137.173928 
L 363.657579 136.442314 
L 363.718464 137.092904 
L 363.901118 134.960688 
L 363.962003 134.460964 
L 364.022888 134.85597 
L 364.144658 135.341065 
L 364.327313 133.431856 
L 364.570852 135.031616 
L 364.631737 134.916325 
L 364.997047 137.932382 
L 365.057932 137.218784 
L 365.118816 137.505036 
L 365.179701 139.560607 
L 365.240586 139.146556 
L 365.301471 139.227386 
L 365.362356 140.037033 
L 365.423241 139.292059 
L 365.545011 141.566525 
L 365.605896 141.296845 
L 365.666781 141.315495 
L 365.727666 140.699338 
L 365.78855 141.214881 
L 365.91032 144.10386 
L 365.971205 143.005989 
L 366.03209 143.666555 
L 366.092975 144.717871 
L 366.15386 144.437072 
L 366.27563 143.211213 
L 366.458284 146.310636 
L 366.519169 144.87179 
L 366.580054 144.086222 
L 366.823594 147.46464 
L 366.884479 146.863369 
L 367.006249 149.646968 
L 367.067133 149.282691 
L 367.128018 148.604123 
L 367.249788 149.99112 
L 367.432443 148.244927 
L 367.493328 148.113421 
L 367.615098 150.230198 
L 367.675982 149.482067 
L 367.736867 150.550775 
L 367.797752 150.356291 
L 367.858637 149.723097 
L 367.919522 150.130326 
L 367.980407 150.073622 
L 368.041292 149.448996 
L 368.102177 149.699469 
L 368.223947 149.727924 
L 368.284832 149.430215 
L 368.467486 151.424914 
L 368.650141 153.018289 
L 368.711026 152.836513 
L 369.01545 148.996465 
L 369.198105 150.047685 
L 369.319875 149.725135 
L 369.38076 148.16667 
L 369.441645 148.832735 
L 369.50253 148.620508 
L 369.563415 147.973499 
L 369.624299 148.459954 
L 369.685184 148.455063 
L 369.928724 151.684295 
L 370.111379 150.094581 
L 370.172264 149.882949 
L 370.233148 149.244368 
L 370.294033 149.330116 
L 370.354918 149.539962 
L 370.598458 153.024317 
L 370.720228 151.806844 
L 370.781113 152.223011 
L 370.841997 151.956636 
L 370.963767 150.3281 
L 371.024652 150.423767 
L 371.085537 151.591834 
L 371.146422 151.551274 
L 371.268192 149.990327 
L 371.572616 152.619005 
L 371.633501 151.879404 
L 371.694386 152.736179 
L 371.877041 150.597001 
L 371.937926 151.913856 
L 371.998811 150.25792 
L 372.059696 150.584277 
L 372.181465 152.633617 
L 372.425005 149.300933 
L 372.48589 149.177154 
L 372.546775 151.491808 
L 372.60766 149.794152 
L 372.790314 151.398581 
L 373.033854 148.117173 
L 373.094739 148.442624 
L 373.155624 148.131649 
L 373.216509 148.429528 
L 373.277394 147.085323 
L 373.338279 147.998839 
L 373.520933 148.991011 
L 373.581818 147.754255 
L 373.581818 147.754255 
" style="fill:none;stroke:#1f77b4;stroke-linecap:round;stroke-width:1.5;"/>
   </g>
   <g id="patch_3">
    <path d="M 54 252 
L 54 34.56 
" style="fill:none;stroke:#cccccc;stroke-linecap:square;stroke-linejoin:miter;stroke-width:0.8;"/>
   </g>
   <g id="patch_4">
    <path d="M 388.8 252 
L 388.8 34.56 
" style="fill:none;stroke:#cccccc;stroke-linecap:square;stroke-linejoin:miter;stroke-width:0.8;"/>
   </g>
   <g id="patch_5">
    <path d="M 54 252 
L 388.8 252 
" style="fill:none;stroke:#cccccc;stroke-linecap:square;stroke-linejoin:miter;stroke-width:0.8;"/>
   </g>
   <g id="patch_6">
    <path d="M 54 34.56 
L 388.8 34.56 
" style="fill:none;stroke:#cccccc;stroke-linecap:square;stroke-linejoin:miter;stroke-width:0.8;"/>
   </g>
  </g>
 </g>
 <defs>
  <clipPath id="p2f25b089fb">
   <rect height="217.44" width="334.8" x="54" y="34.56"/>
  </clipPath>
 </defs>
</svg>
