<?xml version="1.0" encoding="utf-8" standalone="no"?>
<!DOCTYPE svg PUBLIC "-//W3C//DTD SVG 1.1//EN"
  "http://www.w3.org/Graphics/SVG/1.1/DTD/svg11.dtd">
<svg height="288pt" version="1.1" viewBox="0 0 432 288" width="432pt" xmlns="http://www.w3.org/2000/svg" xmlns:xlink="http://www.w3.org/1999/xlink">
 <metadata>
  <rdf:RDF xmlns:cc="http://creativecommons.org/ns#" xmlns:dc="http://purl.org/dc/elements/1.1/" xmlns:rdf="http://www.w3.org/1999/02/22-rdf-syntax-ns#">
   <cc:Work>
    <dc:type rdf:resource="http://purl.org/dc/dcmitype/StillImage"/>
    <dc:date>2022-03-07T23:30:31.720636</dc:date>
    <dc:format>image/svg+xml</dc:format>
    <dc:creator>
     <cc:Agent>
      <dc:title>Matplotlib v3.4.3, https://matplotlib.org/</dc:title>
     </cc:Agent>
    </dc:creator>
   </cc:Work>
  </rdf:RDF>
 </metadata>
 <defs>
  <style type="text/css">*{stroke-linecap:butt;stroke-linejoin:round;}</style>
 </defs>
 <g id="figure_1">
  <g id="patch_1">
   <path d="M 0 288 
L 432 288 
L 432 0 
L 0 0 
z
" style="fill:#ffffff;"/>
  </g>
  <g id="axes_1">
   <g id="patch_2">
    <path d="M 54 252 
L 388.8 252 
L 388.8 34.56 
L 54 34.56 
z
" style="fill:#ffffff;"/>
   </g>
   <g id="matplotlib.axis_1">
    <g id="xtick_1">
     <g id="line2d_1">
      <path clip-path="url(#p4f0d4a1c97)" d="M 69.218182 252 
L 69.218182 34.56 
" style="fill:none;stroke:#cccccc;stroke-linecap:round;stroke-width:0.8;"/>
     </g>
     <g id="text_1">
      <!-- 0 -->
      <g style="fill:#262626;" transform="translate(65.325526 269.020938)scale(0.14 -0.14)">
       <defs>
        <path d="M 266 2259 
Q 266 3072 433 3567 
Q 600 4063 929 4331 
Q 1259 4600 1759 4600 
Q 2128 4600 2406 4451 
Q 2684 4303 2865 4023 
Q 3047 3744 3150 3342 
Q 3253 2941 3253 2259 
Q 3253 1453 3087 958 
Q 2922 463 2592 192 
Q 2263 -78 1759 -78 
Q 1097 -78 719 397 
Q 266 969 266 2259 
z
M 844 2259 
Q 844 1131 1108 757 
Q 1372 384 1759 384 
Q 2147 384 2411 759 
Q 2675 1134 2675 2259 
Q 2675 3391 2411 3762 
Q 2147 4134 1753 4134 
Q 1366 4134 1134 3806 
Q 844 3388 844 2259 
z
" id="ArialMT-30" transform="scale(0.015625)"/>
       </defs>
       <use xlink:href="#ArialMT-30"/>
      </g>
     </g>
    </g>
    <g id="xtick_2">
     <g id="line2d_2">
      <path clip-path="url(#p4f0d4a1c97)" d="M 130.103086 252 
L 130.103086 34.56 
" style="fill:none;stroke:#cccccc;stroke-linecap:round;stroke-width:0.8;"/>
     </g>
     <g id="text_2">
      <!-- 1000 -->
      <g style="fill:#262626;" transform="translate(114.532461 269.020938)scale(0.14 -0.14)">
       <defs>
        <path d="M 2384 0 
L 1822 0 
L 1822 3584 
Q 1619 3391 1289 3197 
Q 959 3003 697 2906 
L 697 3450 
Q 1169 3672 1522 3987 
Q 1875 4303 2022 4600 
L 2384 4600 
L 2384 0 
z
" id="ArialMT-31" transform="scale(0.015625)"/>
       </defs>
       <use xlink:href="#ArialMT-31"/>
       <use x="55.615234" xlink:href="#ArialMT-30"/>
       <use x="111.230469" xlink:href="#ArialMT-30"/>
       <use x="166.845703" xlink:href="#ArialMT-30"/>
      </g>
     </g>
    </g>
    <g id="xtick_3">
     <g id="line2d_3">
      <path clip-path="url(#p4f0d4a1c97)" d="M 190.98799 252 
L 190.98799 34.56 
" style="fill:none;stroke:#cccccc;stroke-linecap:round;stroke-width:0.8;"/>
     </g>
     <g id="text_3">
      <!-- 2000 -->
      <g style="fill:#262626;" transform="translate(175.417365 269.020938)scale(0.14 -0.14)">
       <defs>
        <path d="M 3222 541 
L 3222 0 
L 194 0 
Q 188 203 259 391 
Q 375 700 629 1000 
Q 884 1300 1366 1694 
Q 2113 2306 2375 2664 
Q 2638 3022 2638 3341 
Q 2638 3675 2398 3904 
Q 2159 4134 1775 4134 
Q 1369 4134 1125 3890 
Q 881 3647 878 3216 
L 300 3275 
Q 359 3922 746 4261 
Q 1134 4600 1788 4600 
Q 2447 4600 2831 4234 
Q 3216 3869 3216 3328 
Q 3216 3053 3103 2787 
Q 2991 2522 2730 2228 
Q 2469 1934 1863 1422 
Q 1356 997 1212 845 
Q 1069 694 975 541 
L 3222 541 
z
" id="ArialMT-32" transform="scale(0.015625)"/>
       </defs>
       <use xlink:href="#ArialMT-32"/>
       <use x="55.615234" xlink:href="#ArialMT-30"/>
       <use x="111.230469" xlink:href="#ArialMT-30"/>
       <use x="166.845703" xlink:href="#ArialMT-30"/>
      </g>
     </g>
    </g>
    <g id="xtick_4">
     <g id="line2d_4">
      <path clip-path="url(#p4f0d4a1c97)" d="M 251.872895 252 
L 251.872895 34.56 
" style="fill:none;stroke:#cccccc;stroke-linecap:round;stroke-width:0.8;"/>
     </g>
     <g id="text_4">
      <!-- 3000 -->
      <g style="fill:#262626;" transform="translate(236.30227 269.020938)scale(0.14 -0.14)">
       <defs>
        <path d="M 269 1209 
L 831 1284 
Q 928 806 1161 595 
Q 1394 384 1728 384 
Q 2125 384 2398 659 
Q 2672 934 2672 1341 
Q 2672 1728 2419 1979 
Q 2166 2231 1775 2231 
Q 1616 2231 1378 2169 
L 1441 2663 
Q 1497 2656 1531 2656 
Q 1891 2656 2178 2843 
Q 2466 3031 2466 3422 
Q 2466 3731 2256 3934 
Q 2047 4138 1716 4138 
Q 1388 4138 1169 3931 
Q 950 3725 888 3313 
L 325 3413 
Q 428 3978 793 4289 
Q 1159 4600 1703 4600 
Q 2078 4600 2393 4439 
Q 2709 4278 2876 4000 
Q 3044 3722 3044 3409 
Q 3044 3113 2884 2869 
Q 2725 2625 2413 2481 
Q 2819 2388 3044 2092 
Q 3269 1797 3269 1353 
Q 3269 753 2831 336 
Q 2394 -81 1725 -81 
Q 1122 -81 723 278 
Q 325 638 269 1209 
z
" id="ArialMT-33" transform="scale(0.015625)"/>
       </defs>
       <use xlink:href="#ArialMT-33"/>
       <use x="55.615234" xlink:href="#ArialMT-30"/>
       <use x="111.230469" xlink:href="#ArialMT-30"/>
       <use x="166.845703" xlink:href="#ArialMT-30"/>
      </g>
     </g>
    </g>
    <g id="xtick_5">
     <g id="line2d_5">
      <path clip-path="url(#p4f0d4a1c97)" d="M 312.757799 252 
L 312.757799 34.56 
" style="fill:none;stroke:#cccccc;stroke-linecap:round;stroke-width:0.8;"/>
     </g>
     <g id="text_5">
      <!-- 4000 -->
      <g style="fill:#262626;" transform="translate(297.187174 269.020938)scale(0.14 -0.14)">
       <defs>
        <path d="M 2069 0 
L 2069 1097 
L 81 1097 
L 81 1613 
L 2172 4581 
L 2631 4581 
L 2631 1613 
L 3250 1613 
L 3250 1097 
L 2631 1097 
L 2631 0 
L 2069 0 
z
M 2069 1613 
L 2069 3678 
L 634 1613 
L 2069 1613 
z
" id="ArialMT-34" transform="scale(0.015625)"/>
       </defs>
       <use xlink:href="#ArialMT-34"/>
       <use x="55.615234" xlink:href="#ArialMT-30"/>
       <use x="111.230469" xlink:href="#ArialMT-30"/>
       <use x="166.845703" xlink:href="#ArialMT-30"/>
      </g>
     </g>
    </g>
    <g id="xtick_6">
     <g id="line2d_6">
      <path clip-path="url(#p4f0d4a1c97)" d="M 373.642703 252 
L 373.642703 34.56 
" style="fill:none;stroke:#cccccc;stroke-linecap:round;stroke-width:0.8;"/>
     </g>
     <g id="text_6">
      <!-- 5000 -->
      <g style="fill:#262626;" transform="translate(358.072078 269.020938)scale(0.14 -0.14)">
       <defs>
        <path d="M 266 1200 
L 856 1250 
Q 922 819 1161 601 
Q 1400 384 1738 384 
Q 2144 384 2425 690 
Q 2706 997 2706 1503 
Q 2706 1984 2436 2262 
Q 2166 2541 1728 2541 
Q 1456 2541 1237 2417 
Q 1019 2294 894 2097 
L 366 2166 
L 809 4519 
L 3088 4519 
L 3088 3981 
L 1259 3981 
L 1013 2750 
Q 1425 3038 1878 3038 
Q 2478 3038 2890 2622 
Q 3303 2206 3303 1553 
Q 3303 931 2941 478 
Q 2500 -78 1738 -78 
Q 1113 -78 717 272 
Q 322 622 266 1200 
z
" id="ArialMT-35" transform="scale(0.015625)"/>
       </defs>
       <use xlink:href="#ArialMT-35"/>
       <use x="55.615234" xlink:href="#ArialMT-30"/>
       <use x="111.230469" xlink:href="#ArialMT-30"/>
       <use x="166.845703" xlink:href="#ArialMT-30"/>
      </g>
     </g>
    </g>
    <g id="text_7">
     <!-- Time -->
     <g style="fill:#262626;" transform="translate(203.92375 287.255938)scale(0.16 -0.16)">
      <defs>
       <path d="M 1659 0 
L 1659 4041 
L 150 4041 
L 150 4581 
L 3781 4581 
L 3781 4041 
L 2266 4041 
L 2266 0 
L 1659 0 
z
" id="ArialMT-54" transform="scale(0.015625)"/>
       <path d="M 425 3934 
L 425 4581 
L 988 4581 
L 988 3934 
L 425 3934 
z
M 425 0 
L 425 3319 
L 988 3319 
L 988 0 
L 425 0 
z
" id="ArialMT-69" transform="scale(0.015625)"/>
       <path d="M 422 0 
L 422 3319 
L 925 3319 
L 925 2853 
Q 1081 3097 1340 3245 
Q 1600 3394 1931 3394 
Q 2300 3394 2536 3241 
Q 2772 3088 2869 2813 
Q 3263 3394 3894 3394 
Q 4388 3394 4653 3120 
Q 4919 2847 4919 2278 
L 4919 0 
L 4359 0 
L 4359 2091 
Q 4359 2428 4304 2576 
Q 4250 2725 4106 2815 
Q 3963 2906 3769 2906 
Q 3419 2906 3187 2673 
Q 2956 2441 2956 1928 
L 2956 0 
L 2394 0 
L 2394 2156 
Q 2394 2531 2256 2718 
Q 2119 2906 1806 2906 
Q 1569 2906 1367 2781 
Q 1166 2656 1075 2415 
Q 984 2175 984 1722 
L 984 0 
L 422 0 
z
" id="ArialMT-6d" transform="scale(0.015625)"/>
       <path d="M 2694 1069 
L 3275 997 
Q 3138 488 2766 206 
Q 2394 -75 1816 -75 
Q 1088 -75 661 373 
Q 234 822 234 1631 
Q 234 2469 665 2931 
Q 1097 3394 1784 3394 
Q 2450 3394 2872 2941 
Q 3294 2488 3294 1666 
Q 3294 1616 3291 1516 
L 816 1516 
Q 847 969 1125 678 
Q 1403 388 1819 388 
Q 2128 388 2347 550 
Q 2566 713 2694 1069 
z
M 847 1978 
L 2700 1978 
Q 2663 2397 2488 2606 
Q 2219 2931 1791 2931 
Q 1403 2931 1139 2672 
Q 875 2413 847 1978 
z
" id="ArialMT-65" transform="scale(0.015625)"/>
      </defs>
      <use xlink:href="#ArialMT-54"/>
      <use x="57.333984" xlink:href="#ArialMT-69"/>
      <use x="79.550781" xlink:href="#ArialMT-6d"/>
      <use x="162.851562" xlink:href="#ArialMT-65"/>
     </g>
    </g>
   </g>
   <g id="matplotlib.axis_2">
    <g id="ytick_1">
     <g id="line2d_7">
      <path clip-path="url(#p4f0d4a1c97)" d="M 54 252 
L 388.8 252 
" style="fill:none;stroke:#cccccc;stroke-linecap:round;stroke-width:0.8;"/>
     </g>
     <g id="text_8">
      <!-- −2 -->
      <g style="fill:#262626;" transform="translate(31.037813 257.010469)scale(0.14 -0.14)">
       <defs>
        <path d="M 3381 1997 
L 356 1997 
L 356 2522 
L 3381 2522 
L 3381 1997 
z
" id="ArialMT-2212" transform="scale(0.015625)"/>
       </defs>
       <use xlink:href="#ArialMT-2212"/>
       <use x="58.398438" xlink:href="#ArialMT-32"/>
      </g>
     </g>
    </g>
    <g id="ytick_2">
     <g id="line2d_8">
      <path clip-path="url(#p4f0d4a1c97)" d="M 54 197.64 
L 388.8 197.64 
" style="fill:none;stroke:#cccccc;stroke-linecap:round;stroke-width:0.8;"/>
     </g>
     <g id="text_9">
      <!-- −1 -->
      <g style="fill:#262626;" transform="translate(31.037813 202.650469)scale(0.14 -0.14)">
       <use xlink:href="#ArialMT-2212"/>
       <use x="58.398438" xlink:href="#ArialMT-31"/>
      </g>
     </g>
    </g>
    <g id="ytick_3">
     <g id="line2d_9">
      <path clip-path="url(#p4f0d4a1c97)" d="M 54 143.28 
L 388.8 143.28 
" style="fill:none;stroke:#cccccc;stroke-linecap:round;stroke-width:0.8;"/>
     </g>
     <g id="text_10">
      <!-- 0 -->
      <g style="fill:#262626;" transform="translate(39.214687 148.290469)scale(0.14 -0.14)">
       <use xlink:href="#ArialMT-30"/>
      </g>
     </g>
    </g>
    <g id="ytick_4">
     <g id="line2d_10">
      <path clip-path="url(#p4f0d4a1c97)" d="M 54 88.92 
L 388.8 88.92 
" style="fill:none;stroke:#cccccc;stroke-linecap:round;stroke-width:0.8;"/>
     </g>
     <g id="text_11">
      <!-- 1 -->
      <g style="fill:#262626;" transform="translate(39.214687 93.930469)scale(0.14 -0.14)">
       <use xlink:href="#ArialMT-31"/>
      </g>
     </g>
    </g>
    <g id="ytick_5">
     <g id="line2d_11">
      <path clip-path="url(#p4f0d4a1c97)" d="M 54 34.56 
L 388.8 34.56 
" style="fill:none;stroke:#cccccc;stroke-linecap:round;stroke-width:0.8;"/>
     </g>
     <g id="text_12">
      <!-- 2 -->
      <g style="fill:#262626;" transform="translate(39.214687 39.570469)scale(0.14 -0.14)">
       <use xlink:href="#ArialMT-32"/>
      </g>
     </g>
    </g>
    <g id="text_13">
     <!-- Noise -->
     <g style="fill:#262626;" transform="translate(23.857813 163.7325)rotate(-90)scale(0.16 -0.16)">
      <defs>
       <path d="M 488 0 
L 488 4581 
L 1109 4581 
L 3516 984 
L 3516 4581 
L 4097 4581 
L 4097 0 
L 3475 0 
L 1069 3600 
L 1069 0 
L 488 0 
z
" id="ArialMT-4e" transform="scale(0.015625)"/>
       <path d="M 213 1659 
Q 213 2581 725 3025 
Q 1153 3394 1769 3394 
Q 2453 3394 2887 2945 
Q 3322 2497 3322 1706 
Q 3322 1066 3130 698 
Q 2938 331 2570 128 
Q 2203 -75 1769 -75 
Q 1072 -75 642 372 
Q 213 819 213 1659 
z
M 791 1659 
Q 791 1022 1069 705 
Q 1347 388 1769 388 
Q 2188 388 2466 706 
Q 2744 1025 2744 1678 
Q 2744 2294 2464 2611 
Q 2184 2928 1769 2928 
Q 1347 2928 1069 2612 
Q 791 2297 791 1659 
z
" id="ArialMT-6f" transform="scale(0.015625)"/>
       <path d="M 197 991 
L 753 1078 
Q 800 744 1014 566 
Q 1228 388 1613 388 
Q 2000 388 2187 545 
Q 2375 703 2375 916 
Q 2375 1106 2209 1216 
Q 2094 1291 1634 1406 
Q 1016 1563 777 1677 
Q 538 1791 414 1992 
Q 291 2194 291 2438 
Q 291 2659 392 2848 
Q 494 3038 669 3163 
Q 800 3259 1026 3326 
Q 1253 3394 1513 3394 
Q 1903 3394 2198 3281 
Q 2494 3169 2634 2976 
Q 2775 2784 2828 2463 
L 2278 2388 
Q 2241 2644 2061 2787 
Q 1881 2931 1553 2931 
Q 1166 2931 1000 2803 
Q 834 2675 834 2503 
Q 834 2394 903 2306 
Q 972 2216 1119 2156 
Q 1203 2125 1616 2013 
Q 2213 1853 2448 1751 
Q 2684 1650 2818 1456 
Q 2953 1263 2953 975 
Q 2953 694 2789 445 
Q 2625 197 2315 61 
Q 2006 -75 1616 -75 
Q 969 -75 630 194 
Q 291 463 197 991 
z
" id="ArialMT-73" transform="scale(0.015625)"/>
      </defs>
      <use xlink:href="#ArialMT-4e"/>
      <use x="72.216797" xlink:href="#ArialMT-6f"/>
      <use x="127.832031" xlink:href="#ArialMT-69"/>
      <use x="150.048828" xlink:href="#ArialMT-73"/>
      <use x="200.048828" xlink:href="#ArialMT-65"/>
     </g>
    </g>
   </g>
   <g id="line2d_12">
    <path clip-path="url(#p4f0d4a1c97)" d="M 69.218182 143.625993 
L 69.279067 144.332818 
L 69.339952 143.827689 
L 69.400837 143.747388 
L 69.461721 146.260102 
L 69.522606 144.967969 
L 69.583491 139.839531 
L 69.644376 142.41942 
L 69.827031 139.13085 
L 70.009686 137.514352 
L 70.07057 137.98183 
L 70.131455 136.791204 
L 70.31411 142.146968 
L 70.43588 138.976935 
L 70.496765 139.188641 
L 70.67942 130.823221 
L 70.740304 132.194013 
L 70.801189 132.49598 
L 70.862074 131.668104 
L 71.044729 135.342591 
L 71.288269 131.276734 
L 71.349153 131.623311 
L 71.592693 126.647734 
L 71.653578 125.386798 
L 71.836233 128.71169 
L 71.958003 126.803824 
L 72.018887 130.45292 
L 72.262427 120.702233 
L 72.323312 121.46017 
L 72.445082 125.646408 
L 72.688621 118.340332 
L 72.993046 124.858118 
L 73.114816 121.612656 
L 73.175701 123.689073 
L 73.236585 122.714315 
L 73.358355 121.66682 
L 73.601895 127.328999 
L 73.723665 124.715246 
L 73.845435 125.375444 
L 74.028089 128.343166 
L 74.088974 128.320865 
L 74.149859 128.27788 
L 74.393399 122.39061 
L 74.454284 122.040721 
L 74.636938 117.525594 
L 74.758708 118.264997 
L 74.819593 118.757243 
L 74.941363 117.118918 
L 75.124018 122.499779 
L 75.367557 125.367338 
L 75.428442 124.183883 
L 75.793751 132.466177 
L 75.854636 134.613712 
L 75.976406 132.449143 
L 76.037291 135.187057 
L 76.098176 133.56613 
L 76.159061 134.16147 
L 76.341716 129.795145 
L 76.76791 138.283924 
L 76.950565 134.576899 
L 77.254989 129.790409 
L 77.376759 127.16301 
L 77.437644 128.877474 
L 77.559414 126.539447 
L 77.620299 126.88141 
L 77.681184 130.178526 
L 77.742068 128.926037 
L 77.802953 128.16766 
L 77.863838 128.365358 
L 77.924723 129.162729 
L 77.985608 128.434677 
L 78.046493 129.171328 
L 78.107378 128.234539 
L 78.168263 128.475907 
L 78.290033 127.745717 
L 78.655342 140.817054 
L 78.716227 139.923567 
L 78.777112 138.804041 
L 78.837997 139.256458 
L 79.081536 144.637153 
L 79.142421 142.845432 
L 79.507731 150.705479 
L 79.6295 148.975308 
L 79.75127 150.992529 
L 79.87304 148.219888 
L 79.99481 151.652964 
L 80.055695 150.390614 
L 80.238349 155.05794 
L 80.299234 152.669176 
L 80.360119 154.523595 
L 80.421004 155.286285 
L 80.542774 161.546841 
L 80.725429 158.620795 
L 80.847199 158.991443 
L 80.908083 161.259826 
L 81.090738 155.734881 
L 81.212508 154.075437 
L 81.577817 160.113344 
L 81.638702 159.612121 
L 81.821357 152.10447 
L 81.882242 151.763065 
L 82.064897 154.285628 
L 82.186666 151.46799 
L 82.247551 154.536366 
L 82.308436 153.155803 
L 82.369321 152.756115 
L 82.430206 151.454535 
L 82.612861 155.777135 
L 82.734631 152.937669 
L 82.795515 153.386857 
L 82.8564 153.161272 
L 82.917285 153.170905 
L 83.039055 155.39446 
L 83.09994 157.475369 
L 83.160825 156.858746 
L 83.282595 154.762305 
L 83.34348 156.851813 
L 83.404365 155.583219 
L 83.587019 150.186805 
L 83.647904 151.425621 
L 83.708789 150.788242 
L 83.769674 149.7778 
L 83.830559 152.442347 
L 83.891444 151.842172 
L 84.074098 153.142645 
L 84.317638 144.381177 
L 84.378523 144.326501 
L 84.500293 141.531174 
L 84.743832 146.193114 
L 84.926487 142.739215 
L 84.987372 142.793831 
L 85.048257 142.052281 
L 85.230912 148.948533 
L 85.291797 147.49724 
L 85.413566 147.12393 
L 85.535336 144.686613 
L 85.596221 142.526349 
L 85.657106 143.063438 
L 85.717991 142.503799 
L 85.778876 143.361999 
L 85.900646 142.46079 
L 86.022415 144.430466 
L 86.20507 138.977637 
L 86.265955 140.20367 
L 86.32684 141.80692 
L 86.387725 140.592403 
L 86.509495 139.330999 
L 86.753034 143.714074 
L 86.813919 143.706502 
L 86.935689 145.445407 
L 87.483653 153.337404 
L 87.666308 147.907793 
L 87.727193 150.596713 
L 87.788078 149.341166 
L 87.848963 149.514081 
L 87.970732 152.897752 
L 88.031617 152.703257 
L 88.275157 156.277287 
L 88.336042 155.955949 
L 88.457812 158.374285 
L 88.579581 161.431058 
L 88.640466 161.060525 
L 88.701351 158.302319 
L 88.762236 158.883065 
L 88.823121 158.028894 
L 88.884006 158.517065 
L 88.944891 158.484757 
L 89.066661 157.489342 
L 89.249315 162.755437 
L 89.3102 161.249984 
L 89.371085 162.189312 
L 89.43197 162.354787 
L 89.55374 159.512319 
L 89.614625 162.013891 
L 89.797279 156.061118 
L 89.979934 158.35436 
L 90.162589 159.761538 
L 90.223474 157.623252 
L 90.284359 158.919002 
L 90.345244 160.522047 
L 90.406128 157.49591 
L 90.467013 158.017485 
L 90.527898 157.417082 
L 90.588783 157.560644 
L 90.649668 159.542441 
L 90.710553 158.048736 
L 90.832323 159.618543 
L 90.893208 159.451814 
L 91.075862 161.306859 
L 91.136747 160.862989 
L 91.197632 162.35366 
L 91.258517 161.323396 
L 91.380287 161.861196 
L 91.562942 159.149068 
L 91.623827 159.868956 
L 91.684711 159.628863 
L 91.745596 159.77911 
L 91.806481 155.871474 
L 91.867366 157.470917 
L 91.928251 157.26581 
L 91.989136 159.823159 
L 92.050021 158.804925 
L 92.110906 157.599183 
L 92.171791 157.747544 
L 92.232676 159.931206 
L 92.293561 158.903937 
L 92.354445 159.741562 
L 92.476215 157.358125 
L 92.5371 157.544838 
L 92.597985 157.56513 
L 92.78064 158.536178 
L 92.963294 156.127561 
L 93.085064 160.091282 
L 93.145949 159.497544 
L 93.267719 157.429176 
L 93.328604 158.794567 
L 93.389489 158.014462 
L 93.511259 159.372435 
L 93.693913 152.153833 
L 93.754798 152.720296 
L 94.059223 148.556709 
L 94.120108 148.94772 
L 94.241877 149.668431 
L 94.363647 147.865504 
L 94.424532 147.870348 
L 94.485417 147.360363 
L 94.668072 142.202869 
L 94.789842 144.631141 
L 94.972496 142.490156 
L 95.155151 143.745256 
L 95.216036 142.543158 
L 95.398691 146.20386 
L 95.52046 142.683736 
L 95.581345 145.960417 
L 95.703115 141.372617 
L 95.824885 142.403183 
L 95.88577 140.28931 
L 95.946655 141.996931 
L 96.00754 142.323135 
L 96.068425 141.218507 
L 96.129309 143.861659 
L 96.251079 139.963361 
L 96.555504 147.652349 
L 96.616389 146.58834 
L 96.859928 150.827562 
L 96.981698 146.781869 
L 97.042583 147.684633 
L 97.103468 146.536126 
L 97.225238 139.759897 
L 97.286123 141.152516 
L 97.347008 140.812618 
L 97.407892 141.453434 
L 97.590547 144.136482 
L 97.651432 144.159999 
L 97.773202 139.201906 
L 97.834087 140.04883 
L 97.894972 140.207218 
L 98.016742 138.640272 
L 98.138511 139.719477 
L 98.321166 137.287189 
L 98.382051 137.51348 
L 98.86913 150.378405 
L 98.930015 149.123443 
L 98.9909 147.208583 
L 99.051785 147.506524 
L 99.11267 147.39358 
L 99.173555 146.344387 
L 99.23444 146.491189 
L 99.295325 146.514374 
L 99.417094 144.535028 
L 99.538864 145.805753 
L 99.660634 140.602628 
L 99.721519 140.980097 
L 99.782404 139.777646 
L 99.965058 147.532744 
L 100.025943 146.773789 
L 100.330368 142.609051 
L 100.391253 143.48348 
L 100.452138 141.137854 
L 100.573908 144.633669 
L 101.182757 132.085676 
L 101.243641 134.273231 
L 101.304526 133.125408 
L 101.365411 134.263691 
L 101.426296 132.952316 
L 101.487181 133.219114 
L 101.548066 135.21744 
L 101.730721 125.282361 
L 101.791606 127.496688 
L 101.85249 123.353367 
L 101.913375 123.848654 
L 102.035145 121.271302 
L 102.09603 122.029663 
L 102.2178 123.308986 
L 102.278685 122.38249 
L 102.46134 127.213305 
L 102.765764 115.414738 
L 102.826649 116.024519 
L 102.887534 114.182527 
L 103.191958 120.844819 
L 103.313728 121.571158 
L 103.557268 115.854872 
L 103.739923 119.400888 
L 103.800807 117.687775 
L 103.861692 118.549046 
L 103.922577 120.651803 
L 103.983462 117.202638 
L 104.044347 118.490883 
L 104.166117 120.572905 
L 104.287887 118.777813 
L 104.409656 120.944389 
L 104.470541 121.733306 
L 104.531426 121.156969 
L 104.592311 121.142991 
L 104.653196 120.904842 
L 104.774966 118.419146 
L 104.957621 120.813371 
L 105.018506 119.403383 
L 105.07939 119.526456 
L 105.262045 122.604685 
L 105.32293 122.361034 
L 105.56647 116.507247 
L 105.627355 118.6377 
L 105.688239 117.518147 
L 105.749124 116.657034 
L 105.810009 118.636169 
L 105.870894 117.632238 
L 105.931779 118.434042 
L 105.992664 117.727066 
L 106.236204 123.453019 
L 106.297089 120.746006 
L 106.357973 120.802337 
L 106.418858 122.321594 
L 106.479743 121.8483 
L 106.540628 121.247129 
L 106.662398 118.011362 
L 106.966822 123.18447 
L 107.027707 121.993769 
L 107.088592 122.3984 
L 107.149477 122.802775 
L 107.210362 124.766572 
L 107.393017 119.974608 
L 107.453902 120.098928 
L 107.514787 119.812854 
L 107.575671 118.232492 
L 107.819211 125.934294 
L 107.880096 125.377085 
L 107.940981 125.32662 
L 108.184521 120.668623 
L 108.245405 122.170284 
L 108.30629 121.565957 
L 108.42806 115.491032 
L 108.488945 115.592505 
L 108.54983 118.256548 
L 108.610715 116.783161 
L 108.79337 121.4263 
L 108.915139 121.288296 
L 108.976024 120.967025 
L 109.097794 117.267777 
L 109.280449 121.739875 
L 109.341334 121.337349 
L 109.463104 122.768994 
L 109.645758 119.330781 
L 109.767528 121.737549 
L 109.828413 120.027545 
L 110.011068 124.631482 
L 110.193722 120.519067 
L 110.315492 122.429408 
L 110.376377 122.126691 
L 110.437262 117.17366 
L 110.498147 118.872987 
L 110.559032 119.410049 
L 110.619917 122.263155 
L 110.802571 119.167193 
L 110.863456 119.807103 
L 110.985226 117.122076 
L 111.046111 118.697966 
L 111.106996 116.13175 
L 111.167881 117.490355 
L 111.228766 119.122503 
L 111.289651 117.607437 
L 111.350536 117.8734 
L 111.41142 119.425594 
L 111.472305 119.285195 
L 111.53319 116.232735 
L 111.594075 116.814648 
L 111.77673 121.093959 
L 112.02027 118.789399 
L 112.202924 125.07049 
L 112.324694 122.706155 
L 112.629119 129.123014 
L 112.690003 131.680425 
L 112.750888 130.220281 
L 112.872658 128.600826 
L 112.933543 128.935838 
L 112.994428 131.499133 
L 113.055313 130.412772 
L 113.116198 130.39196 
L 113.420622 125.724726 
L 113.542392 128.187935 
L 113.603277 127.239246 
L 113.846817 120.114463 
L 113.907702 119.316921 
L 113.968586 119.426909 
L 114.090356 119.18267 
L 114.151241 119.45057 
L 114.333896 127.874574 
L 114.516551 125.493164 
L 114.63832 128.307338 
L 114.76009 124.867973 
L 114.820975 125.009465 
L 115.00363 123.395429 
L 115.064515 120.876006 
L 115.1254 122.271232 
L 115.368939 127.643413 
L 115.429824 128.69101 
L 115.490709 127.57668 
L 115.673364 133.830611 
L 115.795134 133.61586 
L 115.977788 129.384427 
L 116.099558 128.363814 
L 116.160443 131.619106 
L 116.221328 131.38404 
L 116.343098 133.401124 
L 116.403983 131.321513 
L 116.464868 132.34127 
L 116.525752 132.3927 
L 116.586637 132.068578 
L 116.647522 129.453414 
L 116.708407 130.104625 
L 116.769292 131.08741 
L 116.830177 129.698898 
L 116.951947 132.001119 
L 117.012832 131.765137 
L 117.073717 132.522833 
L 117.134601 131.182888 
L 117.195486 132.785619 
L 117.256371 132.134271 
L 117.317256 132.313742 
L 117.439026 133.154809 
L 117.621681 129.775532 
L 117.804335 128.613031 
L 117.98699 130.652576 
L 118.047875 134.740711 
L 118.10876 133.066749 
L 118.169645 132.994958 
L 118.23053 133.425366 
L 118.474069 128.564232 
L 118.534954 129.060045 
L 118.595839 127.863911 
L 118.656724 128.092754 
L 118.717609 131.70444 
L 118.778494 131.033999 
L 118.839379 129.537066 
L 118.900264 130.313608 
L 118.961149 130.139253 
L 119.143803 134.58718 
L 119.204688 135.617501 
L 119.387343 129.529514 
L 119.448228 129.653225 
L 119.509113 130.909995 
L 119.569998 130.434986 
L 119.630883 130.953103 
L 119.691767 129.462753 
L 119.935307 135.387022 
L 120.117962 132.90371 
L 120.361501 136.785806 
L 120.422386 136.892219 
L 120.483271 139.169904 
L 120.544156 137.911457 
L 120.605041 136.400256 
L 120.726811 140.630512 
L 120.787696 138.834042 
L 120.848581 142.578114 
L 120.909466 141.55082 
L 121.031235 139.757112 
L 121.09212 139.848698 
L 121.153005 143.972638 
L 121.21389 142.445876 
L 121.33566 141.352099 
L 121.396545 141.634275 
L 121.518315 137.784146 
L 121.640084 140.231565 
L 121.761854 145.97054 
L 121.822739 144.587768 
L 121.883624 145.150778 
L 121.944509 146.93855 
L 122.005394 146.613911 
L 122.066279 146.102023 
L 122.188049 141.817399 
L 122.248933 142.071582 
L 122.309818 141.904022 
L 122.370703 136.380973 
L 122.431588 137.883941 
L 122.553358 134.776269 
L 122.614243 135.660638 
L 122.736013 138.713813 
L 122.979552 134.506102 
L 123.040437 135.198398 
L 123.162207 130.918188 
L 123.223092 132.627577 
L 123.283977 134.057636 
L 123.344862 132.19644 
L 123.405747 132.274149 
L 123.466632 133.241736 
L 123.527516 131.95421 
L 123.649286 134.708939 
L 123.831941 131.158654 
L 123.892826 132.662359 
L 123.953711 132.242617 
L 124.014596 132.166042 
L 124.075481 134.799234 
L 124.136365 134.756887 
L 124.19725 133.563047 
L 124.56256 139.213956 
L 124.745214 133.405402 
L 124.806099 133.40621 
L 125.049639 130.941582 
L 125.293179 137.656098 
L 125.354064 136.128032 
L 125.414948 135.843468 
L 125.475833 134.467867 
L 125.719373 139.796737 
L 125.841143 137.171794 
L 125.962913 143.50562 
L 126.206452 135.611319 
L 126.328222 137.846901 
L 126.389107 135.664633 
L 126.449992 136.359612 
L 126.510877 135.967086 
L 126.693531 131.976148 
L 126.754416 134.668092 
L 126.815301 134.427234 
L 126.876186 134.91625 
L 126.937071 133.517218 
L 126.997956 134.136893 
L 127.058841 134.136279 
L 127.180611 137.664208 
L 127.42415 130.663758 
L 127.485035 133.510879 
L 127.54592 133.089366 
L 127.66769 133.223453 
L 127.728575 132.110043 
L 127.91123 136.832655 
L 127.972114 134.724186 
L 128.032999 135.468389 
L 128.093884 135.043396 
L 128.154769 136.028236 
L 128.276539 141.834695 
L 128.337424 140.930063 
L 128.398309 139.010843 
L 128.459194 139.526142 
L 128.520079 138.866281 
L 128.702733 146.557418 
L 128.763618 145.342301 
L 128.824503 145.989213 
L 129.007158 142.338967 
L 129.372467 146.290969 
L 129.616007 151.623108 
L 129.676892 152.716669 
L 129.737777 152.373678 
L 129.798662 152.817806 
L 129.981316 159.654294 
L 130.042201 156.002074 
L 130.103086 156.38785 
L 130.163971 157.079801 
L 130.224856 155.084501 
L 130.346626 157.344969 
L 130.52928 155.667069 
L 130.590165 154.569231 
L 130.77282 159.175047 
L 130.833705 158.391576 
L 131.01636 156.215535 
L 131.138129 158.566279 
L 131.199014 158.459199 
L 131.259899 159.878705 
L 131.320784 157.948856 
L 131.381669 159.226658 
L 131.442554 159.429959 
L 131.564324 160.895653 
L 131.746978 154.850788 
L 131.868748 157.871161 
L 131.929633 156.673653 
L 132.112288 159.914479 
L 132.234058 158.676289 
L 132.294943 158.688305 
L 132.599367 148.353668 
L 132.660252 149.466245 
L 132.964677 143.428171 
L 133.025561 143.647707 
L 133.086446 142.87446 
L 133.147331 144.431146 
L 133.269101 141.43069 
L 133.451756 145.627524 
L 133.573526 146.447332 
L 133.634411 144.39189 
L 133.87795 148.588595 
L 133.99972 147.215804 
L 134.060605 147.385609 
L 134.182375 149.16124 
L 134.365029 153.153911 
L 134.425914 152.566237 
L 134.486799 149.572874 
L 134.547684 150.468171 
L 135.034763 162.054916 
L 135.217418 158.718593 
L 135.339188 160.89924 
L 135.521843 157.318939 
L 135.582727 159.148948 
L 135.704497 155.780921 
L 135.765382 156.262778 
L 135.887152 159.09863 
L 135.948037 157.421741 
L 136.069807 154.028884 
L 136.191576 158.584146 
L 136.252461 158.401197 
L 136.496001 155.028929 
L 136.556886 156.701977 
L 136.617771 153.003907 
L 136.678656 155.532916 
L 136.800426 153.706156 
L 136.98308 156.682089 
L 137.043965 155.717473 
L 137.10485 157.297426 
L 137.165735 153.974151 
L 137.22662 156.611888 
L 137.34839 157.595652 
L 137.470159 161.48275 
L 137.531044 160.218688 
L 137.774584 153.638213 
L 137.835469 154.958798 
L 137.896354 153.196619 
L 137.957239 154.213334 
L 138.018124 154.25893 
L 138.079009 154.512809 
L 138.261663 159.03188 
L 138.505203 156.578436 
L 138.687858 146.165193 
L 138.870512 148.350449 
L 138.992282 148.383218 
L 139.174937 152.904778 
L 139.296707 149.864181 
L 139.418476 155.528314 
L 139.540246 152.806649 
L 139.662016 154.687167 
L 139.722901 152.977213 
L 139.905556 155.934904 
L 140.027325 152.261381 
L 140.08821 152.685755 
L 140.20998 155.395694 
L 140.270865 153.886427 
L 140.33175 154.56149 
L 140.45352 160.355111 
L 140.514405 158.285905 
L 140.697059 152.992443 
L 140.757944 153.585125 
L 140.818829 152.790553 
L 141.001484 147.586173 
L 141.062369 148.399704 
L 141.305908 142.752898 
L 141.366793 145.94972 
L 141.427678 144.06513 
L 141.732103 148.588667 
L 141.792988 147.362518 
L 141.975642 142.240209 
L 142.036527 143.670634 
L 142.158297 139.56031 
L 142.219182 140.136877 
L 142.340952 144.804546 
L 142.401837 143.943981 
L 142.706261 137.671469 
L 142.767146 139.510702 
L 142.828031 138.847484 
L 142.949801 136.436273 
L 143.010686 137.583492 
L 143.071571 139.736833 
L 143.254225 135.959685 
L 143.31511 135.666129 
L 143.375995 135.881009 
L 143.497765 140.151081 
L 143.55865 139.579402 
L 143.68042 137.198067 
L 143.741305 137.682592 
L 143.80219 136.839183 
L 144.045729 140.587398 
L 144.167499 136.594738 
L 144.228384 137.375276 
L 144.289269 140.051378 
L 144.350154 139.258316 
L 144.411039 139.760841 
L 144.471923 139.503364 
L 144.532808 138.394103 
L 144.593693 139.101904 
L 144.654578 139.136179 
L 144.715463 138.063456 
L 145.019888 143.223854 
L 145.080773 141.012297 
L 145.263427 145.348226 
L 145.506967 140.689055 
L 145.628737 143.373449 
L 145.689622 142.741296 
L 145.750506 145.210389 
L 145.811391 144.543854 
L 145.872276 141.738419 
L 145.933161 144.718255 
L 145.994046 142.487402 
L 146.176701 148.385689 
L 146.42024 143.692456 
L 146.54201 146.257502 
L 146.602895 145.443873 
L 146.66378 144.856751 
L 146.78555 142.459418 
L 146.968205 147.204832 
L 147.029089 145.886651 
L 147.089974 146.149134 
L 147.211744 150.382148 
L 147.272629 149.871153 
L 147.333514 149.881562 
L 147.577054 155.24034 
L 147.637938 154.935779 
L 147.698823 155.288937 
L 147.759708 158.91691 
L 147.820593 158.007016 
L 148.307672 146.716945 
L 148.429442 144.171422 
L 148.490327 144.52052 
L 148.733867 149.474811 
L 148.977406 141.036996 
L 149.038291 140.32903 
L 149.099176 140.723616 
L 149.220946 146.156515 
L 149.281831 145.889369 
L 149.464486 140.162542 
L 149.586255 138.545101 
L 149.64714 135.246238 
L 149.708025 136.51451 
L 149.76891 137.425541 
L 149.829795 137.261261 
L 149.89068 136.522833 
L 149.951565 137.71217 
L 150.01245 137.292168 
L 150.255989 131.852005 
L 150.377759 135.455159 
L 150.499529 136.012363 
L 150.560414 134.852341 
L 150.743069 141.901077 
L 150.803954 141.645471 
L 150.986608 139.448034 
L 151.108378 143.062948 
L 151.169263 139.58017 
L 151.230148 141.446901 
L 151.291033 142.821743 
L 151.351918 141.988403 
L 151.412803 139.167646 
L 151.473687 140.430275 
L 151.595457 141.018429 
L 151.656342 140.407698 
L 151.717227 141.36736 
L 151.778112 141.168517 
L 151.899882 137.759776 
L 152.265191 149.886031 
L 152.326076 150.131919 
L 152.386961 151.186762 
L 152.569616 155.370763 
L 152.630501 155.17867 
L 152.691386 155.34981 
L 152.75227 156.64069 
L 152.813155 160.717841 
L 152.87404 160.539642 
L 152.934925 160.284096 
L 153.056695 162.133671 
L 153.11758 159.113715 
L 153.178465 159.559887 
L 153.300235 160.155064 
L 153.422004 156.990307 
L 153.543774 156.972463 
L 153.604659 157.252891 
L 153.665544 158.61778 
L 153.787314 154.5194 
L 153.848199 154.745373 
L 153.969969 156.885117 
L 154.152623 152.064523 
L 154.213508 153.005985 
L 154.274393 152.685207 
L 154.517933 147.633528 
L 154.578818 147.856678 
L 154.639702 151.508573 
L 154.700587 150.076905 
L 154.761472 150.24229 
L 154.822357 151.511515 
L 154.883242 150.98518 
L 155.005012 148.830623 
L 155.187667 151.690743 
L 155.248552 152.49833 
L 155.431206 149.711363 
L 155.492091 150.579851 
L 155.735631 145.90066 
L 155.796516 145.893643 
L 155.857401 145.242743 
L 155.918285 145.846416 
L 156.10094 144.710882 
L 156.22271 146.22314 
L 156.405365 145.651784 
L 156.648904 149.067997 
L 156.709789 145.860438 
L 156.770674 146.191786 
L 156.831559 146.016967 
L 157.257753 138.008089 
L 157.318638 137.10141 
L 157.501293 132.346079 
L 157.562178 132.327778 
L 157.744833 135.310752 
L 157.805718 133.573436 
L 157.866602 134.900806 
L 158.231912 139.067485 
L 158.292797 137.749908 
L 158.353682 139.061518 
L 158.414567 137.987325 
L 158.475451 138.726867 
L 158.536336 138.065181 
L 158.597221 138.384924 
L 158.658106 138.814585 
L 158.779876 142.163208 
L 158.901646 140.60107 
L 159.023416 142.236638 
L 159.0843 141.485114 
L 159.145185 138.508604 
L 159.20607 139.790342 
L 159.388725 141.878327 
L 159.44961 141.502139 
L 159.632265 143.604577 
L 159.814919 146.393325 
L 159.875804 146.74553 
L 159.936689 149.077216 
L 159.997574 148.88679 
L 160.058459 147.598905 
L 160.119344 149.803013 
L 160.180229 149.789618 
L 160.241114 149.978719 
L 160.423768 152.558393 
L 160.667308 161.943173 
L 161.032617 156.463961 
L 161.276157 159.183627 
L 161.337042 157.562191 
L 161.397927 158.379362 
L 161.702351 154.364111 
L 161.763236 152.068128 
L 161.824121 152.243819 
L 161.885006 153.529609 
L 161.945891 152.779778 
L 162.006776 152.741542 
L 162.128546 155.159054 
L 162.250316 152.869875 
L 162.3112 153.192626 
L 162.43297 155.567331 
L 162.615625 153.128664 
L 162.67651 151.913392 
L 162.79828 153.838004 
L 162.859165 153.513671 
L 162.980934 149.096815 
L 163.346244 156.460821 
L 163.407129 153.421494 
L 163.468014 154.580553 
L 163.528899 154.618547 
L 163.772438 150.443037 
L 163.833323 149.812355 
L 163.955093 146.918561 
L 164.076863 148.67021 
L 164.259517 146.59416 
L 164.320402 148.392286 
L 164.381287 147.215116 
L 164.503057 144.911241 
L 164.624827 150.317106 
L 164.807481 146.508758 
L 164.868366 146.736981 
L 164.929251 149.618232 
L 164.990136 148.871976 
L 165.051021 148.921603 
L 165.111906 149.222928 
L 165.172791 148.348057 
L 165.233676 151.29622 
L 165.416331 142.845609 
L 165.477215 142.957883 
L 165.5381 144.065502 
L 165.78164 137.467396 
L 165.90341 135.755689 
L 166.02518 132.97605 
L 166.268719 137.676152 
L 166.329604 137.10014 
L 166.390489 139.24775 
L 166.451374 138.426154 
L 166.512259 138.564873 
L 166.573144 139.710309 
L 166.634029 139.503186 
L 166.755798 140.070477 
L 167.060223 146.668741 
L 167.181993 142.965277 
L 167.242878 143.825118 
L 167.486417 137.173728 
L 167.912612 150.844768 
L 168.156151 148.882417 
L 168.277921 149.441096 
L 168.338806 148.668508 
L 168.399691 149.760254 
L 168.460576 148.831389 
L 168.521461 148.838761 
L 168.582346 148.695076 
L 168.64323 149.012104 
L 168.704115 151.27363 
L 168.765 151.124644 
L 168.825885 150.282859 
L 168.88677 145.778217 
L 168.947655 147.644638 
L 169.069425 148.420792 
L 169.13031 146.883444 
L 169.191195 147.649353 
L 169.25208 148.249139 
L 169.434734 143.435081 
L 169.495619 143.269957 
L 169.556504 141.982596 
L 169.617389 142.413121 
L 169.678274 142.335771 
L 169.739159 139.794605 
L 169.921813 144.83659 
L 170.104468 142.801421 
L 170.165353 142.278632 
L 170.226238 144.659577 
L 170.287123 144.3469 
L 170.348008 142.245589 
L 170.469778 144.670541 
L 170.530662 144.426345 
L 170.652432 145.787767 
L 170.835087 142.366949 
L 170.895972 140.863051 
L 170.956857 140.941231 
L 171.017742 140.857737 
L 171.078627 143.674544 
L 171.139512 142.08245 
L 171.383051 137.431564 
L 171.504821 135.541314 
L 171.565706 137.989935 
L 171.687476 134.49427 
L 171.748361 135.9603 
L 171.809245 135.814159 
L 171.9919 131.793723 
L 172.11367 132.567911 
L 172.174555 133.297916 
L 172.35721 129.786183 
L 172.539864 131.149321 
L 172.600749 134.555017 
L 172.661634 131.163379 
L 172.722519 133.067424 
L 172.783404 132.827101 
L 172.905174 134.851019 
L 172.966059 134.734604 
L 173.026944 137.92657 
L 173.087828 136.919015 
L 173.148713 136.683475 
L 173.209598 136.869912 
L 173.270483 138.925821 
L 173.453138 135.12373 
L 173.879332 139.951694 
L 173.940217 142.305084 
L 174.001102 141.744869 
L 174.122872 142.424541 
L 174.244642 140.040976 
L 174.488181 146.82979 
L 174.549066 146.791546 
L 174.731721 143.000348 
L 174.914376 149.641531 
L 174.975261 150.84164 
L 175.157915 147.501082 
L 175.34057 149.33338 
L 175.523225 142.447842 
L 175.58411 142.302076 
L 175.766764 145.686549 
L 175.827649 145.319816 
L 175.888534 146.737124 
L 175.949419 146.417032 
L 176.010304 146.329135 
L 176.192959 146.994154 
L 176.253843 145.415098 
L 176.314728 145.799417 
L 176.619153 153.140585 
L 176.680038 152.383616 
L 176.740923 150.195098 
L 176.801808 150.828328 
L 176.862693 151.410397 
L 176.923577 150.776652 
L 176.984462 151.652082 
L 177.288887 144.997634 
L 177.349772 146.405178 
L 177.471542 142.264999 
L 177.654196 139.366673 
L 177.715081 137.828874 
L 177.958621 145.840137 
L 178.080391 143.346933 
L 178.20216 136.81919 
L 178.263045 137.210934 
L 178.384815 138.993203 
L 178.56747 135.641285 
L 178.628355 136.586964 
L 178.68924 137.655578 
L 178.750125 136.927384 
L 178.871894 132.824196 
L 178.932779 134.05131 
L 179.054549 132.932474 
L 179.115434 133.820686 
L 179.298089 128.459008 
L 179.541628 133.364967 
L 179.846053 130.616392 
L 179.967823 134.760759 
L 180.028708 134.195529 
L 180.089592 134.995959 
L 180.211362 132.733807 
L 180.333132 133.359089 
L 180.394017 132.823467 
L 180.454902 130.922497 
L 180.515787 131.515574 
L 180.576672 130.85603 
L 180.637557 135.077796 
L 180.698442 132.038994 
L 180.820211 132.472912 
L 180.881096 131.444237 
L 180.941981 132.61581 
L 181.002866 132.54063 
L 181.063751 130.926848 
L 181.124636 132.193306 
L 181.307291 138.471967 
L 181.368175 138.794367 
L 181.42906 142.136908 
L 181.489945 139.735358 
L 181.55083 140.028842 
L 181.611715 141.630483 
L 181.6726 141.135073 
L 181.855255 144.262656 
L 181.977024 143.480202 
L 182.037909 142.262959 
L 182.098794 143.155789 
L 182.159679 143.311629 
L 182.281449 144.14165 
L 182.403219 148.364505 
L 182.524989 143.148539 
L 182.585874 143.578775 
L 182.707643 147.626333 
L 182.768528 147.075204 
L 182.951183 144.653264 
L 183.012068 145.241727 
L 183.072953 142.935002 
L 183.133838 144.434707 
L 183.499147 149.980212 
L 183.560032 148.908118 
L 183.620917 148.751596 
L 183.742687 145.590269 
L 183.803572 145.873702 
L 184.168881 155.464016 
L 184.229766 154.33272 
L 184.290651 153.819104 
L 184.351536 154.693893 
L 184.65596 143.967312 
L 184.716845 145.423287 
L 184.77773 144.895143 
L 184.838615 144.67187 
L 184.8995 146.111093 
L 184.960385 145.143102 
L 185.082155 143.993944 
L 185.203924 140.329903 
L 185.264809 141.450038 
L 185.325694 141.573687 
L 185.447464 143.598016 
L 185.569234 142.44492 
L 185.751889 138.607899 
L 185.812773 136.882836 
L 185.873658 137.632306 
L 185.934543 140.032445 
L 185.995428 139.579679 
L 186.056313 139.633813 
L 186.238968 141.462839 
L 186.299853 138.774036 
L 186.360738 139.831485 
L 186.421623 140.08519 
L 186.543392 133.77815 
L 186.604277 134.642959 
L 186.726047 133.893237 
L 186.847817 134.529573 
L 186.908702 133.263673 
L 187.030472 136.374791 
L 187.091356 135.956477 
L 187.152241 134.811918 
L 187.213126 137.59373 
L 187.274011 137.289098 
L 187.334896 137.256769 
L 187.395781 138.007822 
L 187.639321 146.004484 
L 187.821975 140.009985 
L 188.00463 141.69891 
L 188.065515 137.095845 
L 188.1264 138.257243 
L 188.187285 138.019834 
L 188.309055 133.982693 
L 188.369939 134.597887 
L 188.552594 130.176121 
L 188.674364 135.855348 
L 188.735249 134.308304 
L 188.796134 133.712266 
L 188.978788 138.579223 
L 189.222328 133.917615 
L 189.344098 137.663123 
L 189.404983 134.786484 
L 189.465868 135.672486 
L 189.709407 140.083851 
L 189.831177 143.234261 
L 189.892062 145.228061 
L 189.952947 144.086739 
L 190.013832 144.467151 
L 190.074717 143.629308 
L 190.135602 144.45699 
L 190.257371 143.484024 
L 190.440026 146.629134 
L 190.561796 144.700906 
L 190.622681 145.559346 
L 190.683566 143.096108 
L 190.744451 145.094932 
L 190.805336 145.861566 
L 190.866221 144.076203 
L 191.048875 149.791542 
L 191.10976 148.403099 
L 191.170645 148.96185 
L 191.292415 152.140644 
L 191.414185 148.2533 
L 191.535954 152.038302 
L 191.596839 151.850245 
L 191.657724 149.738998 
L 191.718609 149.828612 
L 191.779494 153.561925 
L 191.840379 152.851837 
L 191.901264 151.978717 
L 191.962149 152.282852 
L 192.023034 153.276596 
L 192.327458 147.017449 
L 192.388343 147.987045 
L 192.510113 150.238215 
L 192.570998 149.525372 
L 192.631883 146.518096 
L 192.814537 151.21205 
L 192.875422 151.289802 
L 192.936307 150.331368 
L 193.118962 146.922264 
L 193.179847 147.166985 
L 193.240732 146.828722 
L 193.301617 147.47393 
L 193.362502 146.993087 
L 193.423386 147.124997 
L 193.606041 141.19351 
L 193.666926 142.40828 
L 193.788696 148.124039 
L 194.09312 141.909465 
L 194.154005 141.961339 
L 194.45843 134.13263 
L 194.519315 133.472601 
L 194.5802 133.60624 
L 194.641085 134.211807 
L 194.701969 136.685328 
L 194.762854 135.158386 
L 194.945509 140.298206 
L 195.006394 137.93532 
L 195.067279 138.697071 
L 195.128164 136.208021 
L 195.189049 138.103307 
L 195.249934 136.429275 
L 195.371703 139.902188 
L 195.432588 139.153543 
L 195.493473 136.290497 
L 195.554358 137.096123 
L 195.615243 136.535542 
L 195.858783 139.329032 
L 195.919668 136.089346 
L 195.980552 136.736557 
L 196.163207 140.594268 
L 196.224092 140.631758 
L 196.284977 140.507257 
L 196.345862 139.922515 
L 196.528517 145.219747 
L 196.589402 144.552454 
L 196.650286 145.304044 
L 196.711171 143.28531 
L 196.772056 143.9531 
L 196.832941 144.640334 
L 196.893826 144.580219 
L 196.954711 144.160589 
L 197.076481 141.580943 
L 197.137366 142.080066 
L 197.32002 138.351329 
L 197.380905 140.902211 
L 197.44179 138.7368 
L 197.502675 138.867719 
L 197.68533 139.743988 
L 197.928869 146.434297 
L 197.989754 145.177407 
L 198.050639 145.697098 
L 198.172409 146.770519 
L 198.233294 149.900023 
L 198.294179 148.96734 
L 198.355064 149.380029 
L 198.476834 147.260152 
L 198.598603 150.539145 
L 198.659488 150.226878 
L 198.720373 151.645795 
L 198.903028 147.489893 
L 199.024798 150.731645 
L 199.085683 150.415635 
L 199.146567 149.706247 
L 199.450992 156.355693 
L 199.511877 156.350292 
L 199.572762 154.535097 
L 199.694532 158.328594 
L 199.755417 157.316254 
L 199.816301 157.314901 
L 199.938071 159.197018 
L 200.364266 147.795061 
L 200.486035 150.668607 
L 201.034 139.525656 
L 201.094884 141.689035 
L 201.155769 141.354922 
L 201.277539 140.720636 
L 201.338424 142.757727 
L 201.521079 138.246919 
L 201.581964 138.259426 
L 201.703733 135.313318 
L 201.886388 141.139487 
L 202.069043 137.108743 
L 202.251698 139.929573 
L 202.312583 137.28845 
L 202.373467 139.108005 
L 202.434352 138.339756 
L 202.677892 141.81858 
L 202.738777 139.528347 
L 202.799662 140.66274 
L 202.982316 138.564802 
L 203.164971 142.619605 
L 203.347626 141.156951 
L 203.469396 141.031676 
L 203.530281 141.989404 
L 203.591166 141.539398 
L 203.65205 142.069997 
L 203.712935 140.534981 
L 203.77382 141.646398 
L 203.834705 142.548205 
L 204.01736 139.936388 
L 204.078245 140.883775 
L 204.13913 141.711375 
L 204.200015 144.558095 
L 204.260899 143.704209 
L 204.321784 143.802694 
L 204.382669 144.609306 
L 204.443554 140.809451 
L 204.504439 142.234621 
L 204.687094 146.424617 
L 204.747979 145.921817 
L 204.808864 142.655326 
L 204.869748 145.095195 
L 204.930633 145.872367 
L 205.113288 142.690856 
L 205.235058 145.103601 
L 205.356828 143.14827 
L 205.417713 144.985177 
L 205.478598 143.492152 
L 205.539482 139.757763 
L 205.600367 140.200795 
L 205.661252 141.11516 
L 205.722137 137.710561 
L 205.783022 139.230617 
L 205.843907 140.352366 
L 205.965677 137.683419 
L 206.087447 138.187515 
L 206.148331 137.713218 
L 206.330986 140.183943 
L 206.574526 135.141784 
L 206.635411 137.470876 
L 206.696296 136.794795 
L 206.757181 137.234395 
L 206.818065 135.250254 
L 206.87895 136.860204 
L 207.00072 140.908307 
L 207.061605 140.171963 
L 207.183375 141.670185 
L 207.24426 139.83769 
L 207.305145 140.51321 
L 207.609569 146.776065 
L 207.670454 144.773089 
L 207.731339 145.249973 
L 208.218418 153.628189 
L 208.279303 153.181844 
L 208.340188 152.681943 
L 208.461958 156.606917 
L 208.522843 155.552018 
L 208.583728 154.694813 
L 208.705497 157.070559 
L 208.766382 155.347952 
L 208.827267 155.922097 
L 208.949037 162.339971 
L 209.009922 162.016368 
L 209.131692 161.625327 
L 209.192577 160.770647 
L 209.253462 162.24429 
L 209.314347 160.441443 
L 209.375231 161.716769 
L 209.436116 161.490743 
L 209.497001 162.5039 
L 209.557886 161.906147 
L 209.618771 162.276329 
L 209.679656 158.360785 
L 209.740541 159.294039 
L 209.801426 158.526836 
L 209.862311 159.021046 
L 209.923196 160.353616 
L 209.98408 160.020061 
L 210.044965 158.587632 
L 210.10585 159.637506 
L 210.166735 159.282455 
L 210.34939 160.375207 
L 210.47116 156.535831 
L 210.653814 161.412878 
L 210.714699 161.81261 
L 210.897354 156.650387 
L 210.958239 158.417705 
L 211.019124 156.42086 
L 211.080009 159.465653 
L 211.140894 157.466702 
L 211.201779 157.077253 
L 211.262663 157.267372 
L 211.323548 157.609904 
L 211.506203 148.770778 
L 211.567088 148.770513 
L 211.688858 152.259386 
L 211.810628 149.651869 
L 211.932397 154.11071 
L 211.993282 153.431982 
L 212.054167 149.855401 
L 212.115052 151.534056 
L 212.358592 146.909964 
L 212.602131 151.441803 
L 212.723901 152.406979 
L 212.845671 151.025984 
L 213.028326 156.06253 
L 213.089211 155.865636 
L 213.150095 155.100422 
L 213.271865 155.987659 
L 213.515405 148.917132 
L 213.57629 148.819229 
L 213.637175 150.591462 
L 213.69806 150.258921 
L 213.758945 149.726223 
L 213.819829 149.882704 
L 214.002484 150.875819 
L 214.063369 151.232045 
L 214.124254 150.917734 
L 214.428678 141.606577 
L 214.489563 142.478784 
L 214.793988 148.457063 
L 214.854873 148.455508 
L 214.915758 149.333966 
L 215.220182 143.792256 
L 215.402837 147.697563 
L 215.524607 143.056135 
L 215.646377 146.512165 
L 215.707261 145.532644 
L 215.768146 146.839265 
L 216.011686 137.705398 
L 216.072571 139.245155 
L 216.133456 140.967114 
L 216.194341 140.683413 
L 216.255226 139.757654 
L 216.31611 139.881342 
L 216.376995 141.594357 
L 216.43788 141.277866 
L 216.55965 139.729122 
L 216.620535 140.620874 
L 216.864075 151.223543 
L 216.92496 149.266378 
L 216.985844 150.088016 
L 217.046729 149.870041 
L 217.107614 150.585787 
L 217.229384 148.38145 
L 217.412039 151.925756 
L 217.533809 147.154079 
L 217.594693 150.101692 
L 217.655578 149.806971 
L 217.716463 150.542891 
L 217.777348 148.949697 
L 217.838233 149.553768 
L 217.960003 149.382249 
L 218.020888 148.696233 
L 218.081773 149.98939 
L 218.142658 148.864544 
L 218.203543 149.628243 
L 218.264427 149.449583 
L 218.325312 148.389303 
L 218.386197 148.423428 
L 218.447082 148.428242 
L 218.507967 150.042819 
L 218.629737 145.217819 
L 218.751507 147.408364 
L 219.055931 142.450602 
L 219.238586 146.045806 
L 219.360356 142.671459 
L 219.421241 144.011043 
L 219.482126 142.415878 
L 219.603895 144.999677 
L 219.78655 139.32918 
L 219.90832 141.081468 
L 219.969205 142.075284 
L 220.03009 140.660692 
L 220.090975 135.854789 
L 220.151859 138.395791 
L 220.212744 139.221829 
L 220.273629 138.618057 
L 220.334514 139.262344 
L 220.395399 142.258762 
L 220.456284 141.565374 
L 220.517169 142.075672 
L 220.578054 143.656123 
L 220.638939 142.670159 
L 220.760709 137.605953 
L 220.821593 139.643255 
L 220.882478 138.416732 
L 221.004248 137.444161 
L 221.369558 128.598154 
L 221.491327 134.629487 
L 221.552212 133.631296 
L 221.734867 130.633424 
L 221.795752 132.419402 
L 222.039291 125.87364 
L 222.100176 130.798026 
L 222.161061 129.863514 
L 222.221946 130.585307 
L 222.282831 130.172971 
L 222.343716 129.057644 
L 222.404601 124.701325 
L 222.465486 124.90841 
L 222.526371 127.522197 
L 222.587256 127.187749 
L 222.709025 126.348548 
L 222.76991 125.45811 
L 222.830795 127.058574 
L 222.89168 125.996881 
L 223.01345 121.193518 
L 223.074335 122.146578 
L 223.13522 121.416487 
L 223.317874 125.81241 
L 223.622299 133.434279 
L 223.683184 132.329676 
L 223.865839 129.555071 
L 224.048493 133.165661 
L 224.109378 132.766423 
L 224.170263 133.220701 
L 224.292033 135.947853 
L 224.352918 135.642743 
L 224.474688 138.822384 
L 224.535573 138.776927 
L 224.596457 139.527033 
L 224.900882 133.474873 
L 225.083537 138.292596 
L 225.144422 135.185193 
L 225.205307 135.807335 
L 225.266191 135.707292 
L 225.327076 135.216261 
L 225.570616 141.372555 
L 225.631501 138.590024 
L 225.692386 139.077421 
L 225.753271 138.775062 
L 225.814156 141.355541 
L 225.87504 140.574336 
L 226.057695 143.052771 
L 226.11858 141.63177 
L 226.24035 144.690381 
L 226.301235 143.675318 
L 226.36212 143.700952 
L 226.423005 143.108584 
L 226.48389 144.556065 
L 226.544774 144.012338 
L 226.605659 143.399132 
L 226.666544 146.050007 
L 226.727429 145.748933 
L 226.849199 147.850337 
L 226.910084 150.049873 
L 227.031854 145.512037 
L 227.092739 146.079753 
L 227.153623 145.975312 
L 227.214508 147.130393 
L 227.336278 143.963338 
L 227.397163 145.912974 
L 227.458048 143.913451 
L 227.518933 144.226719 
L 227.579818 144.939611 
L 227.762472 149.758556 
L 227.823357 148.686441 
L 227.884242 149.642204 
L 227.945127 149.554086 
L 228.006012 149.383238 
L 228.310437 153.194964 
L 228.432206 150.881512 
L 228.614861 153.917835 
L 228.675746 154.836973 
L 228.736631 158.066502 
L 228.797516 156.679944 
L 228.858401 157.715331 
L 228.919286 157.190317 
L 229.10194 156.135042 
L 229.162825 153.64459 
L 229.22371 155.085854 
L 229.284595 155.45268 
L 229.528135 150.103263 
L 229.649905 151.758969 
L 229.771674 149.240252 
L 229.832559 149.838127 
L 229.893444 150.611718 
L 229.954329 150.316572 
L 230.015214 149.939595 
L 230.076099 150.324889 
L 230.136984 149.0971 
L 230.197869 150.611563 
L 230.258754 148.475725 
L 230.319638 149.181352 
L 230.380523 150.237458 
L 230.441408 146.413063 
L 230.502293 148.446987 
L 230.624063 148.616055 
L 230.684948 149.35495 
L 230.745833 151.868482 
L 230.806718 150.561203 
L 230.989372 146.446247 
L 231.050257 147.403822 
L 231.111142 146.716247 
L 231.415567 141.34365 
L 231.537337 142.196204 
L 231.598221 144.075324 
L 231.719991 139.809902 
L 231.780876 141.777024 
L 231.841761 139.20628 
L 231.902646 140.991605 
L 231.963531 139.390365 
L 232.024416 139.987128 
L 232.146186 140.161957 
L 232.389725 146.027448 
L 232.511495 144.006239 
L 232.57238 146.52969 
L 232.755035 142.746879 
L 232.876804 146.10928 
L 232.937689 146.116528 
L 232.998574 147.576652 
L 233.059459 146.265258 
L 233.120344 146.744685 
L 233.181229 147.80046 
L 233.302999 145.323807 
L 233.363884 145.819116 
L 233.424769 148.765797 
L 233.485653 148.08478 
L 233.546538 144.272899 
L 233.607423 145.076391 
L 233.668308 143.718718 
L 233.729193 143.864708 
L 233.790078 143.910064 
L 233.850963 143.792889 
L 233.972733 141.928396 
L 234.033618 142.410657 
L 234.155387 138.408369 
L 234.216272 139.244818 
L 234.581582 147.518363 
L 234.642467 146.597385 
L 234.825121 142.052837 
L 235.007776 148.417818 
L 235.068661 148.934781 
L 235.190431 151.997645 
L 235.312201 148.802321 
L 235.373086 150.86101 
L 235.43397 149.618841 
L 235.494855 149.573017 
L 235.860165 143.254038 
L 235.981935 143.584927 
L 236.042819 143.235533 
L 236.225474 140.007486 
L 236.408129 145.303761 
L 236.469014 144.751707 
L 236.590784 141.669316 
L 236.651669 142.519521 
L 236.773438 147.909022 
L 236.834323 147.70853 
L 237.016978 148.82908 
L 237.138748 147.018428 
L 237.199633 147.656428 
L 237.382287 151.628578 
L 237.443172 151.546498 
L 237.504057 151.409308 
L 237.564942 152.57612 
L 237.625827 149.199379 
L 237.686712 150.365106 
L 237.869367 148.04295 
L 237.991136 151.602486 
L 238.052021 154.995747 
L 238.112906 153.517133 
L 238.295561 150.282562 
L 238.356446 148.043732 
L 238.478216 152.162963 
L 238.843525 142.634516 
L 239.02618 148.174892 
L 239.087065 148.028076 
L 239.14795 146.629712 
L 239.330604 154.118139 
L 239.452374 152.747347 
L 239.513259 153.023237 
L 239.635029 149.792092 
L 239.695914 150.458728 
L 239.817684 153.140142 
L 239.939453 151.483289 
L 240.000338 153.425451 
L 240.061223 152.734875 
L 240.122108 150.649202 
L 240.182993 150.765139 
L 240.243878 151.243003 
L 240.304763 150.511948 
L 240.487417 154.609017 
L 240.548302 151.755147 
L 240.609187 153.009072 
L 240.730957 156.747521 
L 240.852727 156.698435 
L 240.913612 156.146624 
L 240.974497 159.335293 
L 241.035382 158.610843 
L 241.157151 155.237979 
L 241.218036 157.501246 
L 241.278921 156.770571 
L 241.461576 153.975903 
L 241.705116 156.982539 
L 241.766 158.591968 
L 241.826885 163.227218 
L 241.88777 162.458071 
L 242.13131 159.711719 
L 242.192195 160.133913 
L 242.313965 161.685087 
L 242.557504 157.310009 
L 242.618389 158.069352 
L 242.801044 160.829386 
L 242.983699 158.753543 
L 243.166353 161.328359 
L 243.227238 160.742708 
L 243.409893 153.904795 
L 243.470778 153.79881 
L 243.531663 152.551238 
L 243.592548 153.747918 
L 243.653433 152.552303 
L 243.714317 154.103557 
L 243.836087 150.38702 
L 243.896972 150.675022 
L 243.957857 150.429587 
L 244.018742 152.694238 
L 244.079627 151.54387 
L 244.140512 152.70977 
L 244.201397 151.835525 
L 244.384051 147.190623 
L 244.505821 153.473222 
L 244.566706 152.610899 
L 244.627591 152.512552 
L 244.688476 152.821547 
L 244.749361 151.386476 
L 244.810246 153.296796 
L 244.9929 149.549809 
L 245.053785 150.478932 
L 245.11467 149.298985 
L 245.175555 150.279032 
L 245.297325 154.589619 
L 245.35821 151.394622 
L 245.419095 152.339648 
L 245.601749 157.521394 
L 245.784404 153.792181 
L 245.845289 155.907885 
L 245.967059 152.579889 
L 246.027944 152.744659 
L 246.149714 150.577794 
L 246.210598 152.031272 
L 246.271483 150.997726 
L 246.332368 150.344645 
L 246.393253 151.113889 
L 246.636793 148.147309 
L 246.697678 149.492059 
L 246.819448 145.450559 
L 246.880332 145.881605 
L 247.002102 148.516032 
L 247.123872 145.537358 
L 247.245642 149.054097 
L 247.306527 148.447298 
L 247.489181 152.22704 
L 247.550066 151.584961 
L 247.732721 154.561249 
L 247.793606 154.319594 
L 247.915376 155.665368 
L 248.158915 151.616458 
L 248.34157 153.262485 
L 248.402455 151.443244 
L 248.46334 151.788527 
L 248.524225 152.164105 
L 248.645995 149.213138 
L 248.70688 149.905447 
L 248.767764 148.734902 
L 248.828649 151.822246 
L 248.889534 150.675535 
L 248.950419 150.378688 
L 249.011304 149.329185 
L 249.193959 152.54507 
L 249.315729 150.175649 
L 249.559268 142.091413 
L 249.620153 142.437779 
L 249.802808 146.905258 
L 249.863693 144.662488 
L 249.924578 145.308823 
L 250.046347 144.473981 
L 250.107232 147.291593 
L 250.168117 145.953273 
L 250.594312 153.827051 
L 250.776966 151.261322 
L 250.837851 151.836214 
L 251.142276 144.854168 
L 251.32493 148.741314 
L 251.4467 147.472063 
L 251.629355 150.323956 
L 251.69024 148.940548 
L 251.751125 151.607841 
L 251.81201 151.108132 
L 251.933779 151.389191 
L 252.177319 146.68452 
L 252.299089 148.871186 
L 252.359974 148.803381 
L 252.420859 146.98967 
L 252.786168 155.394283 
L 252.847053 154.543694 
L 252.907938 155.228219 
L 252.968823 158.142579 
L 253.029708 156.690785 
L 253.090593 154.828999 
L 253.151478 154.964547 
L 253.395017 161.9079 
L 253.516787 164.466687 
L 253.577672 164.296584 
L 253.638557 162.958831 
L 253.699442 164.648609 
L 253.760327 163.456713 
L 253.821212 164.647414 
L 253.942981 159.919657 
L 254.003866 161.840801 
L 254.064751 160.67001 
L 254.186521 156.72812 
L 254.308291 157.261894 
L 254.369176 158.29931 
L 254.490945 155.082449 
L 254.79537 159.891143 
L 254.856255 158.334122 
L 254.91714 160.913447 
L 254.978025 160.498901 
L 255.03891 159.816405 
L 255.282449 154.194378 
L 255.404219 155.926373 
L 255.586874 148.176302 
L 255.647759 149.029066 
L 255.891298 143.832355 
L 256.013068 146.911593 
L 256.073953 145.066166 
L 256.195723 150.94398 
L 256.256608 150.227967 
L 256.317493 148.229146 
L 256.378377 148.995794 
L 256.500147 151.636702 
L 256.561032 150.7877 
L 256.621917 148.999436 
L 256.682802 150.058465 
L 256.804572 152.17403 
L 256.865457 152.01986 
L 256.926342 152.64309 
L 257.048111 150.709338 
L 257.108996 152.000042 
L 257.169881 150.645531 
L 257.413421 156.76595 
L 257.474306 158.997611 
L 257.535191 158.523053 
L 257.77873 155.107477 
L 257.839615 155.024779 
L 257.9005 154.414577 
L 258.083155 149.916084 
L 258.14404 149.896144 
L 258.204925 149.652805 
L 258.26581 148.48008 
L 258.326694 149.022395 
L 258.387579 148.733193 
L 258.570234 145.139663 
L 258.631119 145.999868 
L 258.935543 147.762303 
L 259.118198 144.259368 
L 259.179083 147.701709 
L 259.239968 146.744839 
L 259.300853 146.425527 
L 259.361738 146.948216 
L 259.544393 150.021181 
L 259.605277 149.288235 
L 259.787932 145.976698 
L 259.848817 145.310269 
L 259.909702 145.949576 
L 259.970587 144.995681 
L 260.031472 145.549794 
L 260.092357 145.573914 
L 260.335896 140.049533 
L 260.396781 141.070411 
L 260.457666 140.244597 
L 260.518551 140.784421 
L 260.579436 146.291267 
L 260.640321 144.517626 
L 260.701206 143.877518 
L 260.762091 145.746579 
L 260.822976 145.085913 
L 260.88386 143.11749 
L 260.944745 144.313726 
L 261.00563 147.988608 
L 261.066515 146.896068 
L 261.1274 147.193091 
L 261.24917 151.779589 
L 261.431825 150.007252 
L 261.614479 153.896682 
L 261.736249 154.696864 
L 261.858019 151.31179 
L 261.918904 151.932761 
L 262.101558 153.696192 
L 262.162443 153.326231 
L 262.405983 147.055015 
L 262.466868 148.373798 
L 262.527753 148.1392 
L 262.588638 145.36376 
L 262.649523 146.382875 
L 262.710408 147.298001 
L 262.771292 144.956292 
L 262.832177 146.175665 
L 262.953947 149.676353 
L 263.014832 148.475389 
L 263.075717 149.262005 
L 263.136602 149.272761 
L 263.197487 149.493718 
L 263.441026 153.202641 
L 263.501911 152.166659 
L 263.562796 148.946775 
L 263.623681 149.018567 
L 263.684566 149.286286 
L 263.867221 150.766457 
L 263.928106 147.504725 
L 263.988991 149.316111 
L 264.049875 149.409466 
L 264.11076 148.630751 
L 264.23253 145.783862 
L 264.293415 145.923316 
L 264.415185 143.419985 
L 264.719609 146.430426 
L 264.780494 143.499031 
L 264.841379 144.872789 
L 264.902264 146.15037 
L 264.963149 146.03138 
L 265.084919 142.853156 
L 265.145804 147.257429 
L 265.206689 145.827935 
L 265.328458 145.593265 
L 265.389343 145.886979 
L 265.450228 147.751142 
L 265.511113 145.076937 
L 265.571998 146.899903 
L 265.754653 149.312751 
L 265.815538 148.534339 
L 265.876423 149.354179 
L 265.937307 148.863831 
L 265.998192 149.434698 
L 266.059077 148.52382 
L 266.180847 149.753034 
L 266.241732 149.44372 
L 266.424387 153.416223 
L 266.667926 150.484732 
L 266.728811 148.305599 
L 266.789696 149.379216 
L 266.850581 149.497971 
L 267.033236 145.328036 
L 267.155006 149.406797 
L 267.21589 148.048883 
L 267.276775 148.397319 
L 267.33766 148.015827 
L 267.398545 150.244264 
L 267.5812 145.280897 
L 267.642085 145.222733 
L 267.70297 146.276905 
L 267.885624 141.948768 
L 267.946509 137.637441 
L 268.007394 138.732842 
L 268.068279 138.152442 
L 268.190049 139.277239 
L 268.250934 141.665057 
L 268.311819 140.446064 
L 268.372704 139.725678 
L 268.494473 143.374981 
L 268.616243 139.533993 
L 268.677128 139.644795 
L 268.920668 144.13961 
L 268.981553 142.567762 
L 269.103322 145.658328 
L 269.164207 145.438512 
L 269.225092 144.745283 
L 269.285977 148.712646 
L 269.529517 138.925511 
L 269.590402 139.493723 
L 269.651287 135.8743 
L 269.712172 136.593063 
L 269.773056 139.005664 
L 269.833941 138.751019 
L 269.894826 134.935749 
L 269.955711 136.010882 
L 270.077481 137.705365 
L 270.199251 134.833847 
L 270.260136 136.148215 
L 270.321021 134.380412 
L 270.381905 135.251086 
L 270.44279 135.423089 
L 270.625445 126.762985 
L 270.68633 126.775555 
L 270.747215 126.157136 
L 270.8081 127.010273 
L 270.868985 126.295154 
L 271.173409 135.748354 
L 271.234294 135.53705 
L 271.356064 132.897775 
L 271.538719 135.66916 
L 271.599604 135.660883 
L 271.964913 128.558948 
L 272.147568 133.249217 
L 272.208453 132.975232 
L 272.269338 132.384357 
L 272.330222 132.499649 
L 272.451992 134.494827 
L 272.573762 131.725106 
L 272.634647 131.891221 
L 272.939071 138.878885 
L 272.999956 138.798105 
L 273.060841 138.469942 
L 273.121726 139.197575 
L 273.182611 138.779651 
L 273.243496 139.194471 
L 273.304381 137.210509 
L 273.365266 137.270876 
L 273.426151 136.953445 
L 273.487036 137.422525 
L 273.54792 137.229708 
L 273.608805 136.896801 
L 273.66969 134.992088 
L 273.730575 135.869778 
L 273.79146 140.174028 
L 273.852345 138.021985 
L 273.91323 139.748539 
L 273.974115 139.081742 
L 274.095885 133.974702 
L 274.15677 135.058799 
L 274.217654 137.388707 
L 274.278539 136.967048 
L 274.400309 133.051736 
L 274.461194 134.65851 
L 274.582964 137.992969 
L 274.765619 130.825152 
L 274.826503 131.312779 
L 274.887388 132.87034 
L 275.009158 128.29281 
L 275.070043 129.205849 
L 275.252698 131.501414 
L 275.374468 130.48568 
L 275.435353 129.098179 
L 275.496237 129.268025 
L 275.861547 137.292784 
L 275.922432 136.993019 
L 276.044202 135.119456 
L 276.105086 135.446927 
L 276.287741 138.495506 
L 276.470396 133.226211 
L 276.531281 134.601103 
L 276.713936 129.653643 
L 276.77482 127.434878 
L 276.835705 128.02724 
L 277.01836 133.131163 
L 277.201015 132.729235 
L 277.322785 128.46854 
L 277.444554 130.489181 
L 277.566324 127.188704 
L 277.688094 131.330657 
L 277.748979 131.157592 
L 277.809864 128.83564 
L 277.870749 130.31527 
L 277.992519 131.498861 
L 278.175173 130.831604 
L 278.236058 131.131185 
L 278.479598 136.104445 
L 278.662252 133.661176 
L 278.844907 137.640633 
L 278.905792 136.135586 
L 278.966677 137.150839 
L 279.027562 136.774504 
L 279.088447 137.294777 
L 279.271101 143.440391 
L 279.331986 142.769032 
L 279.392871 142.253478 
L 279.575526 137.99512 
L 279.636411 140.220658 
L 279.697296 138.533314 
L 279.879951 136.49292 
L 280.00172 139.908271 
L 280.12349 136.433258 
L 280.24526 138.028618 
L 280.306145 137.744488 
L 280.36703 137.387293 
L 280.427915 138.751791 
L 280.4888 136.824451 
L 280.549684 136.895796 
L 280.671454 139.687429 
L 280.793224 136.169606 
L 280.854109 136.338766 
L 280.914994 139.181964 
L 280.975879 138.233012 
L 281.036764 137.670932 
L 281.219418 134.296312 
L 281.280303 135.135437 
L 281.341188 133.063904 
L 281.402073 134.115371 
L 281.523843 136.195437 
L 281.584728 135.643156 
L 281.645613 134.719516 
L 281.706498 135.173969 
L 281.767383 137.070478 
L 281.828267 136.360118 
L 281.950037 137.906755 
L 282.010922 137.027508 
L 282.132692 140.318243 
L 282.193577 139.655845 
L 282.254462 140.634748 
L 282.315347 137.661565 
L 282.376232 137.743218 
L 282.437117 137.99914 
L 282.498001 140.193202 
L 282.558886 139.331192 
L 282.802426 132.113231 
L 282.863311 132.471399 
L 282.985081 134.035891 
L 283.10685 128.918107 
L 283.167735 130.201269 
L 283.289505 133.143368 
L 283.35039 131.654997 
L 283.411275 132.219153 
L 283.47216 133.732576 
L 283.533045 132.287016 
L 283.59393 134.666065 
L 283.654815 134.306244 
L 283.7157 133.861013 
L 283.898354 137.183267 
L 283.959239 136.880166 
L 284.020124 137.277859 
L 284.081009 136.075437 
L 284.202779 139.538882 
L 284.263664 138.869845 
L 284.324549 139.109405 
L 284.385433 138.781946 
L 284.628973 135.428809 
L 284.750743 138.427303 
L 284.872513 142.710365 
L 285.176937 137.917083 
L 285.237822 138.045253 
L 285.298707 138.975441 
L 285.481362 135.856622 
L 285.542247 135.593216 
L 285.603132 133.532941 
L 285.664016 134.091351 
L 285.785786 133.348388 
L 286.029326 139.681371 
L 286.151096 137.65629 
L 286.33375 142.724072 
L 286.45552 138.080085 
L 286.516405 139.148645 
L 286.57729 140.282561 
L 286.638175 139.511108 
L 286.69906 137.975673 
L 286.759945 138.93627 
L 286.942599 141.104343 
L 287.003484 142.214495 
L 287.064369 142.051062 
L 287.186139 141.700616 
L 287.307909 139.174851 
L 287.368794 137.037896 
L 287.429679 137.864332 
L 287.612333 142.20488 
L 287.673218 138.465905 
L 287.734103 141.789895 
L 287.794988 138.758943 
L 287.855873 139.404211 
L 287.916758 140.436197 
L 288.038528 137.305959 
L 288.221182 141.484857 
L 288.342952 138.812411 
L 288.403837 141.053229 
L 288.464722 140.806313 
L 288.525607 138.237867 
L 288.586492 139.189394 
L 288.830031 137.044576 
L 288.890916 139.341321 
L 288.951801 139.319721 
L 289.073571 135.473882 
L 289.134456 137.197525 
L 289.195341 136.032841 
L 289.377996 134.100551 
L 289.621535 141.162509 
L 290.169499 133.507338 
L 290.230384 134.669864 
L 290.291269 134.386305 
L 290.352154 133.889612 
L 290.473924 134.778633 
L 290.534809 135.956738 
L 290.595694 135.094041 
L 290.656579 134.984212 
L 290.778348 128.732291 
L 290.900118 133.343008 
L 290.961003 131.350316 
L 291.021888 132.040751 
L 291.204543 137.480688 
L 291.326313 136.320948 
L 291.387197 137.125151 
L 291.630737 146.954361 
L 291.691622 146.154838 
L 291.874277 151.601542 
L 291.935162 151.499582 
L 292.178701 144.496461 
L 292.422241 147.484125 
L 292.544011 151.020949 
L 292.66578 146.374446 
L 292.726665 147.345599 
L 292.78755 146.450159 
L 292.848435 148.009542 
L 292.970205 142.357404 
L 293.03109 144.339266 
L 293.213745 150.072982 
L 293.274629 149.513009 
L 293.457284 145.211122 
L 293.518169 144.984343 
L 293.579054 145.903199 
L 293.639939 145.700539 
L 293.822594 142.038364 
L 294.187903 154.897812 
L 294.248788 151.49771 
L 294.309673 153.979508 
L 294.370558 153.896352 
L 294.431443 153.055363 
L 294.553212 156.19482 
L 294.614097 154.424842 
L 294.674982 155.914082 
L 294.735867 155.368864 
L 294.796752 155.425122 
L 294.918522 158.172414 
L 295.162062 153.755957 
L 295.466486 146.424629 
L 295.588256 150.837397 
L 295.649141 150.253528 
L 295.710026 150.301142 
L 296.01445 147.756145 
L 296.197105 150.438672 
L 296.37976 146.69331 
L 296.562414 151.286828 
L 296.623299 151.116766 
L 296.684184 149.072522 
L 296.745069 151.38041 
L 296.866839 148.040849 
L 297.049494 152.766565 
L 297.110378 153.193268 
L 297.293033 151.481933 
L 297.475688 147.456817 
L 297.536573 146.474187 
L 297.597458 147.209336 
L 297.719227 146.987096 
L 297.840997 148.155122 
L 297.901882 147.910812 
L 298.084537 141.093848 
L 298.206307 143.768121 
L 298.328077 143.669872 
L 298.632501 131.977076 
L 298.754271 135.81715 
L 298.815156 135.422381 
L 298.876041 134.790289 
L 298.99781 137.018847 
L 299.058695 135.88884 
L 299.180465 139.519306 
L 299.24135 139.112438 
L 299.728429 146.996537 
L 299.789314 146.799446 
L 300.154624 153.356897 
L 300.215509 151.204792 
L 300.337278 158.611105 
L 300.398163 158.590529 
L 300.459048 157.889111 
L 300.519933 158.342075 
L 300.580818 157.806957 
L 300.641703 158.897367 
L 300.702588 157.323282 
L 300.763473 158.343954 
L 300.824358 157.684385 
L 300.885243 158.579369 
L 300.946127 157.561912 
L 301.067897 162.035495 
L 301.128782 161.523436 
L 301.250552 161.796892 
L 301.311437 160.783052 
L 301.554976 164.384743 
L 301.615861 163.583832 
L 301.676746 166.100844 
L 301.737631 164.450155 
L 301.859401 162.360677 
L 301.920286 162.585202 
L 301.981171 159.693873 
L 302.042056 159.859825 
L 302.102941 159.947601 
L 302.285595 156.621267 
L 302.34648 156.693572 
L 302.529135 163.354023 
L 302.59002 163.284282 
L 302.650905 161.077893 
L 302.71179 161.118704 
L 302.772675 160.763068 
L 302.955329 162.291971 
L 303.077099 159.175565 
L 303.137984 160.632721 
L 303.198869 160.54585 
L 303.320639 160.553667 
L 303.503293 157.173287 
L 303.807718 150.687649 
L 303.990373 153.244419 
L 304.112142 154.005714 
L 304.355682 149.815974 
L 304.538337 151.543459 
L 304.660107 153.212348 
L 304.781876 151.311012 
L 305.086301 158.762808 
L 305.147186 158.295578 
L 305.45161 148.03117 
L 305.634265 152.504058 
L 305.69515 150.244758 
L 305.756035 151.699271 
L 305.81692 150.485692 
L 305.93869 154.083799 
L 305.999574 153.358579 
L 306.121344 148.887455 
L 306.669308 159.693671 
L 306.851963 156.889273 
L 306.912848 157.787134 
L 307.034618 161.123587 
L 307.095503 160.660281 
L 307.278157 154.897806 
L 307.521697 158.636221 
L 307.582582 158.211383 
L 307.643467 159.730505 
L 307.704352 158.476155 
L 307.826122 156.040288 
L 307.887006 156.653265 
L 307.947891 156.520002 
L 308.008776 155.686877 
L 308.069661 157.770588 
L 308.130546 156.463005 
L 308.313201 154.788522 
L 308.374086 154.881523 
L 308.434971 154.29599 
L 308.617625 155.805638 
L 308.67851 155.654191 
L 308.80028 158.326907 
L 308.982935 156.251538 
L 309.04382 156.757789 
L 309.104705 157.422942 
L 309.348244 154.52262 
L 309.409129 155.200126 
L 309.957093 147.090025 
L 310.261518 152.33162 
L 310.322403 152.780498 
L 310.505057 147.615323 
L 310.565942 149.99736 
L 310.626827 146.570219 
L 310.748597 149.995109 
L 310.809482 149.043857 
L 311.053022 153.193434 
L 311.113906 152.85158 
L 311.235676 151.91468 
L 311.296561 152.38226 
L 311.357446 151.005476 
L 311.418331 151.047487 
L 311.479216 151.559513 
L 311.540101 151.13531 
L 311.600986 151.421738 
L 311.661871 150.215843 
L 311.722755 150.235274 
L 311.78364 150.281744 
L 311.966295 154.711336 
L 312.02718 155.637026 
L 312.088065 154.720718 
L 312.209835 158.269518 
L 312.27072 156.473615 
L 312.453374 158.753973 
L 312.575144 161.889589 
L 312.636029 165.068101 
L 312.696914 163.641207 
L 312.757799 163.235971 
L 312.818684 163.991603 
L 312.940454 162.988421 
L 313.001338 162.999558 
L 313.123108 158.332336 
L 313.183993 159.356144 
L 313.305763 162.842359 
L 313.366648 162.09212 
L 313.549303 164.174554 
L 313.610187 163.809201 
L 313.671072 164.953042 
L 313.731957 163.833233 
L 313.853727 165.076436 
L 313.914612 164.396618 
L 313.975497 168.072285 
L 314.036382 165.573177 
L 314.158152 163.894978 
L 314.219037 164.207384 
L 314.340806 162.820613 
L 314.401691 160.265184 
L 314.462576 161.339393 
L 314.523461 161.412321 
L 314.584346 158.994353 
L 314.645231 160.06842 
L 314.706116 159.980549 
L 314.767001 159.525759 
L 314.827886 160.052369 
L 314.88877 158.908819 
L 315.071425 151.341882 
L 315.25408 156.324935 
L 315.436735 153.831079 
L 315.680274 161.556266 
L 315.741159 162.286981 
L 315.862929 159.480931 
L 315.923814 161.983659 
L 315.984699 161.910521 
L 316.167353 152.595772 
L 316.228238 153.658564 
L 316.410893 156.331926 
L 316.532663 158.33008 
L 316.715318 155.124428 
L 316.837087 157.171138 
L 316.958857 155.194728 
L 317.080627 159.331404 
L 317.202397 159.227124 
L 317.263282 158.565244 
L 317.445936 154.055902 
L 317.506821 152.985126 
L 317.689476 156.732073 
L 317.750361 156.014232 
L 317.933016 152.862387 
L 318.11567 155.262337 
L 318.176555 154.348037 
L 318.23744 154.549949 
L 318.298325 154.267689 
L 318.35921 155.322027 
L 318.663635 166.932593 
L 318.785404 166.702666 
L 318.968059 165.085836 
L 319.089829 162.486368 
L 319.150714 162.927012 
L 319.455138 169.260985 
L 319.637793 166.979312 
L 319.698678 167.063789 
L 319.759563 167.564115 
L 319.820448 169.564307 
L 319.881333 169.288865 
L 319.942218 169.460762 
L 320.003102 173.419014 
L 320.063987 172.774649 
L 320.124872 172.769769 
L 320.185757 174.818118 
L 320.246642 174.331814 
L 320.307527 173.823062 
L 320.429297 177.733409 
L 320.490182 175.513135 
L 320.551067 174.230679 
L 320.611951 175.180676 
L 320.672836 176.923077 
L 320.733721 173.710142 
L 320.794606 174.12089 
L 320.977261 169.812217 
L 321.038146 170.531114 
L 321.159916 163.482784 
L 321.220801 162.952018 
L 321.34257 160.524772 
L 321.403455 160.591131 
L 321.646995 168.031862 
L 321.70788 167.519578 
L 321.890534 163.202094 
L 322.073189 157.698228 
L 322.134074 161.961854 
L 322.194959 161.705654 
L 322.255844 161.487692 
L 322.316729 162.125234 
L 322.377614 161.943376 
L 322.560268 157.464393 
L 322.621153 156.095963 
L 322.682038 156.730327 
L 322.986463 154.795715 
L 323.047348 157.071376 
L 323.230002 152.612433 
L 323.290887 152.147321 
L 323.412657 149.142769 
L 323.595312 152.572725 
L 323.656197 152.107441 
L 323.777967 146.691243 
L 323.960621 149.132992 
L 324.021506 148.909504 
L 324.325931 143.211509 
L 324.508585 151.147963 
L 324.56947 149.017553 
L 324.752125 151.32417 
L 324.873895 149.369465 
L 324.995665 151.122998 
L 325.178319 149.923541 
L 325.239204 150.728767 
L 325.360974 148.212478 
L 325.421859 149.709255 
L 325.482744 147.65069 
L 325.543629 147.851856 
L 325.604514 147.973098 
L 325.665399 144.616031 
L 325.726283 145.273005 
L 325.787168 145.008197 
L 326.152478 133.815184 
L 326.335132 137.986621 
L 326.396017 137.765628 
L 326.639557 141.713023 
L 326.700442 142.187919 
L 326.943982 137.246806 
L 327.065751 142.91188 
L 327.126636 142.556147 
L 327.309291 147.123508 
L 327.370176 144.933894 
L 327.431061 145.333399 
L 327.491946 146.723503 
L 327.552831 144.538335 
L 327.735485 148.350591 
L 327.79637 148.784368 
L 327.857255 148.024047 
L 328.03991 151.268374 
L 328.344334 160.581812 
L 328.526989 157.025905 
L 328.587874 158.393954 
L 328.648759 155.782941 
L 328.709644 157.302079 
L 328.770529 158.462688 
L 328.831414 156.505397 
L 328.892298 156.621596 
L 329.014068 155.08196 
L 329.074953 155.193175 
L 329.135838 156.79606 
L 329.318493 153.647058 
L 329.379378 156.18885 
L 329.440263 154.592249 
L 329.501148 154.450429 
L 329.622917 153.510995 
L 329.683802 153.59562 
L 329.744687 155.914757 
L 329.805572 154.468241 
L 329.866457 155.80524 
L 329.988227 152.891036 
L 330.049112 155.975061 
L 330.109997 153.850801 
L 330.292651 154.942368 
L 330.353536 152.203562 
L 330.414421 154.392765 
L 330.475306 153.667903 
L 330.597076 148.920068 
L 330.657961 149.931059 
L 330.718846 151.33875 
L 330.77973 150.762284 
L 330.9015 148.458349 
L 330.962385 148.728565 
L 331.02327 146.911497 
L 331.571234 160.167985 
L 331.632119 159.966299 
L 331.693004 159.824904 
L 331.753889 159.859561 
L 331.814774 162.847796 
L 331.875659 162.816352 
L 331.936544 162.403568 
L 331.997429 163.082949 
L 332.180083 166.288695 
L 332.240968 163.515125 
L 332.301853 163.609958 
L 332.362738 165.533985 
L 332.423623 164.632739 
L 332.484508 164.181833 
L 332.545393 164.369518 
L 332.606278 165.370854 
L 332.667163 165.318336 
L 332.728047 165.010152 
L 332.849817 166.402512 
L 332.910702 164.019921 
L 332.971587 164.171973 
L 333.032472 163.689654 
L 333.154242 159.343582 
L 333.215127 159.876507 
L 333.276012 159.829844 
L 333.336896 159.250694 
L 333.397781 157.382433 
L 333.458666 157.886603 
L 333.519551 160.123937 
L 333.580436 159.147661 
L 333.763091 155.816625 
L 333.884861 159.513317 
L 333.945746 157.709322 
L 334.067515 163.831553 
L 334.1284 162.265845 
L 334.189285 161.494496 
L 334.37194 166.623864 
L 334.432825 165.292398 
L 334.49371 165.31877 
L 334.554595 165.095658 
L 334.676364 167.329643 
L 334.737249 167.065017 
L 334.859019 164.170043 
L 334.919904 164.677823 
L 334.980789 166.964343 
L 335.041674 165.633797 
L 335.467868 158.42265 
L 335.528753 159.577913 
L 335.589638 158.929172 
L 336.320257 169.1664 
L 336.381142 167.653071 
L 336.442027 169.119701 
L 336.563796 167.367217 
L 336.685566 170.459119 
L 336.746451 170.277551 
L 336.868221 166.972437 
L 336.929106 167.741973 
L 336.989991 167.166984 
L 337.050876 164.200447 
L 337.23353 171.979009 
L 337.47707 168.705032 
L 337.537955 170.764983 
L 337.59884 170.366482 
L 337.659725 170.21893 
L 337.781494 173.079275 
L 337.842379 171.488253 
L 337.903264 174.38866 
L 337.964149 173.718462 
L 338.085919 169.850903 
L 338.146804 170.652071 
L 338.268574 169.145762 
L 338.329459 170.085822 
L 338.390344 169.375756 
L 338.451228 169.895639 
L 338.512113 168.920997 
L 338.877423 176.208934 
L 338.999193 172.86085 
L 339.060077 174.305843 
L 339.181847 171.492426 
L 339.242732 172.097733 
L 339.364502 175.070458 
L 339.547157 170.134103 
L 339.668927 172.058767 
L 339.790696 167.469298 
L 339.851581 167.783492 
L 339.912466 167.865866 
L 339.973351 167.307034 
L 340.034236 162.405193 
L 340.095121 163.511958 
L 340.46043 161.792822 
L 340.5822 160.269757 
L 340.643085 161.175876 
L 340.82574 158.776401 
L 340.94751 159.969074 
L 341.008394 158.623683 
L 341.069279 160.032066 
L 341.130164 159.072972 
L 341.312819 161.39668 
L 341.373704 161.192722 
L 341.495474 161.802242 
L 341.556359 160.517945 
L 341.617243 162.155486 
L 341.739013 158.957839 
L 341.799898 159.180902 
L 341.921668 156.541408 
L 341.982553 158.358851 
L 342.043438 157.8966 
L 342.104323 158.558654 
L 342.165208 158.216314 
L 342.226092 155.039826 
L 342.286977 155.707213 
L 342.347862 156.000009 
L 342.591402 151.262286 
L 342.652287 149.753763 
L 342.774057 152.139763 
L 342.834942 150.696162 
L 342.895826 151.799331 
L 342.956711 151.11262 
L 343.017596 152.178696 
L 343.139366 148.562968 
L 343.200251 149.303539 
L 343.382906 146.725048 
L 343.443791 146.877884 
L 343.504675 147.523187 
L 343.68733 143.689316 
L 343.748215 144.769651 
L 343.93087 149.986778 
L 343.991755 150.365649 
L 344.05264 148.151798 
L 344.113525 149.242885 
L 344.296179 145.970222 
L 344.357064 146.556487 
L 344.417949 147.628791 
L 344.600604 142.11132 
L 344.661489 142.434654 
L 344.844143 140.328751 
L 344.965913 144.267356 
L 345.026798 143.647788 
L 345.087683 140.40409 
L 345.148568 140.978399 
L 345.209453 140.768464 
L 345.270338 138.758156 
L 345.331223 138.839585 
L 345.392108 138.860263 
L 345.513877 136.312425 
L 345.696532 128.612129 
L 345.757417 128.673035 
L 345.879187 131.025332 
L 345.940072 131.104168 
L 346.000957 131.590704 
L 346.061841 129.503324 
L 346.122726 130.371685 
L 346.183611 129.507717 
L 346.305381 131.563415 
L 346.366266 131.013821 
L 346.548921 127.28759 
L 346.609806 127.071159 
L 346.670691 128.079659 
L 346.79246 132.787777 
L 346.91423 128.094045 
L 347.096885 130.175394 
L 347.15777 129.64126 
L 347.218655 129.88563 
L 347.27954 130.188418 
L 347.401309 129.152589 
L 347.583964 131.266354 
L 347.644849 129.501041 
L 347.705734 129.685952 
L 347.766619 130.416461 
L 347.827504 129.234487 
L 347.888389 123.077314 
L 347.949273 123.565104 
L 348.131928 126.325 
L 348.192813 126.010901 
L 348.314583 127.807031 
L 348.375468 131.169344 
L 348.436353 130.723331 
L 348.558123 125.323456 
L 348.619007 125.383427 
L 348.679892 126.150834 
L 348.862547 130.682158 
L 348.984317 132.04491 
L 349.045202 133.640191 
L 349.288741 128.74617 
L 349.349626 129.364869 
L 349.410511 131.250475 
L 349.471396 131.027186 
L 349.714936 127.966198 
L 349.775821 130.927814 
L 349.836706 129.952892 
L 350.01936 134.356433 
L 350.080245 133.318266 
L 350.14113 131.571471 
L 350.2629 134.396032 
L 350.323785 132.55285 
L 350.38467 132.759393 
L 350.445555 132.889157 
L 350.506439 132.310493 
L 350.567324 133.490665 
L 350.749979 130.621995 
L 350.810864 130.280645 
L 350.871749 130.512386 
L 350.993519 130.248922 
L 351.115289 129.00496 
L 351.237058 131.369749 
L 351.297943 128.641362 
L 351.358828 128.727283 
L 351.419713 129.814149 
L 351.602368 126.037607 
L 351.663253 126.350668 
L 351.845907 122.460236 
L 351.906792 124.472913 
L 351.967677 123.058079 
L 352.028562 123.789003 
L 352.089447 123.257865 
L 352.150332 123.091816 
L 352.211217 123.829781 
L 352.576526 134.887572 
L 352.637411 135.763536 
L 352.698296 134.292715 
L 352.759181 135.024347 
L 352.820066 135.334911 
L 352.880951 134.481776 
L 352.941836 137.438546 
L 353.002721 137.044211 
L 353.12449 133.46764 
L 353.185375 137.57986 
L 353.24626 137.269218 
L 353.4898 134.087672 
L 353.550685 135.101094 
L 353.855109 129.605499 
L 353.915994 129.444891 
L 354.159534 131.486963 
L 354.220419 131.756385 
L 354.524843 127.324671 
L 354.768383 134.424842 
L 354.829268 134.528805 
L 354.890153 133.043154 
L 354.951037 133.120162 
L 355.011922 133.359518 
L 355.072807 134.907969 
L 355.133692 134.764366 
L 355.194577 133.646882 
L 355.377232 136.080935 
L 355.438117 133.342475 
L 355.499002 135.40919 
L 355.559887 134.614636 
L 355.742541 139.232502 
L 355.803426 139.599203 
L 355.864311 137.348097 
L 355.925196 137.763524 
L 355.986081 138.99245 
L 356.046966 138.812992 
L 356.107851 138.897356 
L 356.22962 140.626123 
L 356.35139 143.962086 
L 356.412275 139.592182 
L 356.47316 142.114698 
L 356.655815 146.170405 
L 356.777585 142.325372 
L 356.83847 143.604191 
L 356.899354 142.676489 
L 356.960239 142.782349 
L 357.021124 139.623181 
L 357.082009 141.826742 
L 357.203779 143.992068 
L 357.264664 143.621974 
L 357.325549 141.7489 
L 357.386434 143.983958 
L 357.447319 142.324345 
L 357.569088 141.637974 
L 357.751743 145.534408 
L 357.873513 143.896901 
L 357.934398 144.491316 
L 358.117053 146.856698 
L 358.177937 144.678672 
L 358.299707 147.952595 
L 358.543247 140.928484 
L 358.665017 141.973423 
L 358.847671 140.545976 
L 358.969441 137.988636 
L 359.030326 138.325355 
L 359.091211 139.836769 
L 359.152096 138.983199 
L 359.212981 139.975787 
L 359.334751 135.772308 
L 359.395635 136.016992 
L 359.45652 136.625821 
L 359.517405 135.150801 
L 359.70006 144.49315 
L 359.760945 141.918903 
L 359.82183 142.354642 
L 360.065369 147.609734 
L 360.126254 145.96605 
L 360.187139 146.255041 
L 360.308909 148.423146 
L 360.491564 143.821986 
L 360.795988 148.124875 
L 360.856873 148.496667 
L 360.917758 146.489224 
L 360.978643 146.946248 
L 361.039528 148.168166 
L 361.222183 152.747007 
L 361.343952 157.435441 
L 361.404837 156.501428 
L 361.465722 157.260045 
L 361.526607 156.907991 
L 361.587492 154.197065 
L 361.648377 154.205291 
L 361.831032 157.801013 
L 361.891917 159.558528 
L 361.952801 159.343361 
L 362.013686 158.928374 
L 362.074571 157.625705 
L 362.135456 160.385384 
L 362.196341 158.916765 
L 362.318111 160.781813 
L 362.500766 154.573738 
L 362.561651 153.808457 
L 362.80519 157.626108 
L 362.866075 156.75241 
L 362.92696 158.266842 
L 362.987845 156.118141 
L 363.109615 162.142548 
L 363.292269 155.687226 
L 363.414039 159.069632 
L 363.474924 157.252885 
L 363.535809 157.866966 
L 363.657579 156.052704 
L 363.779349 159.899431 
L 363.840234 158.686285 
L 363.901118 158.981761 
L 363.962003 159.979008 
L 364.022888 158.439151 
L 364.266428 163.571455 
L 364.327313 161.696692 
L 364.388198 163.872916 
L 364.449083 163.450417 
L 364.509967 164.007365 
L 364.570852 163.306201 
L 364.631737 164.04939 
L 364.692622 163.645161 
L 364.814392 160.537447 
L 364.875277 162.167247 
L 364.997047 160.103421 
L 365.118816 160.931692 
L 365.179701 163.767891 
L 365.240586 161.487893 
L 365.423241 158.446095 
L 365.545011 158.959693 
L 365.605896 155.686157 
L 365.666781 158.025465 
L 365.727666 157.112962 
L 365.849435 160.554516 
L 365.91032 159.565178 
L 365.971205 158.828547 
L 366.03209 160.373475 
L 366.092975 160.01101 
L 366.15386 160.281176 
L 366.214745 160.159838 
L 366.397399 158.294322 
L 366.640939 156.359184 
L 366.701824 157.036758 
L 366.823594 153.302548 
L 366.884479 153.510267 
L 366.945364 154.438293 
L 367.188903 150.837961 
L 367.249788 151.620833 
L 367.310673 150.767094 
L 367.371558 151.535757 
L 367.432443 151.380225 
L 367.493328 151.528162 
L 367.554213 150.767307 
L 367.675982 145.547383 
L 367.736867 145.823196 
L 367.797752 148.763978 
L 367.919522 144.681202 
L 368.102177 147.784744 
L 368.163062 148.416484 
L 368.223947 151.266229 
L 368.284832 150.450328 
L 368.406601 147.31275 
L 368.528371 151.822069 
L 368.589256 150.844011 
L 368.711026 148.716961 
L 368.771911 146.766831 
L 368.954565 149.553883 
L 369.01545 149.230639 
L 369.198105 151.107446 
L 369.441645 139.515398 
L 369.563415 144.546856 
L 369.624299 143.416617 
L 369.806954 140.863642 
L 369.928724 135.369584 
L 369.989609 136.852798 
L 370.050494 136.03701 
L 370.172264 134.385263 
L 370.354918 137.054776 
L 370.476688 136.615642 
L 370.537573 136.736213 
L 370.598458 135.529648 
L 370.841997 144.417711 
L 370.902882 143.086718 
L 371.146422 148.310874 
L 371.389962 143.000686 
L 371.572616 147.547302 
L 371.633501 145.211208 
L 371.694386 145.629246 
L 371.816156 149.336295 
L 371.877041 147.915497 
L 372.059696 144.001031 
L 372.12058 148.282596 
L 372.181465 144.847085 
L 372.303235 146.170896 
L 372.36412 145.77829 
L 372.425005 146.014963 
L 372.48589 143.745599 
L 372.60766 149.292011 
L 372.668545 147.829537 
L 372.72943 145.396502 
L 372.790314 146.221804 
L 372.972969 151.251481 
L 373.033854 150.113972 
L 373.155624 152.091629 
L 373.277394 149.780848 
L 373.338279 149.87824 
L 373.399163 150.39436 
L 373.581818 142.364971 
L 373.581818 142.364971 
" style="fill:none;stroke:#1f77b4;stroke-linecap:round;stroke-width:1.5;"/>
   </g>
   <g id="patch_3">
    <path d="M 54 252 
L 54 34.56 
" style="fill:none;stroke:#cccccc;stroke-linecap:square;stroke-linejoin:miter;stroke-width:0.8;"/>
   </g>
   <g id="patch_4">
    <path d="M 388.8 252 
L 388.8 34.56 
" style="fill:none;stroke:#cccccc;stroke-linecap:square;stroke-linejoin:miter;stroke-width:0.8;"/>
   </g>
   <g id="patch_5">
    <path d="M 54 252 
L 388.8 252 
" style="fill:none;stroke:#cccccc;stroke-linecap:square;stroke-linejoin:miter;stroke-width:0.8;"/>
   </g>
   <g id="patch_6">
    <path d="M 54 34.56 
L 388.8 34.56 
" style="fill:none;stroke:#cccccc;stroke-linecap:square;stroke-linejoin:miter;stroke-width:0.8;"/>
   </g>
  </g>
 </g>
 <defs>
  <clipPath id="p4f0d4a1c97">
   <rect height="217.44" width="334.8" x="54" y="34.56"/>
  </clipPath>
 </defs>
</svg>
