<?xml version="1.0" encoding="utf-8" standalone="no"?>
<!DOCTYPE svg PUBLIC "-//W3C//DTD SVG 1.1//EN"
  "http://www.w3.org/Graphics/SVG/1.1/DTD/svg11.dtd">
<svg height="288pt" version="1.1" viewBox="0 0 432 288" width="432pt" xmlns="http://www.w3.org/2000/svg" xmlns:xlink="http://www.w3.org/1999/xlink">
 <metadata>
  <rdf:RDF xmlns:cc="http://creativecommons.org/ns#" xmlns:dc="http://purl.org/dc/elements/1.1/" xmlns:rdf="http://www.w3.org/1999/02/22-rdf-syntax-ns#">
   <cc:Work>
    <dc:type rdf:resource="http://purl.org/dc/dcmitype/StillImage"/>
    <dc:date>2022-03-07T23:32:19.365258</dc:date>
    <dc:format>image/svg+xml</dc:format>
    <dc:creator>
     <cc:Agent>
      <dc:title>Matplotlib v3.4.3, https://matplotlib.org/</dc:title>
     </cc:Agent>
    </dc:creator>
   </cc:Work>
  </rdf:RDF>
 </metadata>
 <defs>
  <style type="text/css">*{stroke-linecap:butt;stroke-linejoin:round;}</style>
 </defs>
 <g id="figure_1">
  <g id="patch_1">
   <path d="M 0 288 
L 432 288 
L 432 0 
L 0 0 
z
" style="fill:#ffffff;"/>
  </g>
  <g id="axes_1">
   <g id="patch_2">
    <path d="M 54 252 
L 388.8 252 
L 388.8 34.56 
L 54 34.56 
z
" style="fill:#ffffff;"/>
   </g>
   <g id="matplotlib.axis_1">
    <g id="xtick_1">
     <g id="line2d_1">
      <path clip-path="url(#p6a4ee00d02)" d="M 69.218182 252 
L 69.218182 34.56 
" style="fill:none;stroke:#cccccc;stroke-linecap:round;stroke-width:0.8;"/>
     </g>
     <g id="text_1">
      <!-- 0 -->
      <g style="fill:#262626;" transform="translate(65.325526 269.020938)scale(0.14 -0.14)">
       <defs>
        <path d="M 266 2259 
Q 266 3072 433 3567 
Q 600 4063 929 4331 
Q 1259 4600 1759 4600 
Q 2128 4600 2406 4451 
Q 2684 4303 2865 4023 
Q 3047 3744 3150 3342 
Q 3253 2941 3253 2259 
Q 3253 1453 3087 958 
Q 2922 463 2592 192 
Q 2263 -78 1759 -78 
Q 1097 -78 719 397 
Q 266 969 266 2259 
z
M 844 2259 
Q 844 1131 1108 757 
Q 1372 384 1759 384 
Q 2147 384 2411 759 
Q 2675 1134 2675 2259 
Q 2675 3391 2411 3762 
Q 2147 4134 1753 4134 
Q 1366 4134 1134 3806 
Q 844 3388 844 2259 
z
" id="ArialMT-30" transform="scale(0.015625)"/>
       </defs>
       <use xlink:href="#ArialMT-30"/>
      </g>
     </g>
    </g>
    <g id="xtick_2">
     <g id="line2d_2">
      <path clip-path="url(#p6a4ee00d02)" d="M 130.103086 252 
L 130.103086 34.56 
" style="fill:none;stroke:#cccccc;stroke-linecap:round;stroke-width:0.8;"/>
     </g>
     <g id="text_2">
      <!-- 1000 -->
      <g style="fill:#262626;" transform="translate(114.532461 269.020938)scale(0.14 -0.14)">
       <defs>
        <path d="M 2384 0 
L 1822 0 
L 1822 3584 
Q 1619 3391 1289 3197 
Q 959 3003 697 2906 
L 697 3450 
Q 1169 3672 1522 3987 
Q 1875 4303 2022 4600 
L 2384 4600 
L 2384 0 
z
" id="ArialMT-31" transform="scale(0.015625)"/>
       </defs>
       <use xlink:href="#ArialMT-31"/>
       <use x="55.615234" xlink:href="#ArialMT-30"/>
       <use x="111.230469" xlink:href="#ArialMT-30"/>
       <use x="166.845703" xlink:href="#ArialMT-30"/>
      </g>
     </g>
    </g>
    <g id="xtick_3">
     <g id="line2d_3">
      <path clip-path="url(#p6a4ee00d02)" d="M 190.98799 252 
L 190.98799 34.56 
" style="fill:none;stroke:#cccccc;stroke-linecap:round;stroke-width:0.8;"/>
     </g>
     <g id="text_3">
      <!-- 2000 -->
      <g style="fill:#262626;" transform="translate(175.417365 269.020938)scale(0.14 -0.14)">
       <defs>
        <path d="M 3222 541 
L 3222 0 
L 194 0 
Q 188 203 259 391 
Q 375 700 629 1000 
Q 884 1300 1366 1694 
Q 2113 2306 2375 2664 
Q 2638 3022 2638 3341 
Q 2638 3675 2398 3904 
Q 2159 4134 1775 4134 
Q 1369 4134 1125 3890 
Q 881 3647 878 3216 
L 300 3275 
Q 359 3922 746 4261 
Q 1134 4600 1788 4600 
Q 2447 4600 2831 4234 
Q 3216 3869 3216 3328 
Q 3216 3053 3103 2787 
Q 2991 2522 2730 2228 
Q 2469 1934 1863 1422 
Q 1356 997 1212 845 
Q 1069 694 975 541 
L 3222 541 
z
" id="ArialMT-32" transform="scale(0.015625)"/>
       </defs>
       <use xlink:href="#ArialMT-32"/>
       <use x="55.615234" xlink:href="#ArialMT-30"/>
       <use x="111.230469" xlink:href="#ArialMT-30"/>
       <use x="166.845703" xlink:href="#ArialMT-30"/>
      </g>
     </g>
    </g>
    <g id="xtick_4">
     <g id="line2d_4">
      <path clip-path="url(#p6a4ee00d02)" d="M 251.872895 252 
L 251.872895 34.56 
" style="fill:none;stroke:#cccccc;stroke-linecap:round;stroke-width:0.8;"/>
     </g>
     <g id="text_4">
      <!-- 3000 -->
      <g style="fill:#262626;" transform="translate(236.30227 269.020938)scale(0.14 -0.14)">
       <defs>
        <path d="M 269 1209 
L 831 1284 
Q 928 806 1161 595 
Q 1394 384 1728 384 
Q 2125 384 2398 659 
Q 2672 934 2672 1341 
Q 2672 1728 2419 1979 
Q 2166 2231 1775 2231 
Q 1616 2231 1378 2169 
L 1441 2663 
Q 1497 2656 1531 2656 
Q 1891 2656 2178 2843 
Q 2466 3031 2466 3422 
Q 2466 3731 2256 3934 
Q 2047 4138 1716 4138 
Q 1388 4138 1169 3931 
Q 950 3725 888 3313 
L 325 3413 
Q 428 3978 793 4289 
Q 1159 4600 1703 4600 
Q 2078 4600 2393 4439 
Q 2709 4278 2876 4000 
Q 3044 3722 3044 3409 
Q 3044 3113 2884 2869 
Q 2725 2625 2413 2481 
Q 2819 2388 3044 2092 
Q 3269 1797 3269 1353 
Q 3269 753 2831 336 
Q 2394 -81 1725 -81 
Q 1122 -81 723 278 
Q 325 638 269 1209 
z
" id="ArialMT-33" transform="scale(0.015625)"/>
       </defs>
       <use xlink:href="#ArialMT-33"/>
       <use x="55.615234" xlink:href="#ArialMT-30"/>
       <use x="111.230469" xlink:href="#ArialMT-30"/>
       <use x="166.845703" xlink:href="#ArialMT-30"/>
      </g>
     </g>
    </g>
    <g id="xtick_5">
     <g id="line2d_5">
      <path clip-path="url(#p6a4ee00d02)" d="M 312.757799 252 
L 312.757799 34.56 
" style="fill:none;stroke:#cccccc;stroke-linecap:round;stroke-width:0.8;"/>
     </g>
     <g id="text_5">
      <!-- 4000 -->
      <g style="fill:#262626;" transform="translate(297.187174 269.020938)scale(0.14 -0.14)">
       <defs>
        <path d="M 2069 0 
L 2069 1097 
L 81 1097 
L 81 1613 
L 2172 4581 
L 2631 4581 
L 2631 1613 
L 3250 1613 
L 3250 1097 
L 2631 1097 
L 2631 0 
L 2069 0 
z
M 2069 1613 
L 2069 3678 
L 634 1613 
L 2069 1613 
z
" id="ArialMT-34" transform="scale(0.015625)"/>
       </defs>
       <use xlink:href="#ArialMT-34"/>
       <use x="55.615234" xlink:href="#ArialMT-30"/>
       <use x="111.230469" xlink:href="#ArialMT-30"/>
       <use x="166.845703" xlink:href="#ArialMT-30"/>
      </g>
     </g>
    </g>
    <g id="xtick_6">
     <g id="line2d_6">
      <path clip-path="url(#p6a4ee00d02)" d="M 373.642703 252 
L 373.642703 34.56 
" style="fill:none;stroke:#cccccc;stroke-linecap:round;stroke-width:0.8;"/>
     </g>
     <g id="text_6">
      <!-- 5000 -->
      <g style="fill:#262626;" transform="translate(358.072078 269.020938)scale(0.14 -0.14)">
       <defs>
        <path d="M 266 1200 
L 856 1250 
Q 922 819 1161 601 
Q 1400 384 1738 384 
Q 2144 384 2425 690 
Q 2706 997 2706 1503 
Q 2706 1984 2436 2262 
Q 2166 2541 1728 2541 
Q 1456 2541 1237 2417 
Q 1019 2294 894 2097 
L 366 2166 
L 809 4519 
L 3088 4519 
L 3088 3981 
L 1259 3981 
L 1013 2750 
Q 1425 3038 1878 3038 
Q 2478 3038 2890 2622 
Q 3303 2206 3303 1553 
Q 3303 931 2941 478 
Q 2500 -78 1738 -78 
Q 1113 -78 717 272 
Q 322 622 266 1200 
z
" id="ArialMT-35" transform="scale(0.015625)"/>
       </defs>
       <use xlink:href="#ArialMT-35"/>
       <use x="55.615234" xlink:href="#ArialMT-30"/>
       <use x="111.230469" xlink:href="#ArialMT-30"/>
       <use x="166.845703" xlink:href="#ArialMT-30"/>
      </g>
     </g>
    </g>
    <g id="text_7">
     <!-- Time -->
     <g style="fill:#262626;" transform="translate(203.92375 287.255938)scale(0.16 -0.16)">
      <defs>
       <path d="M 1659 0 
L 1659 4041 
L 150 4041 
L 150 4581 
L 3781 4581 
L 3781 4041 
L 2266 4041 
L 2266 0 
L 1659 0 
z
" id="ArialMT-54" transform="scale(0.015625)"/>
       <path d="M 425 3934 
L 425 4581 
L 988 4581 
L 988 3934 
L 425 3934 
z
M 425 0 
L 425 3319 
L 988 3319 
L 988 0 
L 425 0 
z
" id="ArialMT-69" transform="scale(0.015625)"/>
       <path d="M 422 0 
L 422 3319 
L 925 3319 
L 925 2853 
Q 1081 3097 1340 3245 
Q 1600 3394 1931 3394 
Q 2300 3394 2536 3241 
Q 2772 3088 2869 2813 
Q 3263 3394 3894 3394 
Q 4388 3394 4653 3120 
Q 4919 2847 4919 2278 
L 4919 0 
L 4359 0 
L 4359 2091 
Q 4359 2428 4304 2576 
Q 4250 2725 4106 2815 
Q 3963 2906 3769 2906 
Q 3419 2906 3187 2673 
Q 2956 2441 2956 1928 
L 2956 0 
L 2394 0 
L 2394 2156 
Q 2394 2531 2256 2718 
Q 2119 2906 1806 2906 
Q 1569 2906 1367 2781 
Q 1166 2656 1075 2415 
Q 984 2175 984 1722 
L 984 0 
L 422 0 
z
" id="ArialMT-6d" transform="scale(0.015625)"/>
       <path d="M 2694 1069 
L 3275 997 
Q 3138 488 2766 206 
Q 2394 -75 1816 -75 
Q 1088 -75 661 373 
Q 234 822 234 1631 
Q 234 2469 665 2931 
Q 1097 3394 1784 3394 
Q 2450 3394 2872 2941 
Q 3294 2488 3294 1666 
Q 3294 1616 3291 1516 
L 816 1516 
Q 847 969 1125 678 
Q 1403 388 1819 388 
Q 2128 388 2347 550 
Q 2566 713 2694 1069 
z
M 847 1978 
L 2700 1978 
Q 2663 2397 2488 2606 
Q 2219 2931 1791 2931 
Q 1403 2931 1139 2672 
Q 875 2413 847 1978 
z
" id="ArialMT-65" transform="scale(0.015625)"/>
      </defs>
      <use xlink:href="#ArialMT-54"/>
      <use x="57.333984" xlink:href="#ArialMT-69"/>
      <use x="79.550781" xlink:href="#ArialMT-6d"/>
      <use x="162.851562" xlink:href="#ArialMT-65"/>
     </g>
    </g>
   </g>
   <g id="matplotlib.axis_2">
    <g id="ytick_1">
     <g id="line2d_7">
      <path clip-path="url(#p6a4ee00d02)" d="M 54 252 
L 388.8 252 
" style="fill:none;stroke:#cccccc;stroke-linecap:round;stroke-width:0.8;"/>
     </g>
     <g id="text_8">
      <!-- −2 -->
      <g style="fill:#262626;" transform="translate(31.037813 257.010469)scale(0.14 -0.14)">
       <defs>
        <path d="M 3381 1997 
L 356 1997 
L 356 2522 
L 3381 2522 
L 3381 1997 
z
" id="ArialMT-2212" transform="scale(0.015625)"/>
       </defs>
       <use xlink:href="#ArialMT-2212"/>
       <use x="58.398438" xlink:href="#ArialMT-32"/>
      </g>
     </g>
    </g>
    <g id="ytick_2">
     <g id="line2d_8">
      <path clip-path="url(#p6a4ee00d02)" d="M 54 197.64 
L 388.8 197.64 
" style="fill:none;stroke:#cccccc;stroke-linecap:round;stroke-width:0.8;"/>
     </g>
     <g id="text_9">
      <!-- −1 -->
      <g style="fill:#262626;" transform="translate(31.037813 202.650469)scale(0.14 -0.14)">
       <use xlink:href="#ArialMT-2212"/>
       <use x="58.398438" xlink:href="#ArialMT-31"/>
      </g>
     </g>
    </g>
    <g id="ytick_3">
     <g id="line2d_9">
      <path clip-path="url(#p6a4ee00d02)" d="M 54 143.28 
L 388.8 143.28 
" style="fill:none;stroke:#cccccc;stroke-linecap:round;stroke-width:0.8;"/>
     </g>
     <g id="text_10">
      <!-- 0 -->
      <g style="fill:#262626;" transform="translate(39.214687 148.290469)scale(0.14 -0.14)">
       <use xlink:href="#ArialMT-30"/>
      </g>
     </g>
    </g>
    <g id="ytick_4">
     <g id="line2d_10">
      <path clip-path="url(#p6a4ee00d02)" d="M 54 88.92 
L 388.8 88.92 
" style="fill:none;stroke:#cccccc;stroke-linecap:round;stroke-width:0.8;"/>
     </g>
     <g id="text_11">
      <!-- 1 -->
      <g style="fill:#262626;" transform="translate(39.214687 93.930469)scale(0.14 -0.14)">
       <use xlink:href="#ArialMT-31"/>
      </g>
     </g>
    </g>
    <g id="ytick_5">
     <g id="line2d_11">
      <path clip-path="url(#p6a4ee00d02)" d="M 54 34.56 
L 388.8 34.56 
" style="fill:none;stroke:#cccccc;stroke-linecap:round;stroke-width:0.8;"/>
     </g>
     <g id="text_12">
      <!-- 2 -->
      <g style="fill:#262626;" transform="translate(39.214687 39.570469)scale(0.14 -0.14)">
       <use xlink:href="#ArialMT-32"/>
      </g>
     </g>
    </g>
    <g id="text_13">
     <!-- Noise -->
     <g style="fill:#262626;" transform="translate(23.857813 163.7325)rotate(-90)scale(0.16 -0.16)">
      <defs>
       <path d="M 488 0 
L 488 4581 
L 1109 4581 
L 3516 984 
L 3516 4581 
L 4097 4581 
L 4097 0 
L 3475 0 
L 1069 3600 
L 1069 0 
L 488 0 
z
" id="ArialMT-4e" transform="scale(0.015625)"/>
       <path d="M 213 1659 
Q 213 2581 725 3025 
Q 1153 3394 1769 3394 
Q 2453 3394 2887 2945 
Q 3322 2497 3322 1706 
Q 3322 1066 3130 698 
Q 2938 331 2570 128 
Q 2203 -75 1769 -75 
Q 1072 -75 642 372 
Q 213 819 213 1659 
z
M 791 1659 
Q 791 1022 1069 705 
Q 1347 388 1769 388 
Q 2188 388 2466 706 
Q 2744 1025 2744 1678 
Q 2744 2294 2464 2611 
Q 2184 2928 1769 2928 
Q 1347 2928 1069 2612 
Q 791 2297 791 1659 
z
" id="ArialMT-6f" transform="scale(0.015625)"/>
       <path d="M 197 991 
L 753 1078 
Q 800 744 1014 566 
Q 1228 388 1613 388 
Q 2000 388 2187 545 
Q 2375 703 2375 916 
Q 2375 1106 2209 1216 
Q 2094 1291 1634 1406 
Q 1016 1563 777 1677 
Q 538 1791 414 1992 
Q 291 2194 291 2438 
Q 291 2659 392 2848 
Q 494 3038 669 3163 
Q 800 3259 1026 3326 
Q 1253 3394 1513 3394 
Q 1903 3394 2198 3281 
Q 2494 3169 2634 2976 
Q 2775 2784 2828 2463 
L 2278 2388 
Q 2241 2644 2061 2787 
Q 1881 2931 1553 2931 
Q 1166 2931 1000 2803 
Q 834 2675 834 2503 
Q 834 2394 903 2306 
Q 972 2216 1119 2156 
Q 1203 2125 1616 2013 
Q 2213 1853 2448 1751 
Q 2684 1650 2818 1456 
Q 2953 1263 2953 975 
Q 2953 694 2789 445 
Q 2625 197 2315 61 
Q 2006 -75 1616 -75 
Q 969 -75 630 194 
Q 291 463 197 991 
z
" id="ArialMT-73" transform="scale(0.015625)"/>
      </defs>
      <use xlink:href="#ArialMT-4e"/>
      <use x="72.216797" xlink:href="#ArialMT-6f"/>
      <use x="127.832031" xlink:href="#ArialMT-69"/>
      <use x="150.048828" xlink:href="#ArialMT-73"/>
      <use x="200.048828" xlink:href="#ArialMT-65"/>
     </g>
    </g>
   </g>
   <g id="line2d_12">
    <path clip-path="url(#p6a4ee00d02)" d="M 69.218182 144.779366 
L 69.339952 144.960835 
L 69.887916 155.245708 
L 70.131455 151.672038 
L 70.31411 150.209087 
L 70.374995 150.499473 
L 70.496765 152.540149 
L 70.55765 152.096909 
L 70.67942 153.290939 
L 70.740304 150.529739 
L 70.801189 151.232718 
L 70.862074 151.77386 
L 70.983844 148.057808 
L 71.044729 148.678788 
L 71.105614 148.830496 
L 71.288269 145.261404 
L 71.410038 148.380243 
L 71.470923 148.181154 
L 71.531808 147.383343 
L 71.592693 147.495075 
L 71.714463 148.70188 
L 71.775348 146.821514 
L 71.836233 149.345455 
L 71.958003 146.145321 
L 72.018887 146.635939 
L 72.323312 141.28018 
L 72.445082 142.740766 
L 72.505967 142.162693 
L 72.566852 138.546723 
L 72.627736 141.819192 
L 72.688621 141.466239 
L 72.749506 141.954229 
L 72.993046 148.893285 
L 73.236585 143.985367 
L 73.29747 144.559881 
L 73.480125 142.33626 
L 73.601895 146.925673 
L 73.78455 142.6507 
L 73.906319 145.633804 
L 73.967204 143.727428 
L 74.271629 146.506706 
L 74.332514 146.203099 
L 74.576053 143.23139 
L 74.697823 146.896614 
L 74.758708 146.594745 
L 74.880478 144.897585 
L 74.941363 146.067054 
L 75.124018 142.249494 
L 75.245787 138.124026 
L 75.367557 133.103898 
L 75.428442 133.335614 
L 75.550212 135.001843 
L 75.854636 125.931854 
L 76.037291 130.688429 
L 76.341716 120.520757 
L 76.463485 123.702802 
L 76.52437 127.253559 
L 76.585255 126.633008 
L 76.707025 125.284962 
L 76.76791 125.913673 
L 76.828795 127.095624 
L 76.88968 126.652233 
L 77.072334 122.989249 
L 77.133219 124.247566 
L 77.498529 133.454607 
L 77.559414 132.284315 
L 77.620299 129.943692 
L 77.681184 132.106368 
L 77.742068 131.384928 
L 77.802953 131.643059 
L 77.863838 132.444076 
L 78.229148 121.659932 
L 78.350917 121.772251 
L 78.655342 130.389682 
L 78.716227 130.056941 
L 78.837997 127.883478 
L 78.959766 131.416805 
L 79.020651 131.371013 
L 79.203306 133.493397 
L 79.325076 140.33581 
L 79.446846 138.5097 
L 79.6295 141.046479 
L 79.690385 140.975945 
L 79.812155 137.675062 
L 79.87304 138.469579 
L 79.933925 137.543199 
L 80.055695 138.743639 
L 80.11658 138.24181 
L 80.177465 138.962709 
L 80.360119 136.180627 
L 80.542774 138.883525 
L 80.664544 135.72769 
L 80.725429 139.903304 
L 80.786314 138.899989 
L 80.968968 141.649514 
L 81.029853 141.097056 
L 81.334278 149.620619 
L 81.456048 147.673641 
L 81.577817 145.108938 
L 81.760472 147.176126 
L 82.004012 142.223452 
L 82.186666 146.224926 
L 82.369321 141.371694 
L 82.430206 141.755726 
L 82.551976 144.721455 
L 82.734631 139.221934 
L 82.795515 143.00304 
L 82.8564 140.949687 
L 82.97817 137.799623 
L 83.039055 139.689724 
L 83.09994 139.663949 
L 83.282595 136.273947 
L 83.34348 136.248836 
L 83.526134 132.994992 
L 83.708789 135.477844 
L 83.769674 133.311256 
L 84.074098 141.115563 
L 84.195868 137.657777 
L 84.378523 139.694699 
L 84.500293 136.316914 
L 84.561178 137.912432 
L 84.682947 134.742168 
L 84.865602 137.308563 
L 84.926487 138.17349 
L 84.987372 136.32179 
L 85.048257 137.6537 
L 85.352681 132.880175 
L 85.474451 133.046503 
L 85.535336 133.405946 
L 85.657106 135.422502 
L 85.717991 134.459512 
L 85.839761 137.898113 
L 85.900646 137.093671 
L 85.96153 134.517878 
L 86.022415 135.964894 
L 86.0833 137.255927 
L 86.20507 133.591406 
L 86.44861 140.708677 
L 86.813919 133.794693 
L 86.874804 131.279124 
L 86.935689 131.788291 
L 86.996574 131.34013 
L 87.057459 129.396759 
L 87.118344 130.089858 
L 87.179229 129.807167 
L 87.361883 130.824695 
L 87.422768 130.164473 
L 87.483653 130.323347 
L 87.544538 130.594615 
L 87.727193 126.03695 
L 87.788078 128.02349 
L 87.848963 127.329001 
L 87.909847 124.701764 
L 87.970732 126.299116 
L 88.031617 126.402153 
L 88.153387 133.485297 
L 88.275157 133.396136 
L 88.336042 132.989734 
L 88.396927 131.683175 
L 88.457812 133.77628 
L 88.518696 132.499812 
L 88.579581 130.635654 
L 88.640466 131.398016 
L 88.701351 132.183701 
L 88.762236 130.791432 
L 88.823121 131.438395 
L 88.944891 133.851074 
L 89.005776 133.252351 
L 89.18843 130.403714 
L 89.3102 131.991801 
L 89.43197 135.823447 
L 89.614625 139.42776 
L 90.162589 125.799321 
L 90.223474 127.607992 
L 90.284359 125.70262 
L 90.345244 127.688048 
L 90.406128 126.796163 
L 90.467013 127.194768 
L 90.527898 125.465884 
L 90.588783 125.974746 
L 90.649668 125.823097 
L 90.832323 132.619187 
L 90.954093 129.525032 
L 91.075862 132.491208 
L 91.136747 131.246076 
L 91.258517 135.860102 
L 91.319402 134.703946 
L 91.684711 120.912764 
L 91.745596 119.81082 
L 91.989136 127.174937 
L 92.110906 126.676166 
L 92.171791 124.828455 
L 92.354445 131.472019 
L 92.41533 130.639966 
L 92.476215 130.88588 
L 92.597985 133.652189 
L 92.65887 133.189611 
L 92.719755 131.153582 
L 92.841525 134.087878 
L 92.90241 132.055782 
L 93.024179 134.639518 
L 93.085064 134.368788 
L 93.145949 136.838424 
L 93.206834 135.819147 
L 93.328604 131.79091 
L 93.389489 131.505592 
L 93.511259 132.573364 
L 93.572144 132.547867 
L 93.693913 137.298972 
L 93.754798 136.70713 
L 93.815683 136.048193 
L 94.059223 143.072678 
L 94.120108 142.526669 
L 94.180993 143.116411 
L 94.241877 141.381938 
L 94.302762 141.531138 
L 94.546302 148.134635 
L 94.668072 145.448073 
L 94.850727 148.662282 
L 94.911611 149.520419 
L 94.972496 149.038712 
L 95.276921 144.866511 
L 95.337806 145.331372 
L 95.398691 145.02087 
L 95.459576 143.397673 
L 95.64223 150.951259 
L 95.703115 150.436371 
L 95.764 152.659335 
L 95.824885 152.418365 
L 95.88577 152.685993 
L 95.946655 153.566803 
L 96.068425 151.500513 
L 96.190194 153.410725 
L 96.251079 151.487869 
L 96.311964 152.121637 
L 96.372849 151.489036 
L 96.555504 155.741759 
L 96.616389 155.020361 
L 96.677274 151.509393 
L 96.738159 152.071914 
L 96.799043 152.78613 
L 96.859928 151.772117 
L 96.920813 152.808438 
L 96.981698 150.082812 
L 97.042583 153.629574 
L 97.103468 152.579867 
L 97.225238 154.344924 
L 97.347008 151.768779 
L 97.407892 153.922361 
L 97.529662 149.958547 
L 97.590547 152.752531 
L 97.651432 152.502589 
L 97.834087 151.281395 
L 97.955857 152.094188 
L 98.077626 150.424734 
L 98.138511 150.625822 
L 98.199396 150.403374 
L 98.442936 147.797966 
L 98.503821 147.878764 
L 98.564706 147.37279 
L 98.625591 145.719021 
L 98.686475 145.963329 
L 98.808245 147.219963 
L 98.86913 147.689842 
L 98.930015 149.994097 
L 99.051785 144.181686 
L 99.173555 144.493894 
L 99.295325 144.703848 
L 99.417094 145.288729 
L 99.477979 144.6744 
L 99.538864 144.883233 
L 99.660634 145.454633 
L 99.782404 144.270864 
L 99.843289 144.380738 
L 99.904174 142.089921 
L 99.965058 143.816788 
L 100.025943 143.945448 
L 100.269483 136.106522 
L 100.391253 138.002075 
L 100.573908 134.458972 
L 100.634792 135.742642 
L 100.878332 131.310094 
L 100.939217 131.843237 
L 101.000102 131.471022 
L 101.060987 131.064192 
L 101.121872 133.739245 
L 101.182757 133.680305 
L 101.304526 131.119958 
L 101.426296 134.202431 
L 101.487181 134.097536 
L 101.548066 134.69403 
L 101.730721 131.031548 
L 101.791606 132.090406 
L 101.85249 132.715608 
L 101.913375 131.964639 
L 102.035145 136.709872 
L 102.09603 135.222868 
L 102.156915 137.588936 
L 102.2178 137.167802 
L 102.33957 134.982821 
L 102.400455 135.51381 
L 102.522224 136.962428 
L 102.643994 134.732968 
L 102.826649 129.940206 
L 102.887534 130.572802 
L 102.948419 130.193349 
L 103.131073 134.880701 
L 103.191958 134.622062 
L 103.252843 134.401492 
L 103.313728 133.733641 
L 103.557268 137.645926 
L 103.618153 137.515124 
L 103.679038 137.496494 
L 103.739923 138.798573 
L 103.800807 137.909316 
L 103.861692 136.350279 
L 103.922577 137.248134 
L 103.983462 138.441039 
L 104.044347 137.548043 
L 104.166117 137.741217 
L 104.227002 139.172998 
L 104.348772 135.936881 
L 104.409656 138.381568 
L 104.470541 137.212845 
L 104.531426 137.636513 
L 104.592311 136.858665 
L 104.714081 139.217368 
L 104.896736 146.127483 
L 104.957621 143.730747 
L 105.018506 140.527416 
L 105.07939 141.445495 
L 105.262045 145.632685 
L 105.4447 139.247835 
L 105.688239 148.025114 
L 105.870894 151.302363 
L 105.931779 149.074785 
L 106.114434 152.918289 
L 106.175319 153.264332 
L 106.479743 161.240561 
L 106.540628 158.619104 
L 106.601513 160.306657 
L 106.662398 160.150113 
L 106.845053 164.10201 
L 106.905938 163.02536 
L 106.966822 161.21701 
L 107.393017 172.607344 
L 107.514787 171.391077 
L 107.697441 174.879101 
L 107.758326 174.123641 
L 107.940981 177.448726 
L 108.001866 178.097647 
L 108.123636 176.108996 
L 108.184521 176.381697 
L 108.245405 176.294273 
L 108.367175 177.511435 
L 108.42806 176.907391 
L 108.610715 178.471875 
L 108.79337 175.703493 
L 108.915139 177.283238 
L 109.097794 182.119002 
L 109.158679 180.73522 
L 109.219564 181.226463 
L 109.280449 180.521336 
L 109.523988 188.889963 
L 109.584873 187.333544 
L 109.706643 189.581925 
L 109.767528 189.397858 
L 109.828413 188.753353 
L 109.889298 188.831807 
L 110.071953 191.187682 
L 110.132837 191.934555 
L 110.193722 189.279482 
L 110.254607 189.735494 
L 110.376377 192.963964 
L 110.437262 189.492893 
L 110.498147 189.893984 
L 110.619917 194.078398 
L 110.680802 192.126221 
L 110.741687 193.363383 
L 110.802571 193.486232 
L 110.863456 192.440074 
L 111.167881 198.594008 
L 111.472305 190.602746 
L 111.594075 191.426586 
L 111.65496 191.80896 
L 111.837615 187.549533 
L 112.02027 193.014538 
L 112.081154 192.093464 
L 112.142039 193.157266 
L 112.446464 189.150113 
L 112.629119 195.782797 
L 112.690003 197.387493 
L 112.750888 196.496327 
L 112.811773 196.035342 
L 112.872658 196.454594 
L 112.994428 199.89365 
L 113.055313 199.502317 
L 113.116198 199.250557 
L 113.177083 199.916048 
L 113.237968 199.703888 
L 113.298852 198.45923 
L 113.359737 201.862571 
L 113.420622 201.726628 
L 113.603277 200.904261 
L 113.725047 196.771842 
L 113.907702 199.271742 
L 113.968586 199.299262 
L 114.151241 202.410289 
L 114.273011 199.877983 
L 114.455666 206.129627 
L 114.516551 206.82839 
L 114.577435 204.907538 
L 114.63832 206.029763 
L 114.76009 203.41556 
L 114.88186 199.836814 
L 114.942745 200.083138 
L 115.00363 203.508091 
L 115.064515 202.60041 
L 115.1254 202.737121 
L 115.186285 202.672948 
L 115.247169 201.61854 
L 115.308054 202.534951 
L 115.429824 198.991831 
L 115.490709 200.093794 
L 115.551594 202.899384 
L 115.612479 200.914827 
L 115.673364 200.708543 
L 116.038673 196.491449 
L 116.221328 190.389519 
L 116.282213 192.694684 
L 116.343098 191.694092 
L 116.403983 192.339812 
L 116.769292 203.460329 
L 116.830177 201.087525 
L 116.891062 201.754926 
L 117.012832 203.279707 
L 117.073717 202.573979 
L 117.195486 198.999744 
L 117.256371 200.857163 
L 117.317256 199.819801 
L 117.499911 197.66966 
L 117.560796 198.364706 
L 117.621681 197.403334 
L 117.682566 197.719726 
L 117.743451 197.269917 
L 118.047875 203.513089 
L 118.23053 200.283744 
L 118.291415 198.940415 
L 118.3523 199.675518 
L 118.413184 199.336684 
L 118.534954 200.29469 
L 118.717609 206.291351 
L 118.778494 206.96002 
L 118.839379 205.508625 
L 119.022033 208.402849 
L 119.082918 207.577896 
L 119.143803 207.876439 
L 119.265573 210.414509 
L 119.326458 209.908546 
L 119.509113 215.995435 
L 119.569998 216.990118 
L 119.630883 216.720902 
L 119.691767 216.39724 
L 119.935307 212.671073 
L 119.996192 212.528355 
L 120.117962 208.311877 
L 120.300616 212.647758 
L 120.361501 213.29126 
L 120.605041 210.890964 
L 120.665926 210.982702 
L 121.031235 221.098723 
L 121.09212 220.739008 
L 121.33566 213.987373 
L 121.396545 213.628848 
L 121.45743 211.087007 
L 121.518315 212.413898 
L 121.579199 211.481894 
L 121.640084 213.002467 
L 121.700969 210.691078 
L 121.761854 210.955763 
L 121.822739 210.971181 
L 121.944509 214.941919 
L 122.005394 213.587218 
L 122.066279 214.794397 
L 122.248933 212.008404 
L 122.309818 212.066993 
L 122.675128 203.875821 
L 122.796898 204.588993 
L 123.101322 213.168959 
L 123.162207 210.489026 
L 123.223092 211.915168 
L 123.344862 213.870779 
L 123.405747 212.881449 
L 123.466632 212.658695 
L 123.527516 214.121379 
L 123.649286 211.013572 
L 123.710171 211.235746 
L 123.771056 210.13463 
L 123.831941 210.377813 
L 123.892826 212.153828 
L 123.953711 211.087142 
L 124.075481 213.442606 
L 124.31902 209.703351 
L 124.379905 210.179296 
L 124.56256 206.057306 
L 124.623445 206.867655 
L 124.68433 206.081595 
L 124.927869 210.210766 
L 125.049639 213.255994 
L 125.110524 212.220906 
L 125.232294 214.706244 
L 125.293179 210.950724 
L 125.354064 212.957039 
L 125.536718 210.783773 
L 125.597603 211.04725 
L 125.658488 211.734413 
L 125.841143 210.461107 
L 126.023797 212.787476 
L 126.084682 210.460397 
L 126.267337 214.117449 
L 126.328222 214.180495 
L 126.389107 214.541961 
L 126.449992 215.659724 
L 126.510877 213.312859 
L 126.571762 213.497442 
L 126.632647 214.422514 
L 126.693531 213.368816 
L 126.876186 216.282109 
L 126.937071 216.979837 
L 127.058841 214.564455 
L 127.119726 214.947201 
L 127.180611 214.57724 
L 127.241496 214.999541 
L 127.485035 221.50509 
L 127.54592 222.528668 
L 127.606805 222.067927 
L 127.850345 216.06043 
L 127.91123 216.642865 
L 127.972114 217.107617 
L 128.154769 221.02262 
L 128.215654 221.275653 
L 128.276539 216.26582 
L 128.337424 216.757576 
L 128.398309 215.662707 
L 128.459194 216.391234 
L 128.580963 219.318699 
L 128.763618 215.94924 
L 128.824503 216.91862 
L 128.885388 215.131306 
L 129.128928 220.379903 
L 129.494237 215.489265 
L 129.676892 210.703679 
L 129.737777 211.991657 
L 129.798662 211.732467 
L 129.859546 211.558575 
L 130.407511 219.651402 
L 130.468395 218.133288 
L 130.52928 218.861686 
L 130.65105 218.961479 
L 130.833705 221.869346 
L 130.89459 219.355808 
L 131.077245 224.158341 
L 131.259899 222.468254 
L 131.320784 222.941151 
L 131.381669 224.631865 
L 131.442554 218.65552 
L 131.503439 218.898311 
L 131.564324 219.472119 
L 131.625209 217.758431 
L 131.686094 218.765301 
L 131.746978 219.849148 
L 131.807863 219.800791 
L 131.990518 217.957762 
L 132.173173 221.583586 
L 132.294943 218.508381 
L 132.355828 219.197094 
L 132.416712 220.075181 
L 132.660252 214.987686 
L 132.782022 212.683166 
L 132.842907 213.42303 
L 133.086446 207.609219 
L 133.390871 213.178397 
L 133.512641 210.532549 
L 133.634411 215.724805 
L 133.695295 212.100405 
L 133.75618 213.474212 
L 133.817065 213.663383 
L 133.87795 212.897145 
L 133.99972 214.630712 
L 134.060605 213.458488 
L 134.12149 214.236047 
L 134.182375 213.916003 
L 134.425914 221.459647 
L 134.486799 221.431399 
L 134.608569 217.359024 
L 134.669454 217.381924 
L 134.730339 218.333875 
L 134.791224 217.620395 
L 134.852109 217.990561 
L 134.973878 216.547945 
L 135.095648 219.461089 
L 135.156533 218.425452 
L 135.217418 219.775022 
L 135.278303 219.097627 
L 135.339188 217.760832 
L 135.400073 218.071217 
L 135.704497 225.839896 
L 135.765382 223.517413 
L 135.826267 225.431798 
L 136.008922 228.56458 
L 136.130692 230.898285 
L 136.374231 226.11211 
L 136.435116 225.74933 
L 136.496001 226.965304 
L 136.617771 224.44926 
L 136.678656 224.342121 
L 136.739541 224.926135 
L 136.800426 223.353567 
L 136.98308 230.635425 
L 137.34839 237.912282 
L 137.470159 236.803709 
L 137.531044 239.382617 
L 137.713699 234.272397 
L 137.774584 235.84359 
L 138.018124 229.403779 
L 138.079009 230.687995 
L 138.322548 225.291876 
L 138.383433 225.68083 
L 138.444318 229.716462 
L 138.505203 228.112118 
L 138.566088 228.587611 
L 138.687858 226.344752 
L 139.114052 232.975423 
L 139.235822 229.765222 
L 139.296707 229.989455 
L 139.357592 228.074621 
L 139.540246 231.724552 
L 139.662016 230.270626 
L 139.722901 227.144133 
L 139.783786 227.813997 
L 139.844671 226.988757 
L 139.905556 224.235226 
L 139.966441 225.415546 
L 140.08821 224.48813 
L 140.149095 224.885019 
L 140.33175 222.764757 
L 140.392635 221.797078 
L 140.45352 222.202683 
L 140.514405 222.402475 
L 140.57529 219.214663 
L 140.636175 219.693088 
L 140.879714 223.337762 
L 140.940599 222.400176 
L 141.001484 222.617774 
L 141.062369 222.588097 
L 141.184139 220.526271 
L 141.366793 224.503721 
L 141.732103 217.452024 
L 141.975642 223.760019 
L 142.036527 227.744286 
L 142.097412 225.574217 
L 142.158297 224.938828 
L 142.340952 229.429058 
L 142.767146 237.10143 
L 142.828031 235.486655 
L 143.071571 241.058597 
L 143.31511 235.76399 
L 143.375995 237.090563 
L 143.497765 235.70521 
L 143.55865 235.507706 
L 143.741305 238.429461 
L 143.80219 238.795692 
L 143.863074 235.719431 
L 143.923959 236.686874 
L 143.984844 235.764786 
L 144.045729 236.739258 
L 144.106614 235.168681 
L 144.167499 236.113518 
L 144.228384 235.121975 
L 144.289269 235.446457 
L 144.350154 235.478057 
L 144.532808 234.181143 
L 144.593693 235.616527 
L 144.654578 234.910972 
L 144.715463 234.109102 
L 144.776348 234.712212 
L 144.837233 235.368741 
L 144.959003 232.608374 
L 145.019888 233.01119 
L 145.263427 237.164975 
L 145.385197 236.169605 
L 145.446082 236.930666 
L 145.506967 236.052181 
L 145.567852 236.564156 
L 145.628737 237.918714 
L 145.689622 237.787609 
L 145.750506 234.62728 
L 145.811391 236.482609 
L 146.237586 242.469358 
L 146.359356 240.738543 
L 146.42024 241.317797 
L 146.481125 239.584375 
L 146.66378 248.23535 
L 146.78555 247.148064 
L 147.029089 248.854049 
L 147.089974 247.942941 
L 147.150859 250.773228 
L 147.272629 244.789473 
L 147.333514 244.881314 
L 147.516169 243.896118 
L 147.698823 246.462677 
L 148.125018 238.937006 
L 148.307672 241.971404 
L 148.490327 236.996235 
L 148.733867 242.415606 
L 148.794752 241.76149 
L 148.855637 240.203686 
L 148.916521 240.862642 
L 148.977406 242.122283 
L 149.038291 239.167857 
L 149.099176 241.446876 
L 149.220946 240.029839 
L 149.464486 244.2368 
L 149.586255 243.922096 
L 149.64714 242.541032 
L 149.829795 245.788272 
L 149.951565 247.356878 
L 150.01245 246.924847 
L 150.073335 250.254293 
L 150.13422 249.693568 
L 150.499529 244.949255 
L 150.621299 248.524152 
L 150.682184 247.294914 
L 150.803954 250.136278 
L 150.864838 247.243725 
L 150.925723 247.905491 
L 150.986608 248.332848 
L 151.047493 250.399505 
L 151.108378 249.114317 
L 151.351918 242.236772 
L 151.595457 244.205342 
L 151.778112 240.532436 
L 151.838997 240.886022 
L 152.021652 237.567758 
L 152.082537 238.562583 
L 152.143421 235.489751 
L 152.204306 236.629855 
L 152.265191 238.159754 
L 152.326076 236.962199 
L 152.386961 237.651718 
L 152.569616 232.028018 
L 152.630501 232.677266 
L 152.934925 242.547285 
L 152.99581 240.768069 
L 153.056695 241.710308 
L 153.361119 239.044631 
L 153.422004 241.202914 
L 153.482889 240.705508 
L 153.543774 241.34771 
L 153.726429 238.808321 
L 153.787314 240.128911 
L 153.848199 237.615593 
L 153.969969 242.518399 
L 154.030853 242.167281 
L 154.335278 238.268549 
L 154.396163 239.125873 
L 154.517933 241.861448 
L 154.578818 241.879858 
L 154.761472 239.976407 
L 154.944127 241.464271 
L 155.005012 241.22187 
L 155.126782 241.545295 
L 155.187667 241.449158 
L 155.370321 245.441816 
L 155.431206 248.957003 
L 155.492091 248.107412 
L 155.552976 246.18181 
L 155.613861 248.17191 
L 155.674746 246.660429 
L 155.796516 242.517022 
L 155.857401 243.998368 
L 155.918285 245.895226 
L 156.161825 239.793688 
L 156.22271 239.279797 
L 156.283595 239.576606 
L 156.34448 239.653869 
L 156.46625 240.74595 
L 156.527135 239.040155 
L 156.648904 243.385623 
L 156.709789 243.25582 
L 156.770674 243.857895 
L 156.892444 242.581845 
L 157.075099 245.988742 
L 157.318638 240.317825 
L 157.623063 246.487513 
L 157.683948 246.261566 
L 157.744833 247.19939 
L 157.805718 246.934224 
L 157.866602 247.282866 
L 158.231912 239.601851 
L 158.292797 240.788538 
L 158.475451 234.679288 
L 158.658106 238.603829 
L 158.901646 233.139924 
L 159.023416 235.199441 
L 159.0843 234.962691 
L 159.32784 229.67094 
L 159.388725 232.322291 
L 159.44961 231.981712 
L 159.57138 226.987769 
L 159.69315 228.155044 
L 159.814919 229.978454 
L 160.058459 226.720733 
L 160.119344 226.806 
L 160.180229 225.718835 
L 160.241114 228.528368 
L 160.301999 227.839352 
L 160.362883 228.309581 
L 160.423768 226.936138 
L 160.484653 227.430374 
L 160.545538 229.270649 
L 160.606423 227.753983 
L 160.667308 225.57979 
L 160.728193 228.286557 
L 160.849963 225.656823 
L 160.910848 225.429045 
L 161.032617 222.646519 
L 161.154387 225.432665 
L 161.215272 224.609729 
L 161.397927 220.352054 
L 161.458812 221.22048 
L 161.641466 226.979225 
L 161.885006 222.657757 
L 161.945891 224.371781 
L 162.067661 218.543225 
L 162.128546 220.922967 
L 162.189431 220.509961 
L 162.250316 220.185279 
L 162.3112 220.404429 
L 162.55474 214.493334 
L 162.737395 219.15818 
L 162.79828 218.005735 
L 162.920049 222.179234 
L 163.224474 211.160427 
L 163.589783 217.458299 
L 163.650668 216.664026 
L 163.711553 215.174109 
L 163.772438 216.380367 
L 163.894208 217.619138 
L 164.076863 215.941554 
L 164.198632 219.051023 
L 164.259517 218.016784 
L 164.320402 218.408158 
L 164.381287 217.649601 
L 164.503057 219.756171 
L 164.563942 218.348318 
L 164.746597 220.934171 
L 164.807481 219.797611 
L 164.868366 220.528721 
L 165.051021 218.277406 
L 165.172791 220.696293 
L 165.355446 214.765792 
L 165.65987 220.077441 
L 165.78164 218.098432 
L 166.086064 212.843865 
L 166.207834 215.446897 
L 166.268719 214.502385 
L 166.512259 207.65484 
L 166.573144 208.889313 
L 166.694914 204.71591 
L 166.755798 206.767933 
L 166.816683 206.724069 
L 166.877568 203.65309 
L 166.938453 203.958517 
L 166.999338 204.789168 
L 167.060223 203.901067 
L 167.121108 204.124379 
L 167.181993 205.587452 
L 167.303763 202.281184 
L 167.364647 202.952507 
L 167.425532 203.815021 
L 167.547302 210.250343 
L 167.608187 209.142933 
L 167.669072 206.702559 
L 167.729957 207.801484 
L 167.851727 205.373906 
L 167.973497 208.010233 
L 168.034381 207.732816 
L 168.338806 201.142876 
L 168.399691 201.210929 
L 168.460576 197.921969 
L 168.521461 198.519741 
L 168.825885 195.696048 
L 169.00854 201.915001 
L 169.069425 204.256091 
L 169.13031 202.425823 
L 169.191195 200.821497 
L 169.495619 209.034155 
L 169.556504 209.317497 
L 169.617389 204.720022 
L 169.678274 205.303892 
L 169.739159 204.687444 
L 169.800044 205.340028 
L 169.860929 204.13526 
L 170.043583 207.282593 
L 170.287123 201.126248 
L 170.469778 202.628658 
L 170.652432 198.394074 
L 170.713317 198.824425 
L 171.139512 206.524752 
L 171.261281 207.272615 
L 171.322166 205.04489 
L 171.383051 205.898557 
L 171.443936 208.45871 
L 171.504821 207.178391 
L 171.626591 205.284041 
L 171.687476 205.647417 
L 171.809245 206.325399 
L 171.87013 205.849172 
L 172.35721 195.704438 
L 172.478979 197.264913 
L 172.539864 197.158509 
L 172.600749 199.119252 
L 172.722519 196.275611 
L 172.844289 198.986528 
L 172.905174 198.544906 
L 172.966059 194.877266 
L 173.026944 194.999791 
L 173.331368 201.750805 
L 173.453138 201.605286 
L 173.574908 198.241886 
L 173.635793 198.635234 
L 173.696678 196.869463 
L 173.757562 198.619099 
L 173.818447 196.767626 
L 173.879332 199.071585 
L 173.940217 196.567157 
L 174.001102 198.488784 
L 174.061987 198.460611 
L 174.122872 198.183518 
L 174.183757 198.27404 
L 174.305527 195.934994 
L 174.549066 201.346659 
L 174.609951 201.90634 
L 174.670836 200.759771 
L 174.731721 201.8385 
L 174.914376 200.226523 
L 174.975261 200.282417 
L 175.157915 201.608847 
L 175.2188 199.49175 
L 175.279685 202.08318 
L 175.34057 202.059315 
L 175.523225 200.461294 
L 175.705879 203.5724 
L 175.888534 198.815463 
L 175.949419 199.181911 
L 176.010304 199.989174 
L 176.071189 199.627937 
L 176.132074 198.68718 
L 176.192959 201.020745 
L 176.253843 200.037382 
L 176.314728 200.012558 
L 176.375613 200.42202 
L 176.497383 205.683155 
L 176.558268 203.79977 
L 176.862693 210.073941 
L 177.045347 207.284645 
L 177.228002 211.072705 
L 177.288887 212.049514 
L 177.410657 216.030101 
L 177.593311 211.088739 
L 177.654196 212.511286 
L 177.715081 209.535054 
L 177.775966 210.347178 
L 177.897736 208.972732 
L 177.958621 209.693362 
L 178.019506 212.310362 
L 178.080391 210.981503 
L 178.141276 211.126214 
L 178.32393 206.078448 
L 178.4457 202.306636 
L 178.56747 204.860994 
L 178.750125 199.8181 
L 179.176319 206.35636 
L 179.237204 205.152419 
L 179.358974 208.898183 
L 179.602513 202.383126 
L 179.663398 202.592147 
L 179.724283 202.087919 
L 179.846053 199.649757 
L 180.028708 201.560606 
L 180.150477 199.355181 
L 180.515787 207.190554 
L 180.637557 204.771952 
L 180.759326 207.169091 
L 180.881096 204.936604 
L 181.002866 205.657437 
L 181.063751 203.351398 
L 181.368175 212.476423 
L 181.42906 210.736417 
L 181.489945 211.187182 
L 181.611715 210.659918 
L 181.6726 211.982693 
L 181.91614 206.63578 
L 181.977024 208.228139 
L 182.037909 208.06198 
L 182.098794 208.19855 
L 182.403219 201.958203 
L 182.464104 201.985091 
L 182.646758 207.114319 
L 182.707643 206.594555 
L 182.768528 208.125145 
L 182.829413 207.390712 
L 182.951183 205.335937 
L 183.072953 206.395369 
L 183.133838 206.504549 
L 183.499147 200.918747 
L 183.560032 204.249042 
L 183.620917 203.833739 
L 183.681802 204.763542 
L 183.742687 204.186631 
L 183.925341 202.098734 
L 184.168881 209.933284 
L 184.229766 208.337684 
L 184.412421 203.973413 
L 184.473306 204.637135 
L 184.53419 205.624607 
L 184.65596 204.591102 
L 184.716845 205.234562 
L 184.77773 204.452157 
L 184.838615 201.86568 
L 184.8995 204.443547 
L 184.960385 199.153065 
L 185.02127 199.529097 
L 185.082155 201.64427 
L 185.14304 201.441244 
L 185.386579 194.007408 
L 185.508349 195.202733 
L 185.569234 193.548723 
L 185.630119 196.500419 
L 185.691004 195.608628 
L 185.751889 196.46234 
L 185.812773 193.605117 
L 185.873658 194.13952 
L 185.995428 194.321681 
L 186.056313 193.202091 
L 186.299853 196.064635 
L 186.543392 191.333897 
L 186.604277 190.585156 
L 186.665162 185.955457 
L 186.726047 186.857594 
L 186.786932 187.062554 
L 186.969587 185.165988 
L 187.030472 188.260746 
L 187.091356 186.615912 
L 187.152241 186.166962 
L 187.213126 186.510538 
L 187.274011 186.522672 
L 187.456666 184.303811 
L 187.700205 179.877753 
L 187.821975 183.111187 
L 188.1264 176.198496 
L 188.187285 176.54032 
L 188.430824 182.670731 
L 188.491709 182.560256 
L 188.552594 179.541841 
L 188.613479 179.917323 
L 188.674364 180.06021 
L 188.735249 179.518971 
L 188.796134 179.58841 
L 188.917904 179.65745 
L 189.161443 184.216819 
L 189.222328 182.920963 
L 189.283213 183.969627 
L 189.648522 189.432401 
L 189.709407 188.302016 
L 189.770292 188.657586 
L 189.831177 189.677348 
L 190.074717 187.099456 
L 190.135602 187.009375 
L 190.318256 192.224375 
L 190.379141 191.516175 
L 190.440026 189.938832 
L 190.744451 200.51572 
L 190.927105 195.860618 
L 190.98799 196.36635 
L 191.048875 196.873594 
L 191.23153 200.054894 
L 191.47507 187.726163 
L 191.535954 190.097433 
L 191.596839 189.716587 
L 191.718609 188.395342 
L 191.840379 185.536518 
L 191.962149 191.296219 
L 192.023034 189.306621 
L 192.266573 195.730717 
L 192.327458 195.307959 
L 192.692768 200.467799 
L 192.753653 200.102522 
L 192.814537 197.798202 
L 192.875422 198.820346 
L 192.936307 198.516401 
L 192.997192 199.55519 
L 193.179847 195.073082 
L 193.423386 199.701836 
L 193.606041 191.553163 
L 193.788696 193.774822 
L 193.849581 192.940986 
L 194.032236 196.174282 
L 194.09312 196.780014 
L 194.154005 199.575118 
L 194.21489 198.926866 
L 194.275775 199.034171 
L 194.33666 200.303566 
L 194.397545 198.480301 
L 194.5802 203.010474 
L 194.701969 200.305288 
L 194.762854 202.064632 
L 194.823739 201.095144 
L 195.006394 198.626752 
L 195.189049 203.656726 
L 195.249934 200.945538 
L 195.310819 201.500431 
L 195.432588 200.158139 
L 195.493473 203.207809 
L 195.554358 202.308875 
L 195.615243 203.283392 
L 195.676128 202.049095 
L 195.797898 205.416256 
L 195.858783 204.299441 
L 195.919668 206.00431 
L 196.345862 196.557043 
L 196.406747 198.641628 
L 196.467632 197.460246 
L 196.650286 194.64256 
L 196.772056 197.230066 
L 196.893826 195.665935 
L 196.954711 197.100863 
L 197.015596 194.504383 
L 197.076481 196.103635 
L 197.198251 196.856786 
L 197.259135 198.620885 
L 197.32002 197.406372 
L 197.380905 198.49052 
L 197.44179 197.985118 
L 197.502675 196.562029 
L 197.56356 198.008441 
L 197.624445 197.609497 
L 197.8071 193.467042 
L 197.928869 197.106283 
L 198.111524 194.199934 
L 198.172409 194.403844 
L 198.233294 193.410886 
L 198.294179 194.848469 
L 198.355064 193.883368 
L 198.537718 187.757631 
L 198.598603 188.257537 
L 198.781258 190.684657 
L 198.842143 190.856098 
L 198.963913 189.120037 
L 199.024798 189.506076 
L 199.085683 189.684598 
L 199.268337 191.610703 
L 199.329222 191.541756 
L 199.572762 187.563991 
L 199.633647 187.70902 
L 199.755417 183.01982 
L 199.816301 183.453427 
L 199.938071 185.270522 
L 199.998956 184.859934 
L 200.42515 174.536252 
L 200.486035 175.055812 
L 200.54692 174.928375 
L 200.607805 174.47338 
L 200.729575 175.962959 
L 200.851345 171.449533 
L 200.91223 171.965598 
L 200.973115 173.684492 
L 201.034 169.053719 
L 201.094884 171.049502 
L 201.155769 170.308835 
L 201.216654 170.767498 
L 201.277539 171.576278 
L 201.399309 170.145542 
L 201.581964 174.879966 
L 201.642849 174.680695 
L 201.825503 169.239577 
L 201.886388 171.161554 
L 202.251698 161.456714 
L 202.373467 164.717 
L 202.495237 156.918682 
L 202.556122 156.540109 
L 202.738777 150.870741 
L 202.799662 150.225743 
L 202.921432 155.739893 
L 202.982316 152.410732 
L 203.043201 153.241307 
L 203.347626 146.056982 
L 203.408511 150.567336 
L 203.469396 149.027527 
L 203.530281 148.997872 
L 203.591166 148.21643 
L 203.77382 151.7845 
L 203.956475 147.402934 
L 204.078245 144.801039 
L 204.200015 149.102859 
L 204.260899 146.456616 
L 204.321784 147.928539 
L 204.382669 146.390328 
L 204.626209 152.915205 
L 204.687094 150.028737 
L 204.747979 152.996508 
L 204.808864 151.915272 
L 204.930633 147.877298 
L 204.991518 145.407211 
L 205.052403 145.668466 
L 205.174173 146.960851 
L 205.356828 145.96668 
L 205.722137 155.073004 
L 205.783022 153.22991 
L 205.843907 153.796297 
L 206.026562 153.354575 
L 206.087447 153.969935 
L 206.148331 151.8835 
L 206.209216 153.699881 
L 206.270101 151.63617 
L 206.330986 151.843642 
L 206.391871 152.358933 
L 206.452756 151.905264 
L 206.513641 149.803232 
L 206.574526 150.067541 
L 206.635411 150.879503 
L 206.696296 150.637127 
L 206.757181 149.546825 
L 206.818065 150.044445 
L 206.939835 153.811515 
L 207.00072 152.419776 
L 207.24426 147.361574 
L 207.36603 146.046913 
L 207.426914 146.745474 
L 207.487799 144.261669 
L 207.548684 144.543954 
L 207.670454 145.265419 
L 207.853109 142.880547 
L 207.974879 139.151475 
L 208.035764 139.164317 
L 208.157533 140.42543 
L 208.401073 136.438675 
L 208.644613 132.054777 
L 208.827267 135.435418 
L 208.888152 134.979831 
L 208.949037 136.782553 
L 209.009922 136.437961 
L 209.131692 134.232468 
L 209.192577 134.32166 
L 209.375231 127.328321 
L 209.436116 128.223727 
L 209.497001 129.843151 
L 209.618771 127.925173 
L 209.679656 129.309421 
L 209.862311 123.888268 
L 209.923196 124.467178 
L 209.98408 122.924289 
L 210.044965 123.139939 
L 210.10585 123.348232 
L 210.288505 120.839006 
L 210.34939 117.672802 
L 210.410275 119.082349 
L 210.47116 120.138062 
L 210.532045 119.538207 
L 210.653814 119.142313 
L 210.775584 121.441144 
L 210.958239 119.447679 
L 211.019124 118.526398 
L 211.080009 119.449055 
L 211.201779 117.079885 
L 211.262663 117.108043 
L 211.323548 117.095921 
L 211.445318 121.102902 
L 211.506203 123.883102 
L 211.567088 123.454129 
L 211.627973 123.188267 
L 211.688858 124.976583 
L 211.871512 117.674796 
L 211.993282 118.578696 
L 212.115052 116.628187 
L 212.175937 118.902299 
L 212.236822 118.472926 
L 212.419477 116.835369 
L 212.602131 122.741597 
L 212.784786 124.858229 
L 213.21098 120.060983 
L 213.271865 120.055526 
L 213.45452 116.348802 
L 213.637175 114.108561 
L 213.69806 116.445433 
L 213.941599 111.518752 
L 214.124254 114.798354 
L 214.185139 115.594851 
L 214.306909 112.295232 
L 214.550448 118.025933 
L 214.611333 119.498983 
L 214.672218 118.846406 
L 214.733103 119.266698 
L 215.098412 126.235902 
L 215.281067 121.501178 
L 215.463722 120.342967 
L 215.707261 117.048792 
L 215.768146 113.904677 
L 215.829031 118.048014 
L 215.889916 117.302558 
L 215.950801 117.752138 
L 216.072571 116.46337 
L 216.133456 114.351937 
L 216.194341 117.235176 
L 216.255226 115.583452 
L 216.43788 117.82014 
L 216.498765 117.339674 
L 216.55965 116.160389 
L 216.620535 116.194911 
L 216.68142 116.181112 
L 216.742305 119.049654 
L 216.80319 115.552558 
L 216.985844 119.496146 
L 217.046729 121.400561 
L 217.107614 121.184281 
L 217.168499 121.051295 
L 217.229384 122.341731 
L 217.290269 121.730063 
L 217.412039 120.532554 
L 217.533809 120.878447 
L 217.777348 114.076572 
L 217.838233 112.788784 
L 217.960003 116.763867 
L 218.081773 116.6628 
L 218.142658 115.194439 
L 218.325312 118.377642 
L 218.386197 118.004209 
L 218.568852 113.285462 
L 218.751507 119.003575 
L 218.873276 116.719826 
L 219.177701 121.729175 
L 219.238586 120.158566 
L 219.360356 118.522341 
L 219.421241 120.49606 
L 219.482126 118.239827 
L 219.54301 118.513042 
L 219.603895 118.470314 
L 219.66478 119.263594 
L 219.725665 118.715007 
L 219.78655 118.687178 
L 219.90832 115.269303 
L 220.273629 118.936914 
L 220.334514 117.459191 
L 220.395399 118.316439 
L 220.699824 124.633761 
L 221.004248 113.562183 
L 221.065133 113.714946 
L 221.186903 115.223031 
L 221.308673 110.790057 
L 221.369558 111.677657 
L 221.430442 111.387754 
L 221.734867 104.072565 
L 221.795752 104.435283 
L 222.039291 106.771031 
L 222.343716 98.627319 
L 222.404601 98.952338 
L 222.587256 96.232499 
L 222.648141 95.927447 
L 222.709025 96.125116 
L 222.76991 96.072102 
L 222.952565 99.006952 
L 223.074335 98.984346 
L 223.25699 94.67942 
L 223.439644 98.456975 
L 223.500529 96.309678 
L 223.561414 99.606538 
L 223.622299 98.774812 
L 223.744069 100.541339 
L 223.865839 103.078526 
L 223.926724 101.976164 
L 223.987608 103.15344 
L 224.048493 102.524617 
L 224.109378 100.75946 
L 224.231148 103.931571 
L 224.292033 101.978553 
L 224.352918 102.855911 
L 224.413803 104.042428 
L 224.596457 99.28809 
L 224.657342 100.644026 
L 224.779112 98.873665 
L 224.900882 100.244309 
L 225.083537 95.943129 
L 225.144422 96.219152 
L 225.327076 89.334181 
L 225.448846 87.835362 
L 225.631501 89.11766 
L 225.692386 86.452108 
L 225.753271 87.041284 
L 225.814156 87.495173 
L 225.87504 86.057403 
L 225.935925 87.686429 
L 226.057695 83.924326 
L 226.11858 84.516954 
L 226.24035 83.350476 
L 226.301235 84.356484 
L 226.36212 83.621703 
L 226.423005 80.934621 
L 226.48389 81.284966 
L 226.544774 80.671618 
L 226.605659 78.7704 
L 226.666544 78.797911 
L 226.910084 80.708738 
L 226.970969 81.959805 
L 227.092739 76.597116 
L 227.153623 77.532865 
L 227.214508 75.102026 
L 227.275393 76.519558 
L 227.336278 76.998121 
L 227.397163 72.94761 
L 227.458048 73.736919 
L 227.579818 77.147027 
L 227.884242 69.02058 
L 228.127782 65.188178 
L 228.371322 72.507367 
L 228.432206 72.767498 
L 228.614861 76.13876 
L 228.675746 76.180693 
L 229.041055 80.597972 
L 229.162825 75.067783 
L 229.22371 77.354397 
L 229.284595 76.669354 
L 229.34548 74.77771 
L 229.406365 75.49336 
L 229.46725 75.76934 
L 229.528135 75.339944 
L 229.710789 82.511318 
L 229.771674 80.008792 
L 229.832559 81.48302 
L 229.893444 81.595406 
L 229.954329 82.826124 
L 230.015214 82.76893 
L 230.076099 82.809281 
L 230.197869 84.221352 
L 230.258754 82.262205 
L 230.319638 83.522563 
L 230.380523 82.870242 
L 230.441408 83.298687 
L 230.502293 84.835428 
L 230.563178 84.312063 
L 230.624063 82.278396 
L 230.684948 83.126569 
L 230.806718 84.0852 
L 230.867603 83.741927 
L 230.989372 87.058316 
L 231.172027 82.158337 
L 231.232912 81.963925 
L 231.476452 74.201186 
L 231.537337 75.962871 
L 231.598221 75.070373 
L 231.659106 74.733607 
L 231.719991 75.5408 
L 231.780876 74.135052 
L 231.963531 79.812574 
L 232.024416 79.031254 
L 232.146186 72.601938 
L 232.207071 74.744855 
L 232.267955 74.954533 
L 232.511495 69.007494 
L 232.81592 75.580343 
L 232.876804 74.889852 
L 233.181229 82.907999 
L 233.242114 85.503029 
L 233.302999 83.783642 
L 233.363884 84.840307 
L 233.424769 84.708672 
L 233.607423 82.731643 
L 233.668308 84.252237 
L 233.972733 76.458761 
L 234.033618 77.598347 
L 234.216272 74.901408 
L 234.277157 74.717152 
L 234.459812 76.884821 
L 234.642467 77.619913 
L 234.764236 74.420648 
L 234.946891 78.303769 
L 235.068661 76.785524 
L 235.190431 79.625358 
L 235.251316 79.045136 
L 235.373086 77.997698 
L 235.43397 78.570731 
L 235.55574 74.028009 
L 235.67751 77.445359 
L 235.79928 75.233806 
L 235.860165 76.737756 
L 235.92105 75.676929 
L 235.981935 75.03767 
L 236.042819 77.058666 
L 236.103704 76.585802 
L 236.225474 73.232681 
L 236.347244 73.811638 
L 236.529899 74.958307 
L 236.590784 73.036354 
L 236.773438 77.322857 
L 236.895208 74.792018 
L 236.956093 75.165277 
L 237.016978 75.664798 
L 237.321402 69.6647 
L 237.382287 70.478793 
L 237.504057 67.960214 
L 237.564942 68.380995 
L 237.625827 67.880648 
L 237.686712 67.993938 
L 237.808482 70.379618 
L 237.991136 67.300861 
L 238.052021 66.371387 
L 238.173791 69.945698 
L 238.234676 69.357125 
L 238.295561 70.460752 
L 238.356446 68.466323 
L 238.417331 69.713008 
L 238.478216 69.494709 
L 238.539101 67.601812 
L 238.78264 73.346618 
L 238.843525 73.043537 
L 239.087065 66.826215 
L 239.14795 67.502313 
L 239.330604 71.354188 
L 239.452374 65.46034 
L 239.574144 69.01519 
L 239.635029 68.684821 
L 239.695914 66.387589 
L 239.756799 68.802764 
L 240.000338 62.276323 
L 240.061223 62.863521 
L 240.122108 62.279115 
L 240.182993 63.038723 
L 240.243878 62.696068 
L 240.304763 62.019971 
L 240.487417 66.872537 
L 240.548302 66.799695 
L 240.609187 66.956212 
L 240.852727 72.638522 
L 241.035382 67.651061 
L 241.157151 67.749346 
L 241.278921 71.415172 
L 241.461576 66.345729 
L 241.522461 69.41584 
L 241.583346 68.960906 
L 241.705116 67.478158 
L 241.826885 70.910921 
L 241.88777 70.000446 
L 242.070425 75.924666 
L 242.192195 76.833968 
L 242.37485 73.58484 
L 242.618389 79.320694 
L 242.740159 78.180024 
L 243.044583 84.943285 
L 243.166353 84.591647 
L 243.531663 96.614826 
L 243.592548 93.444046 
L 243.653433 94.996937 
L 243.714317 93.461165 
L 243.896972 96.957495 
L 244.018742 97.377262 
L 244.201397 95.321762 
L 244.262282 96.439746 
L 244.323166 95.80163 
L 244.384051 96.486692 
L 244.444936 93.739074 
L 244.566706 96.498215 
L 244.627591 96.021399 
L 244.688476 96.333829 
L 244.810246 97.564186 
L 244.871131 96.827232 
L 244.932015 99.440053 
L 244.9929 97.770724 
L 245.053785 98.705534 
L 245.175555 95.618392 
L 245.23644 98.038409 
L 245.297325 97.654545 
L 245.419095 95.166053 
L 245.47998 92.338986 
L 245.540865 92.905178 
L 245.784404 96.704159 
L 245.845289 95.566885 
L 246.027944 98.367012 
L 246.393253 90.324161 
L 246.454138 92.011091 
L 246.758563 86.356624 
L 246.880332 88.244859 
L 246.941217 87.249046 
L 247.002102 89.580333 
L 247.062987 88.654347 
L 247.123872 88.772421 
L 247.184757 88.093423 
L 247.245642 91.562209 
L 247.306527 89.84423 
L 247.367412 88.266094 
L 247.428297 90.092469 
L 247.489181 89.641249 
L 247.671836 85.382743 
L 248.158915 99.231848 
L 248.2198 99.3805 
L 248.402455 105.20028 
L 248.46334 104.202522 
L 248.645995 107.323774 
L 248.70688 107.00043 
L 248.889534 103.702976 
L 248.950419 103.597837 
L 249.011304 106.595908 
L 249.072189 105.376417 
L 249.133074 105.084833 
L 249.193959 105.174557 
L 249.376614 108.420172 
L 249.559268 104.630143 
L 249.620153 105.199576 
L 249.681038 105.9543 
L 249.863693 100.907742 
L 249.924578 102.570726 
L 249.985463 104.599277 
L 250.107232 101.45444 
L 250.168117 102.890859 
L 250.229002 101.336029 
L 250.533427 106.179976 
L 250.594312 106.167331 
L 250.776966 110.192385 
L 250.837851 108.898007 
L 250.898736 108.930777 
L 250.959621 109.125709 
L 251.142276 110.125429 
L 251.32493 104.957722 
L 251.385815 106.171696 
L 251.4467 105.425351 
L 251.507585 100.618182 
L 251.56847 102.610744 
L 251.629355 103.217049 
L 251.751125 102.076141 
L 251.81201 102.551146 
L 251.994664 97.522434 
L 252.055549 97.795181 
L 252.177319 90.977209 
L 252.238204 91.953336 
L 252.299089 94.663196 
L 252.359974 93.784428 
L 252.481744 89.374779 
L 252.542629 89.859177 
L 252.603513 90.27765 
L 252.664398 89.636156 
L 252.786168 92.640932 
L 252.847053 92.542178 
L 252.968823 91.515362 
L 253.090593 88.199679 
L 253.395017 95.534325 
L 253.455902 93.618649 
L 253.516787 93.582759 
L 253.577672 95.490945 
L 253.638557 94.757523 
L 253.699442 93.713165 
L 253.882096 96.624934 
L 254.003866 95.871577 
L 254.064751 94.506881 
L 254.125636 94.590033 
L 254.247406 95.542978 
L 254.430061 91.471097 
L 254.490945 90.405999 
L 254.55183 91.245545 
L 254.612715 92.522679 
L 254.6736 91.684442 
L 254.734485 91.892481 
L 254.91714 95.095757 
L 254.978025 93.25447 
L 255.03891 94.248482 
L 255.099795 94.221486 
L 255.282449 96.475111 
L 255.404219 95.934178 
L 255.525989 97.119122 
L 255.830413 104.347555 
L 255.891298 101.58068 
L 256.013068 107.073621 
L 256.134838 104.046296 
L 256.195723 104.245386 
L 256.439262 95.641253 
L 256.500147 95.972101 
L 256.561032 98.331901 
L 256.682802 94.629182 
L 256.743687 96.054481 
L 256.804572 95.110063 
L 256.865457 95.172487 
L 256.987227 91.590752 
L 257.108996 93.993843 
L 257.169881 93.409629 
L 257.413421 89.587336 
L 257.474306 89.589687 
L 257.535191 89.243194 
L 257.717845 85.324062 
L 257.77873 87.147722 
L 257.839615 86.585104 
L 257.9005 86.320692 
L 258.083155 90.66965 
L 258.14404 90.904041 
L 258.204925 89.554531 
L 258.26581 90.060488 
L 258.326694 90.261823 
L 258.448464 88.522931 
L 258.752889 78.493407 
L 258.813774 80.485979 
L 258.935543 74.420865 
L 258.996428 75.513468 
L 259.057313 76.214422 
L 259.239968 82.388151 
L 259.300853 81.681186 
L 259.361738 78.906494 
L 259.544393 85.507903 
L 259.605277 85.55843 
L 259.666162 86.876232 
L 259.727047 86.320527 
L 259.787932 84.504529 
L 259.848817 85.351457 
L 259.909702 85.025807 
L 260.092357 89.319316 
L 260.214126 86.319808 
L 260.275011 83.91482 
L 260.335896 84.823181 
L 260.396781 85.220666 
L 260.822976 74.707324 
L 260.88386 75.458966 
L 261.00563 77.130623 
L 261.066515 76.80825 
L 261.1274 75.281978 
L 261.188285 75.634918 
L 261.24917 77.396552 
L 261.310055 76.847945 
L 261.37094 76.928824 
L 261.431825 79.463815 
L 261.614479 76.373675 
L 261.675364 76.406912 
L 261.736249 74.100324 
L 261.797134 75.139897 
L 261.858019 77.400312 
L 261.918904 76.741817 
L 261.979789 76.856448 
L 262.040674 75.418977 
L 262.162443 80.986125 
L 262.223328 79.863469 
L 262.284213 79.046509 
L 262.345098 81.75954 
L 262.405983 77.8645 
L 262.466868 78.429023 
L 262.649523 80.348857 
L 262.710408 80.419072 
L 262.771292 79.788052 
L 262.832177 80.957009 
L 262.893062 78.640005 
L 262.953947 79.181615 
L 263.075717 77.146414 
L 263.136602 78.679131 
L 263.258372 73.340361 
L 263.319257 74.043457 
L 263.562796 78.890451 
L 263.623681 75.73021 
L 263.745451 79.102595 
L 263.806336 76.924005 
L 263.867221 77.206343 
L 263.928106 77.385788 
L 263.988991 76.51435 
L 264.049875 78.266512 
L 264.171645 75.575401 
L 264.415185 82.005179 
L 264.59784 78.874843 
L 264.963149 87.78305 
L 265.024034 88.47299 
L 265.206689 84.2956 
L 265.511113 78.354586 
L 265.693768 83.012648 
L 265.754653 84.06194 
L 265.815538 83.539238 
L 265.937307 85.730124 
L 265.998192 85.025794 
L 266.119962 83.294964 
L 266.180847 86.409344 
L 266.241732 85.037927 
L 266.363502 87.358935 
L 266.607041 80.837869 
L 266.667926 80.063736 
L 266.728811 82.975906 
L 266.789696 82.195531 
L 266.972351 85.286565 
L 267.094121 83.525571 
L 267.155006 85.689655 
L 267.21589 83.967865 
L 267.276775 84.322226 
L 267.33766 83.568523 
L 267.398545 84.477859 
L 267.45943 81.012409 
L 267.520315 84.143507 
L 267.5812 80.504401 
L 267.642085 81.702045 
L 267.70297 81.980919 
L 267.946509 75.827512 
L 268.311819 85.695168 
L 268.372704 84.837353 
L 268.433589 85.309163 
L 268.494473 86.885671 
L 268.616243 82.251493 
L 268.738013 84.534218 
L 268.798898 83.733254 
L 269.164207 88.779926 
L 269.225092 87.808462 
L 269.285977 90.983751 
L 269.346862 90.244075 
L 269.468632 82.195565 
L 269.529517 82.679538 
L 269.590402 82.513487 
L 269.712172 83.418106 
L 269.773056 84.943245 
L 269.833941 83.690887 
L 270.016596 81.473947 
L 270.138366 85.327727 
L 270.199251 84.872761 
L 270.260136 81.631575 
L 270.321021 83.070229 
L 270.56456 88.945538 
L 270.8081 78.435996 
L 270.868985 79.331225 
L 270.92987 80.420205 
L 270.990755 76.260365 
L 271.051639 77.151815 
L 271.173409 74.729542 
L 271.295179 77.039493 
L 271.416949 75.197817 
L 271.599604 81.545527 
L 271.660488 81.407842 
L 271.782258 79.804588 
L 271.904028 82.673746 
L 271.964913 82.792204 
L 272.086683 86.445537 
L 272.147568 85.130813 
L 272.208453 85.272473 
L 272.269338 87.792158 
L 272.330222 84.41822 
L 272.391107 86.223715 
L 272.451992 88.069124 
L 272.512877 86.09523 
L 272.573762 87.174203 
L 272.695532 92.766578 
L 272.817302 89.1056 
L 272.878187 91.213132 
L 272.939071 89.562978 
L 272.999956 91.280547 
L 273.060841 90.172226 
L 273.182611 90.606311 
L 273.365266 87.327388 
L 273.608805 91.097515 
L 273.66969 89.117584 
L 273.730575 89.418789 
L 273.79146 89.422417 
L 273.852345 90.770285 
L 273.91323 95.227493 
L 273.974115 91.110181 
L 274.035 92.742659 
L 274.095885 92.842163 
L 274.522079 105.792282 
L 274.582964 105.199236 
L 274.643849 104.398233 
L 274.826503 100.130392 
L 274.887388 101.457161 
L 275.130928 96.831998 
L 275.191813 96.881177 
L 275.313583 100.787588 
L 275.374468 99.835073 
L 275.496237 100.219011 
L 275.557122 99.588875 
L 275.618007 101.2185 
L 275.678892 100.983667 
L 275.739777 99.93899 
L 275.800662 101.918432 
L 275.861547 100.385339 
L 275.922432 98.691628 
L 276.105086 102.569086 
L 276.165971 103.238312 
L 276.226856 101.691366 
L 276.348626 107.392543 
L 276.409511 107.242858 
L 276.592166 102.77495 
L 276.653051 101.405428 
L 276.713936 102.399345 
L 276.89659 104.992458 
L 276.957475 103.437842 
L 277.079245 107.021726 
L 277.14013 104.256254 
L 277.201015 106.043807 
L 277.444554 112.399338 
L 277.505439 110.717111 
L 277.566324 111.123869 
L 277.688094 114.813603 
L 277.931634 110.144958 
L 278.114288 111.509468 
L 278.236058 115.484393 
L 278.296943 114.018965 
L 278.418713 116.22231 
L 278.479598 114.446464 
L 278.540483 117.55473 
L 278.601368 116.1163 
L 278.662252 115.925335 
L 278.784022 117.96699 
L 278.844907 117.288996 
L 278.905792 120.144944 
L 278.966677 119.237657 
L 279.027562 118.006619 
L 279.088447 120.023836 
L 279.149332 118.921558 
L 279.210217 116.652816 
L 279.392871 122.512279 
L 279.453756 120.843125 
L 279.514641 121.619325 
L 279.575526 121.715367 
L 279.758181 119.948226 
L 279.879951 119.687375 
L 280.062605 124.409225 
L 280.24526 122.500459 
L 280.36703 124.743968 
L 280.549684 117.225709 
L 280.610569 117.910161 
L 280.793224 116.141171 
L 280.854109 116.625691 
L 280.975879 113.564186 
L 281.036764 114.268116 
L 281.219418 119.120084 
L 281.280303 118.910671 
L 281.523843 116.26777 
L 281.584728 116.300986 
L 281.706498 113.861991 
L 281.828267 114.398484 
L 281.889152 115.818614 
L 282.010922 113.585987 
L 282.193577 114.876833 
L 282.254462 114.117381 
L 282.437117 120.626895 
L 282.558886 121.426552 
L 282.924196 113.55663 
L 283.10685 122.849321 
L 283.167735 122.326882 
L 283.35039 126.231784 
L 283.533045 122.1403 
L 283.59393 122.144463 
L 283.654815 119.123837 
L 283.776584 122.143404 
L 283.898354 121.306467 
L 284.141894 125.664407 
L 284.202779 125.137861 
L 284.446318 122.090608 
L 284.507203 123.351021 
L 284.750743 117.446645 
L 284.872513 122.34339 
L 285.055167 116.864484 
L 285.116052 116.878104 
L 285.176937 117.665012 
L 285.359592 112.457453 
L 285.603132 124.975141 
L 285.664016 122.851932 
L 285.724901 123.476807 
L 285.846671 125.933891 
L 285.968441 122.268059 
L 286.33375 133.15907 
L 286.516405 130.322949 
L 286.57729 133.146298 
L 286.638175 131.765044 
L 286.69906 132.256341 
L 286.82083 130.874797 
L 286.942599 133.403701 
L 287.003484 132.801728 
L 287.125254 131.305379 
L 287.186139 131.479912 
L 287.247024 132.038592 
L 287.429679 127.111891 
L 287.490564 128.382576 
L 287.734103 123.303637 
L 287.916758 116.583628 
L 287.977643 116.839979 
L 288.038528 118.571738 
L 288.099413 118.05195 
L 288.464722 112.239129 
L 288.525607 110.5992 
L 288.647377 112.664281 
L 288.830031 109.940225 
L 288.890916 110.222011 
L 288.951801 111.775655 
L 289.012686 111.051082 
L 289.256226 107.670815 
L 289.317111 106.669027 
L 289.377996 107.165713 
L 289.438881 107.603264 
L 289.499765 107.043309 
L 289.621535 109.61296 
L 289.68242 107.403799 
L 289.743305 109.34897 
L 289.80419 109.23063 
L 289.865075 107.082181 
L 290.04773 110.483533 
L 290.230384 102.761004 
L 290.413039 105.968006 
L 290.473924 106.066236 
L 290.717463 109.865778 
L 290.778348 108.780636 
L 290.839233 110.345849 
L 290.900118 109.77295 
L 290.961003 109.835017 
L 291.082773 111.772683 
L 291.265428 106.92031 
L 291.326313 108.217597 
L 291.448082 104.703103 
L 291.630737 112.02159 
L 291.813392 108.565842 
L 291.935162 110.644241 
L 291.996046 110.232532 
L 292.056931 108.396066 
L 292.361356 117.281718 
L 292.422241 116.06648 
L 292.726665 109.922501 
L 292.78755 110.491839 
L 292.848435 112.224107 
L 292.90932 111.347621 
L 292.970205 112.284677 
L 293.03109 111.313785 
L 293.091975 111.582596 
L 293.518169 119.790867 
L 293.579054 118.292697 
L 293.639939 119.48408 
L 293.700824 119.132185 
L 293.761709 123.032756 
L 293.822594 122.197077 
L 294.005248 120.151723 
L 294.066133 121.232282 
L 294.187903 118.88758 
L 294.248788 121.913475 
L 294.309673 120.049729 
L 294.370558 118.168183 
L 294.918522 134.223966 
L 295.101177 126.866288 
L 295.527371 132.185643 
L 295.588256 130.859523 
L 295.649141 132.349193 
L 295.770911 129.918453 
L 296.075335 137.912646 
L 296.13622 135.46613 
L 296.197105 136.941987 
L 296.25799 136.422719 
L 296.37976 137.872051 
L 296.623299 132.680461 
L 296.745069 135.79466 
L 296.988609 132.399559 
L 297.110378 132.759592 
L 297.232148 131.55265 
L 297.293033 131.898909 
L 297.353918 132.522944 
L 297.414803 132.05611 
L 297.597458 129.687819 
L 297.719227 126.106137 
L 297.901882 131.011197 
L 297.962767 131.281253 
L 298.267192 123.592229 
L 298.449846 127.765749 
L 298.510731 123.47367 
L 298.571616 124.629749 
L 298.632501 123.332635 
L 298.693386 125.241804 
L 298.754271 123.937014 
L 298.876041 126.239082 
L 298.936926 125.233401 
L 298.99781 130.310349 
L 299.058695 129.728405 
L 299.24135 126.771963 
L 299.302235 128.02074 
L 299.36312 127.626487 
L 299.424005 128.253543 
L 299.60666 133.520869 
L 299.911084 125.931851 
L 300.032854 126.903285 
L 300.519933 139.231904 
L 300.702588 137.401012 
L 300.885243 142.612293 
L 300.946127 141.930975 
L 301.007012 142.023476 
L 301.128782 145.222281 
L 301.250552 142.008908 
L 301.311437 143.464966 
L 301.494092 138.932091 
L 301.676746 143.441795 
L 301.737631 143.268246 
L 301.920286 145.578589 
L 302.102941 143.510522 
L 302.163825 143.332723 
L 302.22471 141.447403 
L 302.285595 142.813905 
L 302.407365 143.59121 
L 302.59002 149.47369 
L 302.71179 148.939313 
L 303.016214 154.200838 
L 303.442408 142.854853 
L 303.625063 143.679534 
L 303.746833 147.201903 
L 303.807718 145.222886 
L 303.868603 144.715668 
L 303.990373 148.816816 
L 304.173027 146.697749 
L 304.416567 150.579922 
L 304.477452 148.174937 
L 304.538337 149.779216 
L 304.720991 146.20266 
L 304.781876 148.377972 
L 304.964531 143.665045 
L 305.086301 141.676174 
L 305.268956 136.26816 
L 305.390725 132.960043 
L 305.512495 136.925055 
L 305.57338 136.067321 
L 305.634265 135.292616 
L 305.81692 131.444993 
L 305.93869 129.381566 
L 305.999574 129.939089 
L 306.243114 128.563693 
L 306.425769 132.540284 
L 306.608424 129.565954 
L 306.791078 127.911233 
L 306.851963 130.45489 
L 306.912848 128.45886 
L 306.973733 126.166848 
L 307.034618 127.184855 
L 307.095503 127.052226 
L 307.156388 124.003237 
L 307.217273 127.109315 
L 307.278157 125.071012 
L 307.339042 122.302022 
L 307.399927 123.755977 
L 307.460812 126.031017 
L 307.521697 124.924439 
L 307.582582 125.65217 
L 307.826122 116.706709 
L 307.947891 117.459304 
L 308.008776 117.28662 
L 308.069661 118.09372 
L 308.130546 116.220289 
L 308.374086 124.162814 
L 308.434971 122.315174 
L 308.495856 122.787127 
L 308.55674 123.681154 
L 308.617625 127.603946 
L 308.67851 126.348822 
L 308.739395 126.220486 
L 308.80028 122.663857 
L 308.861165 125.22387 
L 308.92205 125.345731 
L 309.104705 122.099444 
L 309.165589 121.807358 
L 309.409129 126.465725 
L 309.530899 129.726615 
L 309.591784 129.642056 
L 309.652669 130.106571 
L 309.713554 129.941906 
L 309.774439 128.957327 
L 309.835323 124.548064 
L 309.896208 124.886055 
L 310.017978 121.418555 
L 310.139748 122.173211 
L 310.200633 125.186143 
L 310.261518 124.265808 
L 310.322403 122.960068 
L 310.383288 123.601143 
L 310.444172 125.445289 
L 310.505057 124.176554 
L 310.687712 120.759727 
L 310.748597 123.525857 
L 310.809482 122.636608 
L 310.931252 119.789161 
L 311.053022 122.502134 
L 311.296561 117.700011 
L 311.357446 118.453656 
L 311.418331 118.143428 
L 311.540101 118.509023 
L 311.600986 118.342213 
L 311.722755 115.111701 
L 311.78364 115.639019 
L 311.844525 115.770302 
L 311.90541 116.209817 
L 311.966295 114.60067 
L 312.02718 115.34587 
L 312.209835 119.643475 
L 312.392489 115.84022 
L 312.453374 115.900131 
L 312.696914 120.167486 
L 312.757799 116.724938 
L 312.818684 119.078819 
L 312.940454 117.193883 
L 313.123108 112.643077 
L 313.183993 113.882286 
L 313.366648 110.814557 
L 313.549303 116.854137 
L 313.671072 114.908909 
L 313.731957 119.396743 
L 313.792842 118.769298 
L 314.219037 125.038441 
L 314.340806 122.35041 
L 314.401691 123.550462 
L 314.523461 123.890975 
L 314.827886 116.801825 
L 314.88877 117.092257 
L 315.01054 115.745517 
L 315.071425 114.085364 
L 315.25408 117.335667 
L 315.314965 115.452039 
L 315.37585 116.377622 
L 315.436735 117.947136 
L 315.49762 116.840623 
L 315.558504 116.574269 
L 315.619389 117.265549 
L 315.802044 114.192577 
L 315.862929 114.348173 
L 315.923814 117.39395 
L 315.984699 115.959558 
L 316.350008 111.255733 
L 316.532663 114.227985 
L 316.593548 114.239258 
L 316.654433 116.208093 
L 316.715318 115.054305 
L 316.776203 114.974044 
L 316.897972 116.934637 
L 316.958857 115.545869 
L 317.019742 115.606854 
L 317.080627 115.492237 
L 317.263282 110.264693 
L 317.385052 113.956806 
L 317.445936 112.715086 
L 317.506821 114.054514 
L 317.567706 112.557263 
L 317.750361 116.493572 
L 317.872131 112.861728 
L 317.933016 117.765871 
L 317.993901 116.436405 
L 318.176555 112.59859 
L 318.298325 112.288599 
L 318.35921 111.710992 
L 318.724519 116.863368 
L 318.785404 116.357848 
L 318.968059 123.360178 
L 319.028944 123.259542 
L 319.089829 122.723567 
L 319.150714 123.814899 
L 319.211599 123.427489 
L 319.272484 123.669694 
L 319.333368 122.483905 
L 319.455138 124.392541 
L 319.698678 120.740628 
L 319.759563 121.755864 
L 319.820448 120.918021 
L 319.881333 121.927437 
L 319.942218 121.419993 
L 320.003102 120.499304 
L 320.307527 127.241321 
L 320.490182 134.958127 
L 320.611951 130.682561 
L 320.672836 131.547761 
L 320.733721 133.845838 
L 320.794606 131.694285 
L 320.855491 132.059772 
L 320.916376 132.356421 
L 321.038146 130.749888 
L 321.099031 131.997424 
L 321.281685 128.595 
L 321.34257 129.00521 
L 321.525225 126.39639 
L 321.58611 126.387495 
L 321.646995 126.965242 
L 321.82965 123.551833 
L 321.890534 123.527821 
L 321.951419 123.243165 
L 322.134074 126.217622 
L 322.194959 124.305799 
L 322.255844 126.13122 
L 322.377614 120.778157 
L 322.438499 121.141879 
L 322.742923 118.859876 
L 322.803808 120.967079 
L 322.864693 120.912952 
L 322.925578 120.386408 
L 322.986463 120.562506 
L 323.047348 120.725414 
L 323.108233 120.537888 
L 323.169117 119.030704 
L 323.230002 119.64249 
L 323.290887 118.967031 
L 323.351772 116.58174 
L 323.412657 117.360819 
L 323.473542 117.557427 
L 323.534427 117.060872 
L 323.656197 117.886108 
L 323.777967 120.111168 
L 323.899736 118.405596 
L 324.021506 121.099815 
L 324.082391 119.325476 
L 324.143276 119.446126 
L 324.265046 120.711373 
L 324.325931 119.841118 
L 324.386816 121.702279 
L 324.630355 116.391539 
L 324.69124 116.789642 
L 324.752125 116.687773 
L 324.81301 116.344804 
L 324.93478 117.816609 
L 325.178319 113.913574 
L 325.239204 114.198772 
L 325.300089 116.246648 
L 325.360974 114.489133 
L 325.421859 115.589655 
L 325.482744 115.057224 
L 325.726283 122.000563 
L 325.787168 121.157397 
L 325.848053 121.312761 
L 325.908938 121.049698 
L 325.969823 121.891591 
L 326.030708 124.820602 
L 326.091593 124.518834 
L 326.152478 125.09656 
L 326.213363 123.997451 
L 326.274248 126.45296 
L 326.335132 125.888911 
L 326.396017 125.247785 
L 326.517787 127.083191 
L 326.578672 123.565992 
L 326.639557 125.995536 
L 326.700442 127.40809 
L 326.822212 124.875033 
L 326.883097 125.156536 
L 326.943982 125.320834 
L 327.187521 123.809894 
L 327.613715 129.427672 
L 327.6746 127.900967 
L 327.79637 130.319319 
L 327.857255 129.239281 
L 327.91814 129.615883 
L 327.979025 129.258271 
L 328.03991 127.41229 
L 328.100795 127.911887 
L 328.16168 127.782662 
L 328.405219 120.480061 
L 328.466104 121.683341 
L 328.526989 120.367646 
L 328.587874 121.772957 
L 328.648759 119.922939 
L 328.709644 120.033322 
L 328.770529 119.676171 
L 328.892298 115.395099 
L 329.014068 116.326117 
L 329.074953 113.801961 
L 329.135838 113.843436 
L 329.196723 113.750225 
L 329.440263 109.367749 
L 329.562032 109.698076 
L 329.805572 115.091637 
L 329.866457 115.567767 
L 329.927342 114.478289 
L 329.988227 115.197055 
L 330.049112 115.466524 
L 330.109997 114.482708 
L 330.231766 117.976889 
L 330.292651 117.71588 
L 330.657961 127.349353 
L 330.718846 127.129699 
L 330.77973 127.429391 
L 330.840615 126.437192 
L 330.9015 129.152818 
L 330.962385 127.721706 
L 331.084155 130.732432 
L 331.14504 129.318719 
L 331.327695 136.503793 
L 331.38858 134.579278 
L 331.449464 134.809386 
L 331.510349 135.72101 
L 331.693004 133.917625 
L 331.753889 133.609536 
L 331.814774 134.477417 
L 331.875659 133.11337 
L 331.936544 133.83843 
L 332.058313 135.113703 
L 332.240968 138.814756 
L 332.301853 140.472671 
L 332.484508 131.973181 
L 332.606278 132.466012 
L 332.667163 132.487705 
L 332.728047 135.403866 
L 332.788932 133.865711 
L 332.849817 133.939344 
L 332.910702 133.234895 
L 332.971587 134.93006 
L 333.032472 133.389858 
L 333.154242 136.043247 
L 333.215127 134.934731 
L 333.336896 135.930561 
L 333.519551 132.712526 
L 333.580436 133.843153 
L 333.641321 136.028635 
L 333.702206 135.905265 
L 333.945746 128.848074 
L 334.00663 128.13609 
L 334.1284 131.908053 
L 334.189285 131.072441 
L 334.311055 126.628995 
L 334.49371 128.883487 
L 334.615479 125.598082 
L 334.676364 126.612315 
L 334.737249 126.619613 
L 334.798134 126.990001 
L 334.859019 125.222442 
L 335.041674 129.883489 
L 335.163444 126.729024 
L 335.406983 134.020577 
L 335.467868 133.930053 
L 335.589638 132.79293 
L 335.894062 127.354823 
L 336.015832 131.406326 
L 336.076717 131.113668 
L 336.137602 132.722964 
L 336.198487 130.676612 
L 336.381142 133.354748 
L 336.442027 134.219791 
L 336.624681 138.320959 
L 336.685566 139.189369 
L 336.929106 135.366315 
L 336.989991 136.12247 
L 337.050876 134.524753 
L 337.172645 138.547827 
L 337.23353 137.302658 
L 337.294415 136.596697 
L 337.416185 141.666349 
L 337.47707 140.256608 
L 337.59884 137.514985 
L 337.659725 139.917589 
L 337.72061 137.348204 
L 337.781494 138.764954 
L 337.842379 142.085309 
L 337.903264 141.605424 
L 337.964149 141.297963 
L 338.085919 137.603029 
L 338.146804 139.394881 
L 338.207689 140.352427 
L 338.268574 138.319275 
L 338.329459 131.998481 
L 338.390344 132.295769 
L 338.512113 135.649028 
L 338.572998 135.459211 
L 338.633883 136.876674 
L 338.694768 135.522584 
L 338.755653 135.611739 
L 338.816538 136.017436 
L 338.938308 138.365546 
L 338.999193 137.283627 
L 339.060077 138.834617 
L 339.120962 138.824429 
L 339.364502 136.552081 
L 339.547157 135.321341 
L 339.608042 136.540145 
L 339.729811 133.360571 
L 339.790696 134.031494 
L 339.851581 133.843175 
L 339.973351 131.499512 
L 340.034236 132.797431 
L 340.156006 138.139428 
L 340.216891 136.97174 
L 340.277776 136.682642 
L 340.33866 137.207239 
L 340.521315 135.084406 
L 340.5822 136.044801 
L 340.643085 135.417659 
L 340.70397 135.330383 
L 340.886625 139.794687 
L 341.069279 137.04872 
L 341.191049 133.452056 
L 341.251934 133.556956 
L 341.312819 135.092246 
L 341.495474 131.427877 
L 341.556359 132.414945 
L 341.617243 132.030133 
L 341.921668 126.359735 
L 342.043438 129.41053 
L 342.104323 129.270175 
L 342.165208 129.711011 
L 342.226092 126.506255 
L 342.286977 127.054426 
L 342.469632 131.534749 
L 342.591402 134.936553 
L 342.652287 134.483893 
L 342.774057 137.534948 
L 342.834942 134.497645 
L 342.895826 135.826426 
L 343.017596 140.771165 
L 343.078481 139.494683 
L 343.322021 136.969934 
L 343.382906 142.267541 
L 343.443791 141.614864 
L 343.56556 145.817794 
L 343.626445 148.887651 
L 343.68733 148.066137 
L 343.8091 144.865009 
L 343.869985 147.8527 
L 343.93087 145.703261 
L 344.174409 149.522872 
L 344.539719 137.640371 
L 344.600604 139.616243 
L 344.661489 137.998532 
L 344.783258 134.080522 
L 344.844143 136.108206 
L 345.026798 133.152566 
L 345.392108 127.306823 
L 345.574762 128.60829 
L 345.696532 130.781551 
L 345.757417 129.825961 
L 345.818302 130.169609 
L 345.879187 131.334336 
L 345.940072 129.336585 
L 346.000957 132.385498 
L 346.061841 131.329317 
L 346.122726 128.870872 
L 346.183611 129.917144 
L 346.244496 133.112855 
L 346.305381 129.665914 
L 346.366266 130.888157 
L 346.548921 132.567138 
L 346.609806 132.526557 
L 346.670691 132.055304 
L 346.79246 134.705895 
L 346.91423 131.846793 
L 346.975115 132.010675 
L 347.15777 138.932313 
L 347.27954 138.785883 
L 347.462194 133.963687 
L 347.523079 133.66338 
L 347.644849 134.565819 
L 347.705734 133.486443 
L 347.888389 137.709258 
L 348.071043 134.849264 
L 348.131928 136.858546 
L 348.192813 135.483046 
L 348.314583 134.611142 
L 348.436353 131.469681 
L 348.497238 131.832569 
L 348.619007 128.913343 
L 348.679892 129.811924 
L 348.740777 133.315788 
L 348.801662 131.03601 
L 348.984317 127.722192 
L 349.045202 127.207237 
L 349.227856 129.965564 
L 349.532281 135.198753 
L 349.593166 133.934736 
L 349.654051 131.910454 
L 349.714936 132.538018 
L 349.775821 133.522763 
L 349.836706 130.682543 
L 349.89759 131.37385 
L 349.958475 131.232293 
L 350.202015 126.642726 
L 350.2629 128.702101 
L 350.323785 128.404266 
L 350.445555 129.985287 
L 350.567324 127.825455 
L 350.749979 129.875631 
L 350.871749 131.553785 
L 350.932634 135.462782 
L 350.993519 135.17227 
L 351.054404 134.708857 
L 351.176173 135.662147 
L 351.297943 132.979709 
L 351.358828 134.870949 
L 351.419713 134.680611 
L 351.480598 133.018736 
L 351.541483 133.927143 
L 351.602368 136.84313 
L 351.663253 136.207844 
L 351.906792 130.854515 
L 351.967677 131.065989 
L 352.089447 133.899411 
L 352.211217 132.98955 
L 352.393872 130.811629 
L 352.576526 133.332906 
L 352.637411 133.011906 
L 352.698296 131.566114 
L 352.880951 135.348292 
L 352.941836 134.717307 
L 353.185375 142.157392 
L 353.24626 141.914546 
L 353.307145 145.929233 
L 353.36803 144.722416 
L 353.4898 143.275692 
L 353.672454 140.843266 
L 354.220419 133.7421 
L 354.281304 135.992309 
L 354.342188 134.568026 
L 354.524843 131.394972 
L 354.646613 134.095896 
L 354.707498 132.318389 
L 354.768383 133.40446 
L 354.829268 132.351032 
L 355.072807 137.568455 
L 355.133692 138.412372 
L 355.194577 138.274204 
L 355.255462 138.489885 
L 355.499002 131.58559 
L 355.559887 132.716185 
L 355.620771 132.697732 
L 355.681656 129.871551 
L 355.803426 133.515445 
L 356.107851 121.669366 
L 356.22962 122.778751 
L 356.35139 120.111982 
L 356.412275 121.297957 
L 356.47316 120.038099 
L 356.534045 121.589579 
L 356.59493 120.802173 
L 356.777585 118.241263 
L 356.83847 120.005433 
L 356.899354 119.728104 
L 356.960239 118.844997 
L 357.021124 120.412394 
L 357.082009 120.187909 
L 357.142894 119.569909 
L 357.203779 121.96952 
L 357.325549 119.574073 
L 357.751743 124.29364 
L 357.812628 123.529848 
L 357.873513 124.893718 
L 357.934398 123.557016 
L 357.995283 123.812298 
L 358.056168 123.457279 
L 358.177937 126.751646 
L 358.238822 126.720863 
L 358.299707 122.864245 
L 358.360592 123.40924 
L 358.543247 120.793551 
L 358.725902 121.498495 
L 358.847671 118.117468 
L 358.908556 120.139862 
L 359.152096 114.604163 
L 359.212981 114.382858 
L 359.334751 118.062831 
L 359.395635 117.346702 
L 359.45652 117.45763 
L 359.70006 114.257057 
L 359.760945 113.01507 
L 359.82183 113.26313 
L 359.882715 114.27498 
L 359.9436 113.027244 
L 360.004485 114.632229 
L 360.065369 113.624079 
L 360.187139 115.109247 
L 360.248024 113.555716 
L 360.613334 123.78691 
L 360.735103 120.140771 
L 360.795988 122.15626 
L 360.856873 120.928205 
L 360.978643 118.258217 
L 361.100413 121.312192 
L 361.161298 121.045991 
L 361.222183 119.683166 
L 361.283068 120.684803 
L 361.343952 120.617568 
L 361.465722 119.638894 
L 361.526607 120.181885 
L 361.587492 119.902893 
L 361.831032 116.802412 
L 361.891917 117.386233 
L 361.952801 117.863003 
L 362.013686 119.810311 
L 362.074571 118.61968 
L 362.135456 119.649544 
L 362.318111 114.977696 
L 362.378996 117.399632 
L 362.439881 115.699406 
L 362.80519 119.72399 
L 362.987845 125.194159 
L 363.231384 121.313005 
L 363.292269 120.423585 
L 363.596694 125.547675 
L 363.779349 122.493235 
L 364.205543 128.857344 
L 364.266428 125.970152 
L 364.327313 126.272459 
L 364.449083 129.865856 
L 364.509967 128.812857 
L 364.753507 133.340703 
L 364.936162 137.583222 
L 364.997047 137.573244 
L 365.240586 140.463525 
L 365.484126 134.469844 
L 365.727666 138.643651 
L 365.849435 137.122266 
L 365.91032 138.712719 
L 366.092975 133.695924 
L 366.27563 137.199303 
L 366.336515 135.755239 
L 366.458284 137.521641 
L 366.519169 137.425206 
L 366.580054 135.957204 
L 366.640939 136.098684 
L 366.701824 136.442931 
L 366.762709 138.652162 
L 366.945364 134.22761 
L 367.067133 135.747305 
L 367.128018 132.827377 
L 367.188903 133.456305 
L 367.249788 132.900965 
L 367.432443 137.935983 
L 367.493328 135.249364 
L 367.554213 136.366804 
L 367.858637 141.607441 
L 367.980407 141.324557 
L 368.102177 144.90166 
L 368.223947 142.361793 
L 368.284832 142.613535 
L 368.406601 145.902775 
L 368.467486 144.818199 
L 368.528371 143.463837 
L 368.650141 145.859706 
L 368.711026 143.590222 
L 368.771911 145.249385 
L 368.832796 146.513304 
L 369.01545 143.170318 
L 369.25899 146.954606 
L 369.319875 147.795441 
L 369.38076 147.334137 
L 369.50253 145.758437 
L 369.624299 149.609872 
L 369.685184 147.977182 
L 369.867839 156.829502 
L 370.050494 152.38479 
L 370.172264 154.719388 
L 370.294033 152.269421 
L 370.537573 157.033625 
L 370.598458 157.450371 
L 370.659343 160.141753 
L 370.720228 159.07201 
L 370.902882 155.169081 
L 371.085537 152.443242 
L 371.268192 156.924282 
L 371.329077 156.353212 
L 371.389962 156.300427 
L 371.450847 155.824811 
L 371.755271 163.818813 
L 371.816156 163.337804 
L 371.877041 160.879744 
L 371.937926 162.218745 
L 371.998811 161.143321 
L 372.24235 167.711213 
L 372.303235 169.450759 
L 372.36412 167.627541 
L 372.546775 175.344205 
L 372.60766 174.344136 
L 372.668545 174.258884 
L 372.790314 175.532512 
L 372.972969 170.497083 
L 373.033854 172.210456 
L 373.155624 170.584322 
L 373.216509 170.522294 
L 373.277394 168.861359 
L 373.338279 169.271777 
L 373.460048 172.079383 
L 373.581818 167.006381 
L 373.581818 167.006381 
" style="fill:none;stroke:#1f77b4;stroke-linecap:round;stroke-width:1.5;"/>
   </g>
   <g id="patch_3">
    <path d="M 54 252 
L 54 34.56 
" style="fill:none;stroke:#cccccc;stroke-linecap:square;stroke-linejoin:miter;stroke-width:0.8;"/>
   </g>
   <g id="patch_4">
    <path d="M 388.8 252 
L 388.8 34.56 
" style="fill:none;stroke:#cccccc;stroke-linecap:square;stroke-linejoin:miter;stroke-width:0.8;"/>
   </g>
   <g id="patch_5">
    <path d="M 54 252 
L 388.8 252 
" style="fill:none;stroke:#cccccc;stroke-linecap:square;stroke-linejoin:miter;stroke-width:0.8;"/>
   </g>
   <g id="patch_6">
    <path d="M 54 34.56 
L 388.8 34.56 
" style="fill:none;stroke:#cccccc;stroke-linecap:square;stroke-linejoin:miter;stroke-width:0.8;"/>
   </g>
  </g>
 </g>
 <defs>
  <clipPath id="p6a4ee00d02">
   <rect height="217.44" width="334.8" x="54" y="34.56"/>
  </clipPath>
 </defs>
</svg>
