<?xml version="1.0" encoding="utf-8" standalone="no"?>
<!DOCTYPE svg PUBLIC "-//W3C//DTD SVG 1.1//EN"
  "http://www.w3.org/Graphics/SVG/1.1/DTD/svg11.dtd">
<svg height="288pt" version="1.1" viewBox="0 0 432 288" width="432pt" xmlns="http://www.w3.org/2000/svg" xmlns:xlink="http://www.w3.org/1999/xlink">
 <metadata>
  <rdf:RDF xmlns:cc="http://creativecommons.org/ns#" xmlns:dc="http://purl.org/dc/elements/1.1/" xmlns:rdf="http://www.w3.org/1999/02/22-rdf-syntax-ns#">
   <cc:Work>
    <dc:type rdf:resource="http://purl.org/dc/dcmitype/StillImage"/>
    <dc:date>2022-03-07T23:32:31.275777</dc:date>
    <dc:format>image/svg+xml</dc:format>
    <dc:creator>
     <cc:Agent>
      <dc:title>Matplotlib v3.4.3, https://matplotlib.org/</dc:title>
     </cc:Agent>
    </dc:creator>
   </cc:Work>
  </rdf:RDF>
 </metadata>
 <defs>
  <style type="text/css">*{stroke-linecap:butt;stroke-linejoin:round;}</style>
 </defs>
 <g id="figure_1">
  <g id="patch_1">
   <path d="M 0 288 
L 432 288 
L 432 0 
L 0 0 
z
" style="fill:#ffffff;"/>
  </g>
  <g id="axes_1">
   <g id="patch_2">
    <path d="M 54 252 
L 388.8 252 
L 388.8 34.56 
L 54 34.56 
z
" style="fill:#ffffff;"/>
   </g>
   <g id="matplotlib.axis_1">
    <g id="xtick_1">
     <g id="line2d_1">
      <path clip-path="url(#pf6be8ae04e)" d="M 69.218182 252 
L 69.218182 34.56 
" style="fill:none;stroke:#cccccc;stroke-linecap:round;stroke-width:0.8;"/>
     </g>
     <g id="text_1">
      <!-- 0 -->
      <g style="fill:#262626;" transform="translate(65.325526 269.020938)scale(0.14 -0.14)">
       <defs>
        <path d="M 266 2259 
Q 266 3072 433 3567 
Q 600 4063 929 4331 
Q 1259 4600 1759 4600 
Q 2128 4600 2406 4451 
Q 2684 4303 2865 4023 
Q 3047 3744 3150 3342 
Q 3253 2941 3253 2259 
Q 3253 1453 3087 958 
Q 2922 463 2592 192 
Q 2263 -78 1759 -78 
Q 1097 -78 719 397 
Q 266 969 266 2259 
z
M 844 2259 
Q 844 1131 1108 757 
Q 1372 384 1759 384 
Q 2147 384 2411 759 
Q 2675 1134 2675 2259 
Q 2675 3391 2411 3762 
Q 2147 4134 1753 4134 
Q 1366 4134 1134 3806 
Q 844 3388 844 2259 
z
" id="ArialMT-30" transform="scale(0.015625)"/>
       </defs>
       <use xlink:href="#ArialMT-30"/>
      </g>
     </g>
    </g>
    <g id="xtick_2">
     <g id="line2d_2">
      <path clip-path="url(#pf6be8ae04e)" d="M 130.103086 252 
L 130.103086 34.56 
" style="fill:none;stroke:#cccccc;stroke-linecap:round;stroke-width:0.8;"/>
     </g>
     <g id="text_2">
      <!-- 1000 -->
      <g style="fill:#262626;" transform="translate(114.532461 269.020938)scale(0.14 -0.14)">
       <defs>
        <path d="M 2384 0 
L 1822 0 
L 1822 3584 
Q 1619 3391 1289 3197 
Q 959 3003 697 2906 
L 697 3450 
Q 1169 3672 1522 3987 
Q 1875 4303 2022 4600 
L 2384 4600 
L 2384 0 
z
" id="ArialMT-31" transform="scale(0.015625)"/>
       </defs>
       <use xlink:href="#ArialMT-31"/>
       <use x="55.615234" xlink:href="#ArialMT-30"/>
       <use x="111.230469" xlink:href="#ArialMT-30"/>
       <use x="166.845703" xlink:href="#ArialMT-30"/>
      </g>
     </g>
    </g>
    <g id="xtick_3">
     <g id="line2d_3">
      <path clip-path="url(#pf6be8ae04e)" d="M 190.98799 252 
L 190.98799 34.56 
" style="fill:none;stroke:#cccccc;stroke-linecap:round;stroke-width:0.8;"/>
     </g>
     <g id="text_3">
      <!-- 2000 -->
      <g style="fill:#262626;" transform="translate(175.417365 269.020938)scale(0.14 -0.14)">
       <defs>
        <path d="M 3222 541 
L 3222 0 
L 194 0 
Q 188 203 259 391 
Q 375 700 629 1000 
Q 884 1300 1366 1694 
Q 2113 2306 2375 2664 
Q 2638 3022 2638 3341 
Q 2638 3675 2398 3904 
Q 2159 4134 1775 4134 
Q 1369 4134 1125 3890 
Q 881 3647 878 3216 
L 300 3275 
Q 359 3922 746 4261 
Q 1134 4600 1788 4600 
Q 2447 4600 2831 4234 
Q 3216 3869 3216 3328 
Q 3216 3053 3103 2787 
Q 2991 2522 2730 2228 
Q 2469 1934 1863 1422 
Q 1356 997 1212 845 
Q 1069 694 975 541 
L 3222 541 
z
" id="ArialMT-32" transform="scale(0.015625)"/>
       </defs>
       <use xlink:href="#ArialMT-32"/>
       <use x="55.615234" xlink:href="#ArialMT-30"/>
       <use x="111.230469" xlink:href="#ArialMT-30"/>
       <use x="166.845703" xlink:href="#ArialMT-30"/>
      </g>
     </g>
    </g>
    <g id="xtick_4">
     <g id="line2d_4">
      <path clip-path="url(#pf6be8ae04e)" d="M 251.872895 252 
L 251.872895 34.56 
" style="fill:none;stroke:#cccccc;stroke-linecap:round;stroke-width:0.8;"/>
     </g>
     <g id="text_4">
      <!-- 3000 -->
      <g style="fill:#262626;" transform="translate(236.30227 269.020938)scale(0.14 -0.14)">
       <defs>
        <path d="M 269 1209 
L 831 1284 
Q 928 806 1161 595 
Q 1394 384 1728 384 
Q 2125 384 2398 659 
Q 2672 934 2672 1341 
Q 2672 1728 2419 1979 
Q 2166 2231 1775 2231 
Q 1616 2231 1378 2169 
L 1441 2663 
Q 1497 2656 1531 2656 
Q 1891 2656 2178 2843 
Q 2466 3031 2466 3422 
Q 2466 3731 2256 3934 
Q 2047 4138 1716 4138 
Q 1388 4138 1169 3931 
Q 950 3725 888 3313 
L 325 3413 
Q 428 3978 793 4289 
Q 1159 4600 1703 4600 
Q 2078 4600 2393 4439 
Q 2709 4278 2876 4000 
Q 3044 3722 3044 3409 
Q 3044 3113 2884 2869 
Q 2725 2625 2413 2481 
Q 2819 2388 3044 2092 
Q 3269 1797 3269 1353 
Q 3269 753 2831 336 
Q 2394 -81 1725 -81 
Q 1122 -81 723 278 
Q 325 638 269 1209 
z
" id="ArialMT-33" transform="scale(0.015625)"/>
       </defs>
       <use xlink:href="#ArialMT-33"/>
       <use x="55.615234" xlink:href="#ArialMT-30"/>
       <use x="111.230469" xlink:href="#ArialMT-30"/>
       <use x="166.845703" xlink:href="#ArialMT-30"/>
      </g>
     </g>
    </g>
    <g id="xtick_5">
     <g id="line2d_5">
      <path clip-path="url(#pf6be8ae04e)" d="M 312.757799 252 
L 312.757799 34.56 
" style="fill:none;stroke:#cccccc;stroke-linecap:round;stroke-width:0.8;"/>
     </g>
     <g id="text_5">
      <!-- 4000 -->
      <g style="fill:#262626;" transform="translate(297.187174 269.020938)scale(0.14 -0.14)">
       <defs>
        <path d="M 2069 0 
L 2069 1097 
L 81 1097 
L 81 1613 
L 2172 4581 
L 2631 4581 
L 2631 1613 
L 3250 1613 
L 3250 1097 
L 2631 1097 
L 2631 0 
L 2069 0 
z
M 2069 1613 
L 2069 3678 
L 634 1613 
L 2069 1613 
z
" id="ArialMT-34" transform="scale(0.015625)"/>
       </defs>
       <use xlink:href="#ArialMT-34"/>
       <use x="55.615234" xlink:href="#ArialMT-30"/>
       <use x="111.230469" xlink:href="#ArialMT-30"/>
       <use x="166.845703" xlink:href="#ArialMT-30"/>
      </g>
     </g>
    </g>
    <g id="xtick_6">
     <g id="line2d_6">
      <path clip-path="url(#pf6be8ae04e)" d="M 373.642703 252 
L 373.642703 34.56 
" style="fill:none;stroke:#cccccc;stroke-linecap:round;stroke-width:0.8;"/>
     </g>
     <g id="text_6">
      <!-- 5000 -->
      <g style="fill:#262626;" transform="translate(358.072078 269.020938)scale(0.14 -0.14)">
       <defs>
        <path d="M 266 1200 
L 856 1250 
Q 922 819 1161 601 
Q 1400 384 1738 384 
Q 2144 384 2425 690 
Q 2706 997 2706 1503 
Q 2706 1984 2436 2262 
Q 2166 2541 1728 2541 
Q 1456 2541 1237 2417 
Q 1019 2294 894 2097 
L 366 2166 
L 809 4519 
L 3088 4519 
L 3088 3981 
L 1259 3981 
L 1013 2750 
Q 1425 3038 1878 3038 
Q 2478 3038 2890 2622 
Q 3303 2206 3303 1553 
Q 3303 931 2941 478 
Q 2500 -78 1738 -78 
Q 1113 -78 717 272 
Q 322 622 266 1200 
z
" id="ArialMT-35" transform="scale(0.015625)"/>
       </defs>
       <use xlink:href="#ArialMT-35"/>
       <use x="55.615234" xlink:href="#ArialMT-30"/>
       <use x="111.230469" xlink:href="#ArialMT-30"/>
       <use x="166.845703" xlink:href="#ArialMT-30"/>
      </g>
     </g>
    </g>
    <g id="text_7">
     <!-- Time -->
     <g style="fill:#262626;" transform="translate(203.92375 287.255938)scale(0.16 -0.16)">
      <defs>
       <path d="M 1659 0 
L 1659 4041 
L 150 4041 
L 150 4581 
L 3781 4581 
L 3781 4041 
L 2266 4041 
L 2266 0 
L 1659 0 
z
" id="ArialMT-54" transform="scale(0.015625)"/>
       <path d="M 425 3934 
L 425 4581 
L 988 4581 
L 988 3934 
L 425 3934 
z
M 425 0 
L 425 3319 
L 988 3319 
L 988 0 
L 425 0 
z
" id="ArialMT-69" transform="scale(0.015625)"/>
       <path d="M 422 0 
L 422 3319 
L 925 3319 
L 925 2853 
Q 1081 3097 1340 3245 
Q 1600 3394 1931 3394 
Q 2300 3394 2536 3241 
Q 2772 3088 2869 2813 
Q 3263 3394 3894 3394 
Q 4388 3394 4653 3120 
Q 4919 2847 4919 2278 
L 4919 0 
L 4359 0 
L 4359 2091 
Q 4359 2428 4304 2576 
Q 4250 2725 4106 2815 
Q 3963 2906 3769 2906 
Q 3419 2906 3187 2673 
Q 2956 2441 2956 1928 
L 2956 0 
L 2394 0 
L 2394 2156 
Q 2394 2531 2256 2718 
Q 2119 2906 1806 2906 
Q 1569 2906 1367 2781 
Q 1166 2656 1075 2415 
Q 984 2175 984 1722 
L 984 0 
L 422 0 
z
" id="ArialMT-6d" transform="scale(0.015625)"/>
       <path d="M 2694 1069 
L 3275 997 
Q 3138 488 2766 206 
Q 2394 -75 1816 -75 
Q 1088 -75 661 373 
Q 234 822 234 1631 
Q 234 2469 665 2931 
Q 1097 3394 1784 3394 
Q 2450 3394 2872 2941 
Q 3294 2488 3294 1666 
Q 3294 1616 3291 1516 
L 816 1516 
Q 847 969 1125 678 
Q 1403 388 1819 388 
Q 2128 388 2347 550 
Q 2566 713 2694 1069 
z
M 847 1978 
L 2700 1978 
Q 2663 2397 2488 2606 
Q 2219 2931 1791 2931 
Q 1403 2931 1139 2672 
Q 875 2413 847 1978 
z
" id="ArialMT-65" transform="scale(0.015625)"/>
      </defs>
      <use xlink:href="#ArialMT-54"/>
      <use x="57.333984" xlink:href="#ArialMT-69"/>
      <use x="79.550781" xlink:href="#ArialMT-6d"/>
      <use x="162.851562" xlink:href="#ArialMT-65"/>
     </g>
    </g>
   </g>
   <g id="matplotlib.axis_2">
    <g id="ytick_1">
     <g id="line2d_7">
      <path clip-path="url(#pf6be8ae04e)" d="M 54 252 
L 388.8 252 
" style="fill:none;stroke:#cccccc;stroke-linecap:round;stroke-width:0.8;"/>
     </g>
     <g id="text_8">
      <!-- −2 -->
      <g style="fill:#262626;" transform="translate(31.037813 257.010469)scale(0.14 -0.14)">
       <defs>
        <path d="M 3381 1997 
L 356 1997 
L 356 2522 
L 3381 2522 
L 3381 1997 
z
" id="ArialMT-2212" transform="scale(0.015625)"/>
       </defs>
       <use xlink:href="#ArialMT-2212"/>
       <use x="58.398438" xlink:href="#ArialMT-32"/>
      </g>
     </g>
    </g>
    <g id="ytick_2">
     <g id="line2d_8">
      <path clip-path="url(#pf6be8ae04e)" d="M 54 197.64 
L 388.8 197.64 
" style="fill:none;stroke:#cccccc;stroke-linecap:round;stroke-width:0.8;"/>
     </g>
     <g id="text_9">
      <!-- −1 -->
      <g style="fill:#262626;" transform="translate(31.037813 202.650469)scale(0.14 -0.14)">
       <use xlink:href="#ArialMT-2212"/>
       <use x="58.398438" xlink:href="#ArialMT-31"/>
      </g>
     </g>
    </g>
    <g id="ytick_3">
     <g id="line2d_9">
      <path clip-path="url(#pf6be8ae04e)" d="M 54 143.28 
L 388.8 143.28 
" style="fill:none;stroke:#cccccc;stroke-linecap:round;stroke-width:0.8;"/>
     </g>
     <g id="text_10">
      <!-- 0 -->
      <g style="fill:#262626;" transform="translate(39.214687 148.290469)scale(0.14 -0.14)">
       <use xlink:href="#ArialMT-30"/>
      </g>
     </g>
    </g>
    <g id="ytick_4">
     <g id="line2d_10">
      <path clip-path="url(#pf6be8ae04e)" d="M 54 88.92 
L 388.8 88.92 
" style="fill:none;stroke:#cccccc;stroke-linecap:round;stroke-width:0.8;"/>
     </g>
     <g id="text_11">
      <!-- 1 -->
      <g style="fill:#262626;" transform="translate(39.214687 93.930469)scale(0.14 -0.14)">
       <use xlink:href="#ArialMT-31"/>
      </g>
     </g>
    </g>
    <g id="ytick_5">
     <g id="line2d_11">
      <path clip-path="url(#pf6be8ae04e)" d="M 54 34.56 
L 388.8 34.56 
" style="fill:none;stroke:#cccccc;stroke-linecap:round;stroke-width:0.8;"/>
     </g>
     <g id="text_12">
      <!-- 2 -->
      <g style="fill:#262626;" transform="translate(39.214687 39.570469)scale(0.14 -0.14)">
       <use xlink:href="#ArialMT-32"/>
      </g>
     </g>
    </g>
    <g id="text_13">
     <!-- Noise -->
     <g style="fill:#262626;" transform="translate(23.857813 163.7325)rotate(-90)scale(0.16 -0.16)">
      <defs>
       <path d="M 488 0 
L 488 4581 
L 1109 4581 
L 3516 984 
L 3516 4581 
L 4097 4581 
L 4097 0 
L 3475 0 
L 1069 3600 
L 1069 0 
L 488 0 
z
" id="ArialMT-4e" transform="scale(0.015625)"/>
       <path d="M 213 1659 
Q 213 2581 725 3025 
Q 1153 3394 1769 3394 
Q 2453 3394 2887 2945 
Q 3322 2497 3322 1706 
Q 3322 1066 3130 698 
Q 2938 331 2570 128 
Q 2203 -75 1769 -75 
Q 1072 -75 642 372 
Q 213 819 213 1659 
z
M 791 1659 
Q 791 1022 1069 705 
Q 1347 388 1769 388 
Q 2188 388 2466 706 
Q 2744 1025 2744 1678 
Q 2744 2294 2464 2611 
Q 2184 2928 1769 2928 
Q 1347 2928 1069 2612 
Q 791 2297 791 1659 
z
" id="ArialMT-6f" transform="scale(0.015625)"/>
       <path d="M 197 991 
L 753 1078 
Q 800 744 1014 566 
Q 1228 388 1613 388 
Q 2000 388 2187 545 
Q 2375 703 2375 916 
Q 2375 1106 2209 1216 
Q 2094 1291 1634 1406 
Q 1016 1563 777 1677 
Q 538 1791 414 1992 
Q 291 2194 291 2438 
Q 291 2659 392 2848 
Q 494 3038 669 3163 
Q 800 3259 1026 3326 
Q 1253 3394 1513 3394 
Q 1903 3394 2198 3281 
Q 2494 3169 2634 2976 
Q 2775 2784 2828 2463 
L 2278 2388 
Q 2241 2644 2061 2787 
Q 1881 2931 1553 2931 
Q 1166 2931 1000 2803 
Q 834 2675 834 2503 
Q 834 2394 903 2306 
Q 972 2216 1119 2156 
Q 1203 2125 1616 2013 
Q 2213 1853 2448 1751 
Q 2684 1650 2818 1456 
Q 2953 1263 2953 975 
Q 2953 694 2789 445 
Q 2625 197 2315 61 
Q 2006 -75 1616 -75 
Q 969 -75 630 194 
Q 291 463 197 991 
z
" id="ArialMT-73" transform="scale(0.015625)"/>
      </defs>
      <use xlink:href="#ArialMT-4e"/>
      <use x="72.216797" xlink:href="#ArialMT-6f"/>
      <use x="127.832031" xlink:href="#ArialMT-69"/>
      <use x="150.048828" xlink:href="#ArialMT-73"/>
      <use x="200.048828" xlink:href="#ArialMT-65"/>
     </g>
    </g>
   </g>
   <g id="line2d_12">
    <path clip-path="url(#pf6be8ae04e)" d="M 69.218182 143.61561 
L 69.279067 141.691215 
L 69.339952 144.894863 
L 69.400837 143.113826 
L 69.461721 143.007299 
L 69.522606 144.277109 
L 69.705261 142.154266 
L 69.766146 141.852873 
L 69.827031 142.284743 
L 69.887916 138.697188 
L 69.948801 139.965766 
L 70.009686 140.250656 
L 70.131455 143.07616 
L 70.253225 140.318359 
L 70.31411 140.825778 
L 70.55765 136.875534 
L 70.67942 139.390001 
L 70.801189 136.356805 
L 70.922959 140.030361 
L 70.983844 139.667508 
L 71.166499 143.080152 
L 71.227384 141.306359 
L 71.288269 142.087481 
L 71.470923 146.997406 
L 71.531808 147.827997 
L 71.653578 143.040057 
L 71.714463 144.427434 
L 72.079772 139.805043 
L 72.140657 139.947906 
L 72.262427 142.466566 
L 72.323312 142.035207 
L 72.445082 136.942035 
L 72.505967 139.754591 
L 72.566852 138.979882 
L 72.627736 137.772005 
L 72.688621 138.778232 
L 72.810391 137.870462 
L 72.993046 140.886754 
L 73.053931 139.749349 
L 73.114816 141.053504 
L 73.601895 133.683826 
L 73.723665 135.412001 
L 73.845435 130.878402 
L 73.906319 132.915218 
L 73.967204 132.593859 
L 74.028089 131.200988 
L 74.088974 133.112988 
L 74.210744 126.731919 
L 74.271629 127.70104 
L 74.515168 131.010373 
L 74.576053 130.035662 
L 74.636938 132.699674 
L 74.697823 130.695154 
L 74.758708 130.38072 
L 74.941363 134.760948 
L 75.002248 134.218998 
L 75.124018 136.852007 
L 75.184902 135.276849 
L 75.245787 136.662864 
L 75.306672 135.863901 
L 75.367557 134.679511 
L 75.550212 138.747064 
L 75.611097 138.822667 
L 75.671982 140.648868 
L 75.793751 136.631372 
L 75.854636 138.047381 
L 75.976406 138.42314 
L 76.098176 137.210723 
L 76.159061 137.763817 
L 76.219946 137.570268 
L 76.280831 136.840838 
L 76.402601 139.880531 
L 76.64614 135.867198 
L 76.707025 137.250382 
L 76.76791 136.914723 
L 76.828795 136.345248 
L 76.88968 137.473849 
L 76.950565 137.313147 
L 77.01145 137.605038 
L 77.133219 139.038921 
L 77.315874 138.095261 
L 77.376759 139.076313 
L 77.437644 142.038052 
L 77.498529 141.492804 
L 77.559414 141.006846 
L 77.681184 145.746547 
L 77.742068 143.15285 
L 77.802953 143.199224 
L 77.985608 146.697007 
L 78.046493 144.501471 
L 78.107378 147.001261 
L 78.168263 145.288648 
L 78.290033 146.912632 
L 78.350917 145.418234 
L 78.411802 145.924281 
L 78.533572 146.978613 
L 78.655342 144.527172 
L 78.716227 145.255144 
L 78.777112 146.132695 
L 78.837997 145.558019 
L 78.898882 144.373536 
L 78.959766 148.692397 
L 79.020651 147.420751 
L 79.081536 146.045085 
L 79.142421 147.211446 
L 79.325076 144.362989 
L 79.385961 144.546783 
L 79.446846 144.211891 
L 79.507731 144.254653 
L 79.87304 154.094722 
L 79.933925 153.273162 
L 79.99481 152.67232 
L 80.11658 148.32523 
L 80.238349 151.701115 
L 80.299234 150.608032 
L 80.360119 148.739624 
L 80.421004 149.096853 
L 80.542774 151.357289 
L 80.603659 148.893918 
L 80.664544 149.319518 
L 80.968968 153.49085 
L 81.273393 147.652427 
L 81.334278 145.987844 
L 81.638702 155.396948 
L 81.699587 153.41167 
L 81.760472 153.988473 
L 81.821357 154.49477 
L 81.882242 153.404421 
L 81.943127 150.231103 
L 82.004012 150.992187 
L 82.186666 148.96803 
L 82.308436 147.592694 
L 82.369321 147.922574 
L 82.612861 151.620452 
L 82.795515 149.491353 
L 82.917285 150.994628 
L 82.97817 150.266409 
L 83.09994 151.674918 
L 83.22171 144.767056 
L 83.282595 144.959886 
L 83.34348 149.427631 
L 83.404365 148.018641 
L 83.647904 141.604508 
L 83.708789 143.384071 
L 83.769674 142.556968 
L 83.952329 145.559001 
L 84.074098 143.254315 
L 84.134983 144.493884 
L 84.195868 144.256421 
L 84.256753 144.094649 
L 84.317638 145.3719 
L 84.378523 144.183365 
L 84.439408 145.397487 
L 84.622063 141.242984 
L 84.682947 142.517319 
L 84.743832 142.23925 
L 84.926487 148.621753 
L 84.987372 147.76226 
L 85.048257 144.940997 
L 85.109142 145.070701 
L 85.170027 146.080436 
L 85.230912 145.82857 
L 85.352681 142.545402 
L 85.413566 142.758492 
L 85.474451 142.539289 
L 85.596221 141.503621 
L 85.778876 134.789575 
L 85.839761 135.22417 
L 85.96153 131.906307 
L 86.265955 139.968938 
L 86.32684 137.533184 
L 86.44861 141.260011 
L 86.57038 139.62977 
L 86.753034 143.168491 
L 86.935689 140.631285 
L 87.240113 136.974864 
L 87.422768 142.564589 
L 87.483653 143.087606 
L 87.544538 141.093468 
L 87.605423 141.399279 
L 87.666308 143.420566 
L 87.727193 143.030216 
L 87.848963 139.173315 
L 87.909847 141.32755 
L 87.970732 140.32232 
L 88.275157 134.926295 
L 88.336042 134.463837 
L 88.701351 145.173241 
L 89.066661 140.389699 
L 89.127546 140.355921 
L 89.3102 142.029706 
L 89.492855 136.822504 
L 89.55374 136.397672 
L 89.614625 135.072717 
L 89.736395 137.362742 
L 89.797279 137.268125 
L 89.858164 137.705958 
L 89.919049 135.943051 
L 89.979934 139.310258 
L 90.040819 137.652266 
L 90.223474 135.186679 
L 90.345244 138.652492 
L 90.406128 138.06553 
L 90.467013 136.806233 
L 90.527898 137.761019 
L 90.649668 138.52855 
L 90.710553 137.801944 
L 90.771438 140.79096 
L 90.832323 138.352618 
L 91.014978 136.004719 
L 91.075862 135.725492 
L 91.136747 136.079786 
L 91.319402 139.164729 
L 91.380287 139.076906 
L 91.562942 134.196754 
L 91.745596 130.87779 
L 91.806481 133.466094 
L 91.867366 129.96585 
L 91.928251 131.128596 
L 91.989136 130.435211 
L 92.110906 132.666423 
L 92.293561 129.364352 
L 92.354445 133.010144 
L 92.41533 131.870601 
L 92.5371 136.492245 
L 92.65887 135.844173 
L 92.719755 135.463933 
L 92.841525 141.892145 
L 92.963294 140.826425 
L 93.024179 140.926505 
L 93.267719 144.256717 
L 93.389489 148.711153 
L 93.572144 146.602914 
L 93.633028 145.765579 
L 93.693913 147.804132 
L 93.815683 144.564328 
L 93.876568 144.495411 
L 93.937453 142.21767 
L 93.998338 142.546308 
L 94.180993 145.718009 
L 94.424532 139.827944 
L 94.485417 140.725607 
L 94.546302 140.622664 
L 94.668072 143.340855 
L 94.728957 143.189494 
L 94.911611 139.579022 
L 95.033381 141.049223 
L 95.094266 139.394872 
L 95.155151 140.566557 
L 95.216036 140.116579 
L 95.398691 136.008202 
L 95.459576 137.715366 
L 95.52046 137.435174 
L 95.581345 136.826273 
L 95.64223 138.040758 
L 95.703115 135.159416 
L 95.764 135.822634 
L 96.068425 146.481348 
L 96.129309 145.472613 
L 96.311964 148.556027 
L 96.372849 148.129555 
L 96.616389 151.155109 
L 96.738159 151.390272 
L 96.799043 150.815712 
L 96.920813 148.625342 
L 96.981698 148.733474 
L 97.042583 149.325024 
L 97.225238 152.344082 
L 97.651432 142.445239 
L 97.834087 144.711528 
L 97.955857 142.333149 
L 98.016742 143.535936 
L 98.077626 143.208219 
L 98.138511 144.977218 
L 98.199396 142.356475 
L 98.382051 146.368335 
L 98.442936 147.542858 
L 98.503821 146.687035 
L 98.564706 146.926202 
L 98.625591 146.143621 
L 98.74736 151.37359 
L 98.808245 147.297283 
L 98.86913 148.909575 
L 99.051785 151.697351 
L 99.11267 152.959692 
L 99.173555 152.48615 
L 99.23444 152.303238 
L 99.295325 155.370354 
L 99.356209 153.437946 
L 99.477979 149.69162 
L 99.538864 150.85189 
L 99.599749 150.362821 
L 99.660634 151.041537 
L 99.782404 147.826861 
L 99.965058 153.315932 
L 100.025943 153.268682 
L 100.086828 152.230882 
L 100.208598 157.677616 
L 100.269483 157.493445 
L 100.452138 150.519072 
L 100.573908 150.694504 
L 100.634792 150.154927 
L 100.695677 147.686447 
L 100.756562 149.175785 
L 100.817447 152.096115 
L 100.878332 148.916229 
L 100.939217 152.309519 
L 101.000102 150.760463 
L 101.060987 149.160257 
L 101.121872 149.508864 
L 101.182757 149.402854 
L 101.243641 149.513246 
L 101.487181 153.203944 
L 101.548066 153.420456 
L 101.669836 156.767706 
L 101.730721 155.886707 
L 101.791606 157.056692 
L 101.85249 157.043658 
L 101.913375 156.654136 
L 101.97426 158.055674 
L 102.035145 155.067633 
L 102.09603 155.845618 
L 102.400455 160.737397 
L 102.46134 159.154852 
L 102.522224 160.25275 
L 102.765764 155.413518 
L 103.131073 163.962002 
L 103.191958 162.274907 
L 103.252843 165.161862 
L 103.313728 160.934728 
L 103.374613 162.551631 
L 103.496383 159.006782 
L 103.618153 155.244013 
L 103.679038 155.273805 
L 103.983462 152.21215 
L 104.044347 152.709298 
L 104.105232 153.823133 
L 104.166117 157.167995 
L 104.227002 156.135477 
L 104.287887 156.120893 
L 104.470541 153.89588 
L 104.531426 152.984029 
L 104.714081 156.34073 
L 104.835851 152.430511 
L 104.896736 150.166383 
L 104.957621 151.854466 
L 105.018506 151.837224 
L 105.140275 149.305706 
L 105.20116 150.086926 
L 105.4447 154.634363 
L 105.627355 160.719893 
L 105.688239 160.703056 
L 105.810009 162.887046 
L 105.870894 166.623831 
L 105.931779 164.862119 
L 105.992664 164.506188 
L 106.175319 169.932497 
L 106.297089 167.094465 
L 106.357973 168.98646 
L 106.418858 166.776127 
L 106.479743 168.967434 
L 106.540628 168.664786 
L 106.601513 169.160828 
L 106.723283 166.973212 
L 106.784168 169.109155 
L 107.027707 160.321012 
L 107.088592 160.365022 
L 107.271247 163.715024 
L 107.332132 162.09627 
L 107.393017 162.701094 
L 107.453902 162.226203 
L 107.697441 154.759995 
L 107.758326 156.911891 
L 107.880096 150.983372 
L 107.940981 151.205046 
L 108.001866 152.45947 
L 108.184521 149.193301 
L 108.367175 157.122633 
L 108.42806 156.814084 
L 108.54983 158.126695 
L 108.6716 156.264931 
L 108.732485 156.395085 
L 108.854254 153.935611 
L 108.915139 154.146411 
L 108.976024 156.093579 
L 109.036909 155.366269 
L 109.158679 156.237109 
L 109.341334 152.856316 
L 109.402219 152.742247 
L 109.463104 151.955913 
L 109.523988 148.701653 
L 109.584873 148.75752 
L 109.645758 148.728256 
L 109.767528 150.140127 
L 109.828413 152.981948 
L 109.889298 151.382017 
L 110.132837 156.075854 
L 110.254607 153.309368 
L 110.315492 155.464212 
L 110.376377 153.628106 
L 110.437262 155.022971 
L 110.498147 154.951522 
L 110.559032 155.404645 
L 110.741687 152.529014 
L 110.863456 155.766041 
L 110.924341 155.395512 
L 110.985226 155.171096 
L 111.106996 151.350576 
L 111.167881 153.50501 
L 111.228766 152.835314 
L 111.289651 152.039221 
L 111.41142 154.569433 
L 111.472305 152.883021 
L 111.53319 154.176175 
L 111.715845 152.670722 
L 111.77673 154.715606 
L 111.837615 152.550199 
L 111.8985 155.303259 
L 112.081154 149.254052 
L 112.263809 151.228394 
L 112.385579 148.436759 
L 112.568234 155.205453 
L 112.629119 155.049152 
L 112.690003 153.845256 
L 112.750888 154.939471 
L 112.811773 152.234152 
L 112.872658 152.743272 
L 113.237968 163.772627 
L 113.298852 161.920662 
L 113.420622 159.974198 
L 113.664162 151.451261 
L 113.725047 151.980447 
L 113.785932 151.85079 
L 113.907702 152.995916 
L 113.968586 151.549606 
L 114.029471 153.51811 
L 114.090356 152.045123 
L 114.151241 151.423865 
L 114.212126 153.187659 
L 114.273011 152.162257 
L 114.333896 152.529257 
L 114.455666 151.811756 
L 114.577435 145.984172 
L 114.63832 146.095971 
L 114.820975 149.570505 
L 114.942745 147.486713 
L 115.00363 148.2971 
L 115.186285 153.112929 
L 115.247169 153.614912 
L 115.368939 156.703344 
L 115.429824 155.108804 
L 115.490709 155.949189 
L 115.551594 155.569013 
L 115.916903 158.731597 
L 115.977788 155.518089 
L 116.160443 161.735648 
L 116.221328 156.188705 
L 116.282213 157.852181 
L 116.525752 165.304583 
L 116.647522 168.077089 
L 116.708407 167.476307 
L 116.830177 171.64416 
L 116.891062 169.957289 
L 116.951947 171.314913 
L 117.256371 164.404109 
L 117.378141 166.890504 
L 117.439026 166.250493 
L 117.499911 165.463049 
L 117.804335 171.281375 
L 117.86522 170.871177 
L 117.926105 167.264819 
L 117.98699 169.585248 
L 118.10876 168.642265 
L 118.291415 171.948264 
L 118.3523 171.645566 
L 118.656724 180.542238 
L 118.717609 181.142599 
L 119.022033 174.923645 
L 119.265573 178.861313 
L 119.326458 177.371543 
L 119.387343 179.941645 
L 119.509113 175.08636 
L 119.569998 175.090392 
L 119.874422 179.383639 
L 120.057077 181.382231 
L 120.239732 188.366909 
L 120.422386 184.851906 
L 120.726811 190.079931 
L 120.787696 187.684042 
L 120.848581 189.02787 
L 120.97035 190.001287 
L 121.09212 188.299607 
L 121.153005 189.833573 
L 121.274775 185.325344 
L 121.33566 186.476879 
L 121.45743 191.272958 
L 121.518315 190.990859 
L 121.579199 189.745563 
L 121.640084 192.821862 
L 121.700969 190.358797 
L 121.761854 187.677756 
L 121.822739 190.827169 
L 122.066279 184.779486 
L 122.188049 184.075139 
L 122.370703 189.059578 
L 122.431588 188.3974 
L 122.492473 186.270179 
L 122.553358 187.23835 
L 122.614243 190.048915 
L 122.675128 189.262449 
L 122.736013 185.984573 
L 122.796898 187.493085 
L 122.857782 187.237495 
L 122.918667 185.681951 
L 123.101322 190.48221 
L 123.283977 188.736246 
L 123.344862 186.184654 
L 123.405747 188.971787 
L 123.466632 188.847321 
L 123.527516 188.379576 
L 123.892826 194.746587 
L 124.014596 192.989225 
L 124.136365 193.662451 
L 124.19725 193.585999 
L 124.258135 191.716808 
L 124.31902 192.882196 
L 124.501675 195.514607 
L 124.56256 194.072078 
L 124.623445 195.680814 
L 124.68433 194.827257 
L 124.806099 196.397535 
L 124.866984 195.082409 
L 124.988754 199.634439 
L 125.049639 198.057369 
L 125.110524 198.711477 
L 125.293179 195.496095 
L 125.414948 194.662138 
L 125.475833 196.160945 
L 125.536718 195.454485 
L 125.719373 193.134226 
L 125.780258 196.316362 
L 125.841143 194.802157 
L 125.902028 193.14266 
L 125.962913 193.153043 
L 126.145567 198.805865 
L 126.267337 199.272907 
L 126.328222 200.506096 
L 126.510877 196.670295 
L 126.571762 197.047593 
L 126.693531 200.735719 
L 126.876186 196.241134 
L 126.997956 198.593216 
L 127.058841 198.136199 
L 127.180611 191.536943 
L 127.363265 195.566861 
L 127.42415 195.711232 
L 127.485035 195.654071 
L 127.606805 198.812428 
L 127.66769 197.062656 
L 127.728575 197.201604 
L 127.78946 199.280114 
L 127.850345 197.259178 
L 127.972114 202.474064 
L 128.032999 201.881375 
L 128.215654 204.153789 
L 128.398309 198.834849 
L 128.459194 198.750488 
L 128.520079 200.697473 
L 128.580963 199.790073 
L 128.763618 196.053289 
L 128.946273 198.292659 
L 129.189813 193.628465 
L 129.250697 193.806835 
L 129.433352 192.612782 
L 129.555122 193.068015 
L 129.676892 187.492776 
L 129.737777 190.308473 
L 129.798662 188.163356 
L 129.920431 189.408589 
L 129.981316 188.929039 
L 130.042201 189.471007 
L 130.163971 187.961742 
L 130.224856 188.050787 
L 130.407511 181.159247 
L 130.468395 183.358796 
L 130.590165 186.048689 
L 130.65105 185.510017 
L 130.833705 180.980708 
L 131.01636 182.962577 
L 131.077245 178.777135 
L 131.138129 180.886507 
L 131.199014 181.819267 
L 131.259899 179.394556 
L 131.320784 180.853083 
L 131.381669 181.17746 
L 131.564324 177.465111 
L 131.625209 178.405007 
L 131.746978 180.584796 
L 131.807863 178.760536 
L 131.868748 179.565265 
L 131.929633 179.52106 
L 132.112288 186.639988 
L 132.173173 186.046466 
L 132.234058 187.099043 
L 132.294943 192.177524 
L 132.355828 191.190284 
L 132.416712 191.297195 
L 132.477597 190.078234 
L 132.538482 190.429891 
L 132.721137 192.794539 
L 132.964677 188.480831 
L 133.147331 191.945461 
L 133.269101 192.759075 
L 133.512641 187.685854 
L 133.573526 190.789892 
L 133.634411 190.457693 
L 133.75618 189.550574 
L 133.938835 194.790284 
L 134.060605 196.851807 
L 134.12149 196.569073 
L 134.182375 199.156323 
L 134.24326 196.007297 
L 134.304144 197.617621 
L 134.365029 199.460103 
L 134.547684 196.199726 
L 134.608569 195.563549 
L 134.791224 190.470304 
L 134.852109 191.340146 
L 135.034763 199.30458 
L 135.278303 192.032316 
L 135.460958 188.718596 
L 135.521843 186.699741 
L 135.643612 190.484542 
L 135.704497 189.482714 
L 135.765382 190.572325 
L 135.887152 187.763533 
L 135.948037 188.120288 
L 136.069807 193.956483 
L 136.191576 189.293152 
L 136.313346 190.019668 
L 136.374231 191.190084 
L 136.556886 186.839703 
L 136.617771 187.771487 
L 136.678656 185.569085 
L 136.922195 190.706689 
L 136.98308 189.675967 
L 137.043965 190.667687 
L 137.165735 188.801136 
L 137.22662 190.192699 
L 137.287505 190.090891 
L 137.34839 189.992533 
L 137.470159 191.310723 
L 137.652814 193.111759 
L 137.713699 192.604983 
L 137.774584 190.838254 
L 137.835469 192.188927 
L 137.896354 191.831725 
L 138.018124 188.960513 
L 138.079009 191.073619 
L 138.139893 190.444111 
L 138.200778 188.197123 
L 138.261663 189.020996 
L 138.322548 190.220822 
L 138.383433 189.585815 
L 138.444318 190.082931 
L 138.505203 189.085551 
L 138.626973 185.403281 
L 138.809627 187.835883 
L 138.870512 188.662404 
L 138.931397 191.756629 
L 138.992282 190.41948 
L 139.053167 190.779446 
L 139.296707 194.104148 
L 139.418476 191.121304 
L 139.540246 191.651617 
L 139.601131 193.973657 
L 139.662016 192.012075 
L 139.722901 193.240323 
L 139.844671 196.628422 
L 139.905556 195.233542 
L 139.966441 195.983887 
L 140.027325 195.908018 
L 140.149095 203.028802 
L 140.20998 201.731258 
L 140.392635 198.711991 
L 140.514405 202.161386 
L 140.57529 201.588586 
L 140.636175 199.082488 
L 140.697059 199.68584 
L 140.757944 199.341026 
L 140.940599 204.328571 
L 141.184139 196.201194 
L 141.245024 195.436275 
L 141.305908 195.961571 
L 141.427678 197.931035 
L 141.488563 196.530629 
L 141.549448 198.570774 
L 141.610333 196.641672 
L 141.792988 200.301092 
L 141.853873 200.029457 
L 141.914757 201.184578 
L 142.036527 197.372208 
L 142.097412 198.29849 
L 142.158297 200.973413 
L 142.340952 194.323757 
L 142.462722 196.409223 
L 142.523607 196.181864 
L 142.584491 196.427121 
L 142.706261 195.690184 
L 142.828031 198.511585 
L 142.888916 197.008039 
L 142.949801 197.489088 
L 143.071571 199.579267 
L 143.132456 199.311542 
L 143.19334 197.967443 
L 143.254225 199.11461 
L 143.31511 198.848532 
L 143.375995 198.051891 
L 143.43688 194.972096 
L 143.497765 195.574425 
L 143.55865 195.776513 
L 143.619535 195.1707 
L 143.68042 195.657264 
L 143.80219 189.845722 
L 143.863074 191.157634 
L 143.923959 190.495682 
L 143.984844 190.182319 
L 144.045729 190.197684 
L 144.106614 190.754096 
L 144.167499 189.504064 
L 144.228384 189.876894 
L 144.289269 190.561863 
L 144.350154 190.026364 
L 144.471923 189.307586 
L 144.532808 190.080157 
L 144.593693 188.677805 
L 144.654578 188.949534 
L 144.776348 189.874881 
L 144.959003 185.776776 
L 145.019888 186.34599 
L 145.263427 176.563002 
L 145.324312 176.271059 
L 145.385197 176.973296 
L 145.567852 173.47298 
L 145.628737 173.92934 
L 145.689622 173.91754 
L 145.750506 173.049644 
L 145.994046 181.921204 
L 146.237586 178.415631 
L 146.42024 171.780981 
L 146.54201 174.577614 
L 146.724665 171.54161 
L 146.78555 171.552907 
L 146.90732 173.697739 
L 147.089974 168.671519 
L 147.150859 166.403746 
L 147.211744 174.798053 
L 147.272629 174.027367 
L 147.516169 169.112805 
L 147.698823 172.280284 
L 147.759708 169.215945 
L 147.820593 170.668789 
L 147.942363 172.531928 
L 148.307672 162.302264 
L 148.368557 162.303128 
L 148.429442 163.621791 
L 148.490327 162.791686 
L 148.551212 162.577949 
L 148.612097 163.497521 
L 148.672982 162.762343 
L 148.794752 159.684906 
L 148.916521 161.302414 
L 149.099176 158.37975 
L 149.220946 159.101975 
L 149.342716 163.771057 
L 149.464486 157.283799 
L 149.525371 158.963411 
L 149.586255 159.365543 
L 149.708025 157.866242 
L 150.01245 154.034962 
L 150.13422 156.373661 
L 150.195104 155.555287 
L 150.560414 161.953749 
L 150.682184 159.704897 
L 150.743069 159.957662 
L 150.803954 160.717824 
L 150.864838 163.692189 
L 150.925723 162.143437 
L 150.986608 162.65652 
L 151.108378 160.997859 
L 151.291033 164.406804 
L 151.473687 161.287842 
L 151.717227 168.063411 
L 151.838997 165.116224 
L 152.021652 162.216741 
L 152.082537 163.338634 
L 152.204306 161.164444 
L 152.326076 163.814634 
L 152.447846 161.33879 
L 152.508731 162.549186 
L 152.569616 165.332978 
L 152.630501 164.386612 
L 152.813155 166.680874 
L 152.87404 164.507236 
L 152.934925 168.71275 
L 152.99581 167.233929 
L 153.23935 162.191454 
L 153.422004 167.742096 
L 153.543774 162.985682 
L 153.604659 163.114572 
L 153.665544 161.883863 
L 153.969969 169.338505 
L 154.030853 169.000563 
L 154.213508 164.354112 
L 154.274393 164.862056 
L 154.396163 163.723129 
L 154.578818 167.38521 
L 154.639702 166.753582 
L 154.700587 165.668814 
L 154.761472 167.101444 
L 154.822357 163.904299 
L 154.883242 164.0782 
L 154.944127 166.125592 
L 155.065897 160.192372 
L 155.126782 161.309303 
L 155.187667 160.537294 
L 155.309436 163.281241 
L 155.370321 161.93938 
L 155.431206 162.225043 
L 155.674746 166.1932 
L 155.857401 165.319548 
L 155.918285 165.516912 
L 155.97917 165.233869 
L 156.10094 166.205152 
L 156.161825 165.532956 
L 156.22271 167.731491 
L 156.283595 166.692463 
L 156.34448 167.530517 
L 156.405365 162.737839 
L 156.46625 164.371714 
L 156.527135 165.70013 
L 156.588019 164.388941 
L 156.831559 169.9468 
L 156.892444 170.772533 
L 156.953329 173.835172 
L 157.014214 171.930461 
L 157.075099 171.689774 
L 157.135984 170.359266 
L 157.196868 171.930156 
L 157.501293 162.525099 
L 157.623063 164.351358 
L 157.683948 168.433652 
L 157.744833 165.93976 
L 157.805718 166.2918 
L 157.866602 165.569009 
L 158.049257 167.261491 
L 158.171027 162.898717 
L 158.231912 164.432816 
L 158.536336 159.793968 
L 158.658106 162.555378 
L 158.779876 159.484127 
L 158.840761 163.00719 
L 159.023416 154.441679 
L 159.145185 159.221853 
L 159.20607 158.737232 
L 159.388725 154.156777 
L 159.44961 154.536388 
L 159.632265 151.084415 
L 159.69315 151.86747 
L 159.814919 156.739175 
L 160.058459 149.186776 
L 160.119344 150.568788 
L 160.180229 151.172689 
L 160.301999 147.024392 
L 160.362883 149.999768 
L 160.423768 148.682542 
L 160.606423 146.951239 
L 160.667308 147.907492 
L 160.728193 147.607225 
L 160.789078 147.812581 
L 160.971733 143.536574 
L 161.032617 145.621699 
L 161.215272 140.713635 
L 161.337042 145.517966 
L 161.458812 143.808481 
L 161.519697 143.772785 
L 161.702351 146.953152 
L 161.824121 142.929951 
L 161.885006 144.056105 
L 162.006776 142.62353 
L 162.189431 134.242678 
L 162.43297 139.021178 
L 162.493855 137.859958 
L 162.55474 139.002301 
L 162.79828 149.142726 
L 162.859165 148.576797 
L 162.920049 151.826677 
L 162.980934 149.924735 
L 163.041819 148.80802 
L 163.163589 151.600791 
L 163.346244 143.78055 
L 163.407129 143.823485 
L 163.468014 147.081101 
L 163.528899 146.999193 
L 163.650668 144.096411 
L 163.711553 145.444937 
L 163.772438 143.4679 
L 163.894208 146.329796 
L 163.955093 146.097133 
L 164.137748 143.396026 
L 164.320402 141.028973 
L 164.381287 140.791813 
L 164.503057 143.289932 
L 164.685712 140.310606 
L 164.746597 140.535613 
L 164.807481 139.995421 
L 164.868366 140.259454 
L 165.051021 143.117147 
L 165.111906 141.677553 
L 165.172791 143.409104 
L 165.233676 143.315379 
L 165.355446 137.890448 
L 165.5381 140.203518 
L 165.65987 138.861091 
L 165.720755 139.103677 
L 165.78164 140.160423 
L 165.842525 140.093648 
L 166.02518 136.61644 
L 166.146949 136.285364 
L 166.268719 138.496212 
L 166.329604 138.120027 
L 166.390489 138.792404 
L 166.512259 136.282512 
L 166.694914 143.154016 
L 166.816683 139.950879 
L 166.938453 144.926932 
L 166.999338 144.456608 
L 167.181993 140.356967 
L 167.242878 141.268742 
L 167.303763 138.894039 
L 167.364647 139.79252 
L 167.486417 141.671704 
L 167.547302 141.514808 
L 167.608187 142.047705 
L 167.669072 145.917804 
L 167.729957 143.083101 
L 168.034381 149.799349 
L 168.095266 149.347768 
L 168.156151 148.472107 
L 168.217036 150.473259 
L 168.277921 149.033102 
L 168.460576 151.280915 
L 168.582346 149.903879 
L 168.825885 155.519703 
L 168.88677 153.124302 
L 168.947655 153.706709 
L 169.00854 156.108232 
L 169.069425 154.353425 
L 169.191195 156.406034 
L 169.312964 155.064194 
L 169.678274 162.527646 
L 170.165353 147.049762 
L 170.226238 144.095632 
L 170.287123 145.281666 
L 170.348008 146.679642 
L 170.408893 145.303279 
L 170.469778 146.089071 
L 170.652432 144.164312 
L 170.835087 147.766215 
L 170.956857 150.726345 
L 171.078627 147.47118 
L 171.139512 147.876304 
L 171.200396 149.084631 
L 171.261281 147.866714 
L 171.443936 150.833076 
L 171.504821 150.320518 
L 171.626591 147.09812 
L 171.687476 147.224471 
L 171.748361 147.537146 
L 171.809245 145.173924 
L 171.87013 145.351729 
L 171.931015 145.936595 
L 171.9919 150.387624 
L 172.052785 148.86831 
L 172.174555 150.919031 
L 172.296325 154.532187 
L 172.478979 149.605801 
L 172.539864 150.727837 
L 172.722519 153.285462 
L 172.966059 154.518203 
L 173.209598 150.681925 
L 173.270483 153.921183 
L 173.331368 153.72905 
L 173.514023 149.771144 
L 173.574908 152.407953 
L 173.635793 149.359375 
L 173.696678 150.272254 
L 173.757562 153.051666 
L 173.818447 152.632422 
L 173.879332 152.383748 
L 174.061987 155.105328 
L 174.122872 154.987569 
L 174.183757 152.519555 
L 174.244642 152.980834 
L 174.305527 152.297978 
L 174.366411 154.644005 
L 174.427296 154.304855 
L 174.549066 153.710663 
L 174.609951 157.120076 
L 174.670836 152.900742 
L 174.731721 153.403695 
L 174.792606 157.886858 
L 174.853491 156.840438 
L 174.975261 157.614697 
L 175.036145 160.447449 
L 175.09703 160.397739 
L 175.157915 157.782269 
L 175.2188 158.881 
L 175.279685 158.685583 
L 175.46234 160.959129 
L 175.58411 159.669295 
L 175.644994 161.017101 
L 175.705879 159.772303 
L 175.766764 160.539573 
L 175.827649 162.699837 
L 175.888534 161.213657 
L 175.949419 160.532029 
L 176.010304 164.545545 
L 176.071189 164.419523 
L 176.132074 164.986107 
L 176.192959 163.705255 
L 176.314728 167.094641 
L 176.375613 165.721754 
L 176.436498 166.188327 
L 176.497383 165.430866 
L 176.740923 169.999619 
L 176.801808 169.575128 
L 176.862693 168.054028 
L 176.984462 171.257607 
L 177.045347 171.109807 
L 177.106232 169.947605 
L 177.167117 166.592631 
L 177.228002 168.318836 
L 177.410657 167.476369 
L 177.471542 169.271182 
L 177.593311 165.963586 
L 177.654196 166.367904 
L 177.715081 166.16105 
L 177.775966 164.258927 
L 177.836851 164.446254 
L 178.080391 166.29808 
L 178.32393 160.470043 
L 178.506585 163.961846 
L 178.56747 164.011617 
L 178.750125 168.896564 
L 178.811009 167.123304 
L 178.871894 168.488947 
L 178.932779 171.599139 
L 178.993664 169.250755 
L 179.115434 167.867279 
L 179.419859 174.455064 
L 179.480743 173.460087 
L 179.663398 168.319413 
L 179.724283 168.308555 
L 179.785168 168.136998 
L 180.028708 164.012485 
L 180.454902 176.938484 
L 180.515787 176.23308 
L 180.576672 175.893046 
L 180.698442 173.013189 
L 180.759326 173.115787 
L 180.820211 172.535185 
L 180.941981 174.73327 
L 181.246406 170.373424 
L 181.368175 173.396519 
L 181.55083 168.985441 
L 181.611715 167.959761 
L 181.6726 169.583149 
L 181.733485 167.790765 
L 181.79437 167.808888 
L 181.855255 168.256116 
L 181.91614 167.355583 
L 182.098794 172.239203 
L 182.159679 171.184091 
L 182.220564 171.521929 
L 182.281449 175.875958 
L 182.342334 173.178996 
L 182.464104 172.447838 
L 182.768528 162.467003 
L 182.829413 163.218895 
L 182.890298 160.188516 
L 182.951183 160.469617 
L 183.012068 161.3425 
L 183.255607 157.814033 
L 183.316492 160.199815 
L 183.499147 155.366054 
L 183.560032 156.468732 
L 183.620917 155.653714 
L 183.681802 155.410768 
L 183.742687 157.708076 
L 183.925341 153.18199 
L 183.986226 155.105103 
L 184.047111 151.451117 
L 184.107996 153.060686 
L 184.168881 155.534443 
L 184.229766 155.165843 
L 184.412421 150.35939 
L 184.65596 147.789826 
L 184.716845 151.711179 
L 184.77773 149.053075 
L 184.8995 151.501487 
L 184.960385 148.054703 
L 185.02127 149.535276 
L 185.082155 148.606429 
L 185.14304 150.637859 
L 185.203924 149.118601 
L 185.264809 149.736099 
L 185.325694 146.802118 
L 185.386579 147.590332 
L 185.447464 147.531806 
L 185.569234 150.860013 
L 185.630119 150.748724 
L 185.873658 143.691515 
L 185.934543 147.067946 
L 185.995428 146.562351 
L 186.117198 146.941458 
L 186.238968 151.0263 
L 186.360738 150.110108 
L 186.482507 147.642577 
L 186.543392 145.28106 
L 186.604277 147.164384 
L 186.726047 149.454506 
L 186.786932 148.885467 
L 186.847817 148.847142 
L 187.274011 143.020691 
L 187.334896 145.063798 
L 187.517551 138.808827 
L 187.700205 142.137455 
L 187.821975 144.198485 
L 187.88286 143.333178 
L 187.943745 144.987783 
L 188.00463 143.859498 
L 188.065515 140.67994 
L 188.1264 143.026718 
L 188.187285 144.91881 
L 188.24817 143.872371 
L 188.309055 143.51 
L 188.430824 146.614309 
L 188.552594 143.648468 
L 188.613479 142.455852 
L 188.674364 143.355787 
L 188.735249 142.537428 
L 188.796134 143.774147 
L 188.978788 141.160803 
L 189.039673 141.322028 
L 189.100558 140.425776 
L 189.222328 143.367039 
L 189.283213 145.732645 
L 189.344098 145.365318 
L 189.404983 141.384311 
L 189.465868 142.235156 
L 189.526753 141.493639 
L 189.587638 141.893358 
L 189.648522 142.603941 
L 189.831177 140.832132 
L 190.013832 137.135073 
L 190.196487 141.194833 
L 190.257371 140.920552 
L 190.379141 138.171551 
L 190.500911 143.196494 
L 190.622681 139.217166 
L 190.683566 140.434806 
L 190.744451 139.89035 
L 190.866221 141.198098 
L 190.927105 141.127724 
L 190.98799 140.995647 
L 191.048875 140.236453 
L 191.170645 145.07243 
L 191.292415 148.199788 
L 191.3533 146.634388 
L 191.414185 147.540869 
L 191.596839 152.448343 
L 191.657724 150.554963 
L 191.779494 151.064879 
L 191.962149 154.056657 
L 192.023034 153.187935 
L 192.144804 156.653703 
L 192.327458 153.324396 
L 192.875422 169.665824 
L 193.058077 169.074856 
L 193.118962 169.062908 
L 193.179847 166.618433 
L 193.240732 166.883691 
L 193.301617 168.957367 
L 193.362502 166.914792 
L 193.423386 168.169854 
L 193.606041 166.597359 
L 194.032236 173.744159 
L 194.09312 172.461507 
L 194.154005 173.830945 
L 194.33666 170.795893 
L 194.397545 170.803733 
L 194.45843 174.752248 
L 194.519315 173.800442 
L 194.641085 176.532662 
L 194.701969 178.710185 
L 194.762854 177.374505 
L 195.189049 170.962746 
L 195.310819 171.658811 
L 195.432588 172.465298 
L 195.493473 171.068762 
L 195.554358 174.276674 
L 195.615243 172.538918 
L 195.676128 172.120175 
L 195.858783 167.188399 
L 195.919668 165.926284 
L 196.102322 168.629084 
L 196.224092 165.245617 
L 196.406747 170.449573 
L 196.467632 169.711301 
L 196.650286 176.599579 
L 196.711171 176.481381 
L 196.772056 173.948289 
L 196.832941 175.331186 
L 196.893826 174.374374 
L 197.015596 171.265867 
L 197.076481 174.085844 
L 197.137366 173.760854 
L 197.198251 174.559651 
L 197.44179 169.443733 
L 197.56356 170.489035 
L 197.746215 176.186264 
L 197.8071 176.153887 
L 197.867985 174.506797 
L 197.928869 174.681617 
L 197.989754 174.694504 
L 198.050639 175.78002 
L 198.233294 171.128187 
L 198.355064 172.346035 
L 198.415949 176.344507 
L 198.476834 174.218584 
L 198.720373 166.509867 
L 198.781258 168.243409 
L 198.842143 166.905477 
L 198.903028 166.236888 
L 199.024798 169.297575 
L 199.085683 169.106002 
L 199.207452 168.358866 
L 199.633647 176.56283 
L 199.877186 172.141267 
L 199.938071 172.72649 
L 200.059841 170.904255 
L 200.120726 170.881417 
L 200.303381 178.553754 
L 200.364266 178.395873 
L 200.486035 173.14794 
L 200.729575 180.214134 
L 200.79046 180.894238 
L 200.851345 178.89522 
L 201.034 182.835246 
L 201.155769 180.927286 
L 201.460194 184.282071 
L 201.642849 180.260227 
L 201.947273 187.334057 
L 202.008158 186.019375 
L 202.069043 183.379455 
L 202.129928 183.719012 
L 202.190813 183.570809 
L 202.312583 181.254111 
L 202.434352 183.503482 
L 202.556122 182.394123 
L 202.617007 181.114424 
L 202.677892 181.639746 
L 202.738777 181.909574 
L 203.164971 189.117432 
L 203.347626 183.980477 
L 203.530281 188.864928 
L 203.591166 188.88056 
L 203.77382 193.039947 
L 203.956475 188.959441 
L 204.01736 190.594596 
L 204.078245 189.339687 
L 204.13913 189.884176 
L 204.260899 188.343332 
L 204.321784 188.615488 
L 204.382669 190.50304 
L 204.443554 189.7701 
L 204.504439 190.460668 
L 204.687094 186.598351 
L 204.747979 186.766804 
L 204.930633 181.837019 
L 204.991518 183.23908 
L 205.052403 182.636756 
L 205.235058 182.034487 
L 205.295943 183.03378 
L 205.356828 182.459824 
L 205.904792 175.91222 
L 206.026562 178.007427 
L 206.148331 171.482351 
L 206.209216 172.201312 
L 206.452756 174.893407 
L 206.513641 174.599113 
L 206.635411 172.227789 
L 206.818065 173.918305 
L 206.87895 173.914093 
L 207.061605 175.203078 
L 207.12249 173.955379 
L 207.183375 178.904418 
L 207.24426 177.940622 
L 207.305145 176.392471 
L 207.36603 177.544861 
L 207.609569 184.173125 
L 207.792224 183.195211 
L 208.096648 180.956331 
L 208.157533 182.456474 
L 208.279303 179.264664 
L 208.340188 181.300151 
L 208.401073 180.234835 
L 208.461958 179.944297 
L 208.583728 181.809709 
L 208.766382 176.802184 
L 208.949037 174.327946 
L 209.070807 176.279481 
L 209.314347 183.711901 
L 209.375231 183.582808 
L 209.436116 184.313662 
L 209.497001 184.196438 
L 209.557886 184.101901 
L 209.679656 185.875419 
L 209.740541 185.602405 
L 209.801426 185.850957 
L 209.862311 183.30393 
L 209.923196 184.273141 
L 209.98408 183.599918 
L 210.10585 187.052268 
L 210.166735 185.110417 
L 210.288505 188.863291 
L 210.34939 188.801971 
L 210.410275 188.529389 
L 210.47116 186.837924 
L 210.532045 188.44164 
L 210.592929 187.52478 
L 210.653814 187.552743 
L 210.836469 182.1299 
L 210.897354 182.23929 
L 210.958239 183.450499 
L 211.019124 182.750801 
L 211.080009 182.38792 
L 211.140894 183.902481 
L 211.201779 181.192757 
L 211.262663 183.044461 
L 211.323548 182.897524 
L 211.506203 190.610857 
L 211.567088 188.437332 
L 211.688858 184.452057 
L 211.749743 184.739237 
L 211.810628 186.717192 
L 211.871512 185.317118 
L 211.993282 185.487046 
L 212.054167 186.4597 
L 212.236822 184.083476 
L 212.297707 184.105636 
L 212.358592 184.326242 
L 212.723901 190.610652 
L 212.784786 194.204285 
L 212.845671 193.958144 
L 212.906556 193.670708 
L 212.967441 196.163333 
L 213.028326 194.615269 
L 213.089211 196.467805 
L 213.150095 195.024746 
L 213.33275 191.781214 
L 213.45452 191.779742 
L 213.515405 191.196801 
L 213.57629 187.504815 
L 213.637175 189.444538 
L 213.819829 185.779741 
L 213.880714 186.853082 
L 213.941599 192.281082 
L 214.002484 191.803732 
L 214.185139 194.781809 
L 214.246024 191.95354 
L 214.306909 194.084971 
L 214.367794 193.781777 
L 214.550448 195.225204 
L 214.672218 191.46181 
L 214.733103 193.713728 
L 214.793988 192.558941 
L 214.976643 191.705615 
L 215.098412 194.159423 
L 215.281067 190.090268 
L 215.341952 190.032586 
L 215.402837 185.690445 
L 215.463722 188.111385 
L 215.524607 187.880182 
L 215.707261 192.332915 
L 215.889916 192.113146 
L 215.950801 189.268562 
L 216.133456 195.307352 
L 216.194341 196.113943 
L 216.255226 194.833768 
L 216.31611 195.473683 
L 216.376995 194.892262 
L 216.43788 195.47816 
L 216.498765 193.594643 
L 216.68142 198.004656 
L 216.742305 194.840483 
L 216.80319 196.798212 
L 217.046729 191.629062 
L 217.107614 193.227361 
L 217.168499 192.519345 
L 217.290269 192.776835 
L 217.472924 194.560313 
L 217.716463 187.813364 
L 217.777348 188.149616 
L 217.838233 186.341246 
L 217.899118 187.513059 
L 218.020888 188.014472 
L 218.264427 181.278189 
L 218.447082 184.369713 
L 218.507967 183.934045 
L 218.629737 184.883271 
L 218.690622 183.560053 
L 218.812392 189.334427 
L 218.873276 187.881522 
L 218.934161 188.484646 
L 218.995046 185.584187 
L 219.055931 186.13566 
L 219.116816 189.064681 
L 219.177701 187.213328 
L 219.238586 188.445239 
L 219.299471 187.88391 
L 219.482126 186.951613 
L 219.54301 187.499272 
L 219.603895 187.335901 
L 219.969205 179.729143 
L 220.03009 182.379178 
L 220.151859 177.46867 
L 220.212744 180.645034 
L 220.273629 179.077034 
L 220.334514 178.088566 
L 220.395399 178.408132 
L 220.699824 185.416157 
L 220.760709 185.310188 
L 220.943363 190.957895 
L 221.126018 186.591958 
L 221.308673 192.514859 
L 221.369558 190.885605 
L 221.491327 194.576386 
L 221.613097 193.343164 
L 221.673982 190.092204 
L 221.734867 191.011282 
L 221.795752 190.516273 
L 221.917522 192.782778 
L 221.978407 192.084687 
L 222.100176 193.916567 
L 222.161061 193.132433 
L 222.221946 193.467951 
L 222.282831 193.443823 
L 222.343716 193.235361 
L 222.465486 195.335555 
L 222.526371 194.903718 
L 222.587256 194.833032 
L 222.648141 195.109602 
L 222.709025 197.553238 
L 222.76991 196.778946 
L 222.830795 195.308958 
L 222.89168 195.562389 
L 222.952565 196.623903 
L 223.01345 195.543241 
L 223.074335 198.552289 
L 223.13522 198.149938 
L 223.378759 200.7145 
L 223.500529 198.12912 
L 223.622299 199.815765 
L 223.865839 206.126575 
L 223.926724 206.190505 
L 223.987608 206.680152 
L 224.048493 208.112065 
L 224.170263 204.810124 
L 224.231148 205.719338 
L 224.292033 205.147323 
L 224.413803 200.889613 
L 224.474688 203.34188 
L 224.535573 202.74668 
L 224.596457 203.713108 
L 224.839997 200.234981 
L 224.900882 203.231896 
L 224.961767 200.789557 
L 225.022652 203.313404 
L 225.083537 202.454797 
L 225.144422 200.977203 
L 225.205307 202.757343 
L 225.631501 193.87735 
L 225.814156 197.634666 
L 225.87504 196.691371 
L 225.935925 193.519725 
L 225.99681 193.850427 
L 226.179465 197.232889 
L 226.24035 197.548149 
L 226.301235 198.54078 
L 226.423005 196.876371 
L 226.788314 207.887099 
L 226.910084 204.99268 
L 226.970969 205.488658 
L 227.153623 204.175283 
L 227.336278 196.473364 
L 227.397163 197.054551 
L 227.579818 201.590125 
L 227.823357 195.71322 
L 227.884242 196.260082 
L 227.945127 195.949173 
L 228.066897 199.206707 
L 228.188667 199.162738 
L 228.371322 201.039013 
L 228.432206 199.546936 
L 228.493091 201.236582 
L 228.553976 200.626204 
L 228.614861 201.362573 
L 228.675746 200.966979 
L 228.858401 206.04579 
L 229.10194 199.38258 
L 229.162825 197.472804 
L 229.22371 201.207186 
L 229.284595 199.64778 
L 229.406365 202.174047 
L 229.46725 201.561564 
L 229.528135 199.220396 
L 229.58902 199.583846 
L 229.649905 201.63867 
L 229.710789 200.823188 
L 229.771674 197.673343 
L 229.832559 200.390052 
L 229.893444 197.063961 
L 230.015214 202.645212 
L 230.076099 200.499775 
L 230.136984 200.773943 
L 230.258754 201.839086 
L 230.441408 197.76171 
L 230.502293 197.003709 
L 230.684948 194.284735 
L 230.806718 195.93712 
L 230.867603 195.928598 
L 230.928488 194.012199 
L 230.989372 196.130689 
L 231.050257 194.572687 
L 231.111142 192.795345 
L 231.172027 193.908737 
L 231.293797 192.45459 
L 231.354682 193.897569 
L 231.537337 187.758694 
L 231.659106 190.303554 
L 231.719991 186.955357 
L 231.780876 188.313198 
L 231.841761 189.073961 
L 231.902646 185.499581 
L 231.963531 185.933921 
L 232.024416 185.569999 
L 232.085301 186.507869 
L 232.207071 182.156449 
L 232.32884 184.172969 
L 232.389725 183.578976 
L 232.57238 190.568587 
L 232.633265 189.488693 
L 232.69415 189.290009 
L 232.937689 193.278318 
L 233.059459 197.139867 
L 233.120344 195.537739 
L 233.181229 198.678126 
L 233.242114 198.62834 
L 233.363884 198.714402 
L 233.546538 200.699393 
L 233.668308 198.775013 
L 233.790078 202.292243 
L 233.972733 197.267261 
L 234.033618 196.776316 
L 234.155387 198.05623 
L 234.398927 192.446201 
L 234.520697 194.804987 
L 234.764236 189.595404 
L 234.825121 191.002108 
L 234.886006 187.753212 
L 234.946891 188.275785 
L 235.190431 192.343123 
L 235.251316 190.053562 
L 235.312201 191.060521 
L 235.494855 192.914725 
L 235.616625 191.810227 
L 235.67751 192.941603 
L 235.738395 190.284719 
L 235.79928 191.065312 
L 235.860165 190.378955 
L 235.92105 191.288353 
L 236.042819 190.055475 
L 236.103704 192.581192 
L 236.164589 192.090459 
L 236.225474 191.89481 
L 236.347244 193.103311 
L 236.408129 192.870658 
L 236.651669 196.76754 
L 236.712553 196.711096 
L 236.773438 201.191292 
L 236.834323 199.84832 
L 236.956093 200.833489 
L 237.016978 200.722104 
L 237.199633 202.687059 
L 237.260518 205.425198 
L 237.321402 203.617825 
L 237.443172 200.309783 
L 237.504057 201.155755 
L 237.564942 201.263125 
L 237.625827 202.076966 
L 237.686712 201.320687 
L 237.930252 205.925885 
L 237.991136 204.113421 
L 238.052021 204.969194 
L 238.356446 208.634891 
L 238.478216 212.895358 
L 238.539101 212.515782 
L 238.66087 213.780632 
L 238.78264 210.053389 
L 238.843525 210.666934 
L 238.90441 213.709187 
L 238.965295 212.775258 
L 239.330604 216.482292 
L 239.391489 216.096363 
L 239.452374 213.080367 
L 239.513259 215.365624 
L 239.635029 220.499046 
L 239.695914 220.092438 
L 239.817684 217.054345 
L 239.878568 218.426172 
L 239.939453 222.876067 
L 240.000338 219.533828 
L 240.182993 224.077882 
L 240.243878 223.077456 
L 240.304763 223.452134 
L 240.487417 228.497012 
L 240.609187 226.279556 
L 240.913612 229.602302 
L 240.974497 231.058187 
L 241.035382 230.036091 
L 241.218036 224.776962 
L 241.339806 225.093344 
L 241.400691 224.308165 
L 241.705116 229.103242 
L 241.766 227.932765 
L 242.00954 224.517713 
L 242.13131 225.441529 
L 242.192195 225.211112 
L 242.313965 226.342991 
L 242.435734 223.365389 
L 242.496619 223.798937 
L 242.801044 227.13208 
L 242.861929 227.038517 
L 242.983699 224.573296 
L 243.166353 232.084057 
L 243.227238 230.67835 
L 243.288123 231.864012 
L 243.349008 231.566672 
L 243.409893 230.564999 
L 243.470778 231.07859 
L 243.531663 230.426188 
L 243.714317 233.500238 
L 243.775202 232.94949 
L 243.896972 235.618509 
L 243.957857 235.229643 
L 244.201397 228.423159 
L 244.262282 228.048483 
L 244.566706 234.069304 
L 244.688476 231.553204 
L 244.810246 231.868522 
L 244.871131 231.699537 
L 244.9929 229.791824 
L 245.053785 231.679841 
L 245.11467 230.570033 
L 245.23644 231.810165 
L 245.540865 223.149803 
L 245.723519 232.859233 
L 245.784404 230.217352 
L 245.845289 230.63202 
L 246.027944 227.360885 
L 246.149714 228.141504 
L 246.271483 226.64982 
L 246.575908 233.606785 
L 246.636793 234.127019 
L 246.697678 232.012623 
L 246.758563 233.781508 
L 246.819448 233.441829 
L 246.880332 233.257519 
L 247.002102 230.948795 
L 247.184757 225.743158 
L 247.245642 227.52251 
L 247.306527 227.209067 
L 247.367412 222.949899 
L 247.428297 225.700813 
L 247.489181 225.001925 
L 247.610951 228.008562 
L 247.671836 226.515344 
L 247.976261 219.18541 
L 248.037146 218.496212 
L 248.158915 219.444096 
L 248.2198 219.247778 
L 248.34157 217.13524 
L 248.524225 220.6691 
L 248.767764 215.581062 
L 248.828649 216.351157 
L 248.889534 212.16675 
L 248.950419 214.482946 
L 249.072189 212.025772 
L 249.133074 212.278679 
L 249.254844 214.829605 
L 249.315729 213.551404 
L 249.437498 212.092742 
L 249.559268 209.636525 
L 249.802808 214.421675 
L 249.863693 214.311879 
L 249.924578 212.924149 
L 249.985463 213.108741 
L 250.107232 217.694906 
L 250.168117 216.166164 
L 250.411657 211.911176 
L 250.472542 213.312345 
L 250.594312 213.617346 
L 250.655196 212.533946 
L 250.716081 213.354465 
L 250.776966 213.777707 
L 250.898736 208.900442 
L 250.959621 211.02748 
L 251.020506 209.950684 
L 251.081391 211.391163 
L 251.142276 210.810752 
L 251.32493 206.250619 
L 251.385815 206.646986 
L 251.4467 206.604098 
L 251.56847 201.544129 
L 251.69024 201.867797 
L 251.751125 202.295908 
L 251.872895 199.934829 
L 252.116434 204.456086 
L 252.177319 203.638784 
L 252.238204 205.683962 
L 252.299089 203.429421 
L 252.359974 203.911055 
L 252.725283 211.65413 
L 252.786168 211.154426 
L 252.847053 212.901978 
L 252.968823 210.655174 
L 253.029708 212.318373 
L 253.151478 208.255603 
L 253.334132 214.741518 
L 253.455902 219.142693 
L 253.516787 215.467398 
L 253.577672 215.711561 
L 253.638557 217.550399 
L 253.699442 216.72296 
L 253.882096 211.926813 
L 253.942981 213.536862 
L 254.003866 212.247617 
L 254.064751 208.399944 
L 254.125636 209.197568 
L 254.186521 209.523808 
L 254.369176 214.15186 
L 254.55183 212.31313 
L 254.612715 214.491449 
L 254.6736 214.286052 
L 254.91714 207.057217 
L 255.03891 207.436852 
L 255.160679 211.245023 
L 255.221564 209.534586 
L 255.282449 209.843668 
L 255.465104 212.484344 
L 255.525989 212.734694 
L 255.708644 217.384924 
L 255.769528 217.02753 
L 255.830413 217.833358 
L 255.891298 215.183087 
L 255.952183 217.872895 
L 256.013068 216.641833 
L 256.073953 217.689165 
L 256.256608 215.523172 
L 256.500147 219.217258 
L 256.561032 218.70503 
L 256.743687 223.064557 
L 256.804572 225.259323 
L 256.987227 220.955009 
L 257.048111 223.428277 
L 257.108996 223.181512 
L 257.230766 218.641124 
L 257.352536 220.127154 
L 257.535191 224.279026 
L 257.596076 223.728008 
L 257.717845 225.185813 
L 257.77873 223.125567 
L 257.839615 223.362142 
L 257.9005 225.401874 
L 258.083155 222.029345 
L 258.26581 225.252111 
L 258.387579 218.788828 
L 258.448464 219.743729 
L 258.509349 220.784671 
L 258.570234 220.291478 
L 258.692004 219.387628 
L 258.752889 219.912703 
L 258.874659 217.95697 
L 259.057313 219.511464 
L 259.300853 214.193063 
L 259.544393 219.489013 
L 259.666162 219.119716 
L 259.727047 218.515775 
L 259.787932 216.657188 
L 259.848817 216.898573 
L 259.909702 216.840863 
L 260.031472 214.74451 
L 260.214126 219.649724 
L 260.335896 216.508207 
L 260.396781 218.246143 
L 260.457666 217.265429 
L 260.701206 211.994195 
L 260.822976 214.168583 
L 260.88386 213.641655 
L 260.944745 213.808432 
L 261.1274 208.046857 
L 261.188285 207.842593 
L 261.310055 211.553925 
L 261.37094 210.227007 
L 261.431825 209.074216 
L 261.492709 209.829838 
L 261.614479 212.344845 
L 261.736249 211.538431 
L 261.797134 211.938453 
L 261.979789 210.754409 
L 262.101558 210.98562 
L 262.162443 208.791712 
L 262.223328 209.362024 
L 262.284213 209.485414 
L 262.466868 209.286757 
L 262.588638 208.110611 
L 262.649523 208.645016 
L 262.771292 206.81986 
L 262.893062 209.433701 
L 263.014832 209.391709 
L 263.075717 208.835139 
L 263.136602 210.2342 
L 263.197487 209.313597 
L 263.258372 209.208051 
L 263.441026 214.784648 
L 263.562796 217.681356 
L 263.623681 215.343683 
L 263.684566 218.568137 
L 263.745451 218.263655 
L 263.806336 218.073709 
L 263.988991 221.918788 
L 264.11076 215.524263 
L 264.171645 215.835016 
L 264.23253 216.00965 
L 264.415185 218.970433 
L 264.47607 216.592165 
L 264.536955 218.759904 
L 264.658724 215.932665 
L 264.719609 217.420164 
L 264.902264 211.256763 
L 264.963149 213.932868 
L 265.024034 211.953566 
L 265.084919 210.818341 
L 265.511113 217.789159 
L 265.571998 217.635431 
L 265.876423 227.914752 
L 265.937307 227.554027 
L 266.302617 220.467599 
L 266.485272 225.013818 
L 266.546157 224.807618 
L 266.789696 216.941248 
L 266.911466 213.874703 
L 267.033236 215.429057 
L 267.276775 210.556372 
L 267.33766 210.734715 
L 267.520315 214.225868 
L 267.70297 217.683829 
L 267.763855 217.865973 
L 267.824739 218.829838 
L 267.885624 216.793145 
L 267.946509 217.043433 
L 268.007394 216.514365 
L 268.494473 224.762183 
L 268.616243 228.479598 
L 268.738013 229.14524 
L 268.798898 231.074443 
L 268.859783 230.626194 
L 268.920668 230.69064 
L 269.103322 226.034011 
L 269.285977 225.235735 
L 269.346862 227.100537 
L 269.468632 225.060255 
L 269.529517 225.31575 
L 269.773056 230.041633 
L 269.833941 229.842462 
L 269.955711 230.750718 
L 270.199251 225.706721 
L 270.381905 230.230857 
L 270.44279 229.549534 
L 270.56456 232.892072 
L 270.747215 227.834974 
L 270.8081 231.236082 
L 270.868985 230.235936 
L 270.92987 231.15883 
L 270.990755 230.930431 
L 271.295179 222.522821 
L 271.416949 225.409102 
L 271.477834 225.139962 
L 271.599604 226.642047 
L 271.660488 225.866438 
L 271.721373 225.743191 
L 271.782258 226.068047 
L 271.843143 225.942183 
L 271.904028 227.795976 
L 271.964913 225.764116 
L 272.147568 231.19073 
L 272.208453 231.115553 
L 272.269338 231.696006 
L 272.330222 228.969648 
L 272.391107 229.825955 
L 272.451992 229.435457 
L 272.634647 224.151784 
L 272.695532 225.309267 
L 272.756417 223.818848 
L 272.817302 225.078759 
L 272.939071 221.184944 
L 272.999956 222.199599 
L 273.304381 216.212404 
L 273.426151 216.916308 
L 273.54792 215.182222 
L 273.66969 215.825139 
L 273.730575 214.0283 
L 273.79146 215.404618 
L 273.91323 218.279208 
L 273.974115 217.702943 
L 274.095885 213.731897 
L 274.15677 214.07992 
L 274.217654 214.607101 
L 274.278539 213.127385 
L 274.339424 214.765108 
L 274.400309 214.221643 
L 274.461194 213.158199 
L 274.522079 213.74381 
L 274.704734 211.867814 
L 275.070043 219.56646 
L 275.130928 218.966009 
L 275.252698 220.556468 
L 275.313583 220.544344 
L 275.557122 226.330239 
L 275.618007 225.028476 
L 275.739777 228.141868 
L 276.044202 222.079497 
L 276.226856 226.392221 
L 276.287741 226.190421 
L 276.531281 221.062845 
L 276.592166 221.384197 
L 276.653051 220.712557 
L 276.89659 216.427174 
L 277.079245 219.110341 
L 277.201015 220.8058 
L 277.383669 216.641789 
L 277.444554 216.859086 
L 277.505439 218.149743 
L 277.566324 217.220917 
L 277.627209 217.889131 
L 277.748979 221.410929 
L 277.809864 221.510152 
L 277.870749 221.026698 
L 277.992519 227.392715 
L 278.114288 226.89714 
L 278.175173 226.811403 
L 278.236058 225.794067 
L 278.296943 227.091931 
L 278.418713 225.031119 
L 278.662252 229.293199 
L 278.784022 229.0917 
L 278.844907 229.623523 
L 278.905792 228.158555 
L 279.088447 231.812128 
L 279.331986 228.276917 
L 279.392871 228.36726 
L 279.453756 227.751346 
L 279.514641 225.6615 
L 279.575526 226.820199 
L 279.636411 226.976505 
L 279.697296 225.647986 
L 279.758181 228.034118 
L 279.819066 226.914624 
L 279.879951 225.813298 
L 279.940835 227.316411 
L 280.184375 221.372394 
L 280.427915 217.990984 
L 280.549684 220.384457 
L 280.610569 217.596586 
L 280.671454 218.267831 
L 280.732339 219.652909 
L 281.158534 205.519815 
L 281.280303 206.484467 
L 281.523843 204.643842 
L 281.584728 205.46446 
L 281.645613 203.698079 
L 281.706498 203.974299 
L 281.767383 205.823228 
L 281.828267 205.300709 
L 281.889152 205.388153 
L 282.010922 206.923015 
L 282.071807 205.216536 
L 282.132692 206.591549 
L 282.376232 213.71211 
L 282.437117 214.80875 
L 282.498001 212.309996 
L 282.558886 213.927624 
L 282.619771 213.830736 
L 282.741541 216.556298 
L 282.924196 210.752031 
L 283.045966 210.79767 
L 283.10685 212.530766 
L 283.167735 212.010974 
L 283.22862 211.577148 
L 283.411275 216.011136 
L 283.47216 213.684188 
L 283.533045 216.260065 
L 283.654815 212.161534 
L 283.7157 212.190364 
L 283.776584 212.913274 
L 283.959239 207.962422 
L 284.020124 207.869593 
L 284.141894 206.082098 
L 284.202779 206.46478 
L 284.263664 203.277627 
L 284.324549 207.242149 
L 284.385433 204.551713 
L 284.446318 207.885101 
L 284.507203 206.094875 
L 284.628973 208.987475 
L 284.689858 207.767889 
L 284.811628 209.195325 
L 284.872513 207.559357 
L 285.055167 211.747689 
L 285.116052 212.866328 
L 285.237822 207.577004 
L 285.481362 212.28663 
L 285.542247 209.978765 
L 285.603132 211.704639 
L 285.785786 215.63041 
L 285.846671 215.491697 
L 285.907556 215.343414 
L 286.151096 212.960415 
L 286.211981 214.758166 
L 286.272865 211.88945 
L 286.33375 213.632402 
L 286.394635 214.725439 
L 286.45552 213.838314 
L 286.638175 211.263775 
L 286.69906 212.245845 
L 286.881715 207.759959 
L 287.003484 210.693204 
L 287.186139 205.919615 
L 287.247024 206.654326 
L 287.307909 205.778788 
L 287.368794 208.735405 
L 287.429679 203.881539 
L 287.490564 204.545705 
L 287.551448 205.028826 
L 287.734103 201.178719 
L 287.916758 205.26225 
L 287.977643 205.280338 
L 288.038528 208.140125 
L 288.099413 206.46678 
L 288.160298 206.840995 
L 288.221182 205.009628 
L 288.403837 207.378151 
L 288.464722 206.660796 
L 288.525607 207.275138 
L 288.586492 206.714376 
L 288.647377 204.540587 
L 288.708262 204.768563 
L 288.769147 205.850364 
L 288.830031 205.040768 
L 288.890916 203.456196 
L 288.951801 207.100137 
L 289.012686 205.656505 
L 289.073571 203.379581 
L 289.134456 205.135516 
L 289.195341 205.654164 
L 289.256226 205.198054 
L 289.438881 199.012605 
L 289.499765 199.823603 
L 289.56065 199.269445 
L 289.621535 199.364104 
L 289.80419 202.436917 
L 289.865075 201.37999 
L 290.169499 205.737667 
L 290.230384 202.549221 
L 290.291269 203.822088 
L 290.352154 206.845641 
L 290.413039 206.504104 
L 290.534809 203.204943 
L 290.656579 205.6127 
L 290.778348 204.222037 
L 290.839233 204.53668 
L 290.900118 207.925849 
L 290.961003 207.259449 
L 291.021888 205.622417 
L 291.082773 207.1932 
L 291.204543 202.091848 
L 291.265428 203.507167 
L 291.326313 202.267395 
L 291.387197 202.395801 
L 291.448082 202.254859 
L 291.508967 201.641998 
L 291.569852 198.418926 
L 291.630737 200.96768 
L 291.691622 201.104556 
L 291.996046 197.406268 
L 292.117816 192.660634 
L 292.178701 194.034574 
L 292.239586 194.897357 
L 292.422241 191.092913 
L 292.483126 191.307103 
L 292.604896 193.370649 
L 292.66578 191.555277 
L 292.726665 192.105657 
L 292.78755 192.313193 
L 292.848435 192.112244 
L 293.15286 187.22454 
L 293.335514 189.476163 
L 293.457284 187.706423 
L 293.518169 187.977514 
L 293.639939 191.304556 
L 293.700824 189.464206 
L 293.761709 189.680944 
L 293.822594 190.82292 
L 294.005248 185.065352 
L 294.066133 186.613228 
L 294.187903 181.790846 
L 294.248788 182.311155 
L 294.309673 182.991283 
L 294.553212 191.039001 
L 294.614097 190.594046 
L 294.735867 193.68142 
L 294.796752 193.460639 
L 294.857637 193.307685 
L 294.979407 190.453735 
L 295.040292 192.082184 
L 295.101177 192.067079 
L 295.162062 192.022097 
L 295.222946 191.30224 
L 295.405601 195.891065 
L 295.466486 195.429755 
L 295.527371 197.435511 
L 295.831795 191.768911 
L 295.953565 190.514098 
L 296.075335 191.843483 
L 296.13622 190.909059 
L 296.197105 187.622258 
L 296.37976 193.526511 
L 296.440644 190.624153 
L 296.501529 192.425993 
L 296.866839 193.634496 
L 296.927724 194.652082 
L 297.049494 198.610675 
L 297.232148 194.341013 
L 297.475688 199.558137 
L 297.780112 190.703404 
L 297.962767 192.739997 
L 298.145422 191.768777 
L 298.206307 189.878577 
L 298.388961 195.750616 
L 298.449846 195.082685 
L 298.510731 195.442953 
L 298.693386 199.762847 
L 298.815156 200.736122 
L 298.936926 202.571928 
L 299.058695 200.385308 
L 299.11958 200.793169 
L 299.24135 197.308748 
L 299.36312 203.170703 
L 299.424005 200.661521 
L 299.48489 201.842305 
L 299.545775 201.533231 
L 299.60666 201.054869 
L 299.789314 194.939749 
L 299.850199 197.14365 
L 299.911084 195.997433 
L 299.971969 195.371495 
L 300.032854 196.250757 
L 300.154624 199.673336 
L 300.337278 197.275858 
L 300.580818 201.046223 
L 300.641703 199.378835 
L 300.702588 200.545278 
L 300.763473 200.334028 
L 300.824358 199.058456 
L 300.885243 200.647041 
L 300.946127 199.303172 
L 301.128782 203.626643 
L 301.189667 202.978157 
L 301.311437 202.294557 
L 301.494092 204.312019 
L 301.554976 203.901996 
L 301.676746 201.396765 
L 301.737631 202.288678 
L 301.859401 198.311059 
L 301.920286 200.021133 
L 301.981171 197.574644 
L 302.042056 200.270262 
L 302.102941 199.09835 
L 302.163825 197.79281 
L 302.34648 200.949718 
L 302.71179 198.847695 
L 302.894444 203.325789 
L 302.955329 202.076728 
L 303.016214 200.819867 
L 303.077099 203.762134 
L 303.137984 201.836867 
L 303.198869 201.88883 
L 303.320639 207.005892 
L 303.503293 201.397481 
L 303.625063 200.60313 
L 303.746833 202.752124 
L 303.929488 197.133129 
L 304.051258 200.779138 
L 304.112142 200.755418 
L 304.173027 200.306483 
L 304.233912 202.819445 
L 304.294797 201.461647 
L 304.355682 203.037506 
L 304.416567 201.906746 
L 304.477452 201.862544 
L 304.538337 198.390048 
L 304.599222 199.617665 
L 304.660107 200.967771 
L 304.720991 199.82473 
L 304.781876 200.123977 
L 304.842761 199.699555 
L 304.964531 200.626811 
L 305.147186 196.5504 
L 305.268956 195.977929 
L 305.45161 193.49852 
L 305.81692 203.515233 
L 305.877805 202.910938 
L 305.93869 205.701796 
L 305.999574 202.382646 
L 306.060459 204.341432 
L 306.243114 207.454985 
L 306.303999 205.77611 
L 306.364884 206.326671 
L 306.425769 206.501542 
L 306.486654 206.262234 
L 306.547539 210.33764 
L 306.608424 210.284259 
L 306.669308 207.295298 
L 306.730193 207.899174 
L 306.851963 206.735071 
L 306.912848 206.960635 
L 307.034618 204.180668 
L 307.095503 204.603693 
L 307.339042 201.114176 
L 307.399927 201.643304 
L 307.460812 199.226917 
L 307.521697 202.125283 
L 307.582582 201.063102 
L 307.643467 200.706952 
L 307.704352 201.304889 
L 307.887006 195.51833 
L 308.069661 197.723339 
L 308.130546 195.956147 
L 308.252316 197.883429 
L 308.313201 197.688878 
L 308.374086 197.933994 
L 308.434971 197.759673 
L 308.495856 193.597373 
L 308.55674 193.658372 
L 308.617625 193.140259 
L 308.67851 194.56702 
L 308.739395 193.839174 
L 308.80028 193.875655 
L 308.861165 194.67963 
L 308.982935 192.140722 
L 309.287359 198.395367 
L 309.348244 197.524933 
L 309.409129 199.370939 
L 309.470014 199.022765 
L 309.774439 195.590356 
L 309.835323 197.65635 
L 310.017978 191.750589 
L 310.139748 195.370488 
L 310.200633 194.447977 
L 310.261518 197.973716 
L 310.322403 197.691219 
L 310.383288 197.853789 
L 310.505057 196.147297 
L 310.687712 193.49762 
L 310.748597 193.887542 
L 310.870367 197.147571 
L 310.931252 195.281644 
L 311.113906 199.716427 
L 311.235676 194.951646 
L 311.296561 197.887876 
L 311.357446 196.682356 
L 311.418331 196.792801 
L 311.540101 198.774699 
L 311.600986 197.197536 
L 311.661871 198.10014 
L 311.844525 202.179465 
L 311.966295 198.898172 
L 312.02718 196.014565 
L 312.088065 196.371449 
L 312.14895 196.895963 
L 312.392489 189.231333 
L 312.514259 189.896857 
L 312.575144 192.544079 
L 312.636029 192.483562 
L 312.696914 191.906286 
L 312.879569 188.742417 
L 312.940454 188.960474 
L 313.001338 188.187947 
L 313.062223 190.711864 
L 313.123108 189.539007 
L 313.183993 188.032524 
L 313.244878 190.217443 
L 313.305763 188.767067 
L 313.366648 187.595842 
L 313.610187 195.288348 
L 313.731957 194.563776 
L 313.853727 195.037019 
L 313.975497 188.926079 
L 314.036382 190.5838 
L 314.097267 189.813837 
L 314.158152 190.611841 
L 314.219037 190.534983 
L 314.340806 186.040736 
L 314.401691 187.720576 
L 314.462576 186.819521 
L 314.645231 182.85062 
L 314.767001 185.322884 
L 314.949655 177.006977 
L 315.01054 178.190749 
L 315.193195 175.282643 
L 315.25408 177.482736 
L 315.314965 177.112839 
L 315.436735 178.002731 
L 315.49762 180.030205 
L 315.558504 178.39183 
L 315.619389 178.292302 
L 315.923814 174.257158 
L 315.984699 171.540889 
L 316.045584 174.692105 
L 316.106469 173.777203 
L 316.350008 169.155846 
L 316.532663 165.077808 
L 316.593548 165.538323 
L 316.776203 172.137906 
L 316.837087 171.939898 
L 316.897972 171.249797 
L 316.958857 174.474808 
L 317.019742 172.907066 
L 317.263282 168.398125 
L 317.324167 169.411452 
L 317.506821 165.253176 
L 317.567706 165.095224 
L 317.628591 166.396951 
L 317.811246 161.749207 
L 317.872131 162.048747 
L 317.933016 163.716495 
L 318.054786 160.138395 
L 318.11567 161.857439 
L 318.420095 154.258348 
L 318.48098 153.95642 
L 318.541865 154.170058 
L 318.907174 145.470775 
L 319.028944 150.58006 
L 319.089829 149.984794 
L 319.272484 154.013471 
L 319.333368 149.312374 
L 319.455138 154.162661 
L 319.516023 153.946802 
L 319.576908 150.583885 
L 319.637793 153.000726 
L 319.698678 151.474694 
L 319.942218 156.83021 
L 320.003102 155.709147 
L 320.063987 156.326483 
L 320.124872 157.026727 
L 320.185757 156.922783 
L 320.246642 154.278147 
L 320.307527 155.228347 
L 320.429297 154.53108 
L 320.490182 153.355892 
L 320.611951 155.762327 
L 320.672836 155.050388 
L 320.855491 152.708269 
L 321.038146 157.286927 
L 321.099031 157.059983 
L 321.159916 155.181539 
L 321.220801 157.634951 
L 321.281685 153.566674 
L 321.34257 154.524008 
L 321.403455 154.105549 
L 321.525225 148.983276 
L 321.82965 155.918327 
L 322.012304 151.502541 
L 322.134074 150.812636 
L 322.316729 156.193644 
L 322.377614 155.518978 
L 322.499384 155.25159 
L 322.560268 150.773312 
L 322.621153 152.300143 
L 322.682038 151.325205 
L 322.742923 151.837475 
L 322.864693 152.712862 
L 322.925578 152.551563 
L 323.108233 158.689427 
L 323.169117 158.357909 
L 323.290887 162.025867 
L 323.351772 161.599272 
L 323.473542 165.075181 
L 323.534427 163.67205 
L 323.595312 164.812481 
L 323.717082 165.686933 
L 323.899736 171.216551 
L 324.143276 176.767882 
L 324.204161 176.631422 
L 324.386816 181.380446 
L 324.4477 181.954462 
L 324.508585 181.482745 
L 324.752125 174.676494 
L 324.995665 182.951361 
L 325.056549 182.692334 
L 325.117434 185.868633 
L 325.239204 181.133307 
L 325.360974 181.866231 
L 325.482744 179.341143 
L 325.665399 181.283164 
L 325.726283 180.195266 
L 325.908938 182.171282 
L 325.969823 182.380832 
L 326.030708 182.008371 
L 326.213363 184.294358 
L 326.274248 183.887522 
L 326.456902 189.049868 
L 326.517787 188.817536 
L 326.639557 189.229587 
L 326.943982 178.597232 
L 327.126636 179.89519 
L 327.187521 180.284092 
L 327.431061 186.866833 
L 327.491946 188.686275 
L 327.6746 185.364597 
L 327.735485 184.492557 
L 327.79637 184.865628 
L 328.100795 192.061103 
L 328.283449 188.611209 
L 328.405219 191.4318 
L 328.466104 190.914886 
L 328.648759 186.368698 
L 328.709644 188.329199 
L 328.770529 185.187365 
L 328.831414 187.02085 
L 328.892298 185.056242 
L 328.953183 185.977202 
L 329.014068 186.251233 
L 329.074953 182.830737 
L 329.135838 183.115854 
L 329.196723 185.041319 
L 329.257608 184.462746 
L 329.318493 184.396834 
L 329.379378 185.417284 
L 329.440263 184.424014 
L 329.501148 184.680247 
L 329.562032 184.854432 
L 329.622917 184.209882 
L 329.744687 186.6996 
L 329.805572 185.465589 
L 329.866457 185.826624 
L 329.927342 187.590033 
L 329.988227 185.749073 
L 330.049112 187.001381 
L 330.109997 188.118157 
L 330.170881 187.275594 
L 330.353536 183.16749 
L 330.414421 182.70191 
L 330.536191 184.239482 
L 330.840615 176.999731 
L 330.962385 179.456756 
L 331.02327 177.335104 
L 331.084155 179.333179 
L 331.14504 177.919103 
L 331.205925 174.008246 
L 331.26681 175.382385 
L 331.327695 176.088169 
L 331.38858 174.986484 
L 331.449464 175.728695 
L 331.510349 175.459666 
L 331.571234 174.447877 
L 331.632119 175.71764 
L 331.693004 173.344164 
L 331.753889 177.437011 
L 331.814774 176.351188 
L 331.936544 174.790926 
L 332.058313 172.038536 
L 332.119198 172.696094 
L 332.180083 175.446675 
L 332.240968 175.164764 
L 332.301853 175.788393 
L 332.362738 171.671181 
L 332.423623 173.52572 
L 332.484508 171.373462 
L 332.545393 171.420908 
L 332.667163 172.206594 
L 332.728047 170.9408 
L 332.910702 173.734011 
L 332.971587 173.408122 
L 333.032472 175.342182 
L 333.093357 174.391086 
L 333.276012 172.952607 
L 333.336896 173.10583 
L 333.458666 170.061597 
L 333.580436 171.515805 
L 333.823976 181.193297 
L 333.945746 176.016244 
L 334.067515 176.498085 
L 334.189285 175.517679 
L 334.311055 177.590537 
L 334.37194 176.13043 
L 334.432825 179.594464 
L 334.49371 178.526301 
L 334.554595 176.702472 
L 334.798134 184.380334 
L 334.859019 183.532344 
L 334.919904 184.919175 
L 334.980789 183.756633 
L 335.041674 185.03751 
L 335.102559 184.370253 
L 335.163444 183.573906 
L 335.224329 181.05941 
L 335.285213 183.94395 
L 335.346098 182.598542 
L 335.467868 179.715545 
L 335.528753 180.571329 
L 335.589638 181.293284 
L 335.650523 184.109662 
L 335.711408 182.964329 
L 335.772293 183.330453 
L 335.954947 182.40984 
L 336.015832 181.116211 
L 336.198487 187.55355 
L 336.381142 181.766743 
L 336.502911 183.162155 
L 336.563796 182.560002 
L 336.685566 178.590255 
L 336.746451 178.831594 
L 336.807336 179.587427 
L 336.989991 177.047221 
L 337.050876 177.518235 
L 337.111761 177.187426 
L 337.23353 180.636555 
L 337.294415 180.478773 
L 337.416185 182.227979 
L 337.72061 166.417956 
L 337.781494 168.043169 
L 337.842379 166.526768 
L 337.903264 167.071278 
L 338.146804 176.321971 
L 338.329459 172.4643 
L 338.390344 173.879906 
L 338.572998 171.592931 
L 338.694768 174.144635 
L 338.755653 173.168252 
L 338.816538 173.492384 
L 338.938308 169.147042 
L 338.999193 169.150008 
L 339.060077 171.584589 
L 339.120962 169.243219 
L 339.181847 171.600008 
L 339.242732 169.994606 
L 339.303617 166.25297 
L 339.364502 166.260492 
L 339.425387 167.33299 
L 339.486272 165.573988 
L 339.547157 166.979898 
L 339.608042 167.258182 
L 339.668927 168.972834 
L 339.729811 167.591055 
L 339.790696 167.294709 
L 339.851581 169.227933 
L 339.912466 169.14882 
L 340.156006 168.258313 
L 340.216891 167.076354 
L 340.277776 167.505005 
L 340.33866 167.216467 
L 340.46043 164.254555 
L 340.521315 165.529883 
L 340.5822 169.486331 
L 340.643085 167.979803 
L 340.94751 164.088518 
L 341.008394 166.205323 
L 341.069279 165.379264 
L 341.130164 165.541111 
L 341.191049 162.496756 
L 341.251934 163.667782 
L 341.312819 164.164147 
L 341.373704 163.548431 
L 341.434589 164.311014 
L 341.556359 161.845775 
L 341.860783 156.483968 
L 341.982553 159.084916 
L 342.043438 158.324521 
L 342.286977 153.428165 
L 342.408747 150.641293 
L 342.469632 151.934304 
L 342.530517 151.601973 
L 342.652287 148.917931 
L 342.713172 150.674702 
L 342.774057 150.378775 
L 342.834942 149.628146 
L 342.895826 147.486068 
L 343.139366 152.093275 
L 343.322021 146.526372 
L 343.382906 147.016754 
L 343.504675 149.785329 
L 344.05264 135.68696 
L 344.113525 136.640006 
L 344.174409 136.696536 
L 344.235294 136.960413 
L 344.357064 139.542016 
L 344.417949 137.264533 
L 344.478834 141.118779 
L 344.539719 140.428539 
L 344.661489 140.978854 
L 344.722374 139.564655 
L 344.905028 144.012579 
L 345.026798 138.739576 
L 345.148568 142.510803 
L 345.209453 139.981188 
L 345.331223 143.845853 
L 345.513877 139.234454 
L 345.574762 139.906381 
L 345.635647 141.972445 
L 345.696532 140.999424 
L 345.757417 140.580403 
L 345.818302 139.347268 
L 345.879187 139.383623 
L 345.940072 139.580277 
L 346.000957 139.522025 
L 346.061841 141.554533 
L 346.122726 141.054869 
L 346.183611 140.21113 
L 346.244496 140.542459 
L 346.305381 140.421488 
L 346.427151 137.811028 
L 346.488036 141.029822 
L 346.548921 140.41135 
L 346.670691 139.476144 
L 346.79246 136.757751 
L 347.036 141.349874 
L 347.218655 138.745338 
L 347.27954 138.411625 
L 347.340424 139.14558 
L 347.462194 137.694388 
L 347.644849 141.804251 
L 347.827504 136.665365 
L 347.888389 138.055457 
L 347.949273 137.970326 
L 348.071043 136.629292 
L 348.131928 137.551153 
L 348.192813 137.095029 
L 348.253698 135.461109 
L 348.497238 147.487756 
L 348.558123 145.267047 
L 348.619007 146.017688 
L 348.862547 138.533052 
L 348.923432 139.201754 
L 349.106087 137.361724 
L 349.166972 138.654774 
L 349.288741 136.902767 
L 349.410511 140.900075 
L 349.654051 135.712763 
L 349.714936 136.790607 
L 349.89759 143.844323 
L 349.958475 143.879529 
L 350.01936 141.561969 
L 350.080245 142.288223 
L 350.14113 142.442953 
L 350.2629 141.07029 
L 350.323785 137.363882 
L 350.38467 140.045664 
L 350.445555 142.719498 
L 350.506439 141.371957 
L 350.689094 138.982249 
L 350.749979 142.299156 
L 350.810864 141.931604 
L 350.993519 143.275213 
L 351.054404 140.70776 
L 351.115289 143.094177 
L 351.176173 143.040653 
L 351.297943 141.318754 
L 351.602368 134.890715 
L 351.663253 135.094625 
L 351.785022 136.617421 
L 351.845907 136.351722 
L 351.906792 134.530363 
L 351.967677 135.290573 
L 352.089447 138.591816 
L 352.150332 136.683714 
L 352.332987 145.861171 
L 352.637411 141.446104 
L 352.820066 144.155244 
L 352.941836 141.877606 
L 353.063605 143.150006 
L 353.12449 142.75742 
L 353.36803 139.024208 
L 353.733339 132.086788 
L 353.794224 132.657389 
L 353.915994 133.951663 
L 354.037764 137.798491 
L 354.098649 137.219307 
L 354.159534 134.865537 
L 354.220419 135.199885 
L 354.281304 134.85527 
L 354.524843 128.089704 
L 354.585728 127.511713 
L 354.707498 130.828882 
L 354.768383 129.845118 
L 355.194577 119.763792 
L 355.255462 120.533106 
L 355.377232 123.196378 
L 355.438117 122.2669 
L 355.499002 122.400347 
L 355.620771 119.956656 
L 355.986081 124.482643 
L 356.046966 124.532961 
L 356.59493 136.360884 
L 356.83847 133.725886 
L 356.899354 133.950576 
L 356.960239 133.672908 
L 357.203779 138.481307 
L 357.264664 138.057677 
L 357.325549 139.729053 
L 357.386434 139.439421 
L 357.447319 139.572086 
L 357.508203 142.44868 
L 357.569088 142.298459 
L 357.751743 137.383661 
L 357.812628 136.809675 
L 357.873513 137.375592 
L 357.934398 136.49036 
L 357.995283 137.14792 
L 358.299707 144.56416 
L 358.421477 142.018088 
L 358.543247 142.870195 
L 358.604132 144.456758 
L 358.665017 142.772688 
L 358.725902 143.540465 
L 358.786786 143.06006 
L 358.969441 140.296159 
L 359.030326 140.580995 
L 359.091211 139.8499 
L 359.152096 140.973488 
L 359.212981 140.206378 
L 359.273866 138.980643 
L 359.395635 141.712184 
L 359.70006 137.948706 
L 359.82183 141.077104 
L 359.882715 140.655115 
L 359.9436 140.256205 
L 360.126254 145.164159 
L 360.187139 144.299727 
L 360.308909 148.024905 
L 360.369794 147.902897 
L 360.430679 147.387011 
L 360.491564 144.561935 
L 360.552449 144.920017 
L 360.613334 147.087848 
L 360.674218 146.37411 
L 360.856873 141.077403 
L 361.100413 134.805046 
L 361.161298 138.254715 
L 361.222183 136.989345 
L 361.283068 138.345783 
L 361.404837 134.659382 
L 361.465722 136.387878 
L 361.526607 136.09601 
L 361.770147 143.578969 
L 361.831032 143.38201 
L 361.891917 142.321196 
L 361.952801 142.351463 
L 362.013686 143.221169 
L 362.257226 135.60047 
L 362.318111 137.788594 
L 362.622535 130.078044 
L 362.68342 130.152786 
L 362.744305 131.528503 
L 362.80519 129.471497 
L 362.866075 130.14983 
L 362.92696 130.735936 
L 362.987845 132.653755 
L 363.04873 131.608094 
L 363.109615 132.827261 
L 363.292269 127.777468 
L 363.414039 128.822717 
L 363.474924 129.930473 
L 363.535809 129.315974 
L 363.779349 124.122399 
L 363.840234 125.472697 
L 363.962003 120.22464 
L 364.022888 120.313394 
L 364.083773 120.383938 
L 364.144658 119.938667 
L 364.205543 122.793719 
L 364.266428 121.649062 
L 364.327313 120.597968 
L 364.388198 120.659172 
L 364.449083 120.902749 
L 364.631737 111.116736 
L 364.814392 114.980671 
L 364.875277 115.480443 
L 365.057932 109.790846 
L 365.240586 107.078792 
L 365.362356 109.795155 
L 365.423241 105.602413 
L 365.484126 108.255047 
L 365.545011 108.231534 
L 365.605896 109.921781 
L 365.666781 109.490853 
L 365.78855 108.094671 
L 365.849435 105.840095 
L 365.91032 106.335306 
L 365.971205 109.017502 
L 366.03209 107.369324 
L 366.214745 102.121967 
L 366.27563 99.071138 
L 366.336515 100.426767 
L 366.397399 99.443694 
L 366.945364 109.31491 
L 367.128018 106.28727 
L 367.188903 107.977011 
L 367.249788 105.05303 
L 367.310673 107.225505 
L 367.493328 110.066202 
L 367.736867 119.77246 
L 367.797752 119.549329 
L 368.041292 114.158482 
L 368.102177 115.286634 
L 368.223947 112.424831 
L 368.345716 114.822958 
L 368.406601 114.768452 
L 368.528371 112.184412 
L 368.650141 113.82562 
L 368.711026 113.563833 
L 368.771911 114.228523 
L 368.832796 113.505533 
L 369.198105 120.610392 
L 369.25899 119.850931 
L 369.319875 117.455266 
L 369.38076 118.828297 
L 369.50253 121.32127 
L 369.563415 120.376484 
L 369.685184 123.337087 
L 369.746069 122.899188 
L 369.867839 123.596149 
L 369.928724 123.349519 
L 369.989609 126.764164 
L 370.050494 126.601379 
L 370.111379 126.632444 
L 370.233148 123.513973 
L 370.294033 125.001205 
L 370.354918 125.229961 
L 370.415803 125.96412 
L 370.598458 121.642017 
L 370.659343 123.271109 
L 370.720228 122.649112 
L 370.841997 121.211121 
L 371.024652 114.487536 
L 371.085537 115.514141 
L 371.268192 113.470212 
L 371.389962 115.890739 
L 371.450847 115.598503 
L 371.633501 110.222177 
L 371.694386 110.943551 
L 371.755271 110.372721 
L 371.877041 109.99214 
L 372.059696 107.044707 
L 372.12058 106.027949 
L 372.36412 110.588708 
L 372.546775 114.088176 
L 372.72943 110.805765 
L 372.851199 109.690445 
L 372.972969 112.914107 
L 373.033854 112.552102 
L 373.338279 108.132676 
L 373.399163 108.375525 
L 373.581818 115.361639 
L 373.581818 115.361639 
" style="fill:none;stroke:#1f77b4;stroke-linecap:round;stroke-width:1.5;"/>
   </g>
   <g id="patch_3">
    <path d="M 54 252 
L 54 34.56 
" style="fill:none;stroke:#cccccc;stroke-linecap:square;stroke-linejoin:miter;stroke-width:0.8;"/>
   </g>
   <g id="patch_4">
    <path d="M 388.8 252 
L 388.8 34.56 
" style="fill:none;stroke:#cccccc;stroke-linecap:square;stroke-linejoin:miter;stroke-width:0.8;"/>
   </g>
   <g id="patch_5">
    <path d="M 54 252 
L 388.8 252 
" style="fill:none;stroke:#cccccc;stroke-linecap:square;stroke-linejoin:miter;stroke-width:0.8;"/>
   </g>
   <g id="patch_6">
    <path d="M 54 34.56 
L 388.8 34.56 
" style="fill:none;stroke:#cccccc;stroke-linecap:square;stroke-linejoin:miter;stroke-width:0.8;"/>
   </g>
  </g>
 </g>
 <defs>
  <clipPath id="pf6be8ae04e">
   <rect height="217.44" width="334.8" x="54" y="34.56"/>
  </clipPath>
 </defs>
</svg>
