<?xml version="1.0" encoding="utf-8" standalone="no"?>
<!DOCTYPE svg PUBLIC "-//W3C//DTD SVG 1.1//EN"
  "http://www.w3.org/Graphics/SVG/1.1/DTD/svg11.dtd">
<svg height="288pt" version="1.1" viewBox="0 0 432 288" width="432pt" xmlns="http://www.w3.org/2000/svg" xmlns:xlink="http://www.w3.org/1999/xlink">
 <metadata>
  <rdf:RDF xmlns:cc="http://creativecommons.org/ns#" xmlns:dc="http://purl.org/dc/elements/1.1/" xmlns:rdf="http://www.w3.org/1999/02/22-rdf-syntax-ns#">
   <cc:Work>
    <dc:type rdf:resource="http://purl.org/dc/dcmitype/StillImage"/>
    <dc:date>2022-03-07T23:28:48.966327</dc:date>
    <dc:format>image/svg+xml</dc:format>
    <dc:creator>
     <cc:Agent>
      <dc:title>Matplotlib v3.4.3, https://matplotlib.org/</dc:title>
     </cc:Agent>
    </dc:creator>
   </cc:Work>
  </rdf:RDF>
 </metadata>
 <defs>
  <style type="text/css">*{stroke-linecap:butt;stroke-linejoin:round;}</style>
 </defs>
 <g id="figure_1">
  <g id="patch_1">
   <path d="M 0 288 
L 432 288 
L 432 0 
L 0 0 
z
" style="fill:#ffffff;"/>
  </g>
  <g id="axes_1">
   <g id="patch_2">
    <path d="M 54 252 
L 388.8 252 
L 388.8 34.56 
L 54 34.56 
z
" style="fill:#ffffff;"/>
   </g>
   <g id="matplotlib.axis_1">
    <g id="xtick_1">
     <g id="line2d_1">
      <path clip-path="url(#pc998b3d40c)" d="M 69.218182 252 
L 69.218182 34.56 
" style="fill:none;stroke:#cccccc;stroke-linecap:round;stroke-width:0.8;"/>
     </g>
     <g id="text_1">
      <!-- 0 -->
      <g style="fill:#262626;" transform="translate(65.325526 269.020938)scale(0.14 -0.14)">
       <defs>
        <path d="M 266 2259 
Q 266 3072 433 3567 
Q 600 4063 929 4331 
Q 1259 4600 1759 4600 
Q 2128 4600 2406 4451 
Q 2684 4303 2865 4023 
Q 3047 3744 3150 3342 
Q 3253 2941 3253 2259 
Q 3253 1453 3087 958 
Q 2922 463 2592 192 
Q 2263 -78 1759 -78 
Q 1097 -78 719 397 
Q 266 969 266 2259 
z
M 844 2259 
Q 844 1131 1108 757 
Q 1372 384 1759 384 
Q 2147 384 2411 759 
Q 2675 1134 2675 2259 
Q 2675 3391 2411 3762 
Q 2147 4134 1753 4134 
Q 1366 4134 1134 3806 
Q 844 3388 844 2259 
z
" id="ArialMT-30" transform="scale(0.015625)"/>
       </defs>
       <use xlink:href="#ArialMT-30"/>
      </g>
     </g>
    </g>
    <g id="xtick_2">
     <g id="line2d_2">
      <path clip-path="url(#pc998b3d40c)" d="M 130.103086 252 
L 130.103086 34.56 
" style="fill:none;stroke:#cccccc;stroke-linecap:round;stroke-width:0.8;"/>
     </g>
     <g id="text_2">
      <!-- 1000 -->
      <g style="fill:#262626;" transform="translate(114.532461 269.020938)scale(0.14 -0.14)">
       <defs>
        <path d="M 2384 0 
L 1822 0 
L 1822 3584 
Q 1619 3391 1289 3197 
Q 959 3003 697 2906 
L 697 3450 
Q 1169 3672 1522 3987 
Q 1875 4303 2022 4600 
L 2384 4600 
L 2384 0 
z
" id="ArialMT-31" transform="scale(0.015625)"/>
       </defs>
       <use xlink:href="#ArialMT-31"/>
       <use x="55.615234" xlink:href="#ArialMT-30"/>
       <use x="111.230469" xlink:href="#ArialMT-30"/>
       <use x="166.845703" xlink:href="#ArialMT-30"/>
      </g>
     </g>
    </g>
    <g id="xtick_3">
     <g id="line2d_3">
      <path clip-path="url(#pc998b3d40c)" d="M 190.98799 252 
L 190.98799 34.56 
" style="fill:none;stroke:#cccccc;stroke-linecap:round;stroke-width:0.8;"/>
     </g>
     <g id="text_3">
      <!-- 2000 -->
      <g style="fill:#262626;" transform="translate(175.417365 269.020938)scale(0.14 -0.14)">
       <defs>
        <path d="M 3222 541 
L 3222 0 
L 194 0 
Q 188 203 259 391 
Q 375 700 629 1000 
Q 884 1300 1366 1694 
Q 2113 2306 2375 2664 
Q 2638 3022 2638 3341 
Q 2638 3675 2398 3904 
Q 2159 4134 1775 4134 
Q 1369 4134 1125 3890 
Q 881 3647 878 3216 
L 300 3275 
Q 359 3922 746 4261 
Q 1134 4600 1788 4600 
Q 2447 4600 2831 4234 
Q 3216 3869 3216 3328 
Q 3216 3053 3103 2787 
Q 2991 2522 2730 2228 
Q 2469 1934 1863 1422 
Q 1356 997 1212 845 
Q 1069 694 975 541 
L 3222 541 
z
" id="ArialMT-32" transform="scale(0.015625)"/>
       </defs>
       <use xlink:href="#ArialMT-32"/>
       <use x="55.615234" xlink:href="#ArialMT-30"/>
       <use x="111.230469" xlink:href="#ArialMT-30"/>
       <use x="166.845703" xlink:href="#ArialMT-30"/>
      </g>
     </g>
    </g>
    <g id="xtick_4">
     <g id="line2d_4">
      <path clip-path="url(#pc998b3d40c)" d="M 251.872895 252 
L 251.872895 34.56 
" style="fill:none;stroke:#cccccc;stroke-linecap:round;stroke-width:0.8;"/>
     </g>
     <g id="text_4">
      <!-- 3000 -->
      <g style="fill:#262626;" transform="translate(236.30227 269.020938)scale(0.14 -0.14)">
       <defs>
        <path d="M 269 1209 
L 831 1284 
Q 928 806 1161 595 
Q 1394 384 1728 384 
Q 2125 384 2398 659 
Q 2672 934 2672 1341 
Q 2672 1728 2419 1979 
Q 2166 2231 1775 2231 
Q 1616 2231 1378 2169 
L 1441 2663 
Q 1497 2656 1531 2656 
Q 1891 2656 2178 2843 
Q 2466 3031 2466 3422 
Q 2466 3731 2256 3934 
Q 2047 4138 1716 4138 
Q 1388 4138 1169 3931 
Q 950 3725 888 3313 
L 325 3413 
Q 428 3978 793 4289 
Q 1159 4600 1703 4600 
Q 2078 4600 2393 4439 
Q 2709 4278 2876 4000 
Q 3044 3722 3044 3409 
Q 3044 3113 2884 2869 
Q 2725 2625 2413 2481 
Q 2819 2388 3044 2092 
Q 3269 1797 3269 1353 
Q 3269 753 2831 336 
Q 2394 -81 1725 -81 
Q 1122 -81 723 278 
Q 325 638 269 1209 
z
" id="ArialMT-33" transform="scale(0.015625)"/>
       </defs>
       <use xlink:href="#ArialMT-33"/>
       <use x="55.615234" xlink:href="#ArialMT-30"/>
       <use x="111.230469" xlink:href="#ArialMT-30"/>
       <use x="166.845703" xlink:href="#ArialMT-30"/>
      </g>
     </g>
    </g>
    <g id="xtick_5">
     <g id="line2d_5">
      <path clip-path="url(#pc998b3d40c)" d="M 312.757799 252 
L 312.757799 34.56 
" style="fill:none;stroke:#cccccc;stroke-linecap:round;stroke-width:0.8;"/>
     </g>
     <g id="text_5">
      <!-- 4000 -->
      <g style="fill:#262626;" transform="translate(297.187174 269.020938)scale(0.14 -0.14)">
       <defs>
        <path d="M 2069 0 
L 2069 1097 
L 81 1097 
L 81 1613 
L 2172 4581 
L 2631 4581 
L 2631 1613 
L 3250 1613 
L 3250 1097 
L 2631 1097 
L 2631 0 
L 2069 0 
z
M 2069 1613 
L 2069 3678 
L 634 1613 
L 2069 1613 
z
" id="ArialMT-34" transform="scale(0.015625)"/>
       </defs>
       <use xlink:href="#ArialMT-34"/>
       <use x="55.615234" xlink:href="#ArialMT-30"/>
       <use x="111.230469" xlink:href="#ArialMT-30"/>
       <use x="166.845703" xlink:href="#ArialMT-30"/>
      </g>
     </g>
    </g>
    <g id="xtick_6">
     <g id="line2d_6">
      <path clip-path="url(#pc998b3d40c)" d="M 373.642703 252 
L 373.642703 34.56 
" style="fill:none;stroke:#cccccc;stroke-linecap:round;stroke-width:0.8;"/>
     </g>
     <g id="text_6">
      <!-- 5000 -->
      <g style="fill:#262626;" transform="translate(358.072078 269.020938)scale(0.14 -0.14)">
       <defs>
        <path d="M 266 1200 
L 856 1250 
Q 922 819 1161 601 
Q 1400 384 1738 384 
Q 2144 384 2425 690 
Q 2706 997 2706 1503 
Q 2706 1984 2436 2262 
Q 2166 2541 1728 2541 
Q 1456 2541 1237 2417 
Q 1019 2294 894 2097 
L 366 2166 
L 809 4519 
L 3088 4519 
L 3088 3981 
L 1259 3981 
L 1013 2750 
Q 1425 3038 1878 3038 
Q 2478 3038 2890 2622 
Q 3303 2206 3303 1553 
Q 3303 931 2941 478 
Q 2500 -78 1738 -78 
Q 1113 -78 717 272 
Q 322 622 266 1200 
z
" id="ArialMT-35" transform="scale(0.015625)"/>
       </defs>
       <use xlink:href="#ArialMT-35"/>
       <use x="55.615234" xlink:href="#ArialMT-30"/>
       <use x="111.230469" xlink:href="#ArialMT-30"/>
       <use x="166.845703" xlink:href="#ArialMT-30"/>
      </g>
     </g>
    </g>
    <g id="text_7">
     <!-- Time -->
     <g style="fill:#262626;" transform="translate(203.92375 287.255938)scale(0.16 -0.16)">
      <defs>
       <path d="M 1659 0 
L 1659 4041 
L 150 4041 
L 150 4581 
L 3781 4581 
L 3781 4041 
L 2266 4041 
L 2266 0 
L 1659 0 
z
" id="ArialMT-54" transform="scale(0.015625)"/>
       <path d="M 425 3934 
L 425 4581 
L 988 4581 
L 988 3934 
L 425 3934 
z
M 425 0 
L 425 3319 
L 988 3319 
L 988 0 
L 425 0 
z
" id="ArialMT-69" transform="scale(0.015625)"/>
       <path d="M 422 0 
L 422 3319 
L 925 3319 
L 925 2853 
Q 1081 3097 1340 3245 
Q 1600 3394 1931 3394 
Q 2300 3394 2536 3241 
Q 2772 3088 2869 2813 
Q 3263 3394 3894 3394 
Q 4388 3394 4653 3120 
Q 4919 2847 4919 2278 
L 4919 0 
L 4359 0 
L 4359 2091 
Q 4359 2428 4304 2576 
Q 4250 2725 4106 2815 
Q 3963 2906 3769 2906 
Q 3419 2906 3187 2673 
Q 2956 2441 2956 1928 
L 2956 0 
L 2394 0 
L 2394 2156 
Q 2394 2531 2256 2718 
Q 2119 2906 1806 2906 
Q 1569 2906 1367 2781 
Q 1166 2656 1075 2415 
Q 984 2175 984 1722 
L 984 0 
L 422 0 
z
" id="ArialMT-6d" transform="scale(0.015625)"/>
       <path d="M 2694 1069 
L 3275 997 
Q 3138 488 2766 206 
Q 2394 -75 1816 -75 
Q 1088 -75 661 373 
Q 234 822 234 1631 
Q 234 2469 665 2931 
Q 1097 3394 1784 3394 
Q 2450 3394 2872 2941 
Q 3294 2488 3294 1666 
Q 3294 1616 3291 1516 
L 816 1516 
Q 847 969 1125 678 
Q 1403 388 1819 388 
Q 2128 388 2347 550 
Q 2566 713 2694 1069 
z
M 847 1978 
L 2700 1978 
Q 2663 2397 2488 2606 
Q 2219 2931 1791 2931 
Q 1403 2931 1139 2672 
Q 875 2413 847 1978 
z
" id="ArialMT-65" transform="scale(0.015625)"/>
      </defs>
      <use xlink:href="#ArialMT-54"/>
      <use x="57.333984" xlink:href="#ArialMT-69"/>
      <use x="79.550781" xlink:href="#ArialMT-6d"/>
      <use x="162.851562" xlink:href="#ArialMT-65"/>
     </g>
    </g>
   </g>
   <g id="matplotlib.axis_2">
    <g id="ytick_1">
     <g id="line2d_7">
      <path clip-path="url(#pc998b3d40c)" d="M 54 252 
L 388.8 252 
" style="fill:none;stroke:#cccccc;stroke-linecap:round;stroke-width:0.8;"/>
     </g>
     <g id="text_8">
      <!-- −2 -->
      <g style="fill:#262626;" transform="translate(31.037813 257.010469)scale(0.14 -0.14)">
       <defs>
        <path d="M 3381 1997 
L 356 1997 
L 356 2522 
L 3381 2522 
L 3381 1997 
z
" id="ArialMT-2212" transform="scale(0.015625)"/>
       </defs>
       <use xlink:href="#ArialMT-2212"/>
       <use x="58.398438" xlink:href="#ArialMT-32"/>
      </g>
     </g>
    </g>
    <g id="ytick_2">
     <g id="line2d_8">
      <path clip-path="url(#pc998b3d40c)" d="M 54 197.64 
L 388.8 197.64 
" style="fill:none;stroke:#cccccc;stroke-linecap:round;stroke-width:0.8;"/>
     </g>
     <g id="text_9">
      <!-- −1 -->
      <g style="fill:#262626;" transform="translate(31.037813 202.650469)scale(0.14 -0.14)">
       <use xlink:href="#ArialMT-2212"/>
       <use x="58.398438" xlink:href="#ArialMT-31"/>
      </g>
     </g>
    </g>
    <g id="ytick_3">
     <g id="line2d_9">
      <path clip-path="url(#pc998b3d40c)" d="M 54 143.28 
L 388.8 143.28 
" style="fill:none;stroke:#cccccc;stroke-linecap:round;stroke-width:0.8;"/>
     </g>
     <g id="text_10">
      <!-- 0 -->
      <g style="fill:#262626;" transform="translate(39.214687 148.290469)scale(0.14 -0.14)">
       <use xlink:href="#ArialMT-30"/>
      </g>
     </g>
    </g>
    <g id="ytick_4">
     <g id="line2d_10">
      <path clip-path="url(#pc998b3d40c)" d="M 54 88.92 
L 388.8 88.92 
" style="fill:none;stroke:#cccccc;stroke-linecap:round;stroke-width:0.8;"/>
     </g>
     <g id="text_11">
      <!-- 1 -->
      <g style="fill:#262626;" transform="translate(39.214687 93.930469)scale(0.14 -0.14)">
       <use xlink:href="#ArialMT-31"/>
      </g>
     </g>
    </g>
    <g id="ytick_5">
     <g id="line2d_11">
      <path clip-path="url(#pc998b3d40c)" d="M 54 34.56 
L 388.8 34.56 
" style="fill:none;stroke:#cccccc;stroke-linecap:round;stroke-width:0.8;"/>
     </g>
     <g id="text_12">
      <!-- 2 -->
      <g style="fill:#262626;" transform="translate(39.214687 39.570469)scale(0.14 -0.14)">
       <use xlink:href="#ArialMT-32"/>
      </g>
     </g>
    </g>
    <g id="text_13">
     <!-- Noise -->
     <g style="fill:#262626;" transform="translate(23.857813 163.7325)rotate(-90)scale(0.16 -0.16)">
      <defs>
       <path d="M 488 0 
L 488 4581 
L 1109 4581 
L 3516 984 
L 3516 4581 
L 4097 4581 
L 4097 0 
L 3475 0 
L 1069 3600 
L 1069 0 
L 488 0 
z
" id="ArialMT-4e" transform="scale(0.015625)"/>
       <path d="M 213 1659 
Q 213 2581 725 3025 
Q 1153 3394 1769 3394 
Q 2453 3394 2887 2945 
Q 3322 2497 3322 1706 
Q 3322 1066 3130 698 
Q 2938 331 2570 128 
Q 2203 -75 1769 -75 
Q 1072 -75 642 372 
Q 213 819 213 1659 
z
M 791 1659 
Q 791 1022 1069 705 
Q 1347 388 1769 388 
Q 2188 388 2466 706 
Q 2744 1025 2744 1678 
Q 2744 2294 2464 2611 
Q 2184 2928 1769 2928 
Q 1347 2928 1069 2612 
Q 791 2297 791 1659 
z
" id="ArialMT-6f" transform="scale(0.015625)"/>
       <path d="M 197 991 
L 753 1078 
Q 800 744 1014 566 
Q 1228 388 1613 388 
Q 2000 388 2187 545 
Q 2375 703 2375 916 
Q 2375 1106 2209 1216 
Q 2094 1291 1634 1406 
Q 1016 1563 777 1677 
Q 538 1791 414 1992 
Q 291 2194 291 2438 
Q 291 2659 392 2848 
Q 494 3038 669 3163 
Q 800 3259 1026 3326 
Q 1253 3394 1513 3394 
Q 1903 3394 2198 3281 
Q 2494 3169 2634 2976 
Q 2775 2784 2828 2463 
L 2278 2388 
Q 2241 2644 2061 2787 
Q 1881 2931 1553 2931 
Q 1166 2931 1000 2803 
Q 834 2675 834 2503 
Q 834 2394 903 2306 
Q 972 2216 1119 2156 
Q 1203 2125 1616 2013 
Q 2213 1853 2448 1751 
Q 2684 1650 2818 1456 
Q 2953 1263 2953 975 
Q 2953 694 2789 445 
Q 2625 197 2315 61 
Q 2006 -75 1616 -75 
Q 969 -75 630 194 
Q 291 463 197 991 
z
" id="ArialMT-73" transform="scale(0.015625)"/>
      </defs>
      <use xlink:href="#ArialMT-4e"/>
      <use x="72.216797" xlink:href="#ArialMT-6f"/>
      <use x="127.832031" xlink:href="#ArialMT-69"/>
      <use x="150.048828" xlink:href="#ArialMT-73"/>
      <use x="200.048828" xlink:href="#ArialMT-65"/>
     </g>
    </g>
   </g>
   <g id="line2d_12">
    <path clip-path="url(#pc998b3d40c)" d="M 69.218182 147.578426 
L 69.279067 147.632183 
L 69.400837 154.358786 
L 69.461721 153.978287 
L 69.522606 154.974642 
L 69.583491 153.862673 
L 69.705261 143.991043 
L 69.766146 146.44304 
L 69.887916 153.681531 
L 70.009686 144.753554 
L 70.07057 144.971723 
L 70.131455 144.538551 
L 70.19234 147.242357 
L 70.253225 144.39519 
L 70.31411 147.974879 
L 70.55765 137.699684 
L 70.801189 130.416513 
L 70.922959 130.835387 
L 71.105614 137.929841 
L 71.166499 138.672334 
L 71.288269 137.431235 
L 71.410038 132.141387 
L 71.531808 138.383256 
L 71.653578 133.449626 
L 71.836233 139.315444 
L 71.897118 134.029508 
L 71.958003 138.2614 
L 72.018887 134.38573 
L 72.079772 137.436541 
L 72.140657 138.571767 
L 72.201542 133.611696 
L 72.445082 146.063304 
L 72.627736 139.173976 
L 72.810391 134.811547 
L 72.871276 139.398658 
L 72.932161 137.539239 
L 73.053931 140.200266 
L 73.175701 136.038135 
L 73.236585 139.183598 
L 73.29747 138.61823 
L 73.41924 135.500509 
L 73.480125 132.712074 
L 73.601895 138.259273 
L 73.66278 137.220871 
L 73.723665 137.6461 
L 73.78455 134.761501 
L 73.845435 135.273347 
L 73.906319 135.253501 
L 74.028089 128.663906 
L 74.088974 131.862905 
L 74.210744 125.808165 
L 74.271629 127.193005 
L 74.332514 126.686286 
L 74.515168 122.329317 
L 74.576053 122.920331 
L 74.697823 120.310064 
L 74.880478 126.271997 
L 74.941363 126.39783 
L 75.367557 144.348623 
L 75.489327 139.842002 
L 75.550212 143.035962 
L 75.732867 131.880716 
L 75.793751 131.528628 
L 75.915521 127.26203 
L 75.976406 128.061914 
L 76.037291 123.340627 
L 76.098176 124.218579 
L 76.219946 128.370343 
L 76.280831 128.531673 
L 76.341716 124.378691 
L 76.463485 132.433309 
L 76.52437 131.567748 
L 76.585255 130.534728 
L 76.64614 125.618004 
L 76.707025 128.58389 
L 76.76791 125.961746 
L 76.828795 128.162163 
L 76.88968 127.79805 
L 76.950565 127.325216 
L 77.072334 122.367184 
L 77.194104 126.449827 
L 77.254989 124.068652 
L 77.376759 132.633312 
L 77.620299 123.015853 
L 77.742068 138.772018 
L 77.802953 133.304639 
L 77.985608 127.311562 
L 78.046493 126.801869 
L 78.107378 125.277884 
L 78.411802 102.215566 
L 78.533572 106.820197 
L 78.594457 106.017498 
L 78.777112 97.693856 
L 78.837997 92.69451 
L 78.898882 93.832001 
L 78.959766 93.925568 
L 79.142421 87.947188 
L 79.203306 92.96427 
L 79.264191 91.657962 
L 79.568616 78.16258 
L 79.6295 79.451151 
L 79.690385 77.527445 
L 79.75127 78.209744 
L 79.812155 79.086553 
L 80.177465 100.096576 
L 80.238349 100.883539 
L 80.360119 98.158228 
L 80.421004 102.971045 
L 80.481889 100.960114 
L 80.664544 104.67269 
L 80.725429 101.523077 
L 80.786314 103.567575 
L 80.847199 103.381401 
L 81.029853 94.545525 
L 81.090738 96.298452 
L 81.151623 95.96802 
L 81.212508 99.956109 
L 81.334278 93.537658 
L 81.395163 94.313555 
L 81.456048 99.90097 
L 81.516932 96.325675 
L 81.638702 99.723583 
L 81.760472 95.45887 
L 81.943127 110.638382 
L 82.064897 105.63049 
L 82.125782 102.523307 
L 82.186666 107.112256 
L 82.247551 103.485921 
L 82.308436 106.283121 
L 82.369321 104.273218 
L 82.430206 105.264252 
L 82.491091 97.731646 
L 82.551976 98.005571 
L 82.612861 99.020991 
L 82.795515 107.877694 
L 82.97817 106.347544 
L 83.039055 106.021936 
L 83.09994 106.465043 
L 83.160825 110.485988 
L 83.22171 109.434575 
L 83.404365 101.938679 
L 83.526134 105.121772 
L 83.587019 104.071339 
L 83.647904 104.267625 
L 83.830559 113.067192 
L 83.891444 112.614451 
L 84.195868 98.410789 
L 84.256753 99.20601 
L 84.561178 90.407779 
L 84.622063 96.62166 
L 84.682947 91.720352 
L 84.743832 94.714794 
L 84.987372 78.932866 
L 85.048257 83.16868 
L 85.109142 82.418889 
L 85.352681 75.66788 
L 85.474451 79.496914 
L 85.596221 68.46529 
L 85.657106 68.654315 
L 85.717991 65.758017 
L 85.778876 66.127534 
L 86.0833 72.279455 
L 86.20507 63.472396 
L 86.32684 64.472433 
L 86.44861 61.876495 
L 86.509495 62.636769 
L 86.57038 64.735494 
L 86.631264 63.865961 
L 86.692149 61.866475 
L 86.935689 69.87167 
L 87.118344 62.229102 
L 87.300998 65.992151 
L 87.361883 65.087064 
L 87.544538 77.611369 
L 87.605423 71.283761 
L 87.666308 72.665567 
L 87.727193 71.805083 
L 87.788078 72.390831 
L 88.031617 61.015224 
L 88.153387 69.512534 
L 88.275157 58.068458 
L 88.336042 60.91701 
L 88.396927 62.419936 
L 88.457812 68.42674 
L 88.518696 64.656499 
L 88.579581 63.82998 
L 88.823121 72.230376 
L 88.884006 80.481074 
L 88.944891 80.026389 
L 89.127546 84.76018 
L 89.18843 81.284289 
L 89.249315 83.403827 
L 89.43197 86.66325 
L 89.67551 90.98728 
L 89.736395 90.230254 
L 89.797279 88.807088 
L 89.919049 92.283087 
L 89.979934 86.101376 
L 90.040819 87.801754 
L 90.101704 89.78026 
L 90.223474 81.906116 
L 90.284359 85.602697 
L 90.345244 83.354698 
L 90.406128 85.492553 
L 90.467013 92.117197 
L 90.527898 91.148009 
L 90.588783 90.707901 
L 90.710553 98.806748 
L 90.771438 97.341181 
L 90.832323 93.214665 
L 90.893208 95.264905 
L 90.954093 94.822918 
L 91.075862 98.168397 
L 91.136747 108.028512 
L 91.197632 107.996202 
L 91.258517 106.550218 
L 91.380287 114.852818 
L 91.441172 114.700035 
L 91.502057 114.952934 
L 91.745596 107.619337 
L 91.928251 121.979119 
L 91.989136 120.688173 
L 92.050021 113.414982 
L 92.110906 114.782255 
L 92.171791 115.263723 
L 92.476215 126.995516 
L 92.5371 126.639934 
L 92.597985 127.658788 
L 92.65887 126.176488 
L 92.719755 126.361779 
L 92.841525 126.931907 
L 92.90241 131.996602 
L 92.963294 129.760438 
L 93.024179 129.024979 
L 93.145949 134.756724 
L 93.206834 134.498637 
L 93.328604 129.468256 
L 93.389489 131.971682 
L 93.450374 130.944174 
L 93.511259 128.347488 
L 93.572144 132.994929 
L 93.633028 132.764201 
L 93.876568 122.174629 
L 93.937453 123.075932 
L 93.998338 122.50795 
L 94.241877 134.524561 
L 94.302762 133.18845 
L 94.363647 139.803265 
L 94.424532 138.516731 
L 94.485417 136.338063 
L 94.546302 137.497196 
L 94.850727 149.33019 
L 94.911611 152.110574 
L 95.094266 145.089261 
L 95.155151 147.973547 
L 95.216036 147.324277 
L 95.276921 146.050791 
L 95.52046 150.575385 
L 95.703115 145.881095 
L 95.764 151.24993 
L 95.824885 150.258772 
L 95.88577 149.95624 
L 95.946655 150.401237 
L 96.068425 143.001349 
L 96.129309 144.229652 
L 96.433734 134.40012 
L 96.494619 137.116139 
L 96.738159 142.743213 
L 96.799043 152.363189 
L 96.859928 148.510057 
L 96.920813 138.551156 
L 96.981698 144.95585 
L 97.042583 145.976515 
L 97.164353 139.300791 
L 97.347008 134.786171 
L 97.468777 131.126705 
L 97.529662 128.493391 
L 97.590547 129.234803 
L 97.651432 128.266696 
L 97.712317 128.530299 
L 97.773202 128.898942 
L 97.894972 132.128645 
L 97.955857 132.403911 
L 98.016742 131.409332 
L 98.138511 124.969715 
L 98.260281 129.795603 
L 98.321166 137.088124 
L 98.382051 135.98019 
L 98.442936 129.307456 
L 98.503821 137.355359 
L 98.564706 136.413082 
L 98.686475 138.239822 
L 98.74736 133.110603 
L 98.808245 136.248872 
L 98.930015 139.353346 
L 98.9909 138.020968 
L 99.356209 148.162596 
L 99.417094 146.471046 
L 99.477979 150.240375 
L 99.660634 141.201173 
L 99.843289 144.416813 
L 99.965058 142.424802 
L 100.147713 152.848452 
L 100.330368 158.315546 
L 100.391253 155.575958 
L 100.452138 159.573465 
L 100.513023 159.535871 
L 100.573908 158.765676 
L 100.634792 162.561835 
L 100.817447 158.476624 
L 100.939217 159.699899 
L 101.000102 158.574566 
L 101.182757 163.208973 
L 101.304526 161.852496 
L 101.426296 158.028808 
L 101.487181 158.533419 
L 101.730721 144.483711 
L 101.791606 143.67881 
L 101.913375 153.86822 
L 102.035145 152.353527 
L 102.09603 152.351271 
L 102.400455 139.802537 
L 102.583109 143.547984 
L 102.704879 134.918346 
L 103.313728 171.011831 
L 103.374613 169.277774 
L 103.557268 181.167707 
L 103.618153 177.367315 
L 103.679038 180.016669 
L 103.739923 178.439165 
L 103.861692 180.985884 
L 103.922577 180.81772 
L 104.105232 188.480391 
L 104.166117 185.312626 
L 104.227002 187.33021 
L 104.470541 192.562898 
L 104.531426 191.529497 
L 104.714081 185.900375 
L 104.774966 189.169733 
L 104.835851 188.357751 
L 104.896736 185.91101 
L 105.018506 189.784806 
L 105.07939 184.990395 
L 105.140275 189.029389 
L 105.20116 186.230135 
L 105.383815 183.311671 
L 105.4447 177.639441 
L 105.505585 179.817858 
L 105.810009 192.758114 
L 105.931779 187.571675 
L 106.053549 191.323763 
L 106.236204 183.689069 
L 106.297089 186.375335 
L 106.357973 183.781933 
L 106.418858 187.951486 
L 106.479743 186.825729 
L 106.601513 188.881329 
L 106.662398 187.632453 
L 106.845053 195.953433 
L 107.027707 188.371057 
L 107.149477 192.95749 
L 107.210362 191.863146 
L 107.332132 185.149987 
L 107.575671 205.233753 
L 107.636556 203.451265 
L 107.697441 207.704806 
L 107.758326 205.697076 
L 107.819211 205.288464 
L 107.880096 206.429313 
L 107.940981 202.371117 
L 108.001866 204.770376 
L 108.123636 208.513596 
L 108.184521 206.920065 
L 108.245405 201.039646 
L 108.30629 201.777142 
L 108.367175 203.05337 
L 108.488945 201.159307 
L 108.6716 188.448373 
L 108.915139 201.804222 
L 109.036909 195.088448 
L 109.097794 197.541642 
L 109.158679 198.4149 
L 109.341334 190.290781 
L 109.402219 191.308284 
L 109.463104 190.079125 
L 109.523988 190.961466 
L 109.584873 190.339306 
L 109.706643 193.835761 
L 109.767528 193.463646 
L 109.828413 190.280799 
L 109.889298 191.575331 
L 109.950183 196.871324 
L 110.011068 195.919003 
L 110.193722 190.96845 
L 110.376377 202.726097 
L 110.559032 193.397363 
L 110.741687 201.845705 
L 111.046111 187.62905 
L 111.106996 188.291014 
L 111.41142 176.674093 
L 111.594075 191.489062 
L 111.65496 185.88137 
L 111.715845 183.059185 
L 111.77673 183.64996 
L 111.837615 189.049743 
L 111.8985 188.640073 
L 111.959385 189.203458 
L 112.02027 190.963489 
L 112.081154 188.888138 
L 112.142039 182.902573 
L 112.202924 184.255581 
L 112.324694 180.076057 
L 112.385579 181.500376 
L 112.507349 188.035726 
L 112.568234 186.668886 
L 112.629119 187.198087 
L 112.690003 186.562837 
L 112.872658 194.419253 
L 112.933543 192.691496 
L 112.994428 196.811919 
L 113.055313 193.645334 
L 113.177083 195.583062 
L 113.359737 211.315753 
L 113.542392 198.799493 
L 113.603277 200.448836 
L 113.664162 196.825722 
L 113.725047 199.475725 
L 113.785932 204.17047 
L 113.846817 203.80255 
L 114.029471 198.751502 
L 114.090356 202.111923 
L 114.151241 194.85018 
L 114.212126 197.461707 
L 114.63832 188.034085 
L 114.88186 192.408699 
L 114.942745 191.147931 
L 115.00363 195.11569 
L 115.064515 195.094512 
L 115.247169 184.979029 
L 115.308054 185.712527 
L 115.368939 189.899399 
L 115.429824 184.935118 
L 115.490709 187.950946 
L 115.551594 189.239587 
L 115.734249 177.657522 
L 115.795134 176.479004 
L 115.916903 179.573639 
L 115.977788 177.303956 
L 116.160443 189.633115 
L 116.586637 211.198704 
L 116.647522 209.280491 
L 116.830177 205.223873 
L 117.073717 221.138798 
L 117.134601 220.1644 
L 117.195486 220.324364 
L 117.317256 228.761568 
L 117.439026 224.911456 
L 117.499911 229.211515 
L 117.560796 227.170291 
L 117.743451 229.73173 
L 117.804335 226.713246 
L 117.86522 228.355906 
L 117.926105 231.04708 
L 118.3523 214.660907 
L 118.534954 222.531441 
L 118.595839 223.29405 
L 118.656724 222.9187 
L 118.717609 220.97451 
L 118.961149 229.730576 
L 119.022033 229.96005 
L 119.143803 234.42512 
L 119.204688 228.774168 
L 119.265573 231.94518 
L 119.630883 220.430038 
L 119.752652 223.634986 
L 119.935307 217.687981 
L 119.996192 219.102508 
L 120.057077 212.443385 
L 120.117962 214.858386 
L 120.178847 215.788937 
L 120.300616 219.64674 
L 120.422386 214.230623 
L 120.483271 214.464825 
L 120.787696 229.088642 
L 120.848581 227.728373 
L 120.909466 231.326098 
L 121.09212 219.667137 
L 121.21389 224.734869 
L 121.274775 224.572306 
L 121.45743 221.950388 
L 121.640084 240.732272 
L 121.700969 238.177542 
L 121.883624 246.00511 
L 121.944509 239.653904 
L 122.005394 241.523411 
L 122.066279 241.313724 
L 122.188049 247.710938 
L 122.248933 242.248984 
L 122.309818 242.983783 
L 122.370703 246.028379 
L 122.431588 242.985434 
L 122.492473 243.532994 
L 122.553358 250.785572 
L 122.614243 250.61507 
L 122.675128 248.626447 
L 122.918667 257.916502 
L 122.979552 259.576596 
L 123.040437 258.797419 
L 123.283977 245.531221 
L 123.405747 242.086866 
L 123.466632 242.93114 
L 123.527516 247.574329 
L 123.588401 245.390787 
L 123.649286 241.095479 
L 123.710171 243.168335 
L 123.771056 244.266164 
L 123.831941 240.056995 
L 123.892826 240.869346 
L 123.953711 242.759446 
L 124.136365 237.721613 
L 124.258135 241.648164 
L 124.44079 236.431704 
L 124.501675 238.533283 
L 124.56256 235.94674 
L 124.68433 242.828039 
L 124.806099 238.847541 
L 124.866984 240.839638 
L 125.110524 228.593926 
L 125.354064 241.599978 
L 125.475833 236.312399 
L 125.536718 238.019168 
L 125.597603 237.641234 
L 125.658488 233.178497 
L 125.719373 237.198169 
L 125.780258 234.176267 
L 125.841143 233.208367 
L 126.084682 225.96986 
L 126.145567 227.67851 
L 126.328222 221.177288 
L 126.389107 221.584292 
L 126.510877 214.388006 
L 126.693531 216.038101 
L 126.754416 214.424349 
L 126.815301 214.942183 
L 126.876186 215.628647 
L 126.997956 210.978266 
L 127.058841 214.955597 
L 127.119726 212.245431 
L 127.30238 202.995922 
L 127.363265 208.518568 
L 127.485035 192.927414 
L 127.54592 193.061737 
L 127.850345 201.554197 
L 128.093884 208.230987 
L 128.276539 205.14542 
L 128.337424 207.850768 
L 128.459194 204.086688 
L 128.520079 208.138759 
L 128.702733 197.729171 
L 128.763618 200.209652 
L 128.885388 188.500405 
L 129.068043 195.011825 
L 129.128928 192.607884 
L 129.250697 200.653297 
L 129.311582 199.658727 
L 129.372467 201.475673 
L 129.433352 196.725892 
L 129.494237 200.81673 
L 129.676892 192.817377 
L 129.737777 192.514506 
L 129.920431 195.682546 
L 130.163971 181.656136 
L 130.224856 182.984822 
L 130.65105 169.149249 
L 130.711935 173.393221 
L 130.77282 170.725761 
L 130.833705 168.899089 
L 130.89459 175.534885 
L 130.955475 172.908291 
L 131.01636 172.060495 
L 131.077245 168.569914 
L 131.199014 176.765167 
L 131.259899 175.552122 
L 131.442554 173.631812 
L 131.503439 177.918234 
L 131.564324 174.552186 
L 131.625209 174.068727 
L 131.990518 204.919293 
L 132.051403 204.11893 
L 132.173173 209.761883 
L 132.416712 198.513247 
L 132.538482 199.125437 
L 132.660252 206.533177 
L 132.842907 216.145817 
L 132.903792 215.674243 
L 132.964677 213.694613 
L 133.269101 190.455008 
L 133.329986 188.796214 
L 133.634411 196.699298 
L 133.817065 207.911664 
L 133.938835 199.805797 
L 133.99972 200.123601 
L 134.060605 196.994839 
L 134.12149 198.299242 
L 134.182375 199.033834 
L 134.304144 208.367766 
L 134.365029 206.604965 
L 134.425914 205.089971 
L 134.608569 193.904276 
L 134.730339 199.361043 
L 135.095648 179.127907 
L 135.156533 182.930301 
L 135.339188 174.196792 
L 135.521843 181.464775 
L 135.582727 185.061678 
L 135.704497 177.133931 
L 135.826267 182.449371 
L 136.008922 180.907413 
L 136.069807 181.641781 
L 136.191576 172.553521 
L 136.313346 176.230526 
L 136.374231 177.59375 
L 136.435116 184.78071 
L 136.496001 181.479171 
L 136.556886 183.341706 
L 136.678656 174.427474 
L 136.739541 168.71445 
L 136.800426 169.624269 
L 136.86131 176.929608 
L 136.922195 176.058751 
L 137.043965 174.78182 
L 137.10485 174.976083 
L 137.165735 174.812059 
L 137.409275 178.646941 
L 137.531044 171.919921 
L 137.591929 175.0853 
L 137.774584 168.493063 
L 138.079009 175.299612 
L 138.139893 175.624246 
L 138.261663 172.129369 
L 138.505203 179.6136 
L 138.566088 178.987252 
L 138.626973 181.723347 
L 138.687858 178.901391 
L 138.748742 183.406657 
L 138.809627 182.876535 
L 138.870512 180.975557 
L 138.931397 184.855629 
L 138.992282 183.384902 
L 139.053167 182.829095 
L 139.114052 176.814074 
L 139.174937 176.884529 
L 139.418476 181.179696 
L 139.722901 205.695875 
L 139.783786 209.642192 
L 139.844671 208.595351 
L 139.905556 207.663944 
L 139.966441 212.610608 
L 140.027325 207.834397 
L 140.08821 210.066381 
L 140.20998 207.396499 
L 140.270865 209.013295 
L 140.45352 202.081919 
L 140.57529 201.588541 
L 140.697059 204.782161 
L 140.879714 202.404368 
L 141.001484 211.706099 
L 141.062369 206.395268 
L 141.184139 211.390602 
L 141.245024 209.248349 
L 141.366793 216.183833 
L 141.427678 214.53156 
L 141.488563 216.735293 
L 141.549448 216.07895 
L 141.610333 216.698307 
L 141.792988 221.97577 
L 141.975642 217.023859 
L 142.097412 219.517314 
L 142.158297 217.286493 
L 142.219182 217.527123 
L 142.280067 217.077019 
L 142.340952 214.330343 
L 142.401837 215.412352 
L 142.523607 217.150899 
L 142.584491 222.957348 
L 142.645376 217.350655 
L 142.706261 219.022482 
L 142.888916 225.640527 
L 142.949801 225.653216 
L 143.010686 225.321577 
L 143.071571 223.822746 
L 143.375995 242.176623 
L 143.55865 232.05813 
L 143.619535 232.528011 
L 143.741305 238.659575 
L 143.863074 238.61985 
L 143.923959 234.714216 
L 143.984844 235.748488 
L 144.045729 236.159456 
L 144.289269 249.670222 
L 144.350154 244.533228 
L 144.411039 247.712294 
L 144.471923 245.181613 
L 144.532808 250.685744 
L 144.593693 249.854974 
L 144.654578 250.917959 
L 144.715463 250.165197 
L 144.898118 240.956338 
L 144.959003 242.624017 
L 145.019888 244.205523 
L 145.141657 236.769878 
L 145.324312 247.782402 
L 145.506967 244.704289 
L 145.811391 225.715091 
L 145.872276 227.43368 
L 145.994046 225.27757 
L 146.237586 238.938121 
L 146.298471 241.849342 
L 146.481125 236.260419 
L 146.54201 234.672179 
L 146.724665 239.070465 
L 146.846435 233.417028 
L 146.90732 233.591871 
L 147.272629 244.147933 
L 147.516169 236.418397 
L 147.577054 244.735276 
L 147.637938 242.321702 
L 147.698823 242.618506 
L 147.881478 235.500605 
L 147.942363 234.628647 
L 148.003248 236.89016 
L 148.185903 231.525455 
L 148.246788 236.181279 
L 148.307672 233.976317 
L 148.429442 228.344793 
L 148.490327 229.758642 
L 148.551212 232.396741 
L 148.733867 228.449939 
L 148.916521 236.617269 
L 148.977406 234.639638 
L 149.099176 240.129241 
L 149.281831 232.198451 
L 149.64714 224.310359 
L 149.708025 223.828881 
L 149.76891 227.566845 
L 149.829795 222.358202 
L 149.89068 223.721514 
L 149.951565 225.198794 
L 150.13422 218.013841 
L 150.255989 208.484283 
L 150.377759 221.042197 
L 150.499529 219.288247 
L 150.560414 217.214959 
L 150.621299 217.901812 
L 150.682184 220.974589 
L 150.803954 215.299225 
L 151.169263 234.888453 
L 151.351918 231.72733 
L 151.412803 237.221582 
L 151.473687 234.320188 
L 151.595457 238.730931 
L 151.778112 231.841796 
L 151.838997 231.180107 
L 151.899882 231.429443 
L 152.021652 233.760383 
L 152.082537 229.869449 
L 152.143421 230.470901 
L 152.204306 229.87778 
L 152.265191 235.120435 
L 152.326076 234.682059 
L 152.386961 234.920449 
L 152.569616 241.222664 
L 152.813155 231.075349 
L 152.934925 238.371379 
L 153.178465 226.662196 
L 153.23935 227.317407 
L 153.422004 231.80519 
L 153.543774 224.9768 
L 153.604659 227.015612 
L 153.665544 226.338061 
L 153.848199 218.06545 
L 153.909084 214.21722 
L 153.969969 216.02073 
L 154.030853 220.353785 
L 154.152623 212.825815 
L 154.396163 229.283559 
L 154.578818 223.155052 
L 154.700587 227.148352 
L 154.883242 216.988623 
L 154.944127 215.002082 
L 155.065897 223.862597 
L 155.126782 220.333203 
L 155.187667 216.526013 
L 155.248552 217.852124 
L 155.370321 211.857438 
L 155.552976 199.613079 
L 155.613861 200.633986 
L 155.674746 204.082953 
L 155.735631 203.592449 
L 155.796516 203.325114 
L 155.857401 205.424104 
L 155.918285 202.522888 
L 155.97917 207.248059 
L 156.040055 205.456031 
L 156.405365 219.245383 
L 156.588019 215.258821 
L 156.648904 214.558566 
L 156.770674 203.798668 
L 156.831559 206.534543 
L 157.135984 217.772328 
L 157.318638 204.832069 
L 157.379523 210.210525 
L 157.440408 209.765992 
L 157.501293 210.539523 
L 157.562178 206.754372 
L 157.623063 207.599864 
L 157.683948 207.704423 
L 157.744833 215.518464 
L 157.805718 213.611233 
L 157.988372 204.301139 
L 158.110142 202.518051 
L 158.231912 203.944442 
L 158.292797 197.749671 
L 158.353682 201.535095 
L 158.414567 207.421398 
L 158.475451 205.225988 
L 158.536336 206.816706 
L 158.597221 211.753187 
L 158.658106 210.020321 
L 158.901646 218.464781 
L 159.023416 215.862587 
L 159.0843 218.675655 
L 159.266955 209.751687 
L 159.32784 214.433887 
L 159.388725 212.048045 
L 159.510495 203.696593 
L 159.632265 212.795998 
L 159.69315 212.534955 
L 159.754034 212.008679 
L 159.814919 207.467005 
L 159.875804 208.646624 
L 159.936689 212.22169 
L 159.997574 211.744005 
L 160.058459 211.687361 
L 160.119344 210.207381 
L 160.180229 205.344887 
L 160.241114 207.526573 
L 160.362883 206.386093 
L 160.423768 212.071433 
L 160.484653 210.657626 
L 160.667308 214.919758 
L 160.728193 211.896093 
L 160.789078 213.565911 
L 160.910848 217.782523 
L 160.971733 217.397413 
L 161.093502 216.033862 
L 161.154387 207.520193 
L 161.215272 208.056022 
L 161.276157 216.056827 
L 161.337042 212.815031 
L 161.519697 221.1872 
L 161.763236 213.179136 
L 161.824121 220.443526 
L 161.885006 220.28824 
L 162.006776 217.165764 
L 162.128546 221.018042 
L 162.189431 220.136671 
L 162.3112 229.718599 
L 162.43297 224.024096 
L 162.615625 232.055697 
L 162.920049 239.330807 
L 162.980934 242.56859 
L 163.102704 232.395319 
L 163.285359 239.930445 
L 163.346244 236.155828 
L 163.407129 236.408934 
L 163.468014 236.691053 
L 163.772438 224.732416 
L 163.833323 230.644337 
L 163.894208 226.34922 
L 163.955093 225.752092 
L 164.198632 220.956681 
L 164.442172 227.090057 
L 164.503057 230.083681 
L 164.563942 229.635572 
L 164.685712 228.58429 
L 164.990136 243.064928 
L 165.111906 238.320016 
L 165.172791 235.877495 
L 165.294561 240.432848 
L 165.416331 236.227698 
L 165.477215 236.950246 
L 165.5381 236.759025 
L 165.720755 233.512006 
L 165.842525 218.310346 
L 165.90341 222.226915 
L 165.964295 221.79992 
L 166.02518 227.533646 
L 166.086064 226.028436 
L 166.146949 218.465992 
L 166.207834 219.897821 
L 166.268719 220.518465 
L 166.451374 227.106196 
L 166.573144 221.886137 
L 166.694914 223.543278 
L 166.877568 236.043643 
L 166.938453 233.773528 
L 166.999338 230.795125 
L 167.060223 232.479453 
L 167.121108 232.86102 
L 167.303763 225.953986 
L 167.425532 233.210247 
L 167.486417 231.570522 
L 167.547302 233.8363 
L 167.608187 233.331719 
L 167.669072 234.023635 
L 167.729957 233.672619 
L 167.912612 220.66813 
L 168.095266 218.168853 
L 168.338806 222.283619 
L 168.399691 221.082338 
L 168.704115 236.985795 
L 168.765 234.975041 
L 168.825885 242.935864 
L 168.88677 237.129734 
L 168.947655 236.166298 
L 169.00854 237.19472 
L 169.069425 234.62239 
L 169.191195 241.098226 
L 169.25208 240.19468 
L 169.312964 240.993289 
L 169.434734 244.433982 
L 169.495619 243.49779 
L 169.678274 233.458501 
L 169.739159 235.343435 
L 169.800044 235.494175 
L 169.921813 240.005428 
L 169.982698 237.551211 
L 170.043583 230.359152 
L 170.104468 231.595484 
L 170.165353 232.850544 
L 170.287123 230.279075 
L 170.469778 237.854625 
L 170.591547 235.413014 
L 170.835087 245.132834 
L 170.895972 241.739855 
L 170.956857 240.484416 
L 171.017742 242.063923 
L 171.200396 234.618078 
L 171.322166 244.104528 
L 171.383051 242.034964 
L 171.565706 255.546044 
L 171.626591 247.095437 
L 171.687476 247.870909 
L 171.748361 249.828796 
L 171.809245 244.577111 
L 171.87013 247.5333 
L 172.23544 231.088452 
L 172.296325 230.911848 
L 172.35721 231.049643 
L 172.539864 228.979862 
L 172.600749 229.201703 
L 172.661634 229.038556 
L 172.783404 233.497453 
L 172.844289 230.714198 
L 172.905174 231.228162 
L 173.087828 241.491978 
L 173.148713 239.31457 
L 173.331368 231.128707 
L 173.514023 226.841017 
L 173.574908 231.961024 
L 173.635793 230.770417 
L 173.696678 231.653167 
L 173.818447 226.687714 
L 173.940217 217.976752 
L 174.122872 231.764998 
L 174.183757 229.725257 
L 174.244642 231.194419 
L 174.366411 235.289186 
L 174.609951 227.189182 
L 174.853491 225.093921 
L 175.09703 217.684359 
L 175.157915 218.526915 
L 175.2188 217.215051 
L 175.279685 217.372818 
L 175.34057 223.888547 
L 175.523225 214.149318 
L 175.644994 222.041709 
L 175.705879 220.193917 
L 175.766764 211.445743 
L 175.827649 214.165885 
L 175.888534 214.413793 
L 175.949419 211.994206 
L 176.010304 213.146294 
L 176.071189 213.197618 
L 176.132074 214.538382 
L 176.192959 213.791934 
L 176.375613 212.008531 
L 176.497383 204.249623 
L 176.558268 204.095964 
L 176.619153 201.826546 
L 176.740923 207.409976 
L 176.862693 205.64178 
L 177.045347 213.121927 
L 177.106232 215.048886 
L 177.349772 203.366203 
L 177.410657 204.47124 
L 177.471542 198.876875 
L 177.532426 199.012128 
L 177.715081 201.299199 
L 177.775966 201.853843 
L 177.836851 204.385341 
L 177.897736 200.661377 
L 177.958621 201.386824 
L 178.019506 202.197015 
L 178.080391 206.937021 
L 178.141276 205.59645 
L 178.4457 194.26186 
L 178.56747 195.8067 
L 178.750125 207.466392 
L 178.993664 197.722519 
L 179.054549 200.350593 
L 179.115434 199.169946 
L 179.176319 196.288251 
L 179.237204 196.618295 
L 179.298089 198.6859 
L 179.358974 197.570158 
L 179.785168 180.76318 
L 179.846053 181.523284 
L 179.906938 182.36929 
L 180.211362 196.214735 
L 180.454902 191.667673 
L 180.637557 201.950792 
L 180.698442 200.887801 
L 180.759326 202.437373 
L 180.820211 201.338357 
L 181.002866 199.350205 
L 181.124636 203.640606 
L 181.185521 203.107634 
L 181.42906 207.795923 
L 181.6726 202.51676 
L 181.733485 207.445534 
L 181.79437 204.767991 
L 181.855255 203.581846 
L 181.977024 212.274897 
L 182.098794 207.129991 
L 182.220564 212.609169 
L 182.403219 225.573667 
L 182.464104 228.005562 
L 182.524989 227.366291 
L 182.646758 225.654105 
L 182.768528 227.770504 
L 182.829413 224.017986 
L 182.890298 226.571521 
L 182.951183 229.451874 
L 183.012068 225.140291 
L 183.194723 232.719783 
L 183.316492 227.942254 
L 183.377377 223.642327 
L 183.438262 225.445836 
L 183.499147 224.895493 
L 183.560032 226.512446 
L 183.620917 226.350716 
L 183.681802 225.633058 
L 183.742687 228.086481 
L 183.864457 217.253519 
L 183.925341 226.288864 
L 183.986226 221.688198 
L 184.107996 219.447532 
L 184.53419 238.841524 
L 184.716845 230.239862 
L 184.77773 231.960757 
L 184.838615 225.93802 
L 184.8995 228.420362 
L 185.02127 233.688662 
L 185.082155 234.282526 
L 185.14304 229.053912 
L 185.203924 232.959432 
L 185.264809 234.839282 
L 185.325694 232.754378 
L 185.386579 226.437449 
L 185.447464 229.058577 
L 185.569234 222.024016 
L 185.812773 238.978783 
L 185.873658 236.783418 
L 185.934543 240.189131 
L 185.995428 238.08033 
L 186.056313 237.43287 
L 186.178083 229.355227 
L 186.238968 229.64551 
L 186.299853 227.316331 
L 186.360738 229.91867 
L 186.421623 228.841145 
L 186.786932 206.255637 
L 186.847817 207.030832 
L 186.908702 202.622279 
L 187.091356 209.480017 
L 187.213126 206.728588 
L 187.395781 200.135314 
L 187.456666 199.154411 
L 187.517551 203.961162 
L 187.639321 197.572834 
L 187.700205 199.016036 
L 187.821975 193.018865 
L 187.88286 200.442925 
L 187.943745 198.077129 
L 188.00463 198.046121 
L 188.1264 192.044754 
L 188.187285 192.046847 
L 188.430824 194.763423 
L 188.491709 193.226131 
L 188.613479 199.418071 
L 188.674364 198.555993 
L 188.796134 189.531158 
L 188.857019 195.87158 
L 188.917904 191.458637 
L 189.039673 187.785488 
L 189.100558 188.033025 
L 189.161443 192.218198 
L 189.283213 184.150036 
L 189.404983 190.155801 
L 189.526753 182.295763 
L 189.709407 189.708701 
L 189.952947 179.847971 
L 190.074717 183.961046 
L 190.318256 170.12225 
L 190.379141 175.431017 
L 190.561796 168.929474 
L 190.683566 164.200205 
L 190.866221 173.182928 
L 190.927105 169.851894 
L 190.98799 173.180257 
L 191.048875 172.179729 
L 191.170645 173.401502 
L 191.23153 171.624453 
L 191.292415 173.710387 
L 191.3533 162.948978 
L 191.414185 165.951766 
L 191.535954 169.356755 
L 191.657724 177.784323 
L 191.718609 173.035434 
L 191.779494 175.369542 
L 191.901264 178.542795 
L 191.962149 178.083095 
L 192.083919 180.659433 
L 192.327458 175.564255 
L 192.449228 178.492721 
L 192.510113 177.584352 
L 192.570998 173.101457 
L 192.631883 175.165372 
L 192.692768 177.107593 
L 192.814537 170.460859 
L 192.875422 172.204053 
L 193.118962 163.502457 
L 193.301617 170.425235 
L 193.423386 175.636065 
L 193.484271 174.297358 
L 193.545156 168.497044 
L 193.606041 169.491611 
L 193.666926 168.025437 
L 193.727811 168.86586 
L 193.849581 174.194002 
L 193.910466 173.446758 
L 193.971351 168.277376 
L 194.032236 171.554046 
L 194.09312 171.589837 
L 194.397545 190.520315 
L 194.519315 200.272111 
L 194.5802 199.564035 
L 194.762854 187.719546 
L 194.823739 189.117065 
L 194.884624 193.896027 
L 194.945509 191.600901 
L 195.371703 177.58312 
L 195.554358 185.028651 
L 195.676128 178.180998 
L 195.737013 179.109849 
L 195.797898 180.03935 
L 195.858783 184.283671 
L 195.919668 183.528065 
L 196.102322 187.484754 
L 196.163207 192.548248 
L 196.224092 186.729594 
L 196.284977 189.890019 
L 196.345862 189.048125 
L 196.467632 196.327262 
L 196.711171 176.891759 
L 196.772056 178.378411 
L 197.015596 183.032857 
L 197.137366 180.278138 
L 197.380905 162.58616 
L 197.44179 162.415784 
L 197.502675 161.498062 
L 197.68533 153.025378 
L 197.746215 153.006395 
L 197.8071 153.275579 
L 197.989754 159.184015 
L 198.050639 159.171746 
L 198.172409 166.173789 
L 198.233294 165.59148 
L 198.476834 158.07734 
L 198.537718 157.893768 
L 198.842143 169.236012 
L 198.963913 172.388741 
L 199.024798 171.648274 
L 199.146567 170.819371 
L 199.207452 169.375397 
L 199.268337 159.325703 
L 199.329222 159.415664 
L 199.511877 163.308451 
L 199.572762 165.635782 
L 199.633647 164.50487 
L 199.694532 162.183684 
L 199.755417 162.929635 
L 199.816301 163.020387 
L 199.877186 160.301666 
L 200.059841 166.029759 
L 200.120726 163.304258 
L 200.303381 171.661283 
L 200.486035 167.369259 
L 200.54692 173.171654 
L 200.607805 172.949657 
L 200.66869 173.087512 
L 200.729575 175.094696 
L 201.034 157.804329 
L 201.155769 167.69546 
L 201.216654 165.195696 
L 201.399309 154.592529 
L 201.460194 154.403906 
L 201.521079 153.762316 
L 201.825503 143.503813 
L 201.886388 145.16094 
L 201.947273 143.189976 
L 202.008158 146.845791 
L 202.069043 140.926238 
L 202.129928 141.73639 
L 202.190813 142.909651 
L 202.251698 142.779358 
L 202.495237 154.660997 
L 202.738777 144.735902 
L 202.982316 158.761995 
L 203.043201 159.035823 
L 203.104086 158.882792 
L 203.164971 155.111673 
L 203.225856 156.40124 
L 203.347626 160.738833 
L 203.408511 157.234579 
L 203.65205 164.876921 
L 203.712935 162.181439 
L 203.89559 170.086481 
L 204.13913 155.012448 
L 204.321784 161.775458 
L 204.382669 162.468955 
L 204.565324 168.113585 
L 204.747979 162.886472 
L 204.808864 163.384998 
L 204.869748 162.654165 
L 204.991518 155.989361 
L 205.174173 166.347093 
L 205.356828 152.901459 
L 205.417713 154.497672 
L 205.539482 156.956475 
L 205.600367 155.699901 
L 205.843907 167.796736 
L 206.026562 158.480437 
L 206.209216 165.12175 
L 206.270101 165.974385 
L 206.574526 155.299131 
L 206.818065 164.643676 
L 206.87895 165.303307 
L 207.00072 170.49262 
L 207.12249 164.454813 
L 207.183375 165.752306 
L 207.305145 164.667198 
L 207.36603 165.601058 
L 207.426914 171.331063 
L 207.487799 167.271604 
L 207.670454 175.301812 
L 207.731339 174.809985 
L 207.792224 174.619793 
L 207.853109 172.650323 
L 207.913994 175.224484 
L 207.974879 173.639389 
L 208.035764 173.363663 
L 208.096648 171.100443 
L 208.157533 172.354204 
L 208.401073 185.700913 
L 208.461958 184.737878 
L 208.583728 180.331604 
L 208.705497 183.210683 
L 208.766382 178.933234 
L 208.827267 180.409185 
L 208.888152 184.48739 
L 208.949037 180.468747 
L 209.009922 180.991083 
L 209.070807 181.464377 
L 209.131692 180.445931 
L 209.192577 183.519303 
L 209.253462 182.761971 
L 209.314347 182.690543 
L 209.375231 182.118515 
L 209.436116 185.297035 
L 209.497001 183.358562 
L 209.557886 184.899392 
L 209.862311 176.552466 
L 210.10585 195.607842 
L 210.166735 188.752106 
L 210.47116 199.540327 
L 210.532045 197.594226 
L 210.592929 197.650311 
L 210.775584 203.18122 
L 210.836469 200.196418 
L 210.897354 203.720371 
L 210.958239 200.964328 
L 211.019124 199.924519 
L 211.080009 201.101524 
L 211.201779 189.856471 
L 211.262663 191.077497 
L 211.323548 184.211277 
L 211.384433 187.748207 
L 211.627973 177.334572 
L 211.810628 174.134424 
L 211.993282 179.972462 
L 212.297707 186.716649 
L 212.358592 181.000321 
L 212.419477 184.571657 
L 212.480362 186.367667 
L 212.723901 174.455538 
L 212.784786 174.231957 
L 212.967441 170.481844 
L 213.089211 179.451574 
L 213.33275 165.975264 
L 213.45452 167.145923 
L 213.57629 162.10815 
L 213.819829 172.838953 
L 213.880714 175.164047 
L 214.063369 170.351945 
L 214.124254 171.791246 
L 214.185139 170.147669 
L 214.306909 175.224552 
L 214.428678 174.830428 
L 214.489563 174.741407 
L 214.611333 178.045366 
L 214.793988 189.618197 
L 214.854873 190.181683 
L 215.098412 184.194329 
L 215.159297 183.660012 
L 215.281067 186.327569 
L 215.341952 183.828563 
L 215.402837 184.158907 
L 215.463722 183.980563 
L 215.585492 180.933686 
L 215.646377 181.359755 
L 215.889916 199.436195 
L 215.950801 194.602572 
L 216.011686 196.969694 
L 216.072571 194.863864 
L 216.133456 200.229988 
L 216.194341 199.893949 
L 216.255226 199.965613 
L 216.31611 197.951033 
L 216.498765 208.895856 
L 216.985844 189.202641 
L 217.046729 190.804045 
L 217.107614 189.884284 
L 217.351154 177.26954 
L 217.412039 177.765054 
L 217.472924 180.172889 
L 217.594693 171.752696 
L 217.716463 181.64173 
L 217.899118 172.221317 
L 218.081773 168.565028 
L 218.203543 177.00046 
L 218.264427 176.669973 
L 218.507967 165.605545 
L 218.568852 167.666834 
L 218.629737 176.23751 
L 218.690622 175.735556 
L 218.751507 177.583824 
L 218.812392 175.842835 
L 218.995046 185.604829 
L 219.116816 184.040966 
L 219.177701 189.805207 
L 219.238586 187.134575 
L 219.299471 182.437098 
L 219.360356 186.939085 
L 219.421241 185.001757 
L 219.482126 178.761326 
L 219.54301 180.701295 
L 219.725665 176.966585 
L 219.78655 176.997437 
L 220.03009 174.050839 
L 220.090975 171.978082 
L 220.212744 177.501641 
L 220.273629 174.733857 
L 220.395399 169.619371 
L 220.517169 175.724061 
L 220.578054 173.351504 
L 220.821593 183.285944 
L 220.943363 180.326004 
L 221.065133 184.978194 
L 221.247788 175.035409 
L 221.308673 176.763681 
L 221.430442 170.972696 
L 221.491327 176.854004 
L 221.552212 173.982696 
L 221.795752 171.620926 
L 221.856637 176.912042 
L 222.039291 169.047239 
L 222.100176 168.618109 
L 222.282831 173.303871 
L 222.404601 166.865188 
L 222.465486 172.290346 
L 222.526371 168.336606 
L 222.648141 172.304339 
L 222.709025 175.052191 
L 222.76991 173.301212 
L 222.89168 174.753313 
L 222.952565 172.503124 
L 223.01345 176.389877 
L 223.074335 169.202916 
L 223.13522 169.716621 
L 223.196105 169.447949 
L 223.25699 170.320594 
L 223.439644 154.073791 
L 223.683184 159.666803 
L 223.865839 155.589311 
L 223.926724 155.869359 
L 223.987608 154.307086 
L 224.170263 161.565451 
L 224.292033 158.947921 
L 224.352918 160.339205 
L 224.474688 155.757151 
L 224.535573 145.486876 
L 224.596457 147.72355 
L 224.779112 153.657613 
L 224.839997 154.927673 
L 224.900882 159.134552 
L 224.961767 158.407529 
L 225.144422 153.285736 
L 225.205307 153.00101 
L 225.327076 143.410399 
L 225.387961 134.177986 
L 225.448846 136.399394 
L 225.753271 124.755407 
L 225.814156 126.827792 
L 225.87504 133.981756 
L 225.935925 129.574301 
L 225.99681 128.110714 
L 226.057695 128.880781 
L 226.11858 128.520986 
L 226.24035 130.239831 
L 226.301235 135.189111 
L 226.36212 132.911539 
L 226.423005 134.342359 
L 226.727429 123.164679 
L 226.788314 124.785207 
L 226.910084 121.031604 
L 226.970969 123.324782 
L 227.031854 121.281983 
L 227.092739 125.003566 
L 227.275393 117.618372 
L 227.397163 120.710545 
L 227.458048 119.860043 
L 227.518933 113.303492 
L 227.579818 115.804178 
L 227.762472 120.446742 
L 227.823357 122.32649 
L 227.884242 119.483998 
L 228.066897 131.059048 
L 228.249552 135.28782 
L 228.310437 134.39122 
L 228.432206 128.452111 
L 228.493091 129.559549 
L 228.553976 130.727678 
L 228.675746 125.04899 
L 228.736631 125.193595 
L 228.797516 126.159356 
L 229.10194 144.428859 
L 229.162825 139.635526 
L 229.22371 140.070025 
L 229.284595 143.232603 
L 229.34548 142.919627 
L 229.406365 141.935771 
L 229.46725 146.58944 
L 229.528135 143.82372 
L 229.58902 142.982097 
L 229.649905 143.938102 
L 229.710789 142.056671 
L 229.771674 144.031711 
L 229.832559 143.36663 
L 229.893444 140.947457 
L 229.954329 142.538248 
L 230.015214 142.939323 
L 230.197869 133.123592 
L 230.258754 136.733505 
L 230.319638 136.529241 
L 230.441408 136.789727 
L 230.502293 134.206822 
L 230.563178 135.970781 
L 230.806718 148.602454 
L 230.867603 145.619577 
L 230.928488 146.884752 
L 231.172027 153.356261 
L 231.293797 149.360306 
L 231.415567 155.094237 
L 231.476452 152.512739 
L 231.537337 153.445322 
L 231.598221 155.457899 
L 231.780876 145.299137 
L 231.841761 148.025074 
L 231.902646 150.4915 
L 231.963531 146.243298 
L 232.024416 150.638327 
L 232.085301 148.720082 
L 232.146186 147.691599 
L 232.57238 162.699647 
L 232.633265 162.310547 
L 232.69415 165.294173 
L 232.755035 163.922298 
L 232.81592 163.633473 
L 232.876804 164.900733 
L 232.937689 161.941575 
L 232.998574 163.402628 
L 233.120344 168.126241 
L 233.302999 166.131505 
L 233.363884 166.26082 
L 233.668308 151.166379 
L 233.790078 162.97282 
L 233.850963 159.656323 
L 233.911848 158.963573 
L 234.033618 161.202253 
L 234.094503 159.271396 
L 234.216272 168.357757 
L 234.277157 166.375442 
L 234.338042 168.548319 
L 234.398927 168.089091 
L 234.459812 161.040402 
L 234.520697 162.524968 
L 234.581582 165.087921 
L 234.886006 150.080554 
L 234.946891 148.79225 
L 235.007776 150.108498 
L 235.068661 149.696633 
L 235.129546 149.36127 
L 235.312201 157.807815 
L 235.373086 155.5774 
L 235.43397 157.340343 
L 235.494855 157.983756 
L 235.55574 161.274643 
L 235.67751 154.631446 
L 235.738395 155.926637 
L 235.79928 156.266737 
L 235.860165 154.215651 
L 235.92105 157.324986 
L 236.225474 139.613251 
L 236.286359 137.882689 
L 236.469014 128.799512 
L 236.529899 124.388497 
L 236.651669 128.897939 
L 236.712553 123.329935 
L 236.773438 125.682784 
L 236.956093 134.75909 
L 237.016978 135.128826 
L 237.138748 132.864234 
L 237.199633 132.652483 
L 237.321402 136.643216 
L 237.382287 132.128868 
L 237.443172 137.157211 
L 237.504057 135.579353 
L 237.564942 130.526755 
L 237.625827 130.927174 
L 237.686712 131.133532 
L 237.747597 131.09026 
L 237.808482 134.368615 
L 237.869367 132.344165 
L 238.112906 124.170964 
L 238.417331 135.703551 
L 238.539101 141.491339 
L 238.721755 132.689273 
L 238.90441 134.784169 
L 238.965295 134.907167 
L 239.208834 121.369833 
L 239.330604 125.304125 
L 239.391489 120.409344 
L 239.452374 125.037571 
L 239.513259 124.066877 
L 239.574144 125.443139 
L 239.635029 124.131271 
L 239.695914 120.252425 
L 239.756799 121.545224 
L 239.817684 123.011321 
L 239.878568 121.956185 
L 239.939453 121.615572 
L 240.061223 122.595307 
L 240.122108 118.329668 
L 240.182993 120.415161 
L 240.304763 119.051988 
L 240.670072 105.709578 
L 240.791842 106.430215 
L 240.974497 117.447621 
L 241.096267 113.68421 
L 241.278921 119.249448 
L 241.339806 119.228684 
L 241.400691 117.743411 
L 241.522461 109.124925 
L 241.705116 116.288396 
L 241.766 110.965584 
L 241.826885 114.150492 
L 241.88777 113.249442 
L 242.00954 116.408626 
L 242.13131 109.553329 
L 242.313965 120.205536 
L 242.740159 140.374162 
L 242.922814 134.10285 
L 242.983699 136.056025 
L 243.227238 127.210511 
L 243.288123 129.51236 
L 243.349008 126.366394 
L 243.409893 127.906155 
L 243.470778 128.249903 
L 243.592548 134.331434 
L 243.653433 130.239971 
L 243.714317 134.412466 
L 243.775202 131.746591 
L 243.836087 129.669954 
L 243.896972 121.206992 
L 243.957857 121.676179 
L 244.018742 122.539627 
L 244.079627 121.659962 
L 244.201397 115.781548 
L 244.262282 117.437114 
L 244.444936 106.463912 
L 244.627591 115.435452 
L 244.688476 115.090378 
L 244.749361 108.980934 
L 244.810246 110.788908 
L 245.053785 129.712081 
L 245.11467 125.467908 
L 245.23644 120.478438 
L 245.419095 130.131454 
L 245.540865 129.426581 
L 245.601749 128.536048 
L 245.662634 123.351143 
L 245.723519 127.002145 
L 245.906174 121.507937 
L 246.271483 136.880343 
L 246.332368 135.143325 
L 246.393253 135.394882 
L 246.454138 134.968993 
L 246.515023 132.13333 
L 246.575908 133.954808 
L 246.636793 136.004917 
L 246.819448 130.37765 
L 246.880332 130.180737 
L 246.941217 130.213074 
L 247.123872 125.260747 
L 247.184757 126.477531 
L 247.428297 119.092387 
L 247.550066 125.866571 
L 247.671836 116.12442 
L 247.732721 123.134384 
L 247.793606 121.456814 
L 247.854491 118.495627 
L 247.915376 119.982147 
L 247.976261 120.604159 
L 248.158915 117.862866 
L 248.34157 126.482944 
L 248.402455 125.501225 
L 248.46334 126.344261 
L 248.524225 120.639141 
L 248.58511 121.977599 
L 248.70688 123.336696 
L 248.889534 118.595287 
L 249.011304 122.110453 
L 249.133074 120.192703 
L 249.193959 118.043392 
L 249.254844 121.291895 
L 249.315729 118.63651 
L 249.376614 119.246226 
L 249.437498 123.302928 
L 249.620153 118.099058 
L 249.681038 121.158165 
L 249.741923 120.227221 
L 249.802808 121.042312 
L 249.924578 126.839447 
L 250.107232 116.055032 
L 250.350772 111.148327 
L 250.472542 123.918896 
L 250.594312 121.560723 
L 250.716081 115.844691 
L 250.776966 116.958639 
L 250.837851 118.597133 
L 250.898736 117.678692 
L 251.142276 107.951721 
L 251.385815 121.142115 
L 251.4467 119.11256 
L 251.507585 120.88807 
L 251.56847 114.79668 
L 251.629355 116.006128 
L 251.69024 120.953566 
L 251.81201 111.839058 
L 252.055549 124.710468 
L 252.238204 109.546884 
L 252.299089 110.38671 
L 252.481744 106.977154 
L 252.603513 107.120837 
L 252.847053 123.522012 
L 252.907938 128.618387 
L 253.029708 114.276129 
L 253.151478 118.212261 
L 253.212362 115.537095 
L 253.455902 134.524184 
L 253.516787 130.421243 
L 253.577672 131.459634 
L 253.638557 132.470157 
L 253.699442 136.145149 
L 253.760327 136.130869 
L 254.003866 121.117475 
L 254.125636 125.952954 
L 254.186521 124.464406 
L 254.247406 125.178658 
L 254.490945 137.632975 
L 254.612715 131.236016 
L 254.6736 134.883106 
L 254.734485 134.816578 
L 254.79537 133.740547 
L 254.91714 135.468304 
L 254.978025 133.54788 
L 255.03891 139.385563 
L 255.099795 136.606586 
L 255.160679 136.821924 
L 255.404219 132.001515 
L 255.525989 136.62883 
L 255.586874 133.647799 
L 255.647759 138.400785 
L 255.708644 137.267642 
L 255.891298 131.907269 
L 255.952183 136.086787 
L 256.013068 133.716438 
L 256.134838 130.67531 
L 256.195723 134.192214 
L 256.256608 133.809286 
L 256.317493 132.643466 
L 256.378377 128.679581 
L 256.439262 131.716527 
L 256.500147 129.800814 
L 256.561032 132.138972 
L 256.621917 128.799053 
L 256.682802 129.569766 
L 256.865457 141.621136 
L 256.987227 142.865858 
L 257.048111 142.117107 
L 257.108996 140.468166 
L 257.230766 130.052907 
L 257.291651 131.710523 
L 257.413421 136.794352 
L 257.474306 135.955289 
L 257.77873 119.173541 
L 257.839615 119.264348 
L 257.9005 118.233305 
L 257.961385 119.916977 
L 258.02227 119.65969 
L 258.083155 118.061907 
L 258.204925 129.057198 
L 258.26581 129.005558 
L 258.387579 119.948515 
L 258.509349 124.258868 
L 258.570234 122.475548 
L 258.631119 123.619219 
L 258.692004 126.346114 
L 258.752889 125.068349 
L 258.813774 125.905547 
L 258.996428 131.339068 
L 259.179083 121.915606 
L 259.239968 126.412203 
L 259.544393 104.601975 
L 259.727047 100.088739 
L 259.787932 101.611896 
L 259.970587 93.508222 
L 260.031472 88.550238 
L 260.092357 89.236199 
L 260.214126 84.049735 
L 260.335896 85.137577 
L 260.396781 85.075478 
L 260.457666 83.538014 
L 260.579436 90.240015 
L 260.640321 93.73082 
L 260.822976 86.6152 
L 260.88386 85.919827 
L 260.944745 83.184564 
L 261.188285 95.922272 
L 261.24917 97.023502 
L 261.310055 96.8149 
L 261.492709 88.072236 
L 261.614479 89.346173 
L 261.675364 93.707711 
L 261.736249 91.725094 
L 261.797134 88.504378 
L 261.979789 102.305722 
L 262.040674 97.761764 
L 262.101558 100.658494 
L 262.162443 99.565306 
L 262.223328 108.522198 
L 262.284213 108.514074 
L 262.405983 104.411446 
L 262.466868 107.027753 
L 262.527753 102.634329 
L 262.710408 115.821097 
L 262.832177 112.343291 
L 262.893062 119.22371 
L 262.953947 116.828346 
L 263.014832 116.808992 
L 263.075717 119.497148 
L 263.258372 109.907119 
L 263.380141 111.380014 
L 263.441026 110.976645 
L 263.745451 92.541658 
L 263.806336 94.593556 
L 263.867221 101.270203 
L 263.928106 98.979506 
L 264.11076 110.851012 
L 264.23253 109.266501 
L 264.293415 107.826182 
L 264.536955 116.402163 
L 264.59784 115.390608 
L 264.780494 109.42368 
L 264.902264 112.228091 
L 265.024034 105.330164 
L 265.328458 122.837886 
L 265.389343 120.088801 
L 265.450228 121.745592 
L 265.511113 125.33957 
L 265.571998 117.637578 
L 265.693768 128.573044 
L 265.876423 119.605866 
L 265.937307 120.474253 
L 265.998192 125.365165 
L 266.059077 123.458312 
L 266.119962 125.846378 
L 266.180847 122.454756 
L 266.241732 123.367203 
L 266.363502 127.705832 
L 266.424387 126.663741 
L 266.607041 115.826432 
L 266.667926 117.671979 
L 266.911466 129.371828 
L 266.972351 128.876682 
L 267.21589 139.456274 
L 267.33766 137.660075 
L 267.398545 136.857642 
L 267.642085 125.160968 
L 267.70297 125.666338 
L 267.763855 125.390958 
L 267.824739 126.067725 
L 267.946509 123.329172 
L 268.007394 126.789594 
L 268.129164 120.228943 
L 268.190049 120.783058 
L 268.311819 128.640887 
L 268.372704 127.613369 
L 268.433589 126.580784 
L 268.738013 102.086513 
L 268.798898 102.670121 
L 269.042438 91.3215 
L 269.103322 94.427403 
L 269.346862 87.272787 
L 269.407747 90.32928 
L 269.468632 86.942339 
L 269.529517 88.942138 
L 269.590402 89.542455 
L 269.651287 92.043381 
L 269.712172 89.890097 
L 269.955711 105.914037 
L 270.077481 103.036616 
L 270.260136 108.717965 
L 270.321021 107.728774 
L 270.747215 87.791215 
L 270.8081 90.21745 
L 270.868985 90.196916 
L 270.92987 89.68735 
L 270.990755 84.867423 
L 271.051639 85.181936 
L 271.112524 89.987568 
L 271.173409 88.320617 
L 271.356064 93.440522 
L 271.660488 70.306112 
L 271.721373 74.489206 
L 271.904028 72.480274 
L 272.208453 81.113089 
L 272.634647 65.050638 
L 272.695532 68.604116 
L 272.756417 63.006974 
L 272.817302 65.095226 
L 272.878187 66.347245 
L 272.939071 64.498765 
L 272.999956 65.622715 
L 273.060841 65.983587 
L 273.304381 52.5389 
L 273.365266 57.197363 
L 273.426151 54.606245 
L 273.487036 54.091683 
L 273.730575 68.876932 
L 274.035 76.214244 
L 274.217654 68.814856 
L 274.400309 76.40854 
L 274.461194 74.29084 
L 274.522079 75.269039 
L 274.643849 85.389505 
L 274.704734 82.834073 
L 274.826503 82.002743 
L 274.887388 78.439615 
L 275.070043 85.38592 
L 275.191813 78.850199 
L 275.252698 85.428388 
L 275.496237 69.711898 
L 275.618007 76.655257 
L 275.678892 75.469148 
L 275.739777 74.071002 
L 275.800662 68.316669 
L 275.861547 69.647102 
L 275.922432 74.664097 
L 275.983317 71.766297 
L 276.105086 71.34394 
L 276.165971 69.512776 
L 276.226856 73.415746 
L 276.287741 72.453367 
L 276.348626 69.273666 
L 276.409511 71.056116 
L 276.470396 69.215137 
L 276.77482 77.80519 
L 276.835705 77.340694 
L 276.89659 84.028275 
L 276.957475 80.06478 
L 277.14013 85.151106 
L 277.201015 85.106042 
L 277.2619 83.46511 
L 277.322785 85.159838 
L 277.444554 75.990335 
L 277.505439 77.711985 
L 277.566324 77.411805 
L 277.688094 72.448243 
L 277.809864 78.533459 
L 277.870749 76.672929 
L 277.931634 71.895698 
L 277.992519 74.94047 
L 278.053403 74.285552 
L 278.114288 74.741075 
L 278.175173 76.992661 
L 278.236058 75.346609 
L 278.296943 75.63151 
L 278.418713 74.659539 
L 278.540483 79.503083 
L 278.662252 72.353456 
L 278.723137 76.472873 
L 278.905792 69.47396 
L 278.966677 72.357766 
L 279.027562 71.310091 
L 279.088447 70.133796 
L 279.149332 65.326777 
L 279.271101 69.733691 
L 279.331986 70.073089 
L 279.453756 59.337888 
L 279.514641 61.183553 
L 279.636411 67.884825 
L 279.758181 78.816971 
L 279.819066 78.025193 
L 280.00172 72.442429 
L 280.12349 73.08861 
L 280.306145 84.014632 
L 280.427915 87.06728 
L 280.610569 80.48739 
L 280.671454 82.553339 
L 280.732339 80.057498 
L 280.914994 88.825288 
L 281.036764 96.718389 
L 281.097649 95.792266 
L 281.280303 86.427788 
L 281.341188 87.474277 
L 281.462958 83.755402 
L 281.523843 85.045631 
L 281.645613 89.584131 
L 281.950037 77.070507 
L 282.376232 87.394178 
L 282.437117 84.106562 
L 282.498001 85.744748 
L 282.619771 89.443284 
L 282.802426 85.362087 
L 282.863311 87.883587 
L 283.289505 55.105285 
L 283.35039 61.33303 
L 283.411275 57.418 
L 283.898354 69.779168 
L 284.020124 61.79368 
L 284.081009 62.23268 
L 284.141894 67.096435 
L 284.202779 66.013048 
L 284.263664 65.998279 
L 284.324549 65.560428 
L 284.446318 63.108919 
L 284.750743 71.328917 
L 285.055167 61.915019 
L 285.176937 66.04897 
L 285.420477 49.724507 
L 285.542247 55.846229 
L 285.664016 51.27155 
L 285.907556 66.866674 
L 285.968441 62.315513 
L 286.029326 64.583798 
L 286.090211 72.200006 
L 286.151096 68.365301 
L 286.211981 66.643366 
L 286.45552 72.042965 
L 286.516405 72.167617 
L 286.638175 66.260886 
L 286.69906 66.827525 
L 286.759945 65.970173 
L 286.942599 73.175607 
L 287.003484 73.49442 
L 287.064369 76.25982 
L 287.125254 74.478868 
L 287.186139 74.569555 
L 287.368794 78.232005 
L 287.429679 77.040454 
L 287.612333 82.44278 
L 287.734103 74.89498 
L 287.794988 76.09534 
L 287.855873 71.824462 
L 288.038528 82.019945 
L 288.586492 73.849859 
L 288.830031 60.730693 
L 289.073571 69.652301 
L 289.134456 69.336676 
L 289.256226 73.785342 
L 289.56065 89.66922 
L 289.621535 85.992587 
L 289.68242 87.4121 
L 289.743305 85.767359 
L 289.80419 87.176978 
L 289.865075 86.082605 
L 289.92596 84.569521 
L 289.986845 87.259353 
L 290.04773 85.285483 
L 290.230384 78.335264 
L 290.352154 85.394008 
L 290.413039 82.502572 
L 290.473924 87.341431 
L 290.534809 83.754418 
L 291.021888 103.007913 
L 291.082773 101.541445 
L 291.265428 107.151066 
L 291.569852 92.031008 
L 291.630737 93.42098 
L 291.752507 101.956292 
L 291.813392 100.183343 
L 292.239586 116.037211 
L 292.300471 109.742518 
L 292.361356 111.621691 
L 292.422241 112.755092 
L 292.544011 110.152871 
L 292.604896 113.982119 
L 292.66578 113.797448 
L 292.848435 104.819573 
L 293.091975 113.682565 
L 293.274629 118.462858 
L 293.335514 120.648272 
L 293.518169 116.037342 
L 293.579054 118.74246 
L 293.700824 115.440498 
L 293.761709 115.687829 
L 293.883479 117.217895 
L 293.944363 116.195263 
L 294.309673 129.146866 
L 294.370558 133.553911 
L 294.553212 122.547697 
L 294.614097 126.317368 
L 294.674982 124.943612 
L 294.979407 113.914256 
L 295.101177 119.215418 
L 295.162062 117.049577 
L 295.283831 120.313618 
L 295.405601 117.771791 
L 295.466486 120.31922 
L 295.527371 116.411099 
L 295.588256 118.426513 
L 295.649141 118.182683 
L 295.89268 102.2058 
L 295.953565 109.605662 
L 296.01445 106.437316 
L 296.075335 106.247388 
L 296.13622 110.061604 
L 296.197105 109.478179 
L 296.318875 107.892644 
L 296.501529 100.845711 
L 296.684184 110.665825 
L 296.745069 108.314036 
L 296.805954 108.507579 
L 296.927724 113.196886 
L 297.049494 118.470567 
L 297.110378 114.870748 
L 297.171263 117.677703 
L 297.232148 117.543319 
L 297.293033 124.826141 
L 297.353918 119.790309 
L 297.536573 125.970476 
L 297.780112 120.180627 
L 297.840997 119.198107 
L 297.901882 119.362635 
L 298.084537 122.777271 
L 298.328077 109.475494 
L 298.388961 113.030581 
L 298.449846 112.79552 
L 298.510731 112.373464 
L 298.754271 124.389055 
L 299.180465 104.518136 
L 299.545775 122.700468 
L 299.728429 129.722291 
L 299.850199 121.61553 
L 299.911084 122.168707 
L 299.971969 127.094532 
L 300.093739 120.602071 
L 300.154624 123.23437 
L 300.215509 122.244142 
L 300.276393 120.031797 
L 300.337278 120.852492 
L 300.459048 122.99215 
L 300.519933 127.735093 
L 300.580818 126.050473 
L 300.641703 121.950854 
L 300.702588 123.3485 
L 300.763473 123.494064 
L 300.824358 127.479763 
L 300.885243 126.517202 
L 300.946127 126.14906 
L 301.007012 123.771762 
L 301.189667 139.552137 
L 301.311437 137.951029 
L 301.372322 136.872993 
L 301.554976 140.779157 
L 301.920286 121.153083 
L 301.981171 123.704145 
L 302.102941 118.539194 
L 302.22471 124.78624 
L 302.285595 123.094477 
L 302.34648 121.323905 
L 302.529135 132.627031 
L 302.59002 127.06976 
L 302.650905 134.587128 
L 302.71179 127.443264 
L 302.772675 131.581883 
L 302.833559 132.071583 
L 303.016214 140.033027 
L 303.077099 137.997539 
L 303.137984 139.728697 
L 303.198869 138.660897 
L 303.320639 136.767205 
L 303.503293 126.095359 
L 303.564178 128.159113 
L 303.990373 142.648857 
L 304.051258 143.075519 
L 304.233912 147.647853 
L 304.355682 149.764759 
L 304.416567 148.081755 
L 304.477452 151.522362 
L 304.660107 142.721286 
L 304.720991 143.080685 
L 304.781876 145.964103 
L 304.842761 145.753688 
L 304.903646 143.048821 
L 305.086301 150.777805 
L 305.147186 142.189344 
L 305.208071 143.109141 
L 305.45161 153.764217 
L 305.512495 151.580882 
L 305.57338 153.43439 
L 305.634265 148.559184 
L 305.69515 148.849767 
L 305.756035 148.917233 
L 305.81692 152.717127 
L 305.877805 151.787786 
L 306.121344 143.290788 
L 306.364884 154.327411 
L 306.486654 152.164368 
L 306.669308 144.560109 
L 306.730193 147.809463 
L 306.791078 146.00286 
L 306.851963 137.303842 
L 306.912848 137.711432 
L 307.156388 148.739086 
L 307.339042 140.880907 
L 307.399927 141.160053 
L 307.582582 155.227259 
L 307.704352 148.549823 
L 307.765237 148.86296 
L 307.826122 150.974828 
L 308.069661 143.715788 
L 308.130546 144.065481 
L 308.191431 146.835323 
L 308.252316 143.997037 
L 308.313201 144.639731 
L 308.434971 149.396061 
L 308.495856 148.10612 
L 308.55674 144.235136 
L 308.617625 145.648965 
L 308.861165 158.892362 
L 308.92205 157.20344 
L 308.982935 162.154246 
L 309.04382 158.550716 
L 309.226474 153.423814 
L 309.348244 161.179219 
L 309.409129 156.628202 
L 309.470014 157.835781 
L 309.530899 163.057538 
L 309.591784 161.031315 
L 309.774439 154.843812 
L 309.835323 159.728065 
L 309.896208 157.414987 
L 309.957093 151.458572 
L 310.078863 161.006694 
L 310.139748 159.583336 
L 310.261518 157.550945 
L 310.383288 148.574107 
L 310.444172 150.434782 
L 310.505057 149.469513 
L 310.565942 149.681401 
L 310.687712 152.94214 
L 310.870367 143.472756 
L 311.174791 133.371771 
L 311.235676 134.069071 
L 311.296561 135.81566 
L 311.357446 131.263915 
L 311.418331 133.5772 
L 311.479216 131.683908 
L 311.540101 132.921085 
L 311.600986 137.524788 
L 311.661871 129.540489 
L 311.722755 130.867888 
L 311.844525 133.890796 
L 311.90541 131.697235 
L 312.088065 144.657137 
L 312.14895 140.469532 
L 312.209835 141.22856 
L 312.27072 141.191366 
L 312.392489 143.23246 
L 312.453374 142.720364 
L 312.514259 140.699461 
L 312.757799 151.404566 
L 313.062223 141.077804 
L 313.183993 142.58644 
L 313.366648 147.506307 
L 313.549303 140.371816 
L 313.610187 137.368267 
L 313.731957 141.77266 
L 313.792842 140.566462 
L 313.853727 141.350653 
L 313.975497 144.098352 
L 314.036382 142.621505 
L 314.158152 146.471602 
L 314.279921 143.363433 
L 314.340806 143.957761 
L 314.401691 146.093207 
L 314.584346 142.360646 
L 314.706116 150.385292 
L 315.01054 140.440598 
L 315.071425 144.802414 
L 315.13231 144.783417 
L 315.193195 140.977373 
L 315.25408 142.130547 
L 315.37585 137.032581 
L 315.436735 143.791371 
L 315.49762 140.712569 
L 315.558504 137.143225 
L 315.619389 138.578641 
L 315.802044 141.619691 
L 315.862929 139.244866 
L 315.923814 139.720658 
L 316.106469 148.112105 
L 316.228238 139.070631 
L 316.289123 139.720313 
L 316.471778 130.808718 
L 316.654433 147.504519 
L 316.715318 140.573037 
L 316.897972 142.603899 
L 317.019742 134.236444 
L 317.324167 155.924549 
L 317.567706 174.912168 
L 317.628591 172.977146 
L 317.750361 183.903254 
L 317.811246 180.248523 
L 317.872131 180.804288 
L 318.35921 157.037873 
L 318.420095 157.030513 
L 318.541865 153.773885 
L 318.663635 159.015535 
L 318.724519 154.032139 
L 318.968059 166.004369 
L 319.028944 165.938215 
L 319.089829 166.824219 
L 319.272484 161.747016 
L 319.333368 161.860769 
L 319.394253 159.28334 
L 319.455138 160.722227 
L 319.516023 160.392186 
L 319.698678 161.32394 
L 319.759563 161.523378 
L 319.881333 159.112563 
L 319.942218 156.079274 
L 320.003102 156.123276 
L 320.124872 157.282777 
L 320.246642 152.699551 
L 320.307527 153.368841 
L 320.368412 153.657036 
L 320.672836 162.659941 
L 320.733721 162.41667 
L 320.794606 160.981317 
L 320.977261 165.822348 
L 321.099031 163.756462 
L 321.220801 162.046165 
L 321.281685 164.985973 
L 321.34257 162.485343 
L 321.403455 167.121566 
L 321.46434 163.647073 
L 321.525225 164.496395 
L 321.58611 167.444905 
L 321.646995 165.903512 
L 321.890534 168.348995 
L 322.012304 164.107557 
L 322.073189 164.77954 
L 322.134074 164.833031 
L 322.194959 165.417937 
L 322.316729 159.150146 
L 322.377614 159.6855 
L 322.499384 153.324408 
L 322.621153 158.77003 
L 322.682038 156.795421 
L 322.803808 162.455474 
L 322.925578 157.36123 
L 322.986463 159.565323 
L 323.108233 154.620781 
L 323.230002 156.256002 
L 323.290887 155.756293 
L 323.351772 155.975818 
L 323.534427 143.344056 
L 323.595312 144.482843 
L 323.656197 150.736913 
L 323.717082 149.731952 
L 324.021506 129.597661 
L 324.082391 130.145632 
L 324.265046 135.379513 
L 324.325931 132.651211 
L 324.386816 137.602423 
L 324.4477 136.546262 
L 324.508585 133.797323 
L 324.56947 138.704971 
L 324.630355 138.047605 
L 324.69124 137.760007 
L 324.752125 140.257592 
L 324.81301 139.677426 
L 324.93478 135.04184 
L 324.995665 130.802299 
L 325.056549 131.991198 
L 325.239204 128.559522 
L 325.421859 133.682628 
L 325.482744 135.2745 
L 325.543629 126.117615 
L 325.604514 126.233074 
L 325.726283 130.542709 
L 325.787168 130.864272 
L 325.908938 136.287131 
L 326.091593 124.620186 
L 326.213363 128.702268 
L 326.274248 121.918525 
L 326.335132 124.423786 
L 326.396017 126.51749 
L 326.456902 126.24608 
L 326.517787 125.550553 
L 326.578672 122.149865 
L 326.639557 123.242974 
L 326.822212 130.3439 
L 326.883097 130.31262 
L 327.004866 127.276288 
L 327.187521 140.432521 
L 327.248406 139.042441 
L 327.309291 142.679359 
L 327.370176 140.936592 
L 327.552831 130.580517 
L 327.6746 137.373871 
L 327.857255 122.928019 
L 327.91814 124.673848 
L 328.100795 115.132638 
L 328.16168 115.897933 
L 328.283449 122.099014 
L 328.344334 120.376314 
L 328.466104 125.083879 
L 328.526989 124.520479 
L 328.587874 121.82646 
L 328.709644 128.219183 
L 329.014068 107.119225 
L 329.074953 107.098977 
L 329.379378 116.005776 
L 329.440263 114.649339 
L 329.501148 109.520843 
L 329.562032 112.292861 
L 329.683802 115.321896 
L 329.805572 105.988166 
L 329.866457 110.648947 
L 329.927342 110.517087 
L 329.988227 110.643152 
L 330.049112 114.086794 
L 330.109997 108.200298 
L 330.170881 108.693177 
L 330.231766 116.034205 
L 330.292651 112.397745 
L 330.353536 115.476899 
L 330.414421 115.262422 
L 330.657961 106.307853 
L 330.77973 107.877342 
L 330.9015 108.896003 
L 330.962385 108.078073 
L 331.14504 100.915772 
L 331.205925 101.257351 
L 331.26681 109.035261 
L 331.327695 106.622435 
L 331.449464 108.921735 
L 331.571234 110.095415 
L 331.632119 114.232015 
L 331.693004 111.010785 
L 331.753889 111.500861 
L 331.936544 116.086966 
L 332.240968 106.899262 
L 332.301853 110.72709 
L 332.362738 108.596637 
L 332.484508 102.367927 
L 332.667163 107.005719 
L 332.728047 106.485594 
L 332.849817 110.312643 
L 332.910702 113.696312 
L 332.971587 110.795751 
L 333.032472 113.889802 
L 333.093357 111.826246 
L 333.276012 96.205942 
L 333.397781 105.454169 
L 333.580436 97.595102 
L 333.641321 97.114512 
L 333.823976 105.099064 
L 333.884861 103.454184 
L 333.945746 104.580777 
L 334.1284 101.539723 
L 334.25017 106.268801 
L 334.432825 99.206591 
L 334.49371 99.478466 
L 334.554595 101.295993 
L 334.676364 95.521195 
L 334.737249 95.960379 
L 334.798134 96.334636 
L 334.859019 95.858784 
L 335.041674 108.681896 
L 335.102559 107.598824 
L 335.163444 104.190472 
L 335.224329 107.05379 
L 335.346098 102.824999 
L 335.406983 108.699011 
L 335.467868 108.6676 
L 335.528753 109.343805 
L 335.589638 108.992109 
L 335.772293 118.036575 
L 335.833178 116.630167 
L 335.894062 117.171831 
L 336.076717 111.472398 
L 336.137602 111.752846 
L 336.198487 107.445551 
L 336.259372 109.672063 
L 336.381142 110.447143 
L 336.442027 107.679015 
L 336.685566 115.271994 
L 336.746451 110.859479 
L 336.807336 111.57182 
L 336.989991 115.789531 
L 337.050876 115.634302 
L 337.23353 125.081275 
L 337.416185 113.841953 
L 337.47707 118.043881 
L 337.59884 108.624287 
L 337.659725 116.696059 
L 337.72061 115.015149 
L 337.842379 120.627612 
L 338.025034 112.153583 
L 338.146804 114.848651 
L 338.207689 125.074701 
L 338.268574 124.182275 
L 338.329459 118.341403 
L 338.390344 121.019477 
L 338.451228 119.330242 
L 338.633883 124.998261 
L 338.816538 118.939969 
L 339.120962 136.122205 
L 339.303617 139.941759 
L 339.364502 137.134906 
L 339.425387 138.903316 
L 339.608042 145.273878 
L 339.729811 148.320654 
L 339.790696 143.064226 
L 339.851581 146.071587 
L 339.912466 148.988362 
L 339.973351 147.638788 
L 340.034236 146.870112 
L 340.156006 149.922231 
L 340.33866 144.833411 
L 340.399545 148.610884 
L 340.46043 141.584913 
L 340.521315 142.437453 
L 340.5822 146.608231 
L 340.643085 145.098959 
L 340.70397 144.749931 
L 340.764855 143.408009 
L 340.94751 151.599578 
L 341.069279 145.642506 
L 341.130164 145.713263 
L 341.191049 150.793868 
L 341.373704 144.026297 
L 341.434589 145.323967 
L 341.617243 138.932004 
L 341.678128 140.956112 
L 341.739013 140.551042 
L 341.921668 136.34038 
L 342.043438 134.356818 
L 342.165208 136.940222 
L 342.226092 135.878753 
L 342.408747 140.205915 
L 342.469632 141.586868 
L 342.530517 147.113844 
L 342.652287 139.421605 
L 342.713172 147.829012 
L 342.774057 146.126003 
L 342.895826 150.144654 
L 342.956711 149.354565 
L 343.017596 149.79961 
L 343.078481 145.312931 
L 343.139366 146.198531 
L 343.200251 145.499092 
L 343.261136 139.867768 
L 343.322021 143.628859 
L 343.382906 144.290599 
L 343.443791 146.192789 
L 343.504675 145.913568 
L 343.68733 137.048368 
L 343.748215 139.825802 
L 343.991755 129.515223 
L 344.113525 136.730875 
L 344.235294 131.134385 
L 344.539719 142.448163 
L 344.600604 137.779938 
L 344.661489 140.521414 
L 344.722374 142.414504 
L 345.026798 129.261485 
L 345.087683 129.81856 
L 345.209453 125.077558 
L 345.270338 126.747374 
L 345.331223 126.012333 
L 345.513877 118.564193 
L 345.574762 117.221093 
L 345.757417 124.52121 
L 345.818302 123.426743 
L 345.879187 124.704934 
L 346.122726 140.240514 
L 346.183611 136.189783 
L 346.244496 139.136175 
L 346.305381 138.397911 
L 346.366266 132.215156 
L 346.427151 135.622778 
L 346.488036 136.045447 
L 346.548921 135.712266 
L 346.609806 134.408654 
L 346.731575 140.526404 
L 346.79246 137.514429 
L 346.853345 138.687528 
L 346.975115 144.44461 
L 347.27954 127.522614 
L 347.340424 131.994984 
L 347.401309 129.514319 
L 347.462194 121.498523 
L 347.523079 125.521539 
L 347.583964 122.247899 
L 347.705734 128.390337 
L 347.888389 123.881205 
L 347.949273 126.996572 
L 348.010158 125.362812 
L 348.131928 121.660139 
L 348.192813 122.674774 
L 348.253698 123.448623 
L 348.314583 122.834122 
L 348.375468 121.52844 
L 348.619007 104.928369 
L 348.801662 111.322331 
L 348.923432 114.815957 
L 349.045202 111.858251 
L 349.106087 114.782095 
L 349.166972 111.938346 
L 349.227856 114.70204 
L 349.288741 114.595321 
L 349.410511 107.203377 
L 349.532281 109.509191 
L 349.714936 112.826848 
L 349.89759 101.525275 
L 349.958475 102.607178 
L 350.080245 103.703972 
L 350.2629 96.940293 
L 350.323785 101.186758 
L 350.38467 98.24447 
L 350.445555 98.412635 
L 350.506439 99.620359 
L 350.567324 98.699353 
L 350.628209 94.387944 
L 350.689094 101.030543 
L 350.810864 91.749809 
L 350.871749 93.236606 
L 350.932634 98.672743 
L 351.115289 89.021114 
L 351.176173 88.148071 
L 351.237058 88.385632 
L 351.480598 95.611109 
L 351.724138 89.542504 
L 352.028562 104.763524 
L 352.089447 98.203813 
L 352.150332 101.39356 
L 352.332987 106.352652 
L 352.393872 106.275067 
L 352.576526 97.213588 
L 352.637411 96.345331 
L 352.941836 109.492042 
L 353.002721 109.338872 
L 353.12449 108.103975 
L 353.185375 100.292788 
L 353.24626 101.779207 
L 353.36803 98.295246 
L 353.550685 106.546837 
L 353.61157 105.845634 
L 353.672454 100.189866 
L 353.733339 104.328083 
L 353.976879 98.471453 
L 354.037764 99.612068 
L 354.220419 107.303445 
L 354.281304 106.688159 
L 354.342188 104.621643 
L 354.403073 105.40209 
L 354.463958 104.651422 
L 354.707498 109.169754 
L 354.890153 105.424127 
L 355.011922 113.704158 
L 355.072807 110.312154 
L 355.133692 105.826324 
L 355.194577 107.27314 
L 355.316347 104.496837 
L 355.438117 99.313602 
L 355.499002 100.785524 
L 355.559887 99.78722 
L 355.620771 94.407166 
L 355.681656 96.241917 
L 355.742541 96.198138 
L 355.803426 93.105221 
L 355.864311 93.459584 
L 356.046966 114.624318 
L 356.107851 110.933511 
L 356.168736 114.767875 
L 356.22962 113.076119 
L 356.290505 111.827502 
L 356.534045 120.519715 
L 356.59493 119.474034 
L 356.777585 126.562804 
L 356.83847 123.616339 
L 356.899354 124.647866 
L 356.960239 126.490546 
L 357.142894 115.886239 
L 357.203779 114.162382 
L 357.447319 127.236232 
L 357.508203 126.596713 
L 357.569088 128.605162 
L 357.751743 121.447922 
L 357.812628 123.525381 
L 357.873513 121.332255 
L 358.056168 129.215221 
L 358.238822 126.837372 
L 358.299707 122.84935 
L 358.360592 124.260893 
L 358.421477 124.787208 
L 358.482362 127.852903 
L 358.543247 124.154228 
L 358.604132 129.48274 
L 358.665017 126.628965 
L 358.725902 129.468213 
L 358.786786 128.841334 
L 358.847671 128.202746 
L 358.908556 124.775963 
L 358.969441 125.081143 
L 359.030326 129.394862 
L 359.091211 128.576581 
L 359.273866 130.099557 
L 359.334751 129.336793 
L 359.395635 130.496493 
L 359.45652 134.926366 
L 359.517405 130.069648 
L 359.57829 132.432754 
L 359.639175 132.01764 
L 359.760945 127.539307 
L 359.882715 133.933178 
L 359.9436 132.317243 
L 360.004485 131.799326 
L 360.308909 138.905454 
L 360.369794 139.288076 
L 360.552449 131.917874 
L 360.613334 132.839494 
L 360.674218 129.812454 
L 360.735103 130.648973 
L 360.795988 129.609641 
L 360.856873 135.222735 
L 360.917758 130.556738 
L 360.978643 130.957482 
L 361.039528 131.517854 
L 361.100413 126.674045 
L 361.161298 128.623965 
L 361.222183 127.75514 
L 361.343952 130.581098 
L 361.526607 127.193151 
L 361.587492 128.79464 
L 361.648377 127.905625 
L 361.709262 136.946519 
L 361.770147 130.939542 
L 361.952801 141.754171 
L 362.013686 141.370916 
L 362.074571 141.869237 
L 362.196341 150.135522 
L 362.257226 149.042446 
L 362.318111 142.420425 
L 362.378996 145.626617 
L 362.439881 145.027166 
L 362.561651 139.861286 
L 362.987845 158.82205 
L 363.109615 152.759867 
L 363.1705 152.271547 
L 363.292269 160.178345 
L 363.353154 163.040846 
L 363.535809 151.581016 
L 363.596694 150.716424 
L 363.718464 156.850409 
L 363.840234 147.603742 
L 363.962003 149.594139 
L 364.022888 149.150259 
L 364.144658 143.611105 
L 364.388198 152.670078 
L 364.449083 150.493815 
L 364.509967 152.162427 
L 364.570852 156.36402 
L 364.631737 153.372855 
L 364.814392 148.400147 
L 364.875277 151.412431 
L 364.997047 144.50731 
L 365.118816 147.777613 
L 365.240586 160.900034 
L 365.301471 156.087665 
L 365.423241 161.081844 
L 365.545011 154.534946 
L 365.727666 161.920315 
L 365.78855 162.508433 
L 365.91032 159.485778 
L 365.971205 163.407657 
L 366.03209 163.050861 
L 366.092975 161.523187 
L 366.15386 162.66624 
L 366.214745 165.226804 
L 366.27563 158.871782 
L 366.336515 161.460053 
L 366.519169 155.054872 
L 366.580054 155.226625 
L 366.701824 151.665487 
L 366.762709 155.261197 
L 367.128018 125.772453 
L 367.249788 119.266868 
L 367.310673 121.513096 
L 367.371558 120.734792 
L 367.432443 125.331891 
L 367.493328 124.292925 
L 367.675982 116.949694 
L 367.797752 114.252241 
L 367.858637 115.736041 
L 368.041292 104.285879 
L 368.102177 108.583386 
L 368.223947 116.535478 
L 368.284832 114.623224 
L 368.650141 135.176787 
L 368.771911 133.347403 
L 368.954565 135.56319 
L 369.01545 135.105596 
L 369.076335 136.596583 
L 369.198105 148.345847 
L 369.25899 147.551546 
L 369.38076 157.634059 
L 369.441645 153.130185 
L 369.50253 153.315337 
L 369.563415 148.16145 
L 369.624299 148.450233 
L 369.806954 154.620597 
L 369.867839 160.749962 
L 369.928724 157.046503 
L 370.172264 141.705411 
L 370.294033 143.772326 
L 370.415803 151.767156 
L 370.476688 151.60801 
L 370.537573 150.343082 
L 370.598458 152.168936 
L 370.659343 151.166568 
L 370.720228 160.531306 
L 370.781113 160.309687 
L 370.841997 160.851623 
L 370.902882 163.081621 
L 370.963767 159.816101 
L 371.085537 166.937738 
L 371.146422 164.770262 
L 371.207307 162.904475 
L 371.389962 172.695377 
L 371.450847 174.753564 
L 371.633501 156.486155 
L 371.694386 159.049305 
L 371.755271 157.316188 
L 371.816156 154.660997 
L 371.877041 155.162258 
L 371.937926 154.610766 
L 371.998811 163.877995 
L 372.059696 163.719382 
L 372.12058 162.983498 
L 372.181465 163.772372 
L 372.24235 167.642912 
L 372.303235 164.816977 
L 372.36412 164.69584 
L 372.425005 159.427611 
L 372.48589 162.992834 
L 372.60766 159.039995 
L 372.668545 154.676977 
L 372.72943 156.132323 
L 372.851199 160.51147 
L 372.972969 157.019858 
L 373.033854 159.363547 
L 373.094739 158.631623 
L 373.277394 163.541695 
L 373.460048 170.802157 
L 373.520933 170.144213 
L 373.581818 165.649324 
L 373.581818 165.649324 
" style="fill:none;stroke:#1f77b4;stroke-linecap:round;stroke-width:1.5;"/>
   </g>
   <g id="patch_3">
    <path d="M 54 252 
L 54 34.56 
" style="fill:none;stroke:#cccccc;stroke-linecap:square;stroke-linejoin:miter;stroke-width:0.8;"/>
   </g>
   <g id="patch_4">
    <path d="M 388.8 252 
L 388.8 34.56 
" style="fill:none;stroke:#cccccc;stroke-linecap:square;stroke-linejoin:miter;stroke-width:0.8;"/>
   </g>
   <g id="patch_5">
    <path d="M 54 252 
L 388.8 252 
" style="fill:none;stroke:#cccccc;stroke-linecap:square;stroke-linejoin:miter;stroke-width:0.8;"/>
   </g>
   <g id="patch_6">
    <path d="M 54 34.56 
L 388.8 34.56 
" style="fill:none;stroke:#cccccc;stroke-linecap:square;stroke-linejoin:miter;stroke-width:0.8;"/>
   </g>
  </g>
 </g>
 <defs>
  <clipPath id="pc998b3d40c">
   <rect height="217.44" width="334.8" x="54" y="34.56"/>
  </clipPath>
 </defs>
</svg>
