<?xml version="1.0" encoding="utf-8" standalone="no"?>
<!DOCTYPE svg PUBLIC "-//W3C//DTD SVG 1.1//EN"
  "http://www.w3.org/Graphics/SVG/1.1/DTD/svg11.dtd">
<svg height="288pt" version="1.1" viewBox="0 0 432 288" width="432pt" xmlns="http://www.w3.org/2000/svg" xmlns:xlink="http://www.w3.org/1999/xlink">
 <metadata>
  <rdf:RDF xmlns:cc="http://creativecommons.org/ns#" xmlns:dc="http://purl.org/dc/elements/1.1/" xmlns:rdf="http://www.w3.org/1999/02/22-rdf-syntax-ns#">
   <cc:Work>
    <dc:type rdf:resource="http://purl.org/dc/dcmitype/StillImage"/>
    <dc:date>2022-03-07T23:29:43.175556</dc:date>
    <dc:format>image/svg+xml</dc:format>
    <dc:creator>
     <cc:Agent>
      <dc:title>Matplotlib v3.4.3, https://matplotlib.org/</dc:title>
     </cc:Agent>
    </dc:creator>
   </cc:Work>
  </rdf:RDF>
 </metadata>
 <defs>
  <style type="text/css">*{stroke-linecap:butt;stroke-linejoin:round;}</style>
 </defs>
 <g id="figure_1">
  <g id="patch_1">
   <path d="M 0 288 
L 432 288 
L 432 0 
L 0 0 
z
" style="fill:#ffffff;"/>
  </g>
  <g id="axes_1">
   <g id="patch_2">
    <path d="M 54 252 
L 388.8 252 
L 388.8 34.56 
L 54 34.56 
z
" style="fill:#ffffff;"/>
   </g>
   <g id="matplotlib.axis_1">
    <g id="xtick_1">
     <g id="line2d_1">
      <path clip-path="url(#p400f699695)" d="M 69.218182 252 
L 69.218182 34.56 
" style="fill:none;stroke:#cccccc;stroke-linecap:round;stroke-width:0.8;"/>
     </g>
     <g id="text_1">
      <!-- 0 -->
      <g style="fill:#262626;" transform="translate(65.325526 269.020938)scale(0.14 -0.14)">
       <defs>
        <path d="M 266 2259 
Q 266 3072 433 3567 
Q 600 4063 929 4331 
Q 1259 4600 1759 4600 
Q 2128 4600 2406 4451 
Q 2684 4303 2865 4023 
Q 3047 3744 3150 3342 
Q 3253 2941 3253 2259 
Q 3253 1453 3087 958 
Q 2922 463 2592 192 
Q 2263 -78 1759 -78 
Q 1097 -78 719 397 
Q 266 969 266 2259 
z
M 844 2259 
Q 844 1131 1108 757 
Q 1372 384 1759 384 
Q 2147 384 2411 759 
Q 2675 1134 2675 2259 
Q 2675 3391 2411 3762 
Q 2147 4134 1753 4134 
Q 1366 4134 1134 3806 
Q 844 3388 844 2259 
z
" id="ArialMT-30" transform="scale(0.015625)"/>
       </defs>
       <use xlink:href="#ArialMT-30"/>
      </g>
     </g>
    </g>
    <g id="xtick_2">
     <g id="line2d_2">
      <path clip-path="url(#p400f699695)" d="M 130.103086 252 
L 130.103086 34.56 
" style="fill:none;stroke:#cccccc;stroke-linecap:round;stroke-width:0.8;"/>
     </g>
     <g id="text_2">
      <!-- 1000 -->
      <g style="fill:#262626;" transform="translate(114.532461 269.020938)scale(0.14 -0.14)">
       <defs>
        <path d="M 2384 0 
L 1822 0 
L 1822 3584 
Q 1619 3391 1289 3197 
Q 959 3003 697 2906 
L 697 3450 
Q 1169 3672 1522 3987 
Q 1875 4303 2022 4600 
L 2384 4600 
L 2384 0 
z
" id="ArialMT-31" transform="scale(0.015625)"/>
       </defs>
       <use xlink:href="#ArialMT-31"/>
       <use x="55.615234" xlink:href="#ArialMT-30"/>
       <use x="111.230469" xlink:href="#ArialMT-30"/>
       <use x="166.845703" xlink:href="#ArialMT-30"/>
      </g>
     </g>
    </g>
    <g id="xtick_3">
     <g id="line2d_3">
      <path clip-path="url(#p400f699695)" d="M 190.98799 252 
L 190.98799 34.56 
" style="fill:none;stroke:#cccccc;stroke-linecap:round;stroke-width:0.8;"/>
     </g>
     <g id="text_3">
      <!-- 2000 -->
      <g style="fill:#262626;" transform="translate(175.417365 269.020938)scale(0.14 -0.14)">
       <defs>
        <path d="M 3222 541 
L 3222 0 
L 194 0 
Q 188 203 259 391 
Q 375 700 629 1000 
Q 884 1300 1366 1694 
Q 2113 2306 2375 2664 
Q 2638 3022 2638 3341 
Q 2638 3675 2398 3904 
Q 2159 4134 1775 4134 
Q 1369 4134 1125 3890 
Q 881 3647 878 3216 
L 300 3275 
Q 359 3922 746 4261 
Q 1134 4600 1788 4600 
Q 2447 4600 2831 4234 
Q 3216 3869 3216 3328 
Q 3216 3053 3103 2787 
Q 2991 2522 2730 2228 
Q 2469 1934 1863 1422 
Q 1356 997 1212 845 
Q 1069 694 975 541 
L 3222 541 
z
" id="ArialMT-32" transform="scale(0.015625)"/>
       </defs>
       <use xlink:href="#ArialMT-32"/>
       <use x="55.615234" xlink:href="#ArialMT-30"/>
       <use x="111.230469" xlink:href="#ArialMT-30"/>
       <use x="166.845703" xlink:href="#ArialMT-30"/>
      </g>
     </g>
    </g>
    <g id="xtick_4">
     <g id="line2d_4">
      <path clip-path="url(#p400f699695)" d="M 251.872895 252 
L 251.872895 34.56 
" style="fill:none;stroke:#cccccc;stroke-linecap:round;stroke-width:0.8;"/>
     </g>
     <g id="text_4">
      <!-- 3000 -->
      <g style="fill:#262626;" transform="translate(236.30227 269.020938)scale(0.14 -0.14)">
       <defs>
        <path d="M 269 1209 
L 831 1284 
Q 928 806 1161 595 
Q 1394 384 1728 384 
Q 2125 384 2398 659 
Q 2672 934 2672 1341 
Q 2672 1728 2419 1979 
Q 2166 2231 1775 2231 
Q 1616 2231 1378 2169 
L 1441 2663 
Q 1497 2656 1531 2656 
Q 1891 2656 2178 2843 
Q 2466 3031 2466 3422 
Q 2466 3731 2256 3934 
Q 2047 4138 1716 4138 
Q 1388 4138 1169 3931 
Q 950 3725 888 3313 
L 325 3413 
Q 428 3978 793 4289 
Q 1159 4600 1703 4600 
Q 2078 4600 2393 4439 
Q 2709 4278 2876 4000 
Q 3044 3722 3044 3409 
Q 3044 3113 2884 2869 
Q 2725 2625 2413 2481 
Q 2819 2388 3044 2092 
Q 3269 1797 3269 1353 
Q 3269 753 2831 336 
Q 2394 -81 1725 -81 
Q 1122 -81 723 278 
Q 325 638 269 1209 
z
" id="ArialMT-33" transform="scale(0.015625)"/>
       </defs>
       <use xlink:href="#ArialMT-33"/>
       <use x="55.615234" xlink:href="#ArialMT-30"/>
       <use x="111.230469" xlink:href="#ArialMT-30"/>
       <use x="166.845703" xlink:href="#ArialMT-30"/>
      </g>
     </g>
    </g>
    <g id="xtick_5">
     <g id="line2d_5">
      <path clip-path="url(#p400f699695)" d="M 312.757799 252 
L 312.757799 34.56 
" style="fill:none;stroke:#cccccc;stroke-linecap:round;stroke-width:0.8;"/>
     </g>
     <g id="text_5">
      <!-- 4000 -->
      <g style="fill:#262626;" transform="translate(297.187174 269.020938)scale(0.14 -0.14)">
       <defs>
        <path d="M 2069 0 
L 2069 1097 
L 81 1097 
L 81 1613 
L 2172 4581 
L 2631 4581 
L 2631 1613 
L 3250 1613 
L 3250 1097 
L 2631 1097 
L 2631 0 
L 2069 0 
z
M 2069 1613 
L 2069 3678 
L 634 1613 
L 2069 1613 
z
" id="ArialMT-34" transform="scale(0.015625)"/>
       </defs>
       <use xlink:href="#ArialMT-34"/>
       <use x="55.615234" xlink:href="#ArialMT-30"/>
       <use x="111.230469" xlink:href="#ArialMT-30"/>
       <use x="166.845703" xlink:href="#ArialMT-30"/>
      </g>
     </g>
    </g>
    <g id="xtick_6">
     <g id="line2d_6">
      <path clip-path="url(#p400f699695)" d="M 373.642703 252 
L 373.642703 34.56 
" style="fill:none;stroke:#cccccc;stroke-linecap:round;stroke-width:0.8;"/>
     </g>
     <g id="text_6">
      <!-- 5000 -->
      <g style="fill:#262626;" transform="translate(358.072078 269.020938)scale(0.14 -0.14)">
       <defs>
        <path d="M 266 1200 
L 856 1250 
Q 922 819 1161 601 
Q 1400 384 1738 384 
Q 2144 384 2425 690 
Q 2706 997 2706 1503 
Q 2706 1984 2436 2262 
Q 2166 2541 1728 2541 
Q 1456 2541 1237 2417 
Q 1019 2294 894 2097 
L 366 2166 
L 809 4519 
L 3088 4519 
L 3088 3981 
L 1259 3981 
L 1013 2750 
Q 1425 3038 1878 3038 
Q 2478 3038 2890 2622 
Q 3303 2206 3303 1553 
Q 3303 931 2941 478 
Q 2500 -78 1738 -78 
Q 1113 -78 717 272 
Q 322 622 266 1200 
z
" id="ArialMT-35" transform="scale(0.015625)"/>
       </defs>
       <use xlink:href="#ArialMT-35"/>
       <use x="55.615234" xlink:href="#ArialMT-30"/>
       <use x="111.230469" xlink:href="#ArialMT-30"/>
       <use x="166.845703" xlink:href="#ArialMT-30"/>
      </g>
     </g>
    </g>
    <g id="text_7">
     <!-- Time -->
     <g style="fill:#262626;" transform="translate(203.92375 287.255938)scale(0.16 -0.16)">
      <defs>
       <path d="M 1659 0 
L 1659 4041 
L 150 4041 
L 150 4581 
L 3781 4581 
L 3781 4041 
L 2266 4041 
L 2266 0 
L 1659 0 
z
" id="ArialMT-54" transform="scale(0.015625)"/>
       <path d="M 425 3934 
L 425 4581 
L 988 4581 
L 988 3934 
L 425 3934 
z
M 425 0 
L 425 3319 
L 988 3319 
L 988 0 
L 425 0 
z
" id="ArialMT-69" transform="scale(0.015625)"/>
       <path d="M 422 0 
L 422 3319 
L 925 3319 
L 925 2853 
Q 1081 3097 1340 3245 
Q 1600 3394 1931 3394 
Q 2300 3394 2536 3241 
Q 2772 3088 2869 2813 
Q 3263 3394 3894 3394 
Q 4388 3394 4653 3120 
Q 4919 2847 4919 2278 
L 4919 0 
L 4359 0 
L 4359 2091 
Q 4359 2428 4304 2576 
Q 4250 2725 4106 2815 
Q 3963 2906 3769 2906 
Q 3419 2906 3187 2673 
Q 2956 2441 2956 1928 
L 2956 0 
L 2394 0 
L 2394 2156 
Q 2394 2531 2256 2718 
Q 2119 2906 1806 2906 
Q 1569 2906 1367 2781 
Q 1166 2656 1075 2415 
Q 984 2175 984 1722 
L 984 0 
L 422 0 
z
" id="ArialMT-6d" transform="scale(0.015625)"/>
       <path d="M 2694 1069 
L 3275 997 
Q 3138 488 2766 206 
Q 2394 -75 1816 -75 
Q 1088 -75 661 373 
Q 234 822 234 1631 
Q 234 2469 665 2931 
Q 1097 3394 1784 3394 
Q 2450 3394 2872 2941 
Q 3294 2488 3294 1666 
Q 3294 1616 3291 1516 
L 816 1516 
Q 847 969 1125 678 
Q 1403 388 1819 388 
Q 2128 388 2347 550 
Q 2566 713 2694 1069 
z
M 847 1978 
L 2700 1978 
Q 2663 2397 2488 2606 
Q 2219 2931 1791 2931 
Q 1403 2931 1139 2672 
Q 875 2413 847 1978 
z
" id="ArialMT-65" transform="scale(0.015625)"/>
      </defs>
      <use xlink:href="#ArialMT-54"/>
      <use x="57.333984" xlink:href="#ArialMT-69"/>
      <use x="79.550781" xlink:href="#ArialMT-6d"/>
      <use x="162.851562" xlink:href="#ArialMT-65"/>
     </g>
    </g>
   </g>
   <g id="matplotlib.axis_2">
    <g id="ytick_1">
     <g id="line2d_7">
      <path clip-path="url(#p400f699695)" d="M 54 252 
L 388.8 252 
" style="fill:none;stroke:#cccccc;stroke-linecap:round;stroke-width:0.8;"/>
     </g>
     <g id="text_8">
      <!-- −2 -->
      <g style="fill:#262626;" transform="translate(31.037813 257.010469)scale(0.14 -0.14)">
       <defs>
        <path d="M 3381 1997 
L 356 1997 
L 356 2522 
L 3381 2522 
L 3381 1997 
z
" id="ArialMT-2212" transform="scale(0.015625)"/>
       </defs>
       <use xlink:href="#ArialMT-2212"/>
       <use x="58.398438" xlink:href="#ArialMT-32"/>
      </g>
     </g>
    </g>
    <g id="ytick_2">
     <g id="line2d_8">
      <path clip-path="url(#p400f699695)" d="M 54 197.64 
L 388.8 197.64 
" style="fill:none;stroke:#cccccc;stroke-linecap:round;stroke-width:0.8;"/>
     </g>
     <g id="text_9">
      <!-- −1 -->
      <g style="fill:#262626;" transform="translate(31.037813 202.650469)scale(0.14 -0.14)">
       <use xlink:href="#ArialMT-2212"/>
       <use x="58.398438" xlink:href="#ArialMT-31"/>
      </g>
     </g>
    </g>
    <g id="ytick_3">
     <g id="line2d_9">
      <path clip-path="url(#p400f699695)" d="M 54 143.28 
L 388.8 143.28 
" style="fill:none;stroke:#cccccc;stroke-linecap:round;stroke-width:0.8;"/>
     </g>
     <g id="text_10">
      <!-- 0 -->
      <g style="fill:#262626;" transform="translate(39.214687 148.290469)scale(0.14 -0.14)">
       <use xlink:href="#ArialMT-30"/>
      </g>
     </g>
    </g>
    <g id="ytick_4">
     <g id="line2d_10">
      <path clip-path="url(#p400f699695)" d="M 54 88.92 
L 388.8 88.92 
" style="fill:none;stroke:#cccccc;stroke-linecap:round;stroke-width:0.8;"/>
     </g>
     <g id="text_11">
      <!-- 1 -->
      <g style="fill:#262626;" transform="translate(39.214687 93.930469)scale(0.14 -0.14)">
       <use xlink:href="#ArialMT-31"/>
      </g>
     </g>
    </g>
    <g id="ytick_5">
     <g id="line2d_11">
      <path clip-path="url(#p400f699695)" d="M 54 34.56 
L 388.8 34.56 
" style="fill:none;stroke:#cccccc;stroke-linecap:round;stroke-width:0.8;"/>
     </g>
     <g id="text_12">
      <!-- 2 -->
      <g style="fill:#262626;" transform="translate(39.214687 39.570469)scale(0.14 -0.14)">
       <use xlink:href="#ArialMT-32"/>
      </g>
     </g>
    </g>
    <g id="text_13">
     <!-- Noise -->
     <g style="fill:#262626;" transform="translate(23.857813 163.7325)rotate(-90)scale(0.16 -0.16)">
      <defs>
       <path d="M 488 0 
L 488 4581 
L 1109 4581 
L 3516 984 
L 3516 4581 
L 4097 4581 
L 4097 0 
L 3475 0 
L 1069 3600 
L 1069 0 
L 488 0 
z
" id="ArialMT-4e" transform="scale(0.015625)"/>
       <path d="M 213 1659 
Q 213 2581 725 3025 
Q 1153 3394 1769 3394 
Q 2453 3394 2887 2945 
Q 3322 2497 3322 1706 
Q 3322 1066 3130 698 
Q 2938 331 2570 128 
Q 2203 -75 1769 -75 
Q 1072 -75 642 372 
Q 213 819 213 1659 
z
M 791 1659 
Q 791 1022 1069 705 
Q 1347 388 1769 388 
Q 2188 388 2466 706 
Q 2744 1025 2744 1678 
Q 2744 2294 2464 2611 
Q 2184 2928 1769 2928 
Q 1347 2928 1069 2612 
Q 791 2297 791 1659 
z
" id="ArialMT-6f" transform="scale(0.015625)"/>
       <path d="M 197 991 
L 753 1078 
Q 800 744 1014 566 
Q 1228 388 1613 388 
Q 2000 388 2187 545 
Q 2375 703 2375 916 
Q 2375 1106 2209 1216 
Q 2094 1291 1634 1406 
Q 1016 1563 777 1677 
Q 538 1791 414 1992 
Q 291 2194 291 2438 
Q 291 2659 392 2848 
Q 494 3038 669 3163 
Q 800 3259 1026 3326 
Q 1253 3394 1513 3394 
Q 1903 3394 2198 3281 
Q 2494 3169 2634 2976 
Q 2775 2784 2828 2463 
L 2278 2388 
Q 2241 2644 2061 2787 
Q 1881 2931 1553 2931 
Q 1166 2931 1000 2803 
Q 834 2675 834 2503 
Q 834 2394 903 2306 
Q 972 2216 1119 2156 
Q 1203 2125 1616 2013 
Q 2213 1853 2448 1751 
Q 2684 1650 2818 1456 
Q 2953 1263 2953 975 
Q 2953 694 2789 445 
Q 2625 197 2315 61 
Q 2006 -75 1616 -75 
Q 969 -75 630 194 
Q 291 463 197 991 
z
" id="ArialMT-73" transform="scale(0.015625)"/>
      </defs>
      <use xlink:href="#ArialMT-4e"/>
      <use x="72.216797" xlink:href="#ArialMT-6f"/>
      <use x="127.832031" xlink:href="#ArialMT-69"/>
      <use x="150.048828" xlink:href="#ArialMT-73"/>
      <use x="200.048828" xlink:href="#ArialMT-65"/>
     </g>
    </g>
   </g>
   <g id="line2d_12">
    <path clip-path="url(#p400f699695)" d="M 69.218182 143.451433 
L 69.279067 143.434987 
L 69.583491 142.158502 
L 69.644376 141.961886 
L 69.766146 142.452041 
L 69.827031 142.342937 
L 69.887916 141.926175 
L 69.948801 142.253174 
L 70.009686 142.465569 
L 70.07057 142.416708 
L 70.131455 142.409637 
L 70.31411 142.069889 
L 70.496765 141.69432 
L 70.55765 141.903571 
L 70.67942 141.495964 
L 71.105614 142.208714 
L 71.227384 141.983302 
L 71.288269 142.428386 
L 71.349153 142.219392 
L 71.410038 142.180095 
L 71.470923 141.785345 
L 71.531808 142.239713 
L 71.592693 142.176726 
L 71.714463 141.964514 
L 71.897118 142.170808 
L 71.958003 142.413086 
L 72.018887 142.385814 
L 72.140657 142.148222 
L 72.201542 142.243847 
L 72.323312 142.321627 
L 72.445082 141.523518 
L 72.627736 142.29999 
L 72.688621 142.497252 
L 72.749506 142.223673 
L 72.810391 142.322125 
L 72.871276 142.866428 
L 72.993046 142.169283 
L 73.053931 142.230951 
L 73.114816 142.006564 
L 73.29747 142.763009 
L 73.66278 141.804013 
L 73.78455 142.124897 
L 73.845435 141.796165 
L 73.906319 141.862678 
L 74.149859 142.49911 
L 74.210744 142.402891 
L 74.332514 141.56542 
L 74.393399 141.580725 
L 74.636938 142.387606 
L 74.758708 142.221767 
L 74.880478 142.639975 
L 75.002248 142.342948 
L 75.063133 142.616063 
L 75.124018 142.033286 
L 75.184902 142.169974 
L 75.245787 142.036445 
L 75.306672 142.111325 
L 75.367557 142.357219 
L 75.428442 142.141069 
L 75.489327 142.11998 
L 75.611097 141.476099 
L 75.671982 141.531962 
L 75.915521 142.369983 
L 75.976406 142.402427 
L 76.037291 142.268047 
L 76.098176 142.377024 
L 76.159061 142.373693 
L 76.219946 142.17193 
L 76.402601 143.029386 
L 76.463485 142.595686 
L 76.52437 142.881919 
L 76.585255 142.951577 
L 76.64614 142.763389 
L 76.707025 142.854976 
L 76.76791 143.256119 
L 77.01145 141.961394 
L 77.194104 141.522962 
L 77.437644 140.520331 
L 77.498529 140.628483 
L 77.559414 140.610622 
L 77.620299 140.725214 
L 77.681184 141.243366 
L 77.742068 140.949514 
L 77.802953 140.457809 
L 77.863838 140.596746 
L 77.924723 140.624341 
L 78.107378 141.176459 
L 78.168263 141.119249 
L 78.350917 141.456415 
L 78.411802 141.403098 
L 78.594457 142.288478 
L 78.777112 142.209272 
L 79.020651 141.895357 
L 79.081536 142.212431 
L 79.142421 142.057656 
L 79.264191 142.10019 
L 79.325076 141.851987 
L 79.568616 143.330758 
L 79.6295 143.489569 
L 79.812155 143.165936 
L 79.87304 143.212607 
L 79.933925 142.793523 
L 79.99481 142.889267 
L 80.055695 143.236663 
L 80.11658 142.981045 
L 80.238349 143.219673 
L 80.360119 142.561743 
L 80.542774 142.931318 
L 80.603659 142.586406 
L 80.664544 143.002169 
L 80.725429 142.785019 
L 80.786314 142.582896 
L 80.847199 142.662998 
L 80.968968 142.715248 
L 81.029853 142.462313 
L 81.090738 142.548876 
L 81.212508 143.167679 
L 81.273393 143.150291 
L 81.334278 143.056973 
L 81.395163 143.141238 
L 81.516932 143.430328 
L 81.577817 143.085116 
L 81.638702 143.116801 
L 81.699587 143.282879 
L 81.760472 142.913677 
L 81.882242 143.320551 
L 81.943127 143.121902 
L 82.004012 143.358157 
L 82.064897 143.284988 
L 82.369321 142.73474 
L 82.430206 142.676974 
L 82.612861 143.151498 
L 82.734631 142.708365 
L 82.917285 143.75648 
L 82.97817 143.53141 
L 83.039055 143.518607 
L 83.09994 143.349265 
L 83.160825 143.567148 
L 83.22171 143.350594 
L 83.282595 143.425123 
L 83.34348 143.784674 
L 83.404365 143.559936 
L 83.465249 143.516961 
L 83.587019 142.880172 
L 83.830559 143.231313 
L 83.891444 142.892972 
L 83.952329 143.088326 
L 84.013214 143.14821 
L 84.074098 142.93189 
L 84.195868 143.383394 
L 84.256753 143.326317 
L 84.378523 142.611046 
L 84.561178 141.912881 
L 84.682947 141.81436 
L 85.230912 143.369314 
L 85.474451 142.703188 
L 85.596221 142.921107 
L 85.778876 142.431993 
L 85.839761 142.857765 
L 85.900646 142.255525 
L 85.96153 142.659877 
L 86.0833 143.028608 
L 86.20507 142.09603 
L 87.118344 143.723152 
L 87.300998 143.372429 
L 87.483653 143.904204 
L 87.666308 142.758168 
L 87.727193 142.867045 
L 87.788078 142.81574 
L 87.848963 142.910191 
L 87.970732 143.607316 
L 88.153387 142.443089 
L 88.396927 143.42088 
L 88.457812 143.323268 
L 88.518696 143.263566 
L 88.640466 142.680397 
L 88.823121 143.605555 
L 88.944891 143.607999 
L 89.066661 144.199181 
L 89.249315 145.073343 
L 89.371085 144.172372 
L 89.43197 144.572253 
L 89.492855 144.379758 
L 89.67551 143.470824 
L 89.797279 143.569244 
L 89.979934 143.483671 
L 90.223474 144.373 
L 90.284359 144.249753 
L 90.345244 144.419618 
L 90.527898 142.891054 
L 90.588783 142.932903 
L 90.649668 143.05178 
L 90.832323 142.397764 
L 91.014978 142.765906 
L 91.075862 142.65769 
L 91.197632 142.289343 
L 91.258517 142.570427 
L 91.319402 142.110855 
L 91.380287 142.413976 
L 91.441172 142.422242 
L 91.623827 142.760343 
L 91.806481 141.480625 
L 91.989136 140.932031 
L 92.110906 141.523131 
L 92.171791 141.485052 
L 92.354445 140.517655 
L 92.41533 140.565942 
L 92.78064 138.934982 
L 92.841525 139.648625 
L 92.90241 139.237259 
L 92.963294 139.214229 
L 93.024179 138.961828 
L 93.145949 139.655871 
L 93.206834 139.489215 
L 93.328604 139.77232 
L 93.389489 139.72615 
L 93.511259 139.268848 
L 93.876568 140.547014 
L 93.937453 140.157223 
L 93.998338 140.436925 
L 94.120108 140.735963 
L 94.180993 140.070971 
L 94.241877 140.440045 
L 94.302762 140.179748 
L 94.363647 140.574073 
L 94.424532 139.877149 
L 94.485417 140.105492 
L 94.546302 140.040639 
L 94.728957 140.3614 
L 94.911611 140.550255 
L 95.155151 139.619319 
L 95.216036 139.714035 
L 95.276921 140.369953 
L 95.337806 140.117485 
L 95.398691 140.169508 
L 95.52046 139.67513 
L 95.64223 140.091007 
L 95.703115 139.900437 
L 95.764 140.257609 
L 95.824885 140.185287 
L 96.129309 139.184314 
L 96.190194 139.214926 
L 96.433734 138.529136 
L 96.494619 138.871524 
L 96.616389 137.627995 
L 96.677274 137.642622 
L 96.799043 137.180717 
L 96.920813 137.923371 
L 96.981698 137.603315 
L 97.103468 137.018835 
L 97.164353 137.078149 
L 97.225238 137.027035 
L 97.286123 136.779364 
L 97.347008 137.047791 
L 97.407892 137.019656 
L 97.529662 136.56503 
L 97.590547 136.789631 
L 97.773202 137.550938 
L 97.834087 137.546711 
L 97.955857 137.963691 
L 98.077626 137.798407 
L 98.138511 137.500211 
L 98.321166 138.239796 
L 98.382051 138.132928 
L 98.442936 137.61507 
L 98.503821 137.919401 
L 98.625591 137.861754 
L 98.74736 138.073768 
L 98.808245 137.861297 
L 99.051785 138.58364 
L 99.11267 138.24698 
L 99.23444 139.192012 
L 99.295325 139.077856 
L 99.417094 139.42369 
L 99.477979 139.275587 
L 99.538864 139.389043 
L 99.660634 138.841674 
L 99.843289 139.221836 
L 99.965058 138.943791 
L 100.025943 139.055323 
L 100.147713 139.324856 
L 100.269483 139.007015 
L 100.330368 139.40066 
L 100.391253 139.267713 
L 100.513023 139.396022 
L 100.756562 140.828993 
L 100.817447 140.781659 
L 100.878332 140.534885 
L 100.939217 140.655697 
L 101.060987 140.357317 
L 101.121872 140.115327 
L 101.182757 140.332957 
L 101.243641 139.8535 
L 101.304526 140.245774 
L 101.608951 141.696255 
L 101.730721 141.698956 
L 101.913375 141.248581 
L 101.97426 141.538986 
L 102.035145 141.304509 
L 102.2178 141.880187 
L 102.278685 141.722901 
L 102.33957 141.507804 
L 102.400455 141.841721 
L 102.522224 141.057598 
L 102.643994 141.620521 
L 102.887534 140.902906 
L 103.009304 141.517845 
L 103.131073 141.191091 
L 103.191958 141.310271 
L 103.252843 141.744965 
L 103.313728 141.432556 
L 103.374613 141.580404 
L 103.557268 140.854576 
L 103.800807 140.73422 
L 103.861692 140.702134 
L 104.531426 138.649218 
L 104.592311 138.593204 
L 104.653196 138.87595 
L 105.07939 136.602849 
L 105.140275 136.528106 
L 105.262045 136.760154 
L 105.32293 136.677684 
L 105.383815 136.715258 
L 105.627355 138.650526 
L 105.749124 138.024588 
L 106.053549 138.725923 
L 106.175319 138.234743 
L 106.236204 138.550644 
L 106.297089 138.415853 
L 106.357973 138.296473 
L 106.418858 138.513307 
L 106.601513 137.918963 
L 106.784168 138.386563 
L 106.845053 138.852114 
L 106.966822 138.205884 
L 107.088592 138.171636 
L 107.453902 137.005243 
L 107.514787 137.195676 
L 107.636556 136.611252 
L 107.697441 136.8862 
L 107.758326 136.861099 
L 107.819211 136.766773 
L 107.880096 136.822882 
L 108.123636 137.769707 
L 108.184521 137.591003 
L 108.367175 138.246014 
L 108.488945 138.36598 
L 108.54983 138.428451 
L 108.610715 138.311856 
L 108.6716 138.418913 
L 108.732485 138.396104 
L 109.097794 139.257189 
L 109.219564 139.116702 
L 109.280449 138.842493 
L 109.341334 139.060899 
L 109.402219 138.990654 
L 109.584873 139.330026 
L 109.767528 138.785384 
L 109.828413 138.830758 
L 109.950183 139.249123 
L 110.011068 139.109842 
L 110.193722 138.908969 
L 110.254607 139.511824 
L 110.315492 139.482768 
L 110.498147 138.778386 
L 110.741687 139.804783 
L 110.802571 139.400966 
L 110.924341 138.953761 
L 111.046111 139.246617 
L 111.167881 138.732565 
L 111.228766 138.769536 
L 111.41142 139.34909 
L 111.53319 139.600595 
L 111.65496 139.975394 
L 111.715845 139.932581 
L 111.837615 139.690352 
L 111.8985 139.727846 
L 112.081154 139.480473 
L 112.750888 142.412921 
L 113.116198 140.731522 
L 113.177083 141.082432 
L 113.237968 141.047042 
L 113.298852 141.273257 
L 113.359737 141.201455 
L 113.420622 141.293428 
L 113.481507 140.748456 
L 113.542392 141.134972 
L 113.846817 139.710148 
L 113.907702 139.845277 
L 114.333896 138.704316 
L 114.394781 138.781875 
L 114.455666 139.385701 
L 114.516551 139.201121 
L 114.699205 138.858212 
L 114.820975 139.449374 
L 114.88186 139.426052 
L 114.942745 139.522412 
L 115.00363 139.272328 
L 115.308054 140.332949 
L 115.429824 140.34068 
L 115.490709 140.697492 
L 115.551594 140.659163 
L 115.795134 140.421009 
L 115.977788 139.802623 
L 116.160443 140.27763 
L 116.403983 140.144361 
L 116.525752 140.334705 
L 116.647522 139.377191 
L 116.708407 139.46821 
L 116.951947 140.016539 
L 117.012832 139.859398 
L 117.073717 140.003543 
L 117.134601 140.030402 
L 117.256371 139.636427 
L 117.439026 140.107922 
L 117.499911 139.849199 
L 117.682566 140.524413 
L 117.743451 140.554575 
L 117.926105 140.167757 
L 117.98699 140.357057 
L 118.047875 140.303689 
L 118.169645 140.01627 
L 118.3523 139.362166 
L 118.413184 139.593847 
L 118.534954 139.092087 
L 118.595839 139.314088 
L 118.656724 139.265435 
L 118.717609 139.158751 
L 118.778494 139.290629 
L 118.839379 139.222034 
L 118.961149 138.628072 
L 119.022033 138.854872 
L 119.082918 138.671229 
L 119.143803 138.784212 
L 119.265573 138.531131 
L 119.387343 138.398977 
L 119.448228 138.508463 
L 119.569998 138.089823 
L 120.057077 139.188519 
L 120.117962 138.978945 
L 120.239732 138.746382 
L 120.300616 139.149919 
L 120.361501 139.008967 
L 120.422386 139.008358 
L 120.483271 138.817356 
L 120.544156 139.108172 
L 120.605041 138.817212 
L 120.787696 139.342513 
L 120.909466 138.781693 
L 120.97035 138.86654 
L 121.09212 138.640348 
L 121.153005 138.681517 
L 121.396545 139.575455 
L 121.45743 139.50866 
L 121.518315 139.653894 
L 121.579199 139.554105 
L 121.640084 139.491248 
L 121.883624 138.155 
L 121.944509 138.33887 
L 122.005394 137.969182 
L 122.066279 138.090638 
L 122.248933 138.458831 
L 122.431588 139.116185 
L 122.492473 139.000298 
L 122.736013 137.94117 
L 122.796898 138.000147 
L 122.857782 138.441373 
L 122.918667 138.298382 
L 122.979552 138.336477 
L 123.223092 139.038869 
L 123.344862 138.778299 
L 123.405747 138.833908 
L 123.466632 138.467778 
L 123.527516 138.642611 
L 123.710171 139.355954 
L 123.892826 138.337765 
L 124.014596 138.294957 
L 124.075481 138.206251 
L 124.136365 138.308202 
L 124.19725 138.348366 
L 124.44079 137.761854 
L 124.501675 138.060634 
L 124.623445 137.088998 
L 124.68433 137.299399 
L 124.745214 137.398524 
L 125.110524 136.625585 
L 125.414948 137.057824 
L 125.475833 137.034382 
L 125.597603 137.801735 
L 125.780258 137.263992 
L 126.023797 138.202998 
L 126.084682 138.174483 
L 126.145567 137.938915 
L 126.206452 138.038338 
L 126.389107 138.464626 
L 126.449992 138.172363 
L 126.571762 138.960162 
L 126.632647 138.85921 
L 126.754416 138.422859 
L 126.876186 138.968962 
L 126.997956 138.262031 
L 127.058841 138.421588 
L 127.119726 138.371435 
L 127.180611 138.373031 
L 127.30238 138.216307 
L 127.485035 138.800798 
L 127.54592 138.520324 
L 127.606805 138.85342 
L 127.66769 138.660664 
L 127.972114 139.522396 
L 128.093884 138.80709 
L 128.154769 139.30156 
L 128.215654 138.959687 
L 128.520079 139.33177 
L 128.763618 140.554221 
L 128.885388 140.845775 
L 129.007158 140.234436 
L 129.189813 140.822149 
L 129.372467 141.639361 
L 129.433352 141.361873 
L 129.494237 141.595259 
L 129.859546 141.255078 
L 129.981316 141.851194 
L 130.103086 141.797834 
L 130.163971 141.274601 
L 130.224856 141.589699 
L 130.285741 141.53136 
L 130.346626 141.820311 
L 130.52928 141.233515 
L 130.590165 141.139287 
L 130.65105 141.60569 
L 130.711935 141.466634 
L 130.77282 141.373804 
L 130.833705 141.440919 
L 130.89459 141.504226 
L 131.199014 140.31702 
L 131.259899 140.583263 
L 131.320784 140.372782 
L 131.381669 140.470393 
L 131.442554 140.108475 
L 131.503439 140.19352 
L 131.564324 140.214539 
L 131.625209 139.935952 
L 131.686094 140.00738 
L 131.807863 140.396156 
L 132.234058 139.070035 
L 132.355828 139.400998 
L 132.538482 138.978996 
L 132.599367 138.371383 
L 132.660252 138.536902 
L 132.721137 138.505386 
L 132.782022 138.799358 
L 132.842907 138.742441 
L 132.903792 138.749395 
L 132.964677 138.615163 
L 133.025561 137.811131 
L 133.086446 137.980099 
L 133.147331 138.099727 
L 133.329986 137.703335 
L 133.390871 137.738187 
L 133.512641 137.839038 
L 133.573526 137.724227 
L 133.634411 137.853967 
L 133.87795 136.982852 
L 133.99972 137.518845 
L 134.060605 137.739526 
L 134.12149 137.586293 
L 134.182375 137.380691 
L 134.304144 137.89013 
L 134.547684 136.579207 
L 134.608569 136.494221 
L 134.669454 136.64135 
L 134.730339 136.300937 
L 134.791224 136.585932 
L 134.852109 136.790788 
L 134.912994 136.702962 
L 134.973878 136.338755 
L 135.034763 136.437809 
L 135.278303 137.035086 
L 135.521843 136.342788 
L 135.643612 136.720545 
L 135.826267 136.14962 
L 136.008922 136.494868 
L 136.069807 136.442664 
L 136.191576 137.102086 
L 136.374231 137.155112 
L 136.556886 136.376983 
L 136.617771 136.281911 
L 136.678656 136.460638 
L 136.739541 136.083848 
L 136.922195 137.078778 
L 137.10485 136.111011 
L 137.165735 136.37819 
L 137.34839 136.631477 
L 137.409275 136.326941 
L 137.470159 136.539221 
L 137.896354 138.292629 
L 137.957239 138.230068 
L 138.200778 137.483708 
L 138.261663 137.571924 
L 138.444318 138.040281 
L 138.505203 137.962798 
L 138.566088 137.968393 
L 138.870512 139.222644 
L 138.931397 138.748387 
L 138.992282 138.969717 
L 139.053167 138.97754 
L 139.174937 138.273193 
L 139.296707 138.65991 
L 139.357592 138.413862 
L 139.418476 137.489432 
L 139.479361 137.762818 
L 139.540246 138.16919 
L 139.601131 137.908228 
L 139.662016 137.97771 
L 139.844671 137.288125 
L 139.966441 136.907757 
L 140.027325 137.022789 
L 140.08821 136.90397 
L 140.149095 137.027045 
L 140.20998 137.007398 
L 140.270865 137.616601 
L 140.33175 137.397123 
L 140.392635 137.483993 
L 140.636175 136.917301 
L 140.697059 136.586544 
L 140.757944 136.601472 
L 140.818829 136.602228 
L 141.001484 137.329576 
L 141.062369 137.015391 
L 141.123254 137.216436 
L 141.184139 137.266506 
L 141.305908 137.559093 
L 141.488563 136.932065 
L 141.549448 137.622419 
L 141.610333 137.20707 
L 141.792988 137.258798 
L 141.914757 137.785544 
L 141.975642 137.293733 
L 142.036527 137.367534 
L 142.097412 137.43538 
L 142.158297 137.224862 
L 142.340952 138.700924 
L 142.401837 138.650834 
L 142.462722 138.845698 
L 142.645376 138.260444 
L 142.767146 137.904277 
L 143.19334 139.659922 
L 143.254225 139.656384 
L 143.55865 137.787008 
L 143.619535 137.805669 
L 143.741305 138.316684 
L 143.80219 138.218238 
L 143.863074 137.979056 
L 143.923959 138.006531 
L 144.167499 138.586793 
L 144.411039 138.068717 
L 144.471923 137.937458 
L 144.593693 138.182572 
L 144.654578 137.684183 
L 144.715463 138.012582 
L 144.837233 138.317106 
L 144.898118 138.182666 
L 144.959003 138.235503 
L 145.019888 138.275885 
L 145.141657 137.725981 
L 145.324312 138.109004 
L 145.385197 138.024009 
L 145.446082 137.979344 
L 145.567852 137.322741 
L 145.628737 137.481672 
L 145.689622 138.101978 
L 145.750506 137.937581 
L 145.872276 138.249088 
L 146.176701 137.564176 
L 146.359356 137.988095 
L 146.481125 137.324941 
L 146.66378 138.331616 
L 146.724665 137.840015 
L 146.78555 138.106779 
L 146.846435 138.568222 
L 146.90732 138.540424 
L 147.089974 138.080573 
L 147.150859 138.481356 
L 147.211744 138.291145 
L 147.637938 136.800522 
L 147.759708 137.146261 
L 148.003248 136.423236 
L 148.185903 135.939409 
L 148.246788 136.003535 
L 148.307672 136.272904 
L 148.368557 135.736669 
L 148.429442 135.79835 
L 148.733867 136.539914 
L 148.916521 136.004948 
L 148.977406 136.262594 
L 149.038291 135.946396 
L 149.099176 136.05549 
L 149.160061 135.95804 
L 149.220946 135.64693 
L 149.281831 135.956911 
L 149.342716 135.461964 
L 149.403601 135.47921 
L 149.525371 136.349683 
L 149.586255 136.31022 
L 149.64714 136.282554 
L 149.76891 136.621047 
L 150.073335 135.771256 
L 150.377759 136.944228 
L 150.438644 136.651423 
L 150.803954 137.239734 
L 150.986608 137.898398 
L 151.169263 138.150146 
L 151.351918 137.496561 
L 151.412803 137.417564 
L 151.595457 137.014783 
L 151.656342 137.013712 
L 151.778112 136.739565 
L 151.838997 137.027384 
L 151.899882 136.812278 
L 151.960767 136.66573 
L 152.630501 138.312585 
L 152.75227 138.004227 
L 152.813155 138.047047 
L 152.99581 137.507634 
L 153.11758 137.345463 
L 153.178465 137.624488 
L 153.23935 137.451899 
L 153.422004 136.931048 
L 153.543774 136.906116 
L 153.604659 136.246555 
L 153.665544 136.43776 
L 153.726429 136.28728 
L 154.152623 138.112367 
L 154.335278 138.468639 
L 155.005012 136.492508 
L 155.126782 136.326159 
L 155.187667 136.803908 
L 155.248552 136.268909 
L 155.309436 136.333339 
L 155.370321 136.598447 
L 155.431206 136.444104 
L 155.857401 135.562141 
L 155.918285 135.557386 
L 156.22271 136.831607 
L 156.527135 137.156294 
L 156.709789 137.57806 
L 156.831559 137.113823 
L 156.892444 137.373526 
L 156.953329 137.244171 
L 157.014214 137.336235 
L 157.135984 137.579079 
L 157.196868 137.470722 
L 157.379523 137.878034 
L 157.440408 137.430352 
L 157.562178 137.929451 
L 157.683948 136.992895 
L 157.744833 137.382577 
L 157.866602 137.784524 
L 157.927487 137.493348 
L 157.988372 137.708892 
L 158.110142 138.377519 
L 158.171027 138.220078 
L 158.292797 138.120297 
L 158.414567 138.307102 
L 158.901646 136.671898 
L 159.023416 136.721979 
L 159.145185 136.11854 
L 159.20607 136.156443 
L 159.266955 136.255973 
L 159.388725 135.985271 
L 159.57138 136.53717 
L 159.814919 135.45184 
L 159.875804 135.330629 
L 159.936689 135.408857 
L 160.058459 135.695067 
L 160.119344 135.543941 
L 160.180229 135.761238 
L 160.241114 135.519688 
L 160.301999 135.699306 
L 160.484653 136.700822 
L 160.606423 136.43117 
L 160.728193 136.847152 
L 160.789078 136.680746 
L 161.032617 135.441882 
L 161.093502 135.651287 
L 161.215272 135.810695 
L 161.276157 135.202281 
L 161.337042 135.59912 
L 161.397927 135.680637 
L 161.580582 137.091682 
L 161.641466 137.226848 
L 161.763236 136.551694 
L 161.824121 136.908436 
L 161.885006 136.692257 
L 162.006776 136.609164 
L 162.189431 136.853094 
L 162.43297 136.516747 
L 162.493855 136.254323 
L 162.55474 136.648779 
L 162.615625 136.322122 
L 162.67651 136.343875 
L 162.737395 135.883789 
L 162.79828 136.058334 
L 162.859165 136.319043 
L 162.920049 136.112466 
L 162.980934 135.900754 
L 163.041819 136.025363 
L 163.102704 136.112451 
L 163.224474 135.709004 
L 163.285359 136.224128 
L 163.346244 135.790032 
L 163.407129 136.036157 
L 163.468014 135.964784 
L 163.650668 136.54773 
L 163.772438 136.507768 
L 163.955093 135.5769 
L 164.076863 135.4702 
L 164.137748 135.227721 
L 164.198632 135.657944 
L 164.259517 135.597655 
L 164.442172 135.030596 
L 164.503057 135.185766 
L 164.563942 135.074827 
L 164.624827 134.756832 
L 164.807481 135.445076 
L 164.929251 135.397723 
L 164.990136 135.717252 
L 165.051021 135.459094 
L 165.111906 135.465684 
L 165.294561 136.315544 
L 165.5381 136.225768 
L 165.65987 135.910416 
L 165.78164 136.078931 
L 165.90341 136.66628 
L 166.086064 135.518288 
L 166.268719 135.324164 
L 166.329604 135.527413 
L 166.390489 135.280449 
L 166.573144 135.761022 
L 166.694914 135.955688 
L 166.877568 136.479778 
L 166.938453 136.572915 
L 166.999338 136.127449 
L 167.060223 136.623437 
L 167.121108 136.026561 
L 167.181993 136.445936 
L 167.303763 136.509874 
L 167.364647 136.392967 
L 167.425532 136.833014 
L 167.486417 136.538539 
L 167.547302 136.580045 
L 167.669072 136.030005 
L 167.790842 136.533581 
L 167.851727 136.453562 
L 167.912612 136.60964 
L 168.034381 136.139536 
L 168.217036 136.934409 
L 168.399691 136.061147 
L 168.521461 136.789675 
L 168.582346 136.694927 
L 168.704115 137.100554 
L 168.88677 137.544725 
L 169.069425 137.115294 
L 169.25208 137.409968 
L 169.312964 136.592477 
L 169.373849 136.797573 
L 169.495619 136.52285 
L 169.617389 136.654175 
L 169.678274 136.623341 
L 169.739159 136.78564 
L 169.800044 136.467442 
L 169.982698 137.838124 
L 170.043583 137.481143 
L 170.104468 137.805303 
L 170.165353 137.460732 
L 170.226238 137.551734 
L 170.469778 138.67483 
L 170.591547 138.20118 
L 170.652432 137.403556 
L 170.713317 137.490894 
L 170.895972 137.097007 
L 171.017742 136.602778 
L 171.078627 136.74377 
L 171.261281 135.418488 
L 171.383051 135.699212 
L 171.565706 135.061559 
L 171.626591 135.347482 
L 171.87013 136.498797 
L 172.052785 135.920313 
L 172.11367 136.013626 
L 172.296325 135.473226 
L 172.478979 136.181476 
L 172.539864 135.99093 
L 172.600749 136.429326 
L 172.661634 136.289874 
L 172.722519 136.421197 
L 172.783404 136.337625 
L 172.844289 136.036917 
L 172.905174 136.113627 
L 173.392253 136.666463 
L 173.453138 136.909029 
L 173.514023 136.786539 
L 173.757562 137.080562 
L 173.879332 137.4664 
L 174.001102 136.999394 
L 174.061987 137.054836 
L 174.366411 137.116595 
L 174.549066 137.451852 
L 174.670836 137.117716 
L 174.792606 137.597501 
L 175.09703 135.48249 
L 175.34057 135.052492 
L 175.401455 135.248586 
L 175.523225 135.948371 
L 175.827649 135.109005 
L 176.010304 135.468196 
L 176.192959 135.701473 
L 176.436498 137.378657 
L 176.497383 137.12228 
L 176.680038 136.133295 
L 176.740923 136.410815 
L 176.862693 136.591159 
L 177.106232 137.502078 
L 177.228002 137.742559 
L 177.288887 138.172953 
L 177.349772 137.91338 
L 177.410657 137.907869 
L 177.654196 136.358337 
L 177.775966 137.042786 
L 177.958621 136.226831 
L 178.019506 136.285238 
L 178.263045 135.513889 
L 178.32393 135.579609 
L 178.384815 136.078444 
L 178.4457 136.066073 
L 178.506585 135.849844 
L 178.628355 136.328616 
L 178.68924 135.650767 
L 178.750125 135.796694 
L 178.871894 135.548876 
L 178.932779 135.270771 
L 178.993664 135.349176 
L 179.298089 135.133176 
L 179.480743 134.427774 
L 179.663398 134.256753 
L 179.724283 134.388861 
L 179.785168 134.250164 
L 179.846053 134.685585 
L 179.906938 134.526473 
L 179.967823 134.171826 
L 180.028708 134.629462 
L 180.089592 134.416263 
L 180.211362 134.886799 
L 180.272247 134.751059 
L 180.333132 134.651262 
L 180.394017 134.716837 
L 180.454902 135.360414 
L 180.515787 135.061527 
L 180.576672 135.400609 
L 180.637557 135.153122 
L 180.759326 134.529418 
L 180.820211 134.766822 
L 180.941981 134.607746 
L 181.124636 135.013884 
L 181.246406 134.918031 
L 181.368175 134.446458 
L 181.55083 133.681076 
L 181.611715 133.82851 
L 181.6726 133.493004 
L 181.733485 133.779308 
L 181.79437 133.640298 
L 181.977024 134.427435 
L 182.159679 134.482453 
L 182.281449 134.359314 
L 182.524989 135.807617 
L 182.585874 135.82555 
L 182.646758 135.688224 
L 182.707643 136.051906 
L 182.768528 135.574675 
L 182.951183 136.580707 
L 183.012068 136.595554 
L 183.072953 136.941802 
L 183.133838 136.833944 
L 183.255607 136.200259 
L 183.316492 136.881951 
L 183.377377 136.730604 
L 183.438262 136.729741 
L 183.499147 136.851773 
L 183.560032 136.316831 
L 183.620917 136.598786 
L 183.742687 136.321045 
L 183.925341 137.349562 
L 184.047111 137.499133 
L 184.107996 136.995719 
L 184.168881 137.515748 
L 184.229766 137.506225 
L 184.290651 137.357617 
L 184.351536 136.847647 
L 184.412421 136.888693 
L 184.53419 137.559135 
L 184.595075 137.068792 
L 184.65596 137.266145 
L 184.77773 137.377347 
L 184.838615 137.164108 
L 185.264809 138.722444 
L 185.325694 138.283772 
L 185.386579 138.49237 
L 185.447464 138.226484 
L 185.508349 138.248898 
L 185.569234 138.391945 
L 185.691004 138.133806 
L 185.873658 139.088651 
L 185.995428 139.622267 
L 186.178083 139.069168 
L 186.360738 139.823524 
L 186.482507 140.103694 
L 186.726047 139.091534 
L 186.847817 139.228942 
L 186.969587 138.833403 
L 187.030472 139.142787 
L 187.091356 138.934496 
L 187.152241 138.995843 
L 187.334896 137.994713 
L 187.395781 138.158098 
L 187.456666 138.144954 
L 187.578436 137.229161 
L 187.639321 137.385451 
L 187.700205 137.500604 
L 187.76109 137.434017 
L 187.88286 137.035236 
L 187.943745 137.15585 
L 188.00463 137.84534 
L 188.065515 137.653121 
L 188.187285 138.218432 
L 188.369939 138.103983 
L 188.430824 138.155605 
L 188.491709 137.507535 
L 188.552594 137.518065 
L 188.978788 139.080247 
L 189.039673 138.865239 
L 189.161443 138.777324 
L 189.344098 139.321784 
L 189.587638 138.405346 
L 189.648522 138.484347 
L 189.831177 139.524605 
L 190.074717 138.889345 
L 190.135602 138.80531 
L 190.196487 138.990803 
L 190.379141 139.758262 
L 190.683566 140.344113 
L 190.805336 139.918379 
L 190.98799 140.568011 
L 191.170645 141.217899 
L 191.23153 141.19255 
L 191.292415 141.076053 
L 191.47507 140.292963 
L 191.535954 140.483151 
L 191.596839 140.385376 
L 191.657724 140.374236 
L 191.840379 139.747193 
L 192.023034 140.161568 
L 192.083919 140.066049 
L 192.144804 140.471645 
L 192.205688 140.177908 
L 192.266573 139.823747 
L 192.327458 139.951689 
L 192.510113 139.996434 
L 192.753653 139.488932 
L 192.814537 139.622061 
L 192.875422 139.478135 
L 193.058077 140.334216 
L 193.240732 139.957536 
L 193.423386 140.562676 
L 193.484271 140.305304 
L 193.545156 140.856844 
L 193.606041 140.836061 
L 193.727811 140.444234 
L 193.788696 140.56269 
L 193.849581 140.431508 
L 193.910466 139.981852 
L 194.154005 141.286184 
L 194.397545 142.071045 
L 194.45843 142.158463 
L 194.519315 142.106859 
L 194.5802 141.63276 
L 194.641085 142.14178 
L 194.701969 141.910116 
L 195.067279 140.788058 
L 195.189049 141.484059 
L 195.249934 141.473744 
L 195.493473 140.73972 
L 195.615243 141.118963 
L 195.676128 141.074936 
L 195.858783 141.258665 
L 196.041437 141.357119 
L 196.163207 141.398427 
L 196.345862 141.051833 
L 196.406747 141.271493 
L 196.467632 141.157594 
L 196.528517 141.282558 
L 196.589402 140.887682 
L 196.650286 141.058046 
L 196.711171 141.053422 
L 196.832941 141.338903 
L 196.893826 141.83714 
L 196.954711 141.630771 
L 197.076481 141.883062 
L 197.198251 141.390101 
L 197.259135 141.647269 
L 197.32002 141.531592 
L 197.380905 141.073114 
L 197.44179 141.240056 
L 197.502675 141.264006 
L 197.56356 141.085309 
L 197.624445 141.188319 
L 197.68533 141.270899 
L 197.746215 141.811605 
L 197.8071 141.307537 
L 197.867985 141.820764 
L 197.928869 141.558645 
L 197.989754 141.592148 
L 198.050639 141.445112 
L 198.111524 141.706558 
L 198.172409 141.311151 
L 198.233294 141.901062 
L 198.294179 141.715967 
L 198.476834 141.123437 
L 198.537718 141.190928 
L 198.598603 140.754767 
L 198.659488 140.76384 
L 198.720373 140.705647 
L 198.781258 141.181602 
L 198.842143 140.664674 
L 198.903028 140.68409 
L 198.963913 141.087234 
L 199.024798 140.860675 
L 199.085683 140.379497 
L 199.207452 141.280328 
L 199.268337 140.809844 
L 199.329222 140.893981 
L 199.390107 140.83045 
L 199.450992 141.122127 
L 199.572762 140.465935 
L 199.633647 140.682202 
L 199.816301 141.485014 
L 199.938071 141.324358 
L 200.120726 141.837147 
L 200.181611 142.04756 
L 200.242496 141.657983 
L 200.607805 143.261234 
L 200.851345 142.986612 
L 200.91223 143.297619 
L 201.094884 142.925644 
L 201.155769 142.802088 
L 201.216654 143.304 
L 201.399309 142.536627 
L 201.460194 142.442533 
L 201.764618 143.337683 
L 201.947273 142.452041 
L 202.008158 142.53184 
L 202.069043 142.83751 
L 202.190813 142.357783 
L 202.251698 142.387784 
L 202.495237 143.175181 
L 202.617007 142.843844 
L 202.677892 143.084766 
L 202.860547 142.726173 
L 203.043201 143.263923 
L 203.286741 142.288359 
L 203.65205 143.323088 
L 203.712935 143.148756 
L 203.77382 142.946695 
L 203.89559 143.841739 
L 203.956475 143.57193 
L 204.01736 143.241776 
L 204.078245 143.314794 
L 204.260899 143.703535 
L 204.321784 143.652629 
L 204.382669 144.346177 
L 204.443554 144.026233 
L 204.504439 143.739648 
L 204.565324 143.96639 
L 204.626209 143.767231 
L 204.687094 143.874881 
L 204.747979 143.931497 
L 204.808864 144.386088 
L 204.869748 144.056865 
L 204.930633 143.730307 
L 204.991518 143.808533 
L 205.052403 143.888245 
L 205.174173 143.469895 
L 205.235058 143.886854 
L 205.295943 143.601754 
L 205.478598 144.003748 
L 205.539482 144.067708 
L 205.843907 142.388947 
L 206.026562 143.288898 
L 206.452756 141.947078 
L 206.513641 142.011005 
L 206.635411 142.305733 
L 206.757181 141.994578 
L 206.939835 142.839077 
L 207.00072 142.489894 
L 207.061605 142.503652 
L 207.12249 143.012514 
L 207.183375 142.845278 
L 207.24426 142.391845 
L 207.487799 143.336755 
L 207.609569 142.720651 
L 207.670454 142.783487 
L 208.035764 143.904028 
L 208.401073 143.36433 
L 208.522843 144.124385 
L 208.583728 143.724305 
L 208.644613 144.065973 
L 208.705497 143.85661 
L 208.888152 143.451624 
L 209.009922 143.923255 
L 209.070807 143.890713 
L 209.131692 143.893954 
L 209.497001 143.315663 
L 209.557886 143.492213 
L 209.618771 143.409531 
L 209.98408 142.701361 
L 210.044965 142.71902 
L 210.166735 143.408965 
L 210.22762 142.793361 
L 210.288505 142.986189 
L 210.410275 142.811644 
L 210.532045 143.118412 
L 210.714699 142.571819 
L 210.775584 142.893561 
L 210.897354 142.103354 
L 211.201779 143.628046 
L 211.262663 143.48613 
L 211.323548 143.237743 
L 211.506203 143.871326 
L 211.567088 143.792485 
L 211.627973 143.370099 
L 211.688858 143.618263 
L 211.749743 143.558467 
L 211.810628 143.756793 
L 211.871512 143.49765 
L 211.932397 143.677951 
L 212.115052 143.571038 
L 212.236822 143.65538 
L 212.297707 143.535444 
L 212.602131 141.707898 
L 212.663016 142.156059 
L 212.723901 141.936668 
L 212.845671 142.127167 
L 212.906556 142.104893 
L 213.028326 142.368804 
L 213.089211 142.239162 
L 213.271865 141.746652 
L 213.45452 142.186747 
L 213.57629 141.875276 
L 213.637175 142.107835 
L 213.69806 142.044904 
L 213.758945 141.820237 
L 213.819829 142.444488 
L 213.880714 142.382078 
L 213.941599 142.273957 
L 214.002484 142.334375 
L 214.063369 142.419215 
L 214.124254 142.327303 
L 214.185139 142.003133 
L 214.367794 142.637176 
L 214.428678 142.717091 
L 214.489563 142.567109 
L 214.550448 142.675745 
L 214.672218 142.509354 
L 214.793988 142.270266 
L 215.098412 143.015834 
L 215.159297 142.57632 
L 215.281067 143.319518 
L 215.341952 143.015483 
L 215.585492 144.452015 
L 215.646377 144.584128 
L 215.768146 144.240376 
L 216.011686 145.647487 
L 216.072571 145.567436 
L 216.133456 145.783804 
L 216.376995 145.059578 
L 216.43788 145.355391 
L 216.498765 145.028915 
L 216.55965 145.28195 
L 216.620535 145.108891 
L 216.68142 145.439565 
L 216.742305 145.244731 
L 217.046729 144.192118 
L 217.107614 143.98393 
L 217.168499 144.387454 
L 217.290269 143.44615 
L 217.351154 143.490597 
L 217.533809 144.233901 
L 217.655578 143.681924 
L 217.716463 144.061304 
L 217.777348 143.893618 
L 217.838233 143.811302 
L 217.899118 144.085904 
L 217.960003 143.934829 
L 218.020888 144.052345 
L 218.081773 144.440822 
L 218.142658 143.971083 
L 218.203543 144.003265 
L 218.264427 143.910013 
L 218.447082 144.915659 
L 218.629737 144.300572 
L 218.751507 144.992243 
L 218.812392 144.869069 
L 218.873276 145.003565 
L 219.055931 144.493995 
L 219.299471 143.578885 
L 219.421241 143.510835 
L 219.969205 145.207338 
L 220.456284 142.734942 
L 220.760709 143.30443 
L 220.882478 142.772705 
L 221.004248 143.037927 
L 221.065133 142.769486 
L 221.126018 142.900625 
L 221.186903 143.097616 
L 221.247788 142.803159 
L 221.308673 142.963913 
L 221.430442 143.352172 
L 221.734867 141.704661 
L 221.795752 141.732734 
L 221.856637 141.773359 
L 221.917522 140.99671 
L 221.978407 141.200073 
L 222.039291 141.220544 
L 222.100176 141.057612 
L 222.343716 141.612865 
L 222.404601 141.405369 
L 222.587256 142.732037 
L 222.648141 142.357432 
L 222.76991 141.954697 
L 222.952565 142.443881 
L 223.01345 142.181708 
L 223.074335 142.325345 
L 223.13522 142.230892 
L 223.196105 142.339465 
L 223.25699 142.279839 
L 223.317874 142.408503 
L 223.378759 142.287235 
L 223.439644 142.075695 
L 223.500529 142.233526 
L 223.561414 142.378975 
L 223.622299 142.11976 
L 223.744069 142.807582 
L 223.804954 142.475822 
L 223.865839 142.553575 
L 223.987608 142.136034 
L 224.109378 142.651908 
L 224.170263 142.64108 
L 224.292033 141.730357 
L 224.352918 142.177447 
L 224.474688 141.337409 
L 224.596457 141.898698 
L 224.718227 141.401149 
L 224.779112 141.660031 
L 224.839997 141.584712 
L 224.900882 141.493529 
L 225.022652 141.081046 
L 225.205307 141.042848 
L 225.266191 141.36708 
L 225.327076 141.102852 
L 225.387961 141.151043 
L 225.570616 140.352901 
L 225.692386 140.922853 
L 225.753271 140.458882 
L 225.814156 140.609493 
L 226.11858 141.579054 
L 226.179465 141.480655 
L 226.301235 141.881327 
L 226.423005 141.601457 
L 226.48389 141.670092 
L 226.605659 142.313375 
L 226.727429 141.924195 
L 226.849199 142.140961 
L 226.910084 142.069428 
L 227.214508 143.206752 
L 227.397163 142.405809 
L 227.458048 142.624509 
L 227.518933 142.319528 
L 227.579818 142.52497 
L 227.884242 144.211212 
L 227.945127 144.199215 
L 228.066897 143.494606 
L 228.127782 143.676304 
L 228.188667 143.558869 
L 228.310437 143.142167 
L 228.553976 143.598822 
L 228.675746 144.237436 
L 228.736631 143.799043 
L 228.858401 144.413772 
L 228.919286 144.257245 
L 228.980171 144.311012 
L 229.041055 144.439757 
L 229.162825 145.070924 
L 229.22371 144.830515 
L 229.34548 145.44126 
L 229.406365 145.217906 
L 229.528135 144.892119 
L 229.58902 144.965628 
L 229.649905 145.378541 
L 229.710789 145.254227 
L 229.832559 145.345747 
L 229.954329 145.773957 
L 230.015214 145.591883 
L 230.136984 145.952886 
L 230.197869 145.823212 
L 230.258754 145.591253 
L 230.319638 145.608146 
L 230.380523 145.982443 
L 230.441408 145.783437 
L 230.502293 145.54401 
L 230.563178 145.885424 
L 230.684948 145.336885 
L 230.928488 146.046099 
L 231.050257 146.040111 
L 231.111142 145.981772 
L 231.293797 145.613071 
L 231.415567 145.408541 
L 231.537337 145.824466 
L 231.841761 144.660472 
L 232.024416 143.858046 
L 232.146186 143.380246 
L 232.32884 144.252056 
L 232.389725 144.20922 
L 232.45061 143.859877 
L 232.633265 144.719673 
L 232.755035 144.488677 
L 232.81592 144.538855 
L 232.937689 144.745101 
L 233.059459 144.819039 
L 233.181229 144.590731 
L 233.302999 144.902005 
L 233.668308 144.446336 
L 233.850963 143.996065 
L 234.094503 143.032847 
L 234.277157 143.471764 
L 234.459812 142.629317 
L 234.520697 142.650474 
L 234.642467 143.527791 
L 234.703352 143.184268 
L 234.886006 142.176011 
L 234.946891 142.332435 
L 235.129546 141.622404 
L 235.190431 141.644729 
L 235.251316 141.456142 
L 235.312201 141.529868 
L 235.67751 142.171089 
L 235.79928 142.091922 
L 236.042819 141.87547 
L 236.164589 141.412431 
L 236.286359 141.677718 
L 236.347244 141.556033 
L 236.529899 142.448623 
L 236.590784 142.389002 
L 236.773438 141.929719 
L 236.834323 141.911321 
L 236.895208 142.210796 
L 236.956093 142.118323 
L 237.016978 142.174215 
L 237.077863 142.049548 
L 237.199633 142.445428 
L 237.321402 142.190133 
L 237.564942 142.853805 
L 237.808482 141.960146 
L 237.991136 142.374795 
L 238.052021 142.416386 
L 238.173791 142.895501 
L 238.234676 142.622949 
L 238.295561 143.081552 
L 238.356446 142.429561 
L 238.417331 142.536639 
L 238.539101 142.471212 
L 238.66087 142.868253 
L 238.721755 142.586516 
L 238.78264 142.702181 
L 238.843525 142.721853 
L 238.90441 142.887832 
L 238.965295 142.752565 
L 239.14795 142.00538 
L 239.208834 141.948933 
L 239.269719 141.539693 
L 239.330604 141.706692 
L 239.452374 142.045956 
L 239.513259 141.855004 
L 239.695914 142.443723 
L 239.817684 142.244202 
L 239.878568 142.460598 
L 239.939453 141.872844 
L 240.000338 142.320068 
L 240.061223 142.516542 
L 240.122108 142.380908 
L 240.304763 142.963244 
L 240.609187 144.382586 
L 240.670072 144.419273 
L 240.852727 144.877256 
L 240.913612 144.45773 
L 240.974497 144.783632 
L 241.096267 144.59143 
L 241.278921 145.004889 
L 241.339806 145.079118 
L 241.400691 145.680127 
L 241.461576 145.192978 
L 241.522461 145.480489 
L 241.583346 145.26022 
L 241.644231 145.27416 
L 241.766 145.678795 
L 241.948655 146.686026 
L 242.00954 146.584667 
L 242.070425 146.962304 
L 242.13131 146.839595 
L 242.435734 145.588252 
L 242.496619 145.886706 
L 242.557504 145.570106 
L 242.618389 145.753119 
L 242.679274 145.709417 
L 242.740159 146.089471 
L 242.801044 145.647255 
L 242.861929 145.97157 
L 242.983699 145.985365 
L 243.105468 145.204621 
L 243.166353 145.683766 
L 243.288123 146.098445 
L 243.531663 146.930441 
L 243.592548 146.751274 
L 243.836087 145.823667 
L 244.201397 145.465138 
L 244.323166 145.233285 
L 244.384051 145.503406 
L 244.444936 145.296854 
L 244.627591 144.797266 
L 244.688476 145.137814 
L 244.749361 145.099799 
L 244.810246 145.107349 
L 244.932015 144.443252 
L 244.9929 144.784816 
L 245.11467 145.250155 
L 245.175555 144.969641 
L 245.23644 145.138448 
L 245.35821 144.872601 
L 245.540865 144.143325 
L 245.601749 144.390575 
L 245.723519 143.775949 
L 245.906174 144.583751 
L 245.967059 144.454323 
L 246.027944 144.597533 
L 246.271483 145.810656 
L 246.332368 145.53509 
L 246.393253 145.627597 
L 246.454138 145.762272 
L 246.515023 145.350762 
L 246.575908 146.008856 
L 246.636793 145.69006 
L 246.941217 145.251203 
L 247.062987 144.450376 
L 247.123872 144.459066 
L 247.184757 144.967989 
L 247.245642 144.470724 
L 247.306527 144.661962 
L 247.489181 145.540585 
L 247.671836 145.163263 
L 247.732721 144.955844 
L 247.915376 145.748776 
L 248.098031 145.313724 
L 248.2198 145.522663 
L 248.46334 144.464626 
L 248.645995 145.339574 
L 248.70688 145.230357 
L 248.950419 143.933995 
L 249.011304 144.183401 
L 249.193959 143.694935 
L 249.315729 144.162128 
L 249.376614 143.565366 
L 249.437498 143.62841 
L 249.620153 144.02823 
L 249.863693 144.327143 
L 249.924578 144.232728 
L 249.985463 143.709415 
L 250.046347 143.758591 
L 250.229002 144.160285 
L 250.289887 143.861379 
L 250.837851 146.102702 
L 250.898736 146.22796 
L 250.959621 146.807024 
L 251.020506 146.555565 
L 251.203161 147.133881 
L 251.385815 146.691297 
L 251.4467 147.067268 
L 251.507585 147.00243 
L 251.56847 146.809962 
L 251.629355 146.990669 
L 251.69024 146.966536 
L 251.751125 146.925403 
L 251.81201 146.741381 
L 251.872895 146.875872 
L 251.933779 147.084233 
L 251.994664 146.91296 
L 252.055549 146.967282 
L 252.177319 146.46555 
L 252.359974 145.711937 
L 252.420859 145.746717 
L 252.481744 145.388249 
L 252.542629 145.698913 
L 252.664398 145.163064 
L 252.725283 145.232687 
L 252.968823 144.512349 
L 253.090593 144.604429 
L 253.151478 144.09553 
L 253.212362 144.192534 
L 253.334132 144.838793 
L 253.395017 144.666047 
L 253.455902 144.889177 
L 253.516787 144.317291 
L 253.577672 144.472464 
L 253.699442 144.247179 
L 253.760327 144.656959 
L 253.821212 144.387339 
L 253.942981 144.443675 
L 254.125636 143.800902 
L 254.186521 143.88792 
L 254.308291 143.466135 
L 254.369176 143.870224 
L 254.430061 143.449327 
L 254.55183 143.83819 
L 254.79537 143.19996 
L 254.856255 143.234395 
L 255.03891 142.732674 
L 255.221564 143.595511 
L 255.343334 143.419881 
L 255.404219 143.642608 
L 255.586874 142.780561 
L 255.647759 143.224358 
L 255.830413 142.022587 
L 256.013068 143.213781 
L 256.256608 142.558229 
L 256.317493 142.761391 
L 256.378377 142.612026 
L 256.561032 142.339906 
L 256.621917 142.505809 
L 256.682802 142.261291 
L 256.804572 142.742814 
L 256.865457 142.689125 
L 257.048111 142.53624 
L 257.108996 142.49585 
L 257.169881 143.035417 
L 257.230766 142.932493 
L 257.413421 143.330466 
L 257.596076 142.513152 
L 257.65696 142.539765 
L 257.717845 142.774655 
L 257.77873 142.591276 
L 257.839615 142.623759 
L 257.961385 141.596917 
L 258.326694 142.339463 
L 258.387579 142.740492 
L 258.448464 142.715001 
L 258.692004 142.506963 
L 258.874659 143.760197 
L 258.996428 143.321045 
L 259.057313 143.636335 
L 259.118198 143.430782 
L 259.239968 143.763858 
L 259.483508 143.526781 
L 260.092357 145.953466 
L 260.153242 145.931558 
L 260.214126 145.756546 
L 260.275011 146.178341 
L 260.335896 145.780309 
L 260.396781 145.919268 
L 260.518551 145.744835 
L 260.579436 145.858384 
L 260.762091 146.989807 
L 260.822976 146.854335 
L 260.88386 146.678239 
L 260.944745 146.785741 
L 261.066515 147.431116 
L 261.1274 147.157519 
L 261.310055 146.09604 
L 261.37094 146.14725 
L 261.553594 146.734618 
L 261.614479 146.666338 
L 261.675364 146.702399 
L 261.858019 146.264878 
L 262.040674 146.545181 
L 262.101558 146.273026 
L 262.162443 146.656939 
L 262.223328 145.913888 
L 262.284213 146.068857 
L 262.345098 146.127605 
L 262.405983 145.86783 
L 262.466868 146.092044 
L 262.527753 146.052251 
L 262.588638 146.207726 
L 262.832177 144.787005 
L 262.893062 144.796655 
L 262.953947 145.266922 
L 263.014832 145.173925 
L 263.136602 144.772308 
L 263.197487 145.381623 
L 263.258372 145.192593 
L 263.441026 144.789295 
L 263.623681 144.469629 
L 263.684566 144.794249 
L 263.745451 144.411284 
L 263.806336 144.57536 
L 263.867221 144.58025 
L 264.049875 145.684433 
L 264.11076 145.612043 
L 264.171645 145.430895 
L 264.415185 146.219301 
L 264.47607 146.117459 
L 264.719609 147.278757 
L 264.902264 145.637559 
L 264.963149 145.909269 
L 265.084919 145.758423 
L 265.145804 145.765366 
L 265.206689 146.056877 
L 265.267574 145.940739 
L 265.328458 145.893986 
L 265.389343 146.011176 
L 265.450228 145.973665 
L 265.815538 144.750926 
L 265.876423 144.860106 
L 265.937307 144.337566 
L 265.998192 144.573262 
L 266.059077 144.356065 
L 266.241732 144.905587 
L 266.302617 144.942088 
L 266.424387 145.817067 
L 266.607041 144.612917 
L 266.667926 145.109185 
L 266.728811 145.025489 
L 266.911466 144.249854 
L 267.094121 144.313707 
L 267.155006 144.247903 
L 267.33766 144.983255 
L 267.398545 144.784361 
L 267.5812 145.637131 
L 267.642085 145.461867 
L 267.70297 144.818738 
L 267.763855 144.946463 
L 267.824739 144.995698 
L 267.885624 144.791596 
L 267.946509 144.843118 
L 268.007394 145.041822 
L 268.068279 144.905499 
L 268.190049 144.814859 
L 268.250934 144.686343 
L 268.433589 145.609042 
L 268.616243 145.216953 
L 268.677128 145.190441 
L 268.798898 144.27442 
L 268.920668 144.935378 
L 269.225092 143.712025 
L 269.468632 143.149231 
L 269.590402 143.636621 
L 269.833941 144.585193 
L 270.077481 143.976393 
L 270.138366 144.283616 
L 270.199251 144.103897 
L 270.260136 144.160993 
L 270.381905 144.710888 
L 270.44279 144.607194 
L 270.68633 143.805293 
L 270.747215 143.922979 
L 270.8081 143.863709 
L 270.92987 143.698467 
L 271.112524 144.201266 
L 271.173409 144.110024 
L 271.234294 144.338764 
L 271.356064 143.715657 
L 271.416949 143.817226 
L 271.477834 143.77246 
L 271.599604 144.077511 
L 271.660488 143.852307 
L 271.782258 144.426257 
L 271.843143 144.346597 
L 271.904028 144.527987 
L 271.964913 144.422663 
L 272.025798 144.177183 
L 272.330222 145.153539 
L 272.451992 144.694567 
L 272.512877 144.779066 
L 272.573762 145.097268 
L 272.634647 144.701072 
L 272.695532 145.110219 
L 272.756417 144.998076 
L 272.878187 144.830058 
L 272.939071 145.016422 
L 272.999956 144.669206 
L 273.060841 145.070518 
L 273.121726 145.060654 
L 273.243496 144.57173 
L 273.365266 145.042682 
L 273.426151 144.747132 
L 273.608805 145.349978 
L 273.730575 145.74203 
L 273.91323 146.493455 
L 273.974115 146.360125 
L 274.15677 146.7629 
L 274.339424 146.236993 
L 274.461194 146.463559 
L 274.704734 145.589963 
L 274.887388 146.283934 
L 275.252698 143.887607 
L 275.313583 144.185125 
L 275.374468 144.104575 
L 275.496237 143.542324 
L 275.618007 143.118409 
L 275.678892 143.273446 
L 275.861547 144.363756 
L 275.922432 144.460743 
L 275.983317 144.316385 
L 276.105086 144.58373 
L 276.226856 144.301125 
L 276.531281 144.872851 
L 276.592166 144.704552 
L 276.713936 144.959349 
L 276.77482 144.921068 
L 276.835705 145.042331 
L 277.079245 144.03312 
L 277.201015 144.175225 
L 277.322785 144.221592 
L 277.444554 144.471192 
L 277.809864 143.944361 
L 277.931634 144.223015 
L 277.992519 143.987546 
L 278.053403 144.168447 
L 278.236058 144.360871 
L 278.479598 145.873906 
L 278.601368 145.680726 
L 278.662252 145.744432 
L 278.723137 146.16495 
L 278.784022 145.715091 
L 278.844907 146.078482 
L 278.905792 145.981625 
L 279.027562 146.654927 
L 279.088447 146.454392 
L 279.149332 146.604521 
L 279.210217 147.013833 
L 279.271101 146.907625 
L 279.392871 146.783903 
L 279.514641 147.110837 
L 279.575526 146.633735 
L 279.636411 146.700729 
L 279.819066 147.219018 
L 279.879951 147.198978 
L 279.940835 147.081438 
L 280.00172 147.124925 
L 280.062605 147.141822 
L 280.184375 147.030571 
L 280.24526 147.44418 
L 280.306145 147.119387 
L 280.36703 146.81606 
L 280.427915 147.31139 
L 280.4888 147.283546 
L 280.671454 147.697634 
L 280.975879 148.696342 
L 281.097649 149.011577 
L 281.462958 147.843706 
L 281.645613 148.986196 
L 281.706498 148.86392 
L 281.767383 148.974245 
L 282.010922 149.426103 
L 282.071807 149.356386 
L 282.193577 150.223289 
L 282.254462 150.147869 
L 282.315347 150.071645 
L 282.437117 150.437669 
L 282.680656 149.821566 
L 282.924196 148.803556 
L 283.22862 149.699211 
L 283.289505 150.321501 
L 283.35039 150.223104 
L 283.411275 150.225799 
L 283.47216 150.71159 
L 283.533045 150.685127 
L 283.7157 150.302805 
L 283.837469 151.240333 
L 283.898354 150.69156 
L 284.141894 150.119552 
L 284.202779 149.910456 
L 284.263664 150.309965 
L 284.568088 148.904032 
L 284.628973 149.055642 
L 284.689858 148.848869 
L 284.750743 149.260649 
L 284.811628 149.214066 
L 285.055167 148.868234 
L 285.237822 149.04441 
L 285.298707 148.936522 
L 285.359592 148.398419 
L 285.420477 148.612586 
L 285.481362 148.647572 
L 285.603132 149.123145 
L 285.664016 148.953655 
L 285.724901 149.574351 
L 285.785786 149.291097 
L 285.846671 149.246868 
L 285.968441 149.770359 
L 286.211981 149.053478 
L 286.33375 149.737126 
L 286.394635 149.443766 
L 286.516405 149.152009 
L 286.638175 149.257361 
L 286.69906 149.261493 
L 286.759945 149.0209 
L 286.82083 149.142575 
L 286.881715 149.187681 
L 287.125254 147.708352 
L 287.186139 147.113574 
L 287.368794 147.911076 
L 287.429679 147.359182 
L 287.490564 147.440587 
L 287.612333 147.538231 
L 287.794988 148.504619 
L 287.855873 148.396834 
L 287.916758 148.656827 
L 287.977643 148.599344 
L 288.038528 148.632555 
L 288.708262 150.882629 
L 288.830031 150.281568 
L 288.890916 150.77616 
L 288.951801 150.580334 
L 289.134456 150.842832 
L 289.256226 150.983803 
L 289.317111 150.811944 
L 289.377996 150.961897 
L 289.499765 151.165625 
L 289.56065 151.117571 
L 289.621535 151.150427 
L 289.743305 150.834874 
L 289.865075 151.074308 
L 289.986845 150.67502 
L 290.230384 151.174688 
L 290.352154 151.012886 
L 290.413039 151.271831 
L 290.473924 150.970091 
L 290.534809 151.330947 
L 290.595694 151.099198 
L 290.656579 151.176658 
L 290.717463 150.785827 
L 290.778348 151.004616 
L 290.839233 150.782965 
L 290.961003 151.476239 
L 291.021888 151.911021 
L 291.082773 151.697678 
L 291.387197 152.241894 
L 291.448082 151.966852 
L 291.508967 152.039039 
L 291.691622 152.407954 
L 291.752507 152.284285 
L 291.813392 152.368036 
L 291.996046 153.879807 
L 292.056931 153.763282 
L 292.117816 153.502498 
L 292.178701 153.675327 
L 292.300471 154.249948 
L 292.361356 154.106077 
L 292.544011 154.846835 
L 292.604896 154.783166 
L 292.848435 154.174285 
L 292.90932 154.106979 
L 292.970205 154.326459 
L 293.03109 154.152046 
L 293.091975 154.113924 
L 293.15286 154.364124 
L 293.274629 153.948343 
L 293.457284 154.424043 
L 293.579054 154.048683 
L 293.822594 152.755278 
L 294.005248 153.132197 
L 294.066133 152.919976 
L 294.127018 152.7418 
L 294.248788 152.027788 
L 294.370558 152.447605 
L 294.431443 152.461611 
L 294.674982 151.365362 
L 294.735867 151.471366 
L 294.796752 151.644911 
L 294.857637 151.51369 
L 294.979407 151.576875 
L 295.040292 151.298458 
L 295.101177 151.364644 
L 295.283831 151.874686 
L 295.588256 150.329452 
L 295.831795 150.977817 
L 295.953565 151.117994 
L 296.13622 150.214387 
L 296.25799 150.41389 
L 296.440644 150.191455 
L 296.501529 150.855079 
L 296.562414 150.599295 
L 296.684184 151.276264 
L 296.745069 151.125478 
L 296.866839 150.520188 
L 296.927724 150.58333 
L 297.110378 149.880865 
L 297.293033 150.85768 
L 297.353918 150.412365 
L 297.475688 149.98579 
L 297.536573 150.236211 
L 297.901882 151.216119 
L 297.962767 151.159971 
L 298.023652 151.379326 
L 298.145422 150.943438 
L 298.328077 151.333733 
L 298.388961 151.280458 
L 298.632501 150.342016 
L 298.815156 150.690598 
L 298.936926 150.217198 
L 298.99781 150.33837 
L 299.11958 150.567729 
L 299.302235 149.684671 
L 299.36312 149.915889 
L 299.424005 149.90934 
L 299.48489 149.491745 
L 299.545775 149.549789 
L 299.667544 149.743976 
L 299.728429 149.047165 
L 299.789314 149.226698 
L 299.850199 149.236505 
L 299.911084 149.101827 
L 299.971969 149.455317 
L 300.032854 149.365802 
L 300.093739 149.295195 
L 300.459048 150.472897 
L 300.519933 150.006605 
L 300.580818 150.276572 
L 300.702588 151.117502 
L 300.885243 150.286846 
L 301.007012 150.865711 
L 301.128782 150.866628 
L 301.311437 151.45783 
L 301.554976 151.637386 
L 301.920286 150.297201 
L 301.981171 150.374827 
L 302.042056 149.995239 
L 302.102941 150.379455 
L 302.163825 150.3116 
L 302.285595 149.843198 
L 302.34648 149.934509 
L 302.407365 150.325814 
L 302.46825 150.17191 
L 302.71179 149.482556 
L 302.894444 149.848334 
L 302.955329 149.364462 
L 303.016214 149.653707 
L 303.259754 149.14344 
L 303.320639 149.207881 
L 303.381524 148.683357 
L 303.442408 149.251444 
L 303.503293 148.887393 
L 303.625063 148.491651 
L 303.685948 148.617432 
L 303.746833 148.628707 
L 303.929488 148.227681 
L 303.990373 148.294943 
L 304.051258 148.192846 
L 304.112142 148.278086 
L 304.355682 147.979809 
L 304.416567 147.892245 
L 304.477452 147.96866 
L 304.538337 148.424741 
L 304.599222 148.315314 
L 304.720991 147.667208 
L 304.781876 147.826713 
L 304.964531 148.099882 
L 305.086301 147.346977 
L 305.329841 148.330176 
L 305.390725 148.48682 
L 305.45161 148.323065 
L 305.57338 148.551014 
L 305.69515 148.429963 
L 305.81692 148.928017 
L 305.877805 148.535129 
L 305.93869 148.731579 
L 305.999574 148.774794 
L 306.060459 148.998808 
L 306.243114 148.397751 
L 306.486654 149.152509 
L 306.730193 147.864549 
L 306.791078 147.836859 
L 306.973733 147.348115 
L 307.034618 147.427469 
L 307.095503 147.180753 
L 307.156388 147.818376 
L 307.217273 147.618966 
L 307.339042 147.48814 
L 307.521697 148.224367 
L 307.582582 147.928043 
L 307.643467 148.061171 
L 307.704352 148.115465 
L 307.826122 147.261888 
L 308.069661 148.153246 
L 308.252316 148.622426 
L 308.313201 148.900001 
L 308.374086 148.858804 
L 308.67851 147.563456 
L 308.739395 147.597261 
L 308.80028 147.284172 
L 308.861165 147.505904 
L 309.226474 148.3127 
L 309.287359 148.310297 
L 309.409129 148.669947 
L 309.470014 148.567907 
L 309.591784 148.911957 
L 309.713554 148.761053 
L 309.774439 148.562078 
L 309.835323 148.600335 
L 309.896208 148.710921 
L 309.957093 148.263791 
L 310.017978 148.525646 
L 310.139748 148.954348 
L 310.200633 148.844082 
L 310.261518 148.774314 
L 310.322403 149.025197 
L 310.383288 148.699838 
L 310.444172 148.941055 
L 310.626827 148.710076 
L 310.931252 147.030075 
L 310.992137 147.326957 
L 311.053022 147.768446 
L 311.113906 147.713234 
L 311.235676 147.692643 
L 311.418331 147.035178 
L 311.540101 147.451725 
L 311.661871 147.101928 
L 311.722755 147.612287 
L 311.78364 147.585699 
L 311.90541 147.26954 
L 311.966295 147.388963 
L 312.02718 147.54011 
L 312.209835 147.231588 
L 312.27072 147.083313 
L 312.392489 147.65414 
L 312.453374 147.454105 
L 312.514259 147.530641 
L 312.575144 147.559496 
L 312.636029 147.852899 
L 312.696914 147.574071 
L 312.818684 147.865407 
L 313.001338 147.367349 
L 313.123108 147.518201 
L 313.183993 147.543219 
L 313.244878 147.689102 
L 313.305763 147.579717 
L 313.488418 146.988122 
L 313.549303 147.077307 
L 313.792842 147.865029 
L 313.853727 147.789771 
L 313.975497 147.412932 
L 314.158152 147.894798 
L 314.279921 147.530312 
L 314.340806 147.644046 
L 314.401691 147.538496 
L 314.462576 146.942471 
L 314.645231 147.926704 
L 315.01054 146.694668 
L 315.13231 147.043401 
L 315.314965 146.932293 
L 315.37585 147.287371 
L 315.436735 146.800627 
L 315.49762 146.881972 
L 315.619389 146.748093 
L 315.680274 146.987471 
L 315.741159 146.848455 
L 316.045584 145.337393 
L 316.106469 145.769353 
L 316.167353 145.717998 
L 316.228238 145.400447 
L 316.289123 145.440406 
L 316.410893 145.708365 
L 316.471778 145.52593 
L 316.532663 145.828672 
L 316.593548 145.670214 
L 316.654433 145.685243 
L 316.776203 145.042279 
L 316.837087 145.163863 
L 316.897972 145.217656 
L 317.202397 143.617262 
L 317.263282 144.01822 
L 317.324167 143.775091 
L 317.445936 144.044797 
L 317.506821 143.855655 
L 317.567706 143.898364 
L 317.689476 144.259972 
L 317.750361 143.89951 
L 317.811246 143.986274 
L 317.872131 144.068002 
L 318.054786 143.299732 
L 318.298325 142.864601 
L 318.35921 142.909364 
L 318.420095 142.787955 
L 318.60275 143.409741 
L 318.663635 143.252588 
L 318.785404 142.869104 
L 318.907174 142.031328 
L 318.968059 142.622787 
L 319.028944 142.439051 
L 319.089829 141.687595 
L 319.150714 141.779245 
L 319.272484 142.127722 
L 319.455138 141.909826 
L 319.516023 142.011703 
L 319.576908 141.9413 
L 319.637793 141.960761 
L 319.820448 142.705926 
L 320.003102 142.462219 
L 320.063987 142.539798 
L 320.246642 143.322415 
L 320.551067 144.31855 
L 320.611951 143.598554 
L 320.672836 143.912786 
L 320.733721 143.656337 
L 320.794606 143.799702 
L 321.099031 144.524507 
L 321.159916 144.666191 
L 321.281685 144.035531 
L 321.34257 143.620254 
L 321.403455 143.842288 
L 321.46434 143.622147 
L 321.525225 143.815599 
L 321.58611 143.623234 
L 321.646995 143.774171 
L 321.70788 144.023434 
L 321.890534 143.12055 
L 321.951419 143.142818 
L 322.012304 143.4298 
L 322.073189 142.943429 
L 322.134074 142.951146 
L 322.316729 142.861226 
L 322.377614 142.931835 
L 322.682038 141.953125 
L 322.803808 141.237351 
L 322.864693 141.299366 
L 322.986463 141.870495 
L 323.047348 141.831514 
L 323.108233 141.831222 
L 323.412657 143.109023 
L 323.473542 142.688135 
L 323.534427 142.843615 
L 323.777967 144.153123 
L 323.838851 144.110025 
L 323.899736 144.561935 
L 323.960621 144.34022 
L 324.021506 144.517168 
L 324.143276 143.959573 
L 324.265046 144.591854 
L 324.4477 143.790204 
L 324.508585 143.895339 
L 324.56947 143.675915 
L 324.630355 143.748964 
L 324.752125 144.045147 
L 324.81301 143.415632 
L 324.873895 143.674276 
L 324.995665 143.238964 
L 325.178319 143.866895 
L 325.239204 143.872995 
L 325.421859 143.658671 
L 325.665399 144.606729 
L 325.726283 144.64275 
L 326.030708 143.324274 
L 326.091593 143.699887 
L 326.152478 143.321765 
L 326.213363 143.484077 
L 326.335132 143.957632 
L 326.396017 143.79227 
L 326.456902 143.747573 
L 326.517787 143.868626 
L 326.578672 143.656866 
L 326.639557 144.076354 
L 326.700442 143.856651 
L 326.883097 142.909666 
L 326.943982 143.069731 
L 327.004866 143.3129 
L 327.065751 143.04602 
L 327.126636 143.254454 
L 327.187521 143.188264 
L 327.248406 143.261642 
L 327.309291 143.620115 
L 327.370176 143.385836 
L 327.552831 142.566609 
L 327.613715 142.313329 
L 327.79637 143.010607 
L 327.857255 142.968318 
L 327.91814 143.058693 
L 327.979025 143.167799 
L 328.16168 142.676011 
L 328.344334 143.364894 
L 328.466104 143.041863 
L 328.587874 143.211823 
L 328.648759 143.760138 
L 328.709644 143.542114 
L 328.831414 143.23785 
L 328.892298 143.552382 
L 328.953183 143.469449 
L 329.196723 142.239387 
L 329.257608 142.71336 
L 329.318493 142.951101 
L 329.379378 142.177857 
L 329.440263 142.262838 
L 329.622917 142.842546 
L 329.927342 143.80386 
L 329.988227 143.805926 
L 330.049112 143.691176 
L 330.109997 143.898033 
L 330.170881 143.751341 
L 330.231766 143.842748 
L 330.353536 142.955256 
L 330.475306 143.207468 
L 330.597076 143.363065 
L 330.657961 143.124593 
L 330.718846 143.454371 
L 330.77973 143.308031 
L 330.840615 143.303783 
L 330.962385 142.723135 
L 331.02327 142.757724 
L 331.084155 142.350234 
L 331.14504 142.68607 
L 331.26681 143.036803 
L 331.327695 142.780264 
L 331.449464 143.573164 
L 331.571234 143.094487 
L 331.632119 143.439295 
L 331.693004 143.220215 
L 331.875659 142.497304 
L 331.997429 143.193696 
L 332.058313 142.952859 
L 332.180083 143.17264 
L 332.301853 142.596378 
L 332.362738 142.87308 
L 332.545393 142.450085 
L 332.606278 142.556966 
L 332.728047 141.689318 
L 332.788932 142.378817 
L 332.849817 141.902682 
L 333.093357 141.730305 
L 333.215127 142.161781 
L 333.276012 141.870956 
L 333.336896 142.009178 
L 333.702206 142.580581 
L 333.823976 141.841189 
L 333.884861 142.12518 
L 334.311055 140.261268 
L 334.432825 140.563697 
L 334.49371 140.381657 
L 334.554595 140.495642 
L 334.798134 141.154625 
L 334.919904 140.486361 
L 335.041674 140.953715 
L 335.163444 140.800046 
L 335.285213 140.895554 
L 335.467868 139.946049 
L 335.528753 140.007648 
L 335.772293 141.222271 
L 335.833178 140.965695 
L 336.259372 141.032659 
L 336.563796 140.475227 
L 336.624681 140.641197 
L 336.685566 140.760849 
L 336.746451 140.634626 
L 336.807336 140.223409 
L 336.868221 140.331751 
L 337.111761 141.021595 
L 337.172645 140.967802 
L 337.3553 141.29663 
L 337.416185 141.661386 
L 337.72061 139.909886 
L 337.781494 140.228154 
L 337.842379 139.643773 
L 337.903264 140.108803 
L 337.964149 139.812289 
L 338.146804 140.367673 
L 338.268574 140.777895 
L 338.451228 140.536175 
L 338.694768 140.831634 
L 338.755653 140.884915 
L 338.877423 140.338562 
L 338.938308 140.641811 
L 339.060077 141.200914 
L 339.120962 141.163713 
L 339.364502 140.19373 
L 339.425387 140.422128 
L 339.486272 140.251196 
L 339.608042 139.97579 
L 339.668927 140.302533 
L 339.790696 139.229524 
L 339.973351 137.979816 
L 340.216891 138.567241 
L 340.277776 138.478802 
L 340.46043 137.891457 
L 340.5822 137.821635 
L 341.008394 139.115374 
L 341.130164 139.70736 
L 341.251934 139.03832 
L 341.312819 139.180423 
L 341.373704 139.209906 
L 341.495474 138.263186 
L 341.799898 139.578665 
L 342.043438 139.913775 
L 342.165208 140.088379 
L 342.469632 140.788391 
L 342.591402 140.338226 
L 342.652287 140.415822 
L 342.713172 140.468672 
L 342.774057 140.230425 
L 342.956711 140.638622 
L 343.139366 140.932717 
L 343.443791 140.100026 
L 343.504675 140.480407 
L 343.56556 140.260726 
L 343.8091 141.095688 
L 344.05264 140.340407 
L 344.478834 141.672741 
L 344.539719 141.642532 
L 344.722374 142.329845 
L 344.783258 141.918789 
L 344.844143 141.972343 
L 344.965913 141.907149 
L 345.087683 142.248866 
L 345.209453 141.86506 
L 345.270338 141.909668 
L 345.392108 141.423544 
L 345.452992 141.542491 
L 345.513877 141.706884 
L 345.757417 140.869388 
L 345.818302 141.067903 
L 345.879187 141.225451 
L 345.940072 141.792606 
L 346.000957 141.537305 
L 346.061841 141.189253 
L 346.122726 141.35762 
L 346.183611 141.303091 
L 346.244496 141.090314 
L 346.305381 141.156146 
L 346.488036 141.991011 
L 346.548921 141.947856 
L 346.79246 141.609137 
L 346.853345 141.659371 
L 346.91423 141.861203 
L 346.975115 141.543862 
L 347.036 141.769055 
L 347.218655 141.614818 
L 347.27954 141.918403 
L 347.340424 141.815161 
L 347.401309 141.655175 
L 347.462194 140.87692 
L 347.523079 140.997986 
L 347.644849 140.98704 
L 347.705734 141.406404 
L 347.766619 141.177695 
L 347.827504 141.354693 
L 347.888389 141.20855 
L 348.010158 141.149011 
L 348.131928 140.779273 
L 348.314583 141.76736 
L 348.558123 140.379919 
L 348.619007 140.667812 
L 348.740777 140.284586 
L 348.923432 140.682275 
L 348.984317 140.465233 
L 349.045202 141.105245 
L 349.106087 140.776997 
L 349.227856 140.35672 
L 349.288741 140.38892 
L 349.471396 140.188346 
L 349.532281 140.396752 
L 349.593166 140.320667 
L 349.714936 139.338912 
L 349.836706 140.050886 
L 350.080245 139.245246 
L 350.14113 139.900336 
L 350.202015 139.505747 
L 350.38467 140.28381 
L 350.445555 140.861895 
L 350.506439 140.524447 
L 350.628209 139.521948 
L 350.689094 139.574928 
L 350.749979 139.2488 
L 350.810864 139.523222 
L 350.993519 138.609733 
L 351.115289 139.37976 
L 351.176173 138.929325 
L 351.358828 139.602873 
L 351.480598 140.081523 
L 351.541483 139.973789 
L 351.602368 140.003575 
L 351.785022 140.885079 
L 351.845907 140.482667 
L 351.906792 140.604806 
L 351.967677 140.693039 
L 352.272102 139.614355 
L 352.637411 141.008349 
L 352.698296 140.861702 
L 352.759181 140.932601 
L 352.820066 140.669296 
L 352.941836 141.341353 
L 353.002721 141.292583 
L 353.12449 141.582677 
L 353.24626 141.497635 
L 353.36803 141.858821 
L 353.428915 141.635997 
L 353.4898 141.725129 
L 353.550685 141.767302 
L 353.61157 141.54033 
L 353.672454 142.023467 
L 353.733339 141.686591 
L 353.794224 141.695711 
L 353.855109 142.036112 
L 353.976879 141.525726 
L 354.342188 142.363188 
L 354.403073 142.338253 
L 354.463958 141.799397 
L 354.524843 142.034435 
L 354.646613 141.412767 
L 354.707498 141.844513 
L 354.768383 141.710512 
L 354.890153 141.354508 
L 354.951037 141.810017 
L 355.011922 141.475111 
L 355.194577 141.959948 
L 355.255462 141.910036 
L 355.438117 142.293324 
L 355.620771 141.407274 
L 355.681656 141.635251 
L 355.925196 142.266401 
L 356.046966 141.49024 
L 356.168736 141.63112 
L 356.22962 141.885844 
L 356.35139 140.317491 
L 356.412275 140.537381 
L 356.534045 139.718182 
L 356.59493 139.939544 
L 356.7167 140.413747 
L 356.83847 140.219093 
L 357.021124 141.245696 
L 357.082009 141.204392 
L 357.142894 141.614818 
L 357.203779 141.321083 
L 357.447319 141.351212 
L 357.629973 141.616791 
L 357.690858 141.500716 
L 357.812628 141.02823 
L 357.934398 141.553567 
L 357.995283 141.45219 
L 358.177937 141.718193 
L 358.238822 141.692951 
L 358.299707 142.042 
L 358.360592 141.91819 
L 358.543247 141.749259 
L 358.604132 141.684009 
L 358.725902 140.978924 
L 358.908556 142.063558 
L 358.969441 141.847151 
L 359.030326 141.582887 
L 359.334751 142.772902 
L 359.45652 142.392618 
L 359.639175 143.067411 
L 359.9436 141.791707 
L 360.065369 141.708054 
L 360.187139 142.132422 
L 360.248024 141.884098 
L 360.308909 141.345231 
L 360.369794 141.675302 
L 360.491564 141.307157 
L 360.613334 142.03447 
L 360.674218 141.620141 
L 360.735103 141.705899 
L 360.978643 141.849846 
L 361.039528 142.345406 
L 361.100413 142.133387 
L 361.161298 141.470469 
L 361.222183 141.484933 
L 361.283068 141.378219 
L 361.343952 141.847405 
L 361.465722 141.188355 
L 361.526607 141.79027 
L 361.587492 141.339957 
L 361.648377 141.530634 
L 361.709262 141.363068 
L 361.770147 140.98193 
L 361.831032 140.99627 
L 362.013686 141.500938 
L 362.074571 141.475626 
L 362.135456 141.362299 
L 362.196341 141.469376 
L 362.318111 142.255112 
L 362.378996 141.937625 
L 362.439881 141.68975 
L 362.561651 142.285906 
L 362.622535 142.076282 
L 362.68342 142.238124 
L 362.866075 142.082673 
L 363.292269 140.570523 
L 363.474924 141.588707 
L 363.535809 141.554666 
L 363.657579 141.624947 
L 363.779349 141.400665 
L 364.022888 142.035524 
L 364.083773 142.06871 
L 364.266428 142.840067 
L 364.327313 142.793944 
L 364.449083 142.952204 
L 364.692622 142.569675 
L 364.875277 142.864794 
L 364.936162 143.399182 
L 364.997047 143.296062 
L 365.057932 143.273299 
L 365.179701 143.422359 
L 365.240586 143.314522 
L 365.423241 143.962149 
L 365.545011 143.745706 
L 365.666781 144.302578 
L 365.727666 144.195047 
L 365.78855 144.316611 
L 365.971205 143.108438 
L 366.092975 143.420952 
L 366.15386 143.47931 
L 366.336515 143.124371 
L 366.397399 143.24766 
L 366.458284 143.145989 
L 366.519169 142.719588 
L 366.580054 143.054572 
L 366.640939 143.266974 
L 366.701824 143.197144 
L 366.884479 142.331697 
L 367.006249 142.560817 
L 367.067133 142.529086 
L 367.188903 141.895551 
L 367.371558 142.271951 
L 367.432443 142.397568 
L 367.675982 143.719681 
L 367.919522 144.216752 
L 367.980407 144.068641 
L 368.041292 143.559131 
L 368.102177 143.688862 
L 368.163062 143.710772 
L 368.284832 143.106357 
L 368.406601 142.140842 
L 368.467486 142.178476 
L 368.650141 143.078044 
L 368.711026 143.067074 
L 368.954565 142.117267 
L 369.01545 142.342166 
L 369.076335 142.255563 
L 369.13722 142.272925 
L 369.25899 141.906131 
L 369.38076 142.568199 
L 369.563415 141.394705 
L 369.624299 141.201526 
L 369.867839 142.577161 
L 369.989609 142.156802 
L 370.050494 142.237791 
L 370.172264 142.114934 
L 370.294033 142.413293 
L 370.476688 142.073824 
L 370.598458 142.132253 
L 370.659343 142.171893 
L 370.781113 142.834693 
L 371.024652 142.178854 
L 371.146422 142.247054 
L 371.207307 142.093152 
L 371.329077 142.582614 
L 371.389962 142.313497 
L 371.450847 142.446832 
L 371.816156 140.851341 
L 371.877041 140.794503 
L 371.937926 140.925533 
L 371.998811 140.597538 
L 372.059696 140.824473 
L 372.303235 140.172266 
L 372.36412 140.656409 
L 372.425005 140.615105 
L 372.60766 139.763078 
L 372.790314 138.715314 
L 372.851199 138.625517 
L 372.972969 139.106968 
L 373.277394 138.765713 
L 373.399163 139.393469 
L 373.460048 139.350701 
L 373.581818 139.608922 
L 373.581818 139.608922 
" style="fill:none;stroke:#1f77b4;stroke-linecap:round;stroke-width:1.5;"/>
   </g>
   <g id="patch_3">
    <path d="M 54 252 
L 54 34.56 
" style="fill:none;stroke:#cccccc;stroke-linecap:square;stroke-linejoin:miter;stroke-width:0.8;"/>
   </g>
   <g id="patch_4">
    <path d="M 388.8 252 
L 388.8 34.56 
" style="fill:none;stroke:#cccccc;stroke-linecap:square;stroke-linejoin:miter;stroke-width:0.8;"/>
   </g>
   <g id="patch_5">
    <path d="M 54 252 
L 388.8 252 
" style="fill:none;stroke:#cccccc;stroke-linecap:square;stroke-linejoin:miter;stroke-width:0.8;"/>
   </g>
   <g id="patch_6">
    <path d="M 54 34.56 
L 388.8 34.56 
" style="fill:none;stroke:#cccccc;stroke-linecap:square;stroke-linejoin:miter;stroke-width:0.8;"/>
   </g>
  </g>
 </g>
 <defs>
  <clipPath id="p400f699695">
   <rect height="217.44" width="334.8" x="54" y="34.56"/>
  </clipPath>
 </defs>
</svg>
